<svg width="185" height="62" viewBox="0 0 185 62" fill="none" xmlns="http://www.w3.org/2000/svg">
<rect x="0.466797" y="5.72217" width="184" height="56" rx="8" fill="url(#paint0_linear_14094_65)"/>
<mask id="mask0_14094_65" style="mask-type:alpha" maskUnits="userSpaceOnUse" x="7" y="-4" width="63" height="66">
<rect x="7.06445" y="-3.27783" width="62.5667" height="65" fill="#D9D9D9"/>
</mask>
<g mask="url(#mask0_14094_65)">
<path d="M37.4298 51.3945C37.4298 52.9141 36.1974 54.1439 34.6804 54.1439H25.4795C20.6257 54.1439 16.6936 50.2092 16.6936 45.358V21.4469C16.6936 13.9744 22.751 7.91699 30.2236 7.91699H34.6778C36.1974 7.91699 37.4272 9.14936 37.4272 10.6663V51.3945H37.4298Z" fill="#C45120"/>
<path d="M35.6466 11.7526H31.1924C29.9287 11.7526 28.7067 11.9093 27.5475 12.1965C24.3256 14.3818 22.2446 17.8178 22.2446 21.6847V46.943C22.2446 51.2302 26.1793 54.708 31.0305 54.708H38.3568C38.3829 54.5748 38.3986 38.7759 38.3986 38.6376V14.1808C38.3986 12.8388 37.1662 11.75 35.6493 11.75L35.6466 11.7526Z" fill="#993116"/>
<path d="M41.1401 39.8569C42.3098 40.387 50.9312 40.481 55.9964 48.7786C61.0617 57.0762 63.0721 63.4286 63.0721 63.4286L57.4769 73.7732C57.4769 73.7732 51.4821 72.8933 46.2054 56.8046L41.8373 40.883" fill="#9F9AA5"/>
<path d="M53.0768 81.7468L54.2131 84.9165L23.772 85.5249L23.7929 81.7468L23.8033 79.6058L23.7589 79.0654L22.7981 67.5876L22.537 64.4832L21.4822 51.8619C21.4822 48.7183 23.678 44.9533 26.4665 42.4233C27.4978 41.4886 28.6075 40.7236 29.7197 40.2197C30.6492 39.7967 31.5813 39.5591 32.4664 39.5591L32.8764 39.6009L37.7249 40.1048L38.4116 40.1753L43.6831 40.7236C46.3933 41.2797 52.6595 44.7314 53.0564 49.7392L53.2078 52.6426C53.2078 52.6426 56.3123 54.7463 58.3044 57.9656C58.3044 64.4832 56.9332 78.0419 53.0768 81.7468Z" fill="#9F9AA5"/>
<path d="M29.4089 72.3081L27.0617 55.0889L20.2393 77.3498L23.7954 80.2114C24.7928 80.6344 25.8424 80.7571 26.8554 80.6214L27.7014 81.0887C27.7014 81.0887 27.7249 81.1096 27.7379 81.1174C27.7692 81.1331 27.798 81.1488 27.8293 81.1618L27.9624 81.2349L29.4063 72.3081H29.4089Z" fill="#615C68"/>
<path d="M39.0512 39.2978L38.2262 39.7991L37.7249 40.1046L34.0643 42.3343C34.9938 42.7886 34.1818 43.679 33.1218 44.6894C32.2654 45.504 31.0304 49.7755 30.6362 50.5823L22.2367 65.6397L21.3412 66.9713L22.7981 67.5901L27.9782 69.7911C31.0461 71.094 32.4325 74.7414 31.0748 77.9373L31.0252 78.0547C29.7824 80.9816 26.6675 82.5169 23.7929 81.7492C23.5318 81.6814 23.2707 81.5926 23.0122 81.4829L10.0697 75.9843C7.00183 74.6814 5.61802 71.0365 6.97572 67.8381L7.02532 67.7232C7.33342 66.9974 8.32819 64.9191 8.83471 64.3786L17.4482 49.1672C19.1584 46.2795 21.3333 44.2142 23.6962 42.7495C25.6257 41.5484 27.6832 40.7495 29.7197 40.2221C30.785 39.9479 31.845 39.7469 32.8763 39.6033C34.6988 39.35 36.4351 39.2769 37.9729 39.2847C38.3463 39.2847 38.704 39.2926 39.0512 39.3004V39.2978Z" fill="#9F9AA5"/>
<path d="M41.2105 47.405L36.6805 47.3554C36.6805 47.3554 35.2654 45.9846 33.1218 44.6896C31.2942 43.5825 28.9312 42.5277 26.4665 42.4233C25.5501 42.3841 24.6206 42.4781 23.6963 42.747C25.6258 41.546 27.6832 40.747 29.7198 40.2196C30.6493 39.7967 31.5814 39.5591 32.4665 39.5591L32.8764 39.6008C34.6988 39.3476 36.4351 39.2745 37.973 39.2823L38.2262 39.7993L38.4116 40.1752L39.8163 43.0525L41.2105 47.405Z" fill="#615C68"/>
<path d="M34.4402 34.2432L32.978 40.3241C32.978 40.3241 44.2025 52.3553 44.85 49.7104C45.9962 45.0421 45.2913 42.8619 42.7874 41.7705L43.7482 37.2928L34.4402 34.2432Z" fill="#F58D6C"/>
<path d="M44.6126 50.4102C44.1035 50.5251 41.4247 50.1752 38.2341 47.7627C37.9364 47.5381 37.6362 47.2953 37.3307 47.0342C37.3255 47.029 37.3202 47.0264 37.315 47.0212C37.1766 47.1517 36.9234 47.3475 36.6806 47.3554C36.3176 47.3658 31.49 44.5486 30.9443 39.6322C30.9365 39.5695 30.9678 39.5069 31.02 39.4729L33.3464 37.687C33.443 37.6244 33.5683 37.6766 33.5944 37.7889C33.7902 38.6139 34.5213 41.9925 38.9364 44.6687C38.9364 44.6713 38.9417 44.6739 38.9443 44.6739C39.0722 44.7836 39.2106 44.9011 39.3568 45.0238C40.3829 45.8854 41.7589 47.0473 42.6623 47.8097L44.751 50.1517C44.8267 50.264 44.7458 50.3815 44.6126 50.4102Z" fill="white"/>
<path d="M44.3907 50.4391C44.3907 50.4391 44.9494 49.1806 44.8476 47.1362C44.6779 43.6846 43.2262 42.3869 42.8032 41.7316L43.3515 39.1807C43.3515 39.1807 46.0225 41.8882 47.6726 45.6402C47.7431 45.7994 47.529 45.9482 47.3724 45.8673L46.5003 45.4469C46.2706 45.3373 46.0069 45.5096 46.0199 45.7655C46.0774 47.0448 46.2105 50.4469 44.3881 50.4391H44.3907Z" fill="white"/>
<path d="M54.6699 18.3606C53.2522 29.0837 37.61 38.9296 39.6204 37.9531C39.6204 37.9531 28.127 32.5563 24.9129 22.9167C21.55 12.8227 27.1244 1.18835 39.9938 1.38678C52.7587 1.58521 55.9989 8.30319 54.6699 18.358V18.3606Z" fill="#C45120"/>
<path d="M24.3567 12.3216C22.3384 12.3712 21.2575 15.8098 20.2758 15.4652C19.4585 15.1806 20.5055 13.4234 20.2758 12.272C19.4377 13.1362 18.7614 14.2041 18.2053 15.285C18.127 15.9795 17.9886 16.9064 17.9677 17.9691C17.9233 20.3503 20.1792 20.9168 22.2888 16.4312C24.4141 11.9143 24.3541 20.9221 24.3541 20.9221C24.3541 20.9221 26.3723 12.2746 24.3541 12.3216H24.3567Z" fill="#D6682B"/>
<path d="M53.9311 20.3214C54.2549 29.1777 54.4977 38.1254 42.3124 38.3239C31.9469 38.4936 26.4692 29.2012 26.1454 20.3475C25.8217 11.4911 30.242 7.02902 41.1636 6.11519C51.55 5.24574 53.6074 11.4676 53.9311 20.3214Z" fill="#F58D6C"/>
<path d="M55.0329 21.4076C55.1425 30.9846 53.0198 37.4598 44.8502 37.6425C35.8685 37.841 30.1348 29.901 30.6361 21.6922C31.1453 13.3502 34.1165 7.28499 43.4037 6.12834C52.3436 5.01346 54.9363 13.0526 55.0355 21.4076H55.0329Z" fill="#FFB287"/>
<path d="M25.4534 23.9664C25.4534 23.9664 28.8894 20.4103 29.785 22.2301C30.5421 23.7679 31.8763 23.4625 32.0513 21.439C32.1818 19.9168 32.9886 18.6009 34.1896 18.0369C37.6779 16.3946 39.6491 14.1205 42.0329 8.95079C42.8006 7.29023 44.8737 6.03436 47.2992 6.03436C47.2992 6.03436 21.973 -4.03086 25.4508 23.9664H25.4534Z" fill="#C45120"/>
<path d="M42.6021 21.4599C42.6308 22.3476 42.3019 23.0813 41.8658 23.0943C41.4298 23.11 41.0512 22.3998 41.0225 21.5121C40.9938 20.6243 41.3228 19.8907 41.7588 19.8776C42.1948 19.8646 42.5734 20.5721 42.6021 21.4599Z" fill="#3A2416"/>
<path d="M52.4403 21.4599C52.469 22.3477 52.14 23.0813 51.704 23.0944C51.2679 23.1074 50.8894 22.3999 50.8606 21.5121C50.8319 20.6244 51.1609 19.8908 51.5969 19.8777C52.0329 19.862 52.4115 20.5722 52.4403 21.4599Z" fill="#3A2416"/>
<path d="M38.2967 6.11532C35.1087 10.2015 32.5682 10.9351 32.5682 7.23281C32.5682 4.08922 31.9651 3.85946 30.3385 4.11011C28.7458 5.50697 27.5134 7.36335 26.6675 9.48606C27.7119 8.64272 29.2053 8.05526 29.3019 10.003C29.4194 12.3581 29.8659 15.5696 33.093 13.6975C35.9207 12.0578 39.2314 7.54612 40.3045 7.86205C41.106 8.09703 41.0382 9.54872 41.1008 10.8568C41.3724 10.3398 41.9912 9.26152 42.0329 8.9482C42.012 6.76545 41.6178 1.85686 38.2967 6.11271V6.11532Z" fill="#D6682B"/>
<path d="M24.8241 25.7234C24.8241 25.7234 24.8163 25.6999 24.798 25.6581C24.7875 25.632 24.7745 25.6007 24.7588 25.5641C24.7458 25.5302 24.7327 25.4937 24.717 25.4519C24.6518 25.2822 24.5682 25.0393 24.469 24.7339C24.2732 24.1229 24.033 23.2535 23.8398 22.196C23.7405 21.6686 23.6544 21.0942 23.5891 20.4858C23.5212 19.8775 23.4821 19.2326 23.4664 18.5694C23.4586 17.9036 23.4716 17.2169 23.5343 16.5224C23.5839 15.8279 23.6935 15.1282 23.8215 14.4363C23.8946 14.0916 23.9703 13.7496 24.0565 13.4102C24.1557 13.0734 24.234 12.7365 24.3515 12.4102C24.4638 12.0838 24.5656 11.76 24.6988 11.4493C24.8241 11.136 24.9442 10.8279 25.0904 10.5381C25.2288 10.2431 25.3619 9.95327 25.5186 9.68173C25.67 9.40758 25.8058 9.13866 25.9703 8.89062C26.1296 8.64257 26.2706 8.39192 26.4324 8.16738C26.5917 7.94284 26.7484 7.72352 26.8972 7.51464C27.0512 7.30838 27.2105 7.123 27.3541 6.94023C27.5003 6.76008 27.6361 6.58776 27.7797 6.43632C28.0617 6.13345 28.2914 5.85669 28.5081 5.65565C28.9311 5.24573 29.1739 5.01074 29.1739 5.01074C29.1739 5.01074 28.9703 5.27706 28.6152 5.74703C28.4324 5.97418 28.247 6.28228 28.0173 6.61648C27.8998 6.78097 27.7927 6.97157 27.6779 7.16739C27.5656 7.36582 27.4377 7.56686 27.3202 7.78618C27.2079 8.00811 27.0904 8.23788 26.9703 8.47808C26.8476 8.71568 26.751 8.97416 26.6335 9.23265C26.5134 9.48852 26.422 9.76528 26.3202 10.042C26.2131 10.3162 26.1296 10.606 26.0408 10.901C25.9468 11.1909 25.8789 11.4937 25.8058 11.7992C25.7249 12.1021 25.6805 12.4154 25.6204 12.7287C25.5578 13.0394 25.5343 13.3632 25.4899 13.6791C25.4586 13.9976 25.4377 14.3188 25.4168 14.6399C25.3959 15.2822 25.3907 15.9219 25.4403 16.5485C25.4768 17.1752 25.5604 17.7887 25.6544 18.3762C25.7588 18.9637 25.8763 19.5276 26.0173 20.0524C26.1557 20.5798 26.3071 21.0707 26.4638 21.5172C26.7719 22.4101 27.093 23.1255 27.3306 23.6059C27.4481 23.8461 27.5473 24.0289 27.6126 24.1438C27.6283 24.1725 27.6439 24.1986 27.6544 24.2195C27.6648 24.2352 27.6726 24.2508 27.6805 24.2613C27.6988 24.29 27.7066 24.3057 27.7066 24.3057L24.8241 25.7286V25.7234Z" fill="#A53D19"/>
<path d="M31.0826 23.2275C31.7301 25.3346 31.4429 27.4573 29.7379 28.238C27.9338 29.063 25.2497 27.4312 24.6048 25.3241C23.9573 23.2171 24.5839 21.0474 26.4795 20.4652C28.375 19.8829 30.4377 21.1205 31.0826 23.2275Z" fill="#FFB287"/>
<path d="M39.6438 17.1989C40.6543 15.9038 42.2052 15.661 43.4819 16.7524C43.8448 17.0605 44.3723 16.5383 44.0067 16.2276C42.4532 14.9012 40.401 15.0291 39.119 16.674C38.8292 17.0474 39.3514 17.5774 39.6438 17.1989Z" fill="#A53D19"/>
<path d="M47.2156 28.0916C47.6386 28.0211 48.0668 27.794 48.3853 27.512C49.072 26.901 49.1582 25.9976 48.9571 25.1438C48.8187 24.559 47.9179 24.807 48.0563 25.3919C48.2678 26.2848 47.8762 27.0394 46.9676 27.1908C46.3749 27.29 46.6281 28.1908 47.2156 28.0916Z" fill="#F58D6C"/>
<path d="M49.9702 17.1128C50.8657 15.8439 52.2861 15.8622 53.3801 16.8831C53.7117 17.1938 54.2104 16.6951 53.8788 16.3844C53.0276 15.588 51.9571 15.0894 50.8109 15.5698C50.2339 15.81 49.7195 16.246 49.3592 16.7578C49.0981 17.1285 49.7091 17.481 49.9676 17.1128H49.9702Z" fill="#A53D19"/>
<path d="M27.2078 23.8019C27.5812 25.8202 28.6987 27.7993 29.9781 29.3685C33.0903 33.1857 37.871 34.6556 42.6594 34.6739C43.1216 34.6739 43.1216 33.9585 42.6594 33.9559C37.9571 33.9376 33.2887 32.4755 30.3201 28.6531C29.2 27.2118 28.2339 25.4285 27.8971 23.6113C27.8136 23.157 27.1217 23.3502 27.2052 23.8019H27.2078Z" fill="#0A366F"/>
<path d="M43.1007 36.3945C41.6986 36.3945 40.5576 35.5825 40.5576 34.5825C40.5576 33.5825 41.6986 32.7705 43.1007 32.7705C44.5028 32.7705 45.6438 33.5851 45.6438 34.5825C45.6438 35.5799 44.5028 36.3945 43.1007 36.3945Z" fill="#0A366F"/>
<path d="M43.1009 32.8983C44.4324 32.8983 45.5134 33.6503 45.5134 34.5798C45.5134 35.5093 44.4324 36.2612 43.1009 36.2612C41.7693 36.2612 40.6883 35.5093 40.6883 34.5798C40.6883 33.6503 41.7693 32.8983 43.1009 32.8983ZM43.1009 32.6372C41.6257 32.6372 40.4272 33.5093 40.4272 34.5798C40.4272 35.6502 41.6257 36.5223 43.1009 36.5223C44.576 36.5223 45.7745 35.6502 45.7745 34.5798C45.7745 33.5093 44.576 32.6372 43.1009 32.6372Z" fill="#0A366F"/>
<path d="M27.4771 18.4833C27.0254 15.8724 27.2944 12.7314 28.1586 10.1439C30.0306 4.53301 35.2238 2.01344 40.8896 1.8829C43.8869 1.8124 47.9496 2.22232 49.819 4.88288C50.1715 5.38418 51.0018 4.90638 50.6467 4.39985C48.7485 1.69752 45.0749 1.03695 41.981 0.932511C39.1455 0.835906 36.2003 1.26671 33.6233 2.48603C28.7957 4.77322 26.5868 9.76797 26.3622 14.8828C26.3074 16.1622 26.3387 17.4729 26.5555 18.7392C26.6599 19.3449 27.5842 19.0891 27.4797 18.4833H27.4771Z" fill="#0A366F" stroke="#0A366F" stroke-miterlimit="10"/>
<path d="M28.0016 28.9324C25.67 28.9324 23.6178 26.9168 23.2314 24.2458C23.0251 22.8306 23.3071 21.4312 24.0225 20.3032C24.7431 19.1701 25.8162 18.4469 27.0434 18.2693C27.234 18.2406 27.4272 18.2275 27.6126 18.2275C29.7118 18.2275 31.2757 20.0265 31.6961 22.9194C32.0851 25.6087 31.2757 28.499 28.5839 28.888C28.3906 28.9168 28.1974 28.9298 28.0042 28.9298L28.0016 28.9324Z" fill="#0A366F"/>
<path d="M27.6099 18.3607C29.7613 18.3607 31.1791 20.298 31.5629 22.9403C31.978 25.8019 31.0224 28.405 28.5629 28.7627C28.3749 28.7888 28.1869 28.8045 28.0015 28.8045C25.7587 28.8045 23.7431 26.8698 23.3593 24.2275C22.9441 21.3659 24.6021 18.7576 27.0616 18.3999C27.2496 18.3738 27.4323 18.3581 27.6099 18.3581M27.6099 18.0996C27.4193 18.0996 27.2209 18.1153 27.0224 18.144C25.7561 18.3268 24.6517 19.0709 23.9102 20.2354C23.1765 21.3894 22.8893 22.8202 23.0982 24.2667C23.495 27.003 25.6021 29.0656 27.9989 29.0656C28.1974 29.0656 28.401 29.0499 28.5994 29.0212C29.8501 28.8411 30.8109 28.1074 31.3775 26.9011C31.8814 25.8254 32.0407 24.4077 31.8214 22.9038C31.3905 19.9403 29.777 18.0996 27.6099 18.0996Z" fill="#0A366F"/>
<path d="M30.0618 23.0524C30.4012 25.3944 29.5631 27.5328 27.5787 27.82C25.5944 28.1072 23.7093 26.4414 23.3699 24.0994C23.0305 21.7574 24.3647 19.6242 26.349 19.337C28.3333 19.0498 29.7223 20.7078 30.0618 23.0498V23.0524Z" fill="#CEC4C4"/>
<path d="M43.5003 31.3034C45.3776 33.1598 48.0094 33.3504 49.8032 31.3034C50.0381 31.0371 49.6465 30.6428 49.4115 30.9118C47.8162 32.7342 45.5447 32.5462 43.8946 30.9118C43.6413 30.6611 43.2471 31.0528 43.5029 31.3034H43.5003Z" fill="#E56745" stroke="#E56745" stroke-miterlimit="10"/>
<path d="M41.2522 1.99526C41.2522 1.99526 49.9702 0.864718 53.5994 7.66102L41.7953 3.31379L41.2522 1.99787V1.99526Z" fill="#C45120"/>
<path d="M39.3645 45.0055L39.3567 45.0237L38.234 47.7626C37.9363 47.5381 37.636 47.2953 37.3306 47.0342C37.3306 47.0289 37.3306 47.0211 37.3306 47.0133L38.9415 44.6739L38.952 44.6582C39.0799 44.7679 39.2183 44.8827 39.3619 45.0055H39.3645Z" fill="#A7CED8"/>
<path d="M27.1322 20.7657C27.1844 20.7788 27.2366 20.8023 27.2888 20.8205C27.127 20.7683 27.2784 20.8179 27.3489 20.8545C27.4246 20.8936 27.4977 20.9354 27.5682 20.9824C27.6909 21.0581 27.8084 21.1574 27.952 21.314C28.1113 21.4889 28.2392 21.7004 28.3254 21.9224C28.4533 22.2513 28.764 22.4785 29.1296 22.3793C29.4429 22.2931 29.7144 21.9067 29.5865 21.5751C29.2262 20.6404 28.4873 19.7762 27.482 19.5098C26.67 19.2931 26.3228 20.5516 27.1348 20.7683L27.1322 20.7657Z" fill="#EDEDED"/>
</g>
<path d="M69.846 26.2322C69.822 26.3402 69.804 26.4782 69.792 26.6462C69.78 26.8022 69.762 26.9702 69.738 27.1502C69.726 27.3182 69.714 27.4742 69.702 27.6182C69.69 27.9302 69.672 28.3022 69.648 28.7342C69.636 29.1542 69.618 29.6162 69.594 30.1202C69.582 30.6122 69.57 31.1102 69.558 31.6142C69.558 32.1062 69.558 32.5802 69.558 33.0362C69.558 33.5042 69.564 34.0262 69.576 34.6022C69.588 35.1782 69.6 35.7482 69.612 36.3122C69.624 36.8642 69.636 37.3802 69.648 37.8602C69.66 38.3282 69.666 38.7002 69.666 38.9762C69.666 39.6122 69.588 40.1102 69.432 40.4702C69.288 40.8302 69.084 41.0822 68.82 41.2262C68.568 41.3702 68.262 41.4422 67.902 41.4422C67.518 41.4422 67.098 41.3582 66.642 41.1902C66.186 41.0222 65.754 40.7942 65.346 40.5062C64.938 40.2182 64.602 39.8822 64.338 39.4982C64.074 39.1142 63.942 38.7062 63.942 38.2742C63.942 37.7222 64.152 37.1762 64.572 36.6362C65.004 36.0842 65.568 35.5802 66.264 35.1242C66.96 34.6682 67.698 34.2962 68.478 34.0082C69.294 33.7082 70.128 33.4802 70.98 33.3242C71.832 33.1682 72.606 33.0902 73.302 33.0902C74.202 33.0902 75.006 33.2402 75.714 33.5402C76.422 33.8402 76.98 34.2722 77.388 34.8362C77.796 35.4002 78 36.0662 78 36.8342C78 37.5422 77.856 38.1782 77.568 38.7422C77.292 39.3062 76.866 39.7862 76.29 40.1822C75.714 40.5782 74.988 40.8842 74.112 41.1002C73.704 41.1842 73.302 41.2442 72.906 41.2802C72.522 41.3162 72.162 41.3462 71.826 41.3702L71.178 39.5342C71.538 39.5462 71.904 39.5462 72.276 39.5342C72.648 39.5222 73.002 39.4802 73.338 39.4082C73.842 39.3122 74.31 39.1622 74.742 38.9582C75.174 38.7422 75.516 38.4602 75.768 38.1122C76.032 37.7522 76.164 37.3202 76.164 36.8162C76.164 36.3482 76.038 35.9582 75.786 35.6462C75.534 35.3222 75.192 35.0762 74.76 34.9082C74.328 34.7402 73.836 34.6562 73.284 34.6562C72.504 34.6562 71.73 34.7402 70.962 34.9082C70.194 35.0642 69.438 35.2862 68.694 35.5742C68.142 35.7902 67.638 36.0482 67.182 36.3482C66.726 36.6482 66.366 36.9602 66.102 37.2842C65.838 37.5962 65.706 37.8962 65.706 38.1842C65.706 38.3642 65.766 38.5382 65.886 38.7062C66.006 38.8622 66.15 39.0002 66.318 39.1202C66.498 39.2402 66.684 39.3362 66.876 39.4082C67.068 39.4802 67.242 39.5162 67.398 39.5162C67.578 39.5162 67.722 39.4562 67.83 39.3362C67.95 39.2042 68.01 38.9882 68.01 38.6882C68.01 38.3522 67.998 37.8782 67.974 37.2662C67.962 36.6542 67.95 35.9822 67.938 35.2502C67.926 34.5062 67.92 33.7922 67.92 33.1082C67.92 32.5922 67.92 32.0582 67.92 31.5062C67.932 30.9422 67.938 30.4022 67.938 29.8862C67.95 29.3702 67.956 28.9142 67.956 28.5182C67.968 28.1222 67.974 27.8342 67.974 27.6542C67.974 27.5222 67.968 27.3662 67.956 27.1862C67.944 27.0062 67.932 26.8322 67.92 26.6642C67.908 26.4842 67.89 26.3402 67.866 26.2322H69.846ZM75.228 28.2122C75.672 28.4282 76.164 28.6982 76.704 29.0222C77.256 29.3342 77.778 29.6522 78.27 29.9762C78.774 30.2882 79.176 30.5642 79.476 30.8042L78.594 32.2442C78.378 32.0402 78.09 31.8182 77.73 31.5782C77.382 31.3382 77.004 31.0922 76.596 30.8402C76.2 30.5882 75.81 30.3542 75.426 30.1382C75.054 29.9102 74.724 29.7242 74.436 29.5802L75.228 28.2122ZM64.32 29.3462C64.836 29.4062 65.28 29.4482 65.652 29.4722C66.024 29.4842 66.378 29.4902 66.714 29.4902C67.158 29.4902 67.662 29.4662 68.226 29.4182C68.79 29.3702 69.36 29.3102 69.936 29.2382C70.524 29.1662 71.094 29.0762 71.646 28.9682C72.21 28.8482 72.72 28.7222 73.176 28.5902L73.212 30.3542C72.732 30.4622 72.198 30.5642 71.61 30.6602C71.034 30.7562 70.446 30.8462 69.846 30.9302C69.258 31.0022 68.694 31.0622 68.154 31.1102C67.626 31.1462 67.158 31.1642 66.75 31.1642C66.21 31.1642 65.754 31.1582 65.382 31.1462C65.01 31.1222 64.674 31.0982 64.374 31.0742L64.32 29.3462ZM86.496 34.2422H92.616V39.6962H86.496V38.2742H91.014V35.6462H86.496V34.2422ZM85.758 34.2422H87.324V40.7402H85.758V34.2422ZM82.626 28.8782H87.414V30.0662H82.626V28.8782ZM90.96 28.8782H95.802V30.0662H90.96V28.8782ZM95.082 26.2682H96.792V40.0922C96.792 40.6082 96.726 41.0042 96.594 41.2802C96.474 41.5562 96.246 41.7722 95.91 41.9282C95.574 42.0722 95.13 42.1562 94.578 42.1802C94.026 42.2162 93.348 42.2342 92.544 42.2342C92.52 42.0662 92.472 41.8742 92.4 41.6582C92.34 41.4542 92.268 41.2442 92.184 41.0282C92.112 40.8242 92.034 40.6442 91.95 40.4882C92.322 40.5122 92.688 40.5242 93.048 40.5242C93.42 40.5242 93.744 40.5242 94.02 40.5242C94.308 40.5242 94.512 40.5242 94.632 40.5242C94.8 40.5122 94.914 40.4762 94.974 40.4162C95.046 40.3442 95.082 40.2302 95.082 40.0742V26.2682ZM82.77 26.2682H88.494V32.7842H82.77V31.4522H86.892V27.6002H82.77V26.2682ZM95.982 26.2682V27.5822H91.572V31.4702H95.982V32.7842H89.952V26.2682H95.982ZM81.816 26.2682H83.49V42.2522H81.816V26.2682ZM102.552 28.0322C102.516 28.2002 102.486 28.4042 102.462 28.6442C102.438 28.8842 102.414 29.1242 102.39 29.3642C102.378 29.6042 102.372 29.8082 102.372 29.9762C102.372 30.3482 102.372 30.7622 102.372 31.2182C102.384 31.6742 102.396 32.1422 102.408 32.6222C102.42 33.0902 102.45 33.5582 102.498 34.0262C102.594 34.9742 102.738 35.8022 102.93 36.5102C103.122 37.2182 103.368 37.7702 103.668 38.1662C103.968 38.5622 104.316 38.7602 104.712 38.7602C104.94 38.7602 105.156 38.6522 105.36 38.4362C105.564 38.2202 105.756 37.9322 105.936 37.5722C106.116 37.2122 106.278 36.8222 106.422 36.4022C106.578 35.9702 106.71 35.5562 106.818 35.1602L108.24 36.8342C107.856 37.8542 107.472 38.6702 107.088 39.2822C106.716 39.8822 106.332 40.3142 105.936 40.5782C105.54 40.8422 105.12 40.9742 104.676 40.9742C104.076 40.9742 103.5 40.7702 102.948 40.3622C102.408 39.9422 101.94 39.2582 101.544 38.3102C101.148 37.3622 100.866 36.0962 100.698 34.5122C100.638 33.9842 100.59 33.4142 100.554 32.8022C100.53 32.1902 100.512 31.6082 100.5 31.0562C100.5 30.5042 100.5 30.0482 100.5 29.6882C100.5 29.4602 100.488 29.1842 100.464 28.8602C100.452 28.5242 100.416 28.2362 100.356 27.9962L102.552 28.0322ZM111.768 28.4822C112.092 28.9022 112.404 29.3942 112.704 29.9582C113.016 30.5102 113.298 31.1102 113.55 31.7582C113.802 32.4062 114.024 33.0662 114.216 33.7382C114.42 34.4102 114.588 35.0762 114.72 35.7362C114.852 36.3962 114.942 37.0202 114.99 37.6082L113.136 38.3282C113.064 37.5482 112.944 36.7322 112.776 35.8802C112.608 35.0282 112.392 34.1882 112.128 33.3602C111.864 32.5202 111.552 31.7342 111.192 31.0022C110.844 30.2582 110.442 29.6162 109.986 29.0762L111.768 28.4822ZM120.732 31.3802H129.804V32.8922H120.732V31.3802ZM120.462 40.0382H129.948V41.5502H120.462V40.0382ZM119.688 34.9442H130.92V42.2522H129.174V36.4742H121.362V42.2522H119.688V34.9442ZM125.196 27.2402C124.704 27.9482 124.074 28.6862 123.306 29.4542C122.538 30.2102 121.686 30.9362 120.75 31.6322C119.814 32.3282 118.836 32.9522 117.816 33.5042C117.744 33.3722 117.648 33.2222 117.528 33.0542C117.408 32.8862 117.282 32.7242 117.15 32.5682C117.018 32.4002 116.886 32.2562 116.754 32.1362C117.798 31.6202 118.806 30.9962 119.778 30.2642C120.75 29.5202 121.62 28.7402 122.388 27.9242C123.168 27.1082 123.786 26.3222 124.242 25.5662H125.988C126.48 26.2382 127.026 26.8922 127.626 27.5282C128.238 28.1522 128.886 28.7462 129.57 29.3102C130.266 29.8622 130.974 30.3602 131.694 30.8042C132.426 31.2362 133.152 31.6082 133.872 31.9202C133.656 32.1362 133.452 32.3822 133.26 32.6582C133.068 32.9222 132.894 33.1802 132.738 33.4322C132.042 33.0602 131.334 32.6402 130.614 32.1722C129.894 31.6922 129.198 31.1762 128.526 30.6242C127.866 30.0722 127.248 29.5082 126.672 28.9322C126.096 28.3562 125.604 27.7922 125.196 27.2402ZM143.628 39.2642C144.396 39.1442 145.116 38.9702 145.788 38.7422C146.472 38.5022 147.072 38.1962 147.588 37.8242C148.116 37.4402 148.524 36.9722 148.812 36.4202C149.1 35.8562 149.238 35.2082 149.226 34.4762C149.226 34.1162 149.16 33.7622 149.028 33.4142C148.896 33.0662 148.692 32.7482 148.416 32.4602C148.14 32.1602 147.798 31.9262 147.39 31.7582C146.994 31.5782 146.526 31.4882 145.986 31.4882C144.846 31.4882 143.766 31.7822 142.746 32.3702C141.738 32.9462 140.796 33.6902 139.92 34.6022V32.6042C141.012 31.5842 142.104 30.8702 143.196 30.4622C144.3 30.0422 145.326 29.8322 146.274 29.8322C147.15 29.8322 147.954 30.0242 148.686 30.4082C149.418 30.7922 150 31.3382 150.432 32.0462C150.876 32.7422 151.098 33.5642 151.098 34.5122C151.11 35.4242 150.96 36.2342 150.648 36.9422C150.348 37.6502 149.91 38.2682 149.334 38.7962C148.77 39.3242 148.074 39.7682 147.246 40.1282C146.43 40.4882 145.5 40.7702 144.456 40.9742L143.628 39.2642ZM139.56 30.9482C139.392 30.9722 139.158 31.0022 138.858 31.0382C138.558 31.0742 138.228 31.1162 137.868 31.1642C137.508 31.2122 137.142 31.2662 136.77 31.3262C136.41 31.3742 136.068 31.4162 135.744 31.4522L135.564 29.6162C135.792 29.6282 136.008 29.6342 136.212 29.6342C136.416 29.6222 136.65 29.6102 136.914 29.5982C137.178 29.5742 137.496 29.5442 137.868 29.5082C138.252 29.4602 138.648 29.4122 139.056 29.3642C139.464 29.3042 139.842 29.2442 140.19 29.1842C140.55 29.1122 140.832 29.0402 141.036 28.9682L141.648 29.7242C141.552 29.8682 141.432 30.0482 141.288 30.2642C141.156 30.4682 141.018 30.6782 140.874 30.8942C140.742 31.1102 140.628 31.3022 140.532 31.4702L139.758 34.3322C139.554 34.6442 139.302 35.0162 139.002 35.4482C138.714 35.8802 138.408 36.3362 138.084 36.8162C137.76 37.2842 137.436 37.7522 137.112 38.2202C136.8 38.6762 136.512 39.0842 136.248 39.4442L135.132 37.8782C135.36 37.6022 135.624 37.2662 135.924 36.8702C136.224 36.4742 136.542 36.0542 136.878 35.6102C137.214 35.1542 137.538 34.7102 137.85 34.2782C138.174 33.8342 138.468 33.4202 138.732 33.0362C138.996 32.6522 139.206 32.3342 139.362 32.0822L139.416 31.3622L139.56 30.9482ZM139.362 27.7622C139.362 27.5342 139.356 27.2942 139.344 27.0422C139.344 26.7902 139.326 26.5442 139.29 26.3042L141.396 26.3762C141.336 26.6282 141.27 27.0122 141.198 27.5282C141.126 28.0442 141.048 28.6442 140.964 29.3282C140.892 30.0122 140.82 30.7322 140.748 31.4882C140.688 32.2442 140.64 32.9942 140.604 33.7382C140.568 34.4822 140.55 35.1722 140.55 35.8082C140.55 36.3242 140.55 36.8222 140.55 37.3022C140.55 37.7822 140.556 38.2622 140.568 38.7422C140.592 39.2222 140.616 39.7382 140.64 40.2902C140.652 40.4462 140.664 40.6382 140.676 40.8662C140.7 41.1062 140.718 41.3222 140.73 41.5142H138.786C138.798 41.3582 138.81 41.1542 138.822 40.9022C138.834 40.6622 138.84 40.4702 138.84 40.3262C138.84 39.7502 138.84 39.2282 138.84 38.7602C138.852 38.2802 138.858 37.7882 138.858 37.2842C138.87 36.7682 138.888 36.1622 138.912 35.4662C138.912 35.1902 138.924 34.8302 138.948 34.3862C138.972 33.9422 139.002 33.4502 139.038 32.9102C139.074 32.3702 139.11 31.8242 139.146 31.2722C139.182 30.7202 139.212 30.1982 139.236 29.7062C139.272 29.2142 139.302 28.7942 139.326 28.4462C139.35 28.0982 139.362 27.8702 139.362 27.7622ZM165.768 26.7362C165.756 26.8322 165.744 26.9642 165.732 27.1322C165.72 27.3002 165.708 27.4742 165.696 27.6542C165.684 27.8342 165.678 28.0022 165.678 28.1582C165.666 28.5302 165.66 28.9082 165.66 29.2922C165.66 29.6762 165.654 30.0482 165.642 30.4082C165.642 30.7562 165.636 31.0862 165.624 31.3982C165.612 31.8782 165.594 32.4002 165.57 32.9642C165.546 33.5282 165.516 34.0562 165.48 34.5482C165.444 35.0402 165.396 35.4422 165.336 35.7542C165.252 36.1862 165.096 36.4802 164.868 36.6362C164.64 36.7802 164.31 36.8522 163.878 36.8522C163.662 36.8522 163.386 36.8402 163.05 36.8162C162.726 36.7802 162.408 36.7442 162.096 36.7082C161.784 36.6602 161.538 36.6182 161.358 36.5822L161.394 35.0162C161.694 35.0762 162.006 35.1302 162.33 35.1782C162.666 35.2262 162.93 35.2502 163.122 35.2502C163.326 35.2502 163.476 35.2202 163.572 35.1602C163.68 35.1002 163.74 34.9742 163.752 34.7822C163.8 34.5542 163.83 34.2542 163.842 33.8822C163.866 33.5102 163.89 33.1082 163.914 32.6762C163.938 32.2322 163.95 31.8062 163.95 31.3982C163.962 31.0622 163.968 30.7202 163.968 30.3722C163.968 30.0122 163.968 29.6462 163.968 29.2742C163.968 28.9022 163.968 28.5482 163.968 28.2122C163.968 28.0682 163.956 27.9062 163.932 27.7262C163.92 27.5342 163.908 27.3482 163.896 27.1682C163.884 26.9882 163.866 26.8442 163.842 26.7362H165.768ZM158.658 27.2942C158.634 27.5342 158.61 27.7862 158.586 28.0502C158.574 28.3142 158.568 28.6082 158.568 28.9322C158.568 29.2802 158.562 29.7422 158.55 30.3182C158.55 30.8822 158.544 31.4942 158.532 32.1542C158.532 32.8022 158.532 33.4442 158.532 34.0802C158.532 34.7162 158.532 35.2862 158.532 35.7902C158.532 36.2942 158.538 36.6842 158.55 36.9602C158.562 37.4282 158.592 37.8182 158.64 38.1302C158.688 38.4422 158.808 38.6882 159 38.8682C159.192 39.0482 159.492 39.1802 159.9 39.2642C160.32 39.3482 160.89 39.3902 161.61 39.3902C162.234 39.3902 162.882 39.3722 163.554 39.3362C164.226 39.2882 164.862 39.2282 165.462 39.1562C166.062 39.0842 166.566 39.0122 166.974 38.9402L166.92 40.8662C166.524 40.9142 166.032 40.9562 165.444 40.9922C164.856 41.0402 164.238 41.0822 163.59 41.1182C162.942 41.1542 162.318 41.1722 161.718 41.1722C160.626 41.1722 159.756 41.1062 159.108 40.9742C158.46 40.8422 157.974 40.6262 157.65 40.3262C157.326 40.0142 157.11 39.6062 157.002 39.1022C156.894 38.5982 156.828 37.9742 156.804 37.2302C156.804 36.9662 156.798 36.6122 156.786 36.1682C156.786 35.7122 156.786 35.2022 156.786 34.6382C156.786 34.0622 156.786 33.4802 156.786 32.8922C156.786 32.3042 156.786 31.7462 156.786 31.2182C156.786 30.6902 156.786 30.2342 156.786 29.8502C156.786 29.4542 156.786 29.1782 156.786 29.0222C156.786 28.6982 156.774 28.4042 156.75 28.1402C156.738 27.8642 156.708 27.5822 156.66 27.2942H158.658ZM153.006 31.4882C153.27 31.4882 153.576 31.4822 153.924 31.4702C154.284 31.4462 154.656 31.4162 155.04 31.3802C155.424 31.3442 155.976 31.2902 156.696 31.2182C157.416 31.1462 158.232 31.0682 159.144 30.9842C160.068 30.9002 161.022 30.8162 162.006 30.7322C163.002 30.6362 163.962 30.5522 164.886 30.4802C165.81 30.4082 166.632 30.3482 167.352 30.3002C167.592 30.2882 167.85 30.2762 168.126 30.2642C168.402 30.2402 168.66 30.2162 168.9 30.1922V31.9562C168.804 31.9442 168.66 31.9442 168.468 31.9562C168.288 31.9562 168.09 31.9562 167.874 31.9562C167.67 31.9562 167.49 31.9622 167.334 31.9742C166.866 31.9742 166.29 31.9982 165.606 32.0462C164.922 32.0942 164.19 32.1542 163.41 32.2262C162.63 32.2862 161.832 32.3582 161.016 32.4422C160.2 32.5142 159.414 32.5922 158.658 32.6762C157.914 32.7482 157.236 32.8202 156.624 32.8922C156.012 32.9522 155.526 33.0062 155.166 33.0542C154.974 33.0782 154.752 33.1082 154.5 33.1442C154.26 33.1682 154.02 33.1982 153.78 33.2342C153.552 33.2702 153.36 33.3002 153.204 33.3242L153.006 31.4882Z" fill="white"/>
<defs>
<linearGradient id="paint0_linear_14094_65" x1="199.076" y1="49.7764" x2="19.1261" y2="0.906854" gradientUnits="userSpaceOnUse">
<stop offset="0.0137156" stop-color="#FB6C20"/>
<stop offset="0.0138156" stop-color="#FC5D19"/>
<stop offset="1" stop-color="#FF2200"/>
</linearGradient>
</defs>
</svg>
