<svg width="64" height="37" viewBox="0 0 64 37" fill="none" xmlns="http://www.w3.org/2000/svg">
<g clip-path="url(#clip0_14094_114)">
<path d="M55.4144 0.5H0V36.0534H55.4144V0.5Z" fill="#0A366F"/>
<path d="M57.0754 33.0939C57.0754 34.9706 58.6265 36.4999 60.5354 36.4999C62.4443 36.4999 63.9999 34.9706 63.9999 33.0939C63.9999 31.2172 62.4443 29.6924 60.5354 29.6924C58.6265 29.6924 57.0754 31.2172 57.0754 33.0939ZM57.4747 33.0939C57.4747 31.4337 58.8467 30.0804 60.5354 30.0804C62.2241 30.0804 63.5961 31.4337 63.5961 33.0939C63.5961 34.754 62.2241 36.1029 60.5354 36.1029C58.8467 36.1029 57.4747 34.7495 57.4747 33.0939Z" fill="#231815"/>
<path d="M62.2196 35.2956H61.5542L60.2097 33.252H59.6178V35.2956H59.0854V30.7979H60.3795C60.8154 30.7979 61.155 30.9016 61.4074 31.1091C61.6598 31.3166 61.7837 31.6054 61.7837 31.9753C61.7837 32.2505 61.6919 32.4941 61.5083 32.7061C61.3248 32.9182 61.0678 33.0625 60.7466 33.1392L62.2104 35.2956M59.6223 32.8009H60.2923C60.5722 32.8009 60.8017 32.7242 60.9806 32.5753C61.155 32.4219 61.2422 32.2369 61.2422 32.0069C61.2422 31.5061 60.9301 31.2535 60.3061 31.2535H59.6223V32.7963V32.8009Z" fill="#231815"/>
<path d="M13.9224 28.0774C10.8846 28.0774 7.10805 25.7947 7.10805 21.0804C7.10805 17.4217 10.7929 14.5029 13.9224 12.7526C17.052 14.4984 20.7322 17.4217 20.7322 21.0804C20.7322 25.7947 16.9602 28.0774 13.9224 28.0774ZM34.8015 21.0037C34.8015 17.345 38.4863 14.4217 41.6112 12.6759C44.7408 14.4217 48.421 17.345 48.421 21.0037C48.421 25.7135 44.649 28.0007 41.6112 28.0007C38.5735 28.0007 34.8015 25.718 34.8015 21.0037ZM55.4052 6.03076C49.7747 6.03076 44.7867 7.41121 41.3956 9.14354C38.009 7.41121 33.3285 6.03076 27.698 6.03076C22.0675 6.03076 17.387 7.41121 14.0004 9.14354C10.6139 7.41121 5.63046 6.03076 0 6.03076V9.14354C3.32688 9.14354 7.36502 9.75708 10.5359 11.1105C7.11264 13.3616 3.72611 16.7721 3.72611 21.0759C3.72611 26.7646 8.65448 31.1135 14.0004 31.1135C19.3464 31.1135 24.0361 26.7646 24.0361 21.0759C24.0361 16.7721 20.8882 13.3616 17.465 11.1105C20.6358 9.75708 24.3711 9.14354 27.7026 9.14354C31.0341 9.14354 34.7693 9.75708 37.9356 11.1105C34.5124 13.3616 31.3645 16.7721 31.3645 21.0759C31.3645 26.7646 36.0542 31.1135 41.4002 31.1135C46.7461 31.1135 51.5965 26.7646 51.5965 21.0759C51.5965 16.7721 48.2879 13.3616 44.8601 11.1105C48.031 9.75708 52.0783 9.14354 55.4052 9.14354V6.03076Z" fill="white"/>
</g>
<defs>
<clipPath id="clip0_14094_114">
<rect width="64" height="36" fill="white" transform="translate(0 0.5)"/>
</clipPath>
</defs>
</svg>
