<svg width="27" height="27" viewBox="0 0 27 27" fill="none" xmlns="http://www.w3.org/2000/svg">
<path fill-rule="evenodd" clip-rule="evenodd" d="M27 4.70845L12.3827 18L5 11.2869L6.67431 9.57842L12.3827 14.7691L25.3257 3L27 4.70845Z" fill="white"/>
<path d="M12.5 1C15.4111 1 18.0873 1.99834 20.2119 3.66699L17.9395 5.71289C16.3984 4.63443 14.5237 4 12.5 4C7.25329 4 3 8.25329 3 13.5C3 18.7467 7.25329 23 12.5 23C17.7467 23 22 18.7467 22 13.5C22 13.28 21.9893 13.062 21.9746 12.8457L24.626 10.458C24.8695 11.4319 25 12.4507 25 13.5C25 20.4036 19.4036 26 12.5 26C5.59644 26 0 20.4036 0 13.5C0 6.59644 5.59644 1 12.5 1Z" fill="white"/>
</svg>
