<svg width="46" height="46" viewBox="0 0 46 46" fill="none" xmlns="http://www.w3.org/2000/svg">
<path d="M41.9232 32.5586V38.1882C41.9253 38.7108 41.8183 39.2281 41.6089 39.7069C41.3996 40.1858 41.0925 40.6156 40.7074 40.9689C40.3223 41.3222 39.8676 41.5912 39.3725 41.7587C38.8775 41.9261 38.3529 41.9883 37.8324 41.9412C32.058 41.3138 26.5113 39.3406 21.6379 36.1803C17.1039 33.2992 13.2598 29.4551 10.3787 24.9211C7.20734 20.0256 5.23373 14.4519 4.61777 8.65157C4.57088 8.13264 4.63255 7.60964 4.79886 7.11586C4.96516 6.62208 5.23247 6.16833 5.58375 5.78352C5.93502 5.3987 6.36258 5.09124 6.83919 4.88072C7.3158 4.6702 7.83103 4.56122 8.35207 4.56073H13.9817C14.8924 4.55177 15.7752 4.87426 16.4657 5.46809C17.1563 6.06193 17.6073 6.88659 17.7347 7.78836C17.9723 9.58996 18.413 11.3589 19.0483 13.0614C19.3008 13.7331 19.3554 14.463 19.2058 15.1648C19.0561 15.8665 18.7084 16.5107 18.2039 17.0209L15.8207 19.4041C18.492 24.1021 22.3819 27.9919 27.0799 30.6633L29.463 28.2801C29.9733 27.7756 30.6174 27.4279 31.3192 27.2782C32.0209 27.1285 32.7509 27.1832 33.4225 27.4356C35.1251 28.0709 36.894 28.5116 38.6956 28.7492C39.6071 28.8778 40.4396 29.337 41.0347 30.0393C41.6299 30.7417 41.9461 31.6383 41.9232 32.5586Z" stroke="#0A366F" stroke-width="1.66842" stroke-linecap="round" stroke-linejoin="round"/>
</svg>
