<svg width="333" height="66" viewBox="0 0 333 66" fill="none" xmlns="http://www.w3.org/2000/svg">
<g filter="url(#filter0_dd_1_4284)">
<rect x="4" y="9.62305" width="324.629" height="47.6778" rx="4.05616" fill="url(#paint0_linear_1_4284)"/>
</g>
<path d="M106.967 29.4069C106.798 29.7059 106.551 30.2779 106.421 30.5769C106.031 31.6039 105.446 32.9169 104.679 34.1129C105.823 35.0489 106.915 36.0499 107.799 36.9859L106.46 38.4679C105.55 37.4019 104.614 36.4919 103.574 35.5949C102.43 36.9729 100.935 38.4159 98.7383 39.6119L97.2823 38.2989C99.4013 37.2719 100.935 36.0109 102.222 34.4639C101.286 33.7229 100.038 32.7999 98.7123 31.9939L99.8173 30.6679C100.857 31.3049 102.222 32.2409 103.275 33.0209C103.938 31.9809 104.38 30.9539 104.718 29.9269C104.835 29.5889 104.978 29.0689 105.03 28.7309L106.967 29.4069ZM110.369 32.9429C110.837 32.9819 111.786 33.0209 112.462 33.0209H119.443C120.054 33.0209 120.626 32.9689 120.964 32.9429V34.9839C120.652 34.9709 119.989 34.9189 119.443 34.9189H112.462C111.721 34.9189 110.85 34.9449 110.369 34.9839V32.9429ZM128.876 38.6759C128.928 38.4289 128.98 38.0649 128.98 37.7139V30.1349C128.98 29.5499 128.889 29.0559 128.876 29.0169H130.813C130.8 29.0559 130.722 29.5629 130.722 30.1479V36.9469C131.775 36.4919 133.062 35.4649 133.933 34.2039L134.934 35.6339C133.855 37.0379 131.983 38.4419 130.527 39.1829C130.241 39.3389 130.085 39.4689 129.968 39.5729L128.876 38.6759ZM122.857 38.4809C124.001 37.6749 124.703 36.4789 125.067 35.3739C125.431 34.2559 125.444 31.7989 125.444 30.2259C125.444 29.7059 125.405 29.3549 125.327 29.0299H127.238C127.225 29.0949 127.147 29.6669 127.147 30.2129C127.147 31.7469 127.108 34.4899 126.757 35.8029C126.367 37.2719 125.548 38.5459 124.443 39.5339L122.857 38.4809ZM136.398 30.0439C136.918 30.0309 137.425 30.0049 137.672 29.9789C138.764 29.8879 140.909 29.6929 143.288 29.4979C144.627 29.3809 146.044 29.3029 146.967 29.2639L146.98 30.9279C146.278 30.9409 145.16 30.9409 144.471 31.1099C142.898 31.5259 141.715 33.2029 141.715 34.7499C141.715 36.8949 143.717 37.6619 145.927 37.7789L145.316 39.5599C142.586 39.3779 140.012 37.9219 140.012 35.1009C140.012 33.2289 141.065 31.7469 141.949 31.0839C140.727 31.2139 138.075 31.4999 136.567 31.8249L136.398 30.0439ZM145.121 32.2019C145.446 32.6699 145.914 33.4629 146.161 33.9699L145.173 34.4119C144.848 33.6969 144.575 33.1899 144.159 32.6049L145.121 32.2019ZM146.577 31.6039C146.902 32.0589 147.396 32.8259 147.669 33.3329L146.694 33.8009C146.343 33.0989 146.044 32.6179 145.628 32.0459L146.577 31.6039ZM160.716 34.3859C160.716 37.1289 159.039 39.0659 155.763 39.5729L154.788 38.0259C155.282 37.9739 155.646 37.8959 155.997 37.8179C157.661 37.4279 158.961 36.2319 158.961 34.3339C158.961 32.5399 157.986 31.2009 156.231 30.9019C156.049 32.0069 155.828 33.2029 155.451 34.4249C154.671 37.0509 153.553 38.6629 152.136 38.6629C150.693 38.6629 149.497 37.0769 149.497 34.8799C149.497 31.8769 152.097 29.3159 155.464 29.3159C158.688 29.3159 160.716 31.5519 160.716 34.3859ZM151.161 34.7109C151.161 36.0239 151.681 36.6609 152.188 36.6609C152.734 36.6609 153.241 35.8419 153.774 34.0869C154.073 33.1249 154.32 32.0199 154.463 30.9409C152.318 31.3829 151.161 33.2809 151.161 34.7109ZM167.498 28.4059C167.459 28.6399 167.407 29.1989 167.381 29.5369C167.368 29.8229 167.355 30.1349 167.342 30.4599C168.2 30.3559 169.058 30.1869 169.734 29.9919L169.773 31.6039C169.032 31.7729 168.135 31.9029 167.29 32.0069C167.277 32.3969 167.277 32.7999 167.277 33.1769C167.277 33.3329 167.277 33.4889 167.277 33.6579C168.161 33.4369 169.058 33.3199 169.773 33.3199C171.775 33.3199 173.348 34.3599 173.348 36.1539C173.348 37.6879 172.542 38.8449 170.475 39.3649C169.877 39.4949 169.305 39.5339 168.772 39.5729L168.174 37.8959C168.759 37.8959 169.318 37.8829 169.773 37.8049C170.826 37.6099 171.658 37.0899 171.658 36.1409C171.658 35.2569 170.878 34.7369 169.747 34.7369C168.941 34.7369 168.096 34.8669 167.303 35.1009C167.329 36.1279 167.355 37.1419 167.355 37.5839C167.355 39.1959 166.783 39.6249 165.925 39.6249C164.664 39.6249 162.883 38.5329 162.883 37.1549C162.883 36.0239 164.183 34.8409 165.782 34.1519C165.769 33.8399 165.769 33.5279 165.769 33.2289C165.769 32.8649 165.769 32.5009 165.769 32.1369C165.522 32.1499 165.288 32.1629 165.08 32.1629C164.209 32.1629 163.702 32.1499 163.26 32.0979L163.234 30.5249C164.001 30.6159 164.56 30.6289 165.028 30.6289C165.262 30.6289 165.522 30.6159 165.782 30.6029C165.795 30.1479 165.795 29.7709 165.795 29.5499C165.795 29.2769 165.743 28.6399 165.704 28.4059H167.498ZM171.203 29.8099C172.204 30.2909 173.712 31.1489 174.401 31.6429L173.621 32.9689C172.997 32.4359 171.294 31.4609 170.488 31.0709L171.203 29.8099ZM164.482 37.0899C164.482 37.4929 165.093 37.8439 165.431 37.8439C165.665 37.8439 165.847 37.7399 165.847 37.2979C165.847 36.9729 165.834 36.3749 165.808 35.6729C165.015 36.1019 164.482 36.6349 164.482 37.0899ZM179.583 29.6279H177.594V30.3299H179.583V29.6279ZM177.594 32.1109H179.583V31.3699H177.594V32.1109ZM181.026 33.2809H177.594V40.0929H176.06V28.4449H181.026V33.2809ZM182.521 35.4519H180.376V36.9859H182.521V35.4519ZM183.964 38.2599H180.376V38.9879H178.933V34.1779H183.964V38.2599ZM183.392 32.1239H185.446V31.3699H183.392V32.1239ZM185.446 29.6149H183.392V30.3299H185.446V29.6149ZM187.006 28.4449V38.2469C187.006 39.1049 186.837 39.5469 186.291 39.7939C185.758 40.0539 184.939 40.0929 183.743 40.0929C183.691 39.6509 183.444 38.9229 183.223 38.5069C183.977 38.5589 184.861 38.5459 185.108 38.5329C185.355 38.5329 185.446 38.4549 185.446 38.2209V33.2939H181.923V28.4449H187.006ZM191.538 29.6669C191.447 30.1349 191.382 30.8889 191.382 31.2529C191.369 32.0979 191.382 33.0729 191.46 34.0089C191.642 35.8809 192.032 37.1679 192.851 37.1679C193.462 37.1679 193.982 35.6469 194.229 34.6069L195.529 36.1929C194.671 38.4549 193.852 39.2479 192.812 39.2479C191.382 39.2479 190.147 37.9609 189.783 34.4769C189.653 33.2809 189.64 31.7599 189.64 30.9669C189.64 30.6029 189.614 30.0439 189.536 29.6409L191.538 29.6669ZM198.038 29.9659C199.273 31.4609 200.261 34.7109 200.404 36.6999L198.701 37.3629C198.493 35.2699 197.804 32.1109 196.387 30.4989L198.038 29.9659ZM210.41 36.1409H205.275V38.2599H210.41V36.1409ZM203.754 40.1059V34.7759H211.996V40.1059H210.41V39.6249H205.275V40.1059H203.754ZM205.197 32.1239H210.449C209.37 31.2789 208.408 30.3429 207.784 29.4849C207.173 30.3559 206.263 31.2789 205.197 32.1239ZM206.913 27.9639H208.512C209.903 29.9529 212.009 31.6039 214.076 32.4359C213.699 32.8389 213.348 33.3459 213.075 33.8269C212.412 33.4889 211.736 33.0599 211.086 32.5919V33.4889H204.612V32.5789C203.975 33.0469 203.286 33.4759 202.597 33.8529C202.389 33.4759 201.96 32.9169 201.622 32.5919C203.858 31.5129 205.938 29.5499 206.913 27.9639ZM218.023 29.5889C218.023 29.2119 218.036 28.8219 217.971 28.4189L219.869 28.4839C219.791 28.8479 219.687 29.5109 219.583 30.3299L220.064 30.9409C219.882 31.1749 219.622 31.6039 219.401 31.9419C219.388 32.0589 219.388 32.1889 219.375 32.3059C220.688 31.3309 222.027 30.9669 223.197 30.9669C225.199 30.9669 226.772 32.3839 226.785 34.4769C226.785 37.1029 225.134 38.6759 221.91 39.3129L221.13 37.7399C223.418 37.4019 225.056 36.4659 225.043 34.4379C225.043 33.4239 224.224 32.4879 222.924 32.4879C221.546 32.4879 220.337 33.1509 219.245 34.1519C219.232 34.5289 219.219 34.9059 219.219 35.2439C219.219 36.3099 219.219 37.4019 219.297 38.6239C219.31 38.8579 219.349 39.3259 219.388 39.6249H217.594C217.62 39.3389 217.633 38.8709 217.633 38.6629C217.659 37.6489 217.672 36.8949 217.685 35.8029C217.139 36.6219 216.502 37.5709 216.047 38.1819L215.02 36.7649C215.761 35.8549 217.061 34.1389 217.802 33.0469C217.828 32.7479 217.854 32.4359 217.867 32.1239C217.23 32.2019 216.229 32.3319 215.501 32.4359L215.332 30.7719C215.709 30.7849 216.008 30.7849 216.463 30.7589C216.84 30.7329 217.412 30.6679 217.971 30.5899C217.997 30.0959 218.023 29.7319 218.023 29.5889ZM237.596 28.7569C237.57 28.9649 237.531 29.5369 237.518 29.8879C237.505 30.3949 237.505 30.8629 237.492 31.2919C237.843 31.2659 238.168 31.2399 238.467 31.2269C238.831 31.2009 239.338 31.1749 239.715 31.1359V32.7349C239.494 32.7219 238.805 32.7349 238.467 32.7479C238.181 32.7609 237.843 32.7739 237.466 32.7999C237.427 33.7879 237.375 34.8539 237.271 35.3999C237.128 36.0889 236.803 36.2579 236.14 36.2579C235.672 36.2579 234.632 36.1279 234.177 36.0629L234.216 34.6199C234.619 34.7109 235.152 34.7889 235.412 34.7889C235.672 34.7889 235.789 34.7369 235.815 34.4899C235.867 34.1389 235.906 33.5409 235.919 32.9169C234.762 33.0079 233.488 33.1249 232.383 33.2419C232.37 34.4379 232.357 35.6339 232.383 36.1929C232.409 37.4669 232.526 37.7529 234.476 37.7529C235.75 37.7529 237.388 37.5969 238.363 37.4279L238.298 39.1959C237.427 39.2999 235.828 39.4039 234.593 39.4039C231.226 39.4039 230.823 38.7019 230.758 36.4529C230.745 35.8939 230.745 34.6329 230.745 33.4239C230.394 33.4629 230.095 33.4889 229.874 33.5149C229.458 33.5669 228.652 33.6969 228.314 33.7489L228.132 32.0849C228.509 32.0849 229.107 32.0589 229.77 31.9939C230.004 31.9679 230.342 31.9419 230.758 31.9029C230.758 31.2919 230.758 30.8109 230.758 30.5899C230.758 30.0569 230.719 29.6149 230.654 29.1469H232.487C232.422 29.5889 232.409 29.9529 232.409 30.4989C232.409 30.7979 232.396 31.2399 232.396 31.7469C233.501 31.6429 234.762 31.5259 235.945 31.4219V29.9529C235.945 29.6279 235.893 29.0169 235.854 28.7569H237.596Z" fill="white"/>
<mask id="mask0_1_4284" style="mask-type:alpha" maskUnits="userSpaceOnUse" x="12" y="0" width="64" height="66">
<rect x="12.6007" y="0.147949" width="62.5667" height="65" fill="#D9D9D9"/>
</mask>
<g mask="url(#mask0_1_4284)">
<path d="M42.9662 54.8204C42.9662 56.3399 41.7338 57.5697 40.2168 57.5697H31.0158C26.1621 57.5697 22.23 53.635 22.23 48.7838V24.8728C22.23 17.4002 28.2874 11.3428 35.7599 11.3428H40.2142C41.7338 11.3428 42.9635 12.5752 42.9635 14.0921V54.8204H42.9662Z" fill="#C45120"/>
<path d="M41.1828 15.1783H36.7285C35.4648 15.1783 34.2429 15.335 33.0836 15.6222C29.8617 17.8076 27.7808 21.2436 27.7808 25.1104V50.3687C27.7808 54.6559 31.7155 58.1337 36.5666 58.1337H43.8929C43.919 58.0005 43.9347 42.2017 43.9347 42.0633V17.6065C43.9347 16.2645 42.7023 15.1757 41.1854 15.1757L41.1828 15.1783Z" fill="#993116"/>
<path d="M46.6763 43.2826C47.846 43.8126 56.4673 43.9066 61.5326 52.2042C66.5978 60.5018 68.6083 66.8543 68.6083 66.8543L63.013 77.1988C63.013 77.1988 57.0182 76.319 51.7415 60.2303L47.3734 44.3087" fill="#9F9AA5"/>
<path d="M58.6131 85.1727L59.7493 88.3424L29.3082 88.9507L29.3291 85.1727L29.3396 83.0317L29.2952 82.4912L28.3344 71.0135L28.0733 67.9091L27.0184 55.2877C27.0184 52.1441 29.2142 48.3791 32.0027 45.8491C33.0341 44.9144 34.1437 44.1494 35.256 43.6455C36.1855 43.2225 37.1176 42.9849 38.0027 42.9849L38.4126 43.0267L43.2612 43.5306L43.9478 43.6011L49.2193 44.1494C51.9295 44.7055 58.1958 48.1572 58.5927 53.165L58.7441 56.0684C58.7441 56.0684 61.8485 58.1721 63.8407 61.3914C63.8407 67.9091 62.4695 81.4677 58.6131 85.1727Z" fill="#9F9AA5"/>
<path d="M34.9453 75.7341L32.598 58.5148L25.7756 80.7758L29.3317 83.6374C30.3291 84.0604 31.3787 84.1831 32.3918 84.0473L33.2377 84.5147C33.2377 84.5147 33.2612 84.5356 33.2743 84.5434C33.3056 84.5591 33.3343 84.5747 33.3657 84.5878L33.4988 84.6609L34.9427 75.7341H34.9453Z" fill="#615C68"/>
<path d="M44.5875 42.7238L43.7624 43.2251L43.2611 43.5306L39.6006 45.7603C40.5301 46.2146 39.7181 47.105 38.658 48.1154C37.8016 48.93 36.5667 53.2015 36.1724 54.0083L27.773 69.0657L26.8774 70.3973L28.3343 71.0161L33.5145 73.2171C36.5823 74.5199 37.9687 78.1674 36.611 81.3632L36.5614 81.4807C35.3186 84.4076 32.2038 85.9429 29.3291 85.1752C29.068 85.1074 28.8069 85.0186 28.5484 84.9089L15.6059 79.4103C12.5381 78.1074 11.1543 74.4625 12.512 71.2641L12.5616 71.1492C12.8697 70.4234 13.8644 68.345 14.371 67.8046L22.9845 52.5932C24.6947 49.7055 26.8696 47.6402 29.2325 46.1755C31.162 44.9744 33.2194 44.1755 35.256 43.6481C36.3212 43.3739 37.3813 43.1729 38.4126 43.0293C40.235 42.776 41.9713 42.7029 43.5092 42.7107C43.8825 42.7107 44.2402 42.7186 44.5875 42.7264V42.7238Z" fill="#9F9AA5"/>
<path d="M46.7468 50.8308L42.2168 50.7812C42.2168 50.7812 40.8017 49.4105 38.6581 48.1154C36.8304 47.0084 34.4675 45.9536 32.0028 45.8491C31.0863 45.81 30.1568 45.904 29.2325 46.1729C31.162 44.9719 33.2195 44.1729 35.256 43.6455C36.1855 43.2225 37.1176 42.9849 38.0027 42.9849L38.4126 43.0267C40.2351 42.7734 41.9714 42.7003 43.5092 42.7082L43.7625 43.2251L43.9479 43.6011L45.3526 46.4784L46.7468 50.8308Z" fill="#615C68"/>
<path d="M39.9767 37.6691L38.5145 43.75C38.5145 43.75 49.739 55.7813 50.3865 53.1364C51.5327 48.468 50.8278 46.2878 48.3239 45.1965L49.2847 40.7187L39.9767 37.6691Z" fill="#F58D6C"/>
<path d="M50.1489 53.8362C49.6398 53.9511 46.9609 53.6012 43.7703 51.1887C43.4727 50.9641 43.1724 50.7213 42.8669 50.4602C42.8617 50.455 42.8565 50.4524 42.8513 50.4472C42.7129 50.5777 42.4596 50.7735 42.2168 50.7814C41.8539 50.7918 37.0263 47.9746 36.4806 43.0582C36.4727 42.9955 36.5041 42.9329 36.5563 42.8989L38.8826 41.113C38.9792 41.0504 39.1046 41.1026 39.1307 41.2149C39.3265 42.0399 40.0576 45.4185 44.4727 48.0947C44.4727 48.0973 44.4779 48.0999 44.4805 48.0999C44.6085 48.2096 44.7468 48.3271 44.893 48.4498C45.9191 49.3114 47.2951 50.4733 48.1985 51.2357L50.2873 53.5777C50.363 53.69 50.282 53.8075 50.1489 53.8362Z" fill="white"/>
<path d="M49.9271 53.8649C49.9271 53.8649 50.4858 52.6064 50.384 50.562C50.2143 47.1103 48.7626 45.8127 48.3396 45.1573L48.8879 42.6064C48.8879 42.6064 51.5589 45.314 53.209 49.0659C53.2795 49.2252 53.0654 49.374 52.9088 49.2931L52.0367 48.8727C51.8069 48.7631 51.5432 48.9354 51.5563 49.1913C51.6137 50.4706 51.7469 53.8727 49.9244 53.8649H49.9271Z" fill="white"/>
<path d="M60.2063 21.7867C58.7885 32.5099 43.1463 42.3558 45.1568 41.3793C45.1568 41.3793 33.6634 35.9824 30.4493 26.3428C27.0864 16.2489 32.6608 4.61447 45.5301 4.8129C58.2951 5.01133 61.5353 11.7293 60.2063 21.7841V21.7867Z" fill="#C45120"/>
<path d="M29.8932 15.7476C27.8749 15.7972 26.794 19.2358 25.8123 18.8912C24.995 18.6066 26.042 16.8494 25.8123 15.698C24.9742 16.5622 24.2979 17.6301 23.7418 18.711C23.6635 19.4055 23.5251 20.3324 23.5042 21.3951C23.4598 23.7762 25.7157 24.3428 27.8253 19.8572C29.9506 15.3403 29.8906 24.348 29.8906 24.348C29.8906 24.348 31.9088 15.7006 29.8906 15.7476H29.8932Z" fill="#D6682B"/>
<path d="M59.4674 23.7476C59.7912 32.6039 60.034 41.5517 47.8487 41.7501C37.4832 41.9198 32.0054 32.6274 31.6817 23.7737C31.3579 14.9173 35.7782 10.4552 46.6999 9.5414C57.0862 8.67195 59.1436 14.8938 59.4674 23.7476Z" fill="#F58D6C"/>
<path d="M60.5692 24.8338C60.6789 34.4107 58.5562 40.8859 50.3865 41.0687C41.4049 41.2671 35.6712 33.3272 36.1725 25.1184C36.6817 16.7764 39.6529 10.7111 48.9401 9.55449C57.88 8.43961 60.4726 16.4787 60.5719 24.8338H60.5692Z" fill="#FFB287"/>
<path d="M30.9898 27.3925C30.9898 27.3925 34.4258 23.8363 35.3213 25.6562C36.0785 27.194 37.4127 26.8885 37.5876 24.8651C37.7182 23.3429 38.525 22.027 39.726 21.463C43.2142 19.8207 45.1855 17.5466 47.5693 12.3769C48.3369 10.7163 50.41 9.46044 52.8356 9.46044C52.8356 9.46044 27.5094 -0.604772 30.9872 27.3925H30.9898Z" fill="#C45120"/>
<path d="M48.1385 24.8859C48.1672 25.7737 47.8382 26.5073 47.4022 26.5204C46.9662 26.5361 46.5876 25.8259 46.5589 24.9382C46.5302 24.0504 46.8591 23.3168 47.2952 23.3037C47.7312 23.2907 48.1098 23.9982 48.1385 24.8859Z" fill="#3A2416"/>
<path d="M57.9765 24.8859C58.0052 25.7736 57.6763 26.5073 57.2402 26.5204C56.8042 26.5334 56.4256 25.8258 56.3969 24.9381C56.3682 24.0504 56.6971 23.3167 57.1332 23.3037C57.5692 23.288 57.9478 23.9982 57.9765 24.8859Z" fill="#3A2416"/>
<path d="M43.833 9.54144C40.6451 13.6276 38.1046 14.3613 38.1046 10.6589C38.1046 7.51534 37.5015 7.28557 35.8749 7.53623C34.2822 8.93308 33.0498 10.7895 32.2039 12.9122C33.2482 12.0688 34.7417 11.4814 34.8383 13.4291C34.9558 15.7842 35.4023 18.9957 38.6294 17.1236C41.4571 15.484 44.7678 10.9722 45.8409 11.2882C46.6424 11.5231 46.5745 12.9748 46.6372 14.2829C46.9087 13.766 47.5275 12.6876 47.5693 12.3743C47.5484 10.1916 47.1542 5.28298 43.833 9.53883V9.54144Z" fill="#D6682B"/>
<path d="M30.3606 29.1496C30.3606 29.1496 30.3528 29.1261 30.3345 29.0843C30.324 29.0582 30.311 29.0269 30.2953 28.9903C30.2823 28.9564 30.2692 28.9198 30.2535 28.8781C30.1883 28.7083 30.1047 28.4655 30.0055 28.16C29.8097 27.5491 29.5695 26.6796 29.3763 25.6222C29.277 25.0948 29.1909 24.5204 29.1256 23.912C29.0577 23.3037 29.0186 22.6588 29.0029 21.9956C28.9951 21.3298 29.0081 20.6431 29.0708 19.9486C29.1204 19.2541 29.23 18.5544 29.358 17.8625C29.4311 17.5178 29.5068 17.1758 29.593 16.8363C29.6922 16.4995 29.7705 16.1627 29.888 15.8364C30.0003 15.51 30.1021 15.1862 30.2353 14.8755C30.3606 14.5622 30.4807 14.2541 30.6269 13.9643C30.7653 13.6693 30.8984 13.3794 31.0551 13.1079C31.2065 12.8338 31.3423 12.5648 31.5068 12.3168C31.6661 12.0688 31.8071 11.8181 31.9689 11.5936C32.1282 11.369 32.2849 11.1497 32.4337 10.9408C32.5877 10.7346 32.747 10.5492 32.8906 10.3664C33.0368 10.1863 33.1726 10.0139 33.3162 9.8625C33.5982 9.55963 33.8279 9.28287 34.0446 9.08182C34.4676 8.67191 34.7104 8.43692 34.7104 8.43692C34.7104 8.43692 34.5068 8.70324 34.1517 9.17321C33.9689 9.40036 33.7835 9.70845 33.5538 10.0427C33.4363 10.2071 33.3292 10.3977 33.2144 10.5936C33.1021 10.792 32.9742 10.993 32.8567 11.2124C32.7444 11.4343 32.6269 11.6641 32.5068 11.9043C32.3841 12.1419 32.2875 12.4003 32.17 12.6588C32.0499 12.9147 31.9585 13.1915 31.8567 13.4682C31.7496 13.7424 31.6661 14.0322 31.5773 14.3272C31.4833 14.617 31.4154 14.9199 31.3423 15.2254C31.2614 15.5283 31.217 15.8416 31.1569 16.1549C31.0943 16.4656 31.0708 16.7894 31.0264 17.1053C30.9951 17.4238 30.9742 17.745 30.9533 18.0661C30.9324 18.7084 30.9272 19.3481 30.9768 19.9747C31.0133 20.6013 31.0969 21.2149 31.1909 21.8024C31.2953 22.3898 31.4128 22.9538 31.5538 23.4786C31.6922 24.006 31.8436 24.4969 32.0003 24.9434C32.3084 25.8363 32.6295 26.5517 32.8671 27.0321C32.9846 27.2723 33.0838 27.4551 33.1491 27.57C33.1648 27.5987 33.1804 27.6248 33.1909 27.6457C33.2013 27.6614 33.2091 27.677 33.217 27.6875C33.2352 27.7162 33.2431 27.7318 33.2431 27.7318L30.3606 29.1548V29.1496Z" fill="#A53D19"/>
<path d="M36.6189 26.6536C37.2665 28.7606 36.9793 30.8833 35.2743 31.664C33.4701 32.489 30.7861 30.8572 30.1412 28.7502C29.4937 26.6431 30.1203 24.4734 32.0158 23.8912C33.9114 23.3089 35.974 24.5465 36.6189 26.6536Z" fill="#FFB287"/>
<path d="M45.1803 20.6249C46.1908 19.3298 47.7417 19.087 49.0184 20.1784C49.3813 20.4865 49.9088 19.9643 49.5432 19.6536C47.9897 18.3272 45.9375 18.4552 44.6555 20.1001C44.3657 20.4734 44.8879 21.0035 45.1803 20.6249Z" fill="#A53D19"/>
<path d="M52.7521 31.5177C53.1751 31.4472 53.6033 31.22 53.9218 30.9381C54.6085 30.3271 54.6946 29.4237 54.4936 28.5699C54.3552 27.9851 53.4544 28.2331 53.5928 28.818C53.8043 29.7109 53.4127 30.4655 52.5041 30.6169C51.9114 30.7161 52.1646 31.6169 52.7521 31.5177Z" fill="#F58D6C"/>
<path d="M55.5066 20.5388C56.4021 19.2699 57.8225 19.2881 58.9165 20.309C59.2481 20.6197 59.7467 20.121 59.4152 19.8103C58.564 19.014 57.4935 18.5153 56.3473 18.9957C55.7703 19.2359 55.2559 19.6719 54.8956 20.1837C54.6345 20.5544 55.2455 20.9069 55.504 20.5388H55.5066Z" fill="#A53D19"/>
<path d="M32.7443 27.2279C33.1177 29.2462 34.2352 31.2253 35.5146 32.7945C38.6268 36.6117 43.4075 38.0817 48.1959 38.0999C48.6581 38.0999 48.6581 37.3845 48.1959 37.3819C43.4936 37.3636 38.8252 35.9015 35.8566 32.0791C34.7365 30.6378 33.7704 28.8546 33.4336 27.0373C33.3501 26.583 32.6582 26.7762 32.7417 27.2279H32.7443Z" fill="#0A366F"/>
<path d="M48.6372 39.8207C47.2351 39.8207 46.0941 39.0087 46.0941 38.0087C46.0941 37.0087 47.2351 36.1967 48.6372 36.1967C50.0393 36.1967 51.1803 37.0113 51.1803 38.0087C51.1803 39.0061 50.0393 39.8207 48.6372 39.8207Z" fill="#0A366F"/>
<path d="M48.6372 36.3245C49.9688 36.3245 51.0498 37.0764 51.0498 38.0059C51.0498 38.9354 49.9688 39.6874 48.6372 39.6874C47.3057 39.6874 46.2247 38.9354 46.2247 38.0059C46.2247 37.0764 47.3057 36.3245 48.6372 36.3245ZM48.6372 36.0634C47.1621 36.0634 45.9636 36.9354 45.9636 38.0059C45.9636 39.0764 47.1621 39.9485 48.6372 39.9485C50.1124 39.9485 51.3109 39.0764 51.3109 38.0059C51.3109 36.9354 50.1124 36.0634 48.6372 36.0634Z" fill="#0A366F"/>
<path d="M33.0135 21.9093C32.5618 19.2983 32.8307 16.1574 33.695 13.5699C35.567 7.95898 40.7602 5.43941 46.426 5.30886C49.4233 5.23837 53.486 5.64828 55.3554 8.30884C55.7079 8.81015 56.5382 8.33234 56.1831 7.82582C54.2849 5.12348 50.6113 4.46291 47.5173 4.35848C44.6818 4.26187 41.7367 4.69268 39.1597 5.91199C34.332 8.19918 32.1232 13.1939 31.8986 18.3088C31.8438 19.5882 31.8751 20.8988 32.0918 22.1652C32.1963 22.7709 33.1205 22.515 33.0161 21.9093H33.0135Z" fill="#0A366F" stroke="#0A366F" stroke-miterlimit="10"/>
<path d="M33.5382 32.3587C31.2067 32.3587 29.1544 30.3431 28.768 27.672C28.5618 26.2569 28.8437 24.8574 29.5591 23.7295C30.2798 22.5964 31.3529 21.8731 32.58 21.6956C32.7706 21.6669 32.9638 21.6538 33.1492 21.6538C35.2484 21.6538 36.8124 23.4528 37.2327 26.3457C37.6218 29.035 36.8124 31.9253 34.1205 32.3143C33.9273 32.343 33.7341 32.3561 33.5408 32.3561L33.5382 32.3587Z" fill="#0A366F"/>
<path d="M33.1464 21.7868C35.2978 21.7868 36.7156 23.7241 37.0994 26.3664C37.5145 29.228 36.5589 31.8311 34.0994 32.1888C33.9114 32.2149 33.7234 32.2306 33.538 32.2306C31.2952 32.2306 29.2796 30.2959 28.8958 27.6536C28.4806 24.792 30.1386 22.1837 32.5981 21.826C32.7861 21.7998 32.9688 21.7842 33.1464 21.7842M33.1464 21.5257C32.9558 21.5257 32.7574 21.5414 32.5589 21.5701C31.2926 21.7529 30.1882 22.497 29.4467 23.6615C28.713 24.8155 28.4258 26.2463 28.6347 27.6928C29.0315 30.429 31.1386 32.4917 33.5354 32.4917C33.7339 32.4917 33.9375 32.476 34.1359 32.4473C35.3866 32.2671 36.3474 31.5335 36.914 30.3272C37.4179 29.2515 37.5772 27.8338 37.3579 26.3298C36.927 23.3664 35.3135 21.5257 33.1464 21.5257Z" fill="#0A366F"/>
<path d="M35.5981 26.4785C35.9376 28.8206 35.0994 30.9589 33.1151 31.2461C31.1308 31.5333 29.2457 29.8676 28.9063 27.5255C28.5668 25.1835 29.901 23.0504 31.8854 22.7632C33.8697 22.476 35.2587 24.1339 35.5981 26.4759V26.4785Z" fill="#CEC4C4"/>
<path d="M49.0367 34.7292C50.914 36.5856 53.5458 36.7762 55.3395 34.7292C55.5745 34.4629 55.1829 34.0687 54.9479 34.3376C53.3526 36.16 51.0811 35.972 49.4309 34.3376C49.1777 34.0869 48.7834 34.4786 49.0393 34.7292H49.0367Z" fill="#E56745" stroke="#E56745" stroke-miterlimit="10"/>
<path d="M46.7886 5.42125C46.7886 5.42125 55.5065 4.29071 59.1358 11.087L47.3317 6.73979L46.7886 5.42387V5.42125Z" fill="#C45120"/>
<path d="M44.901 48.4315L44.8932 48.4498L43.7705 51.1886C43.4728 50.9641 43.1725 50.7213 42.8671 50.4602C42.8671 50.455 42.8671 50.4471 42.8671 50.4393L44.478 48.0999L44.4885 48.0842C44.6164 48.1939 44.7548 48.3088 44.8984 48.4315H44.901Z" fill="#A7CED8"/>
<path d="M32.6686 24.1915C32.7208 24.2045 32.773 24.228 32.8252 24.2463C32.6633 24.1941 32.8148 24.2437 32.8853 24.2802C32.961 24.3194 33.0341 24.3612 33.1046 24.4082C33.2273 24.4839 33.3448 24.5831 33.4884 24.7398C33.6477 24.9147 33.7756 25.1262 33.8618 25.3481C33.9897 25.6771 34.3004 25.9042 34.6659 25.805C34.9792 25.7189 35.2508 25.3324 35.1228 25.0009C34.7625 24.0661 34.0236 23.2019 33.0184 22.9356C32.2064 22.7189 31.8592 23.9774 32.6712 24.1941L32.6686 24.1915Z" fill="#EDEDED"/>
</g>
<defs>
<filter id="filter0_dd_1_4284" x="0.110169" y="7.67813" width="332.409" height="55.4574" filterUnits="userSpaceOnUse" color-interpolation-filters="sRGB">
<feFlood flood-opacity="0" result="BackgroundImageFix"/>
<feColorMatrix in="SourceAlpha" type="matrix" values="0 0 0 0 0 0 0 0 0 0 0 0 0 0 0 0 0 0 127 0" result="hardAlpha"/>
<feOffset dy="1.94492"/>
<feGaussianBlur stdDeviation="1.94492"/>
<feColorMatrix type="matrix" values="0 0 0 0 0.14902 0 0 0 0 0.603922 0 0 0 0 0.647059 0 0 0 0.16 0"/>
<feBlend mode="normal" in2="BackgroundImageFix" result="effect1_dropShadow_1_4284"/>
<feColorMatrix in="SourceAlpha" type="matrix" values="0 0 0 0 0 0 0 0 0 0 0 0 0 0 0 0 0 0 127 0" result="hardAlpha"/>
<feOffset/>
<feGaussianBlur stdDeviation="0.486229"/>
<feColorMatrix type="matrix" values="0 0 0 0 0.14902 0 0 0 0 0.603922 0 0 0 0 0.647059 0 0 0 0.04 0"/>
<feBlend mode="normal" in2="effect1_dropShadow_1_4284" result="effect2_dropShadow_1_4284"/>
<feBlend mode="normal" in="SourceGraphic" in2="effect2_dropShadow_1_4284" result="shape"/>
</filter>
<linearGradient id="paint0_linear_1_4284" x1="354.403" y1="47.1303" x2="95.5014" y2="-98.5713" gradientUnits="userSpaceOnUse">
<stop offset="0.0137156" stop-color="#FB6C20"/>
<stop offset="0.0138156" stop-color="#FC5D19"/>
<stop offset="1" stop-color="#FF2200"/>
</linearGradient>
</defs>
</svg>
