<?xml version="1.0" encoding="UTF-8"?>
<svg id="_レイヤー_2" xmlns="http://www.w3.org/2000/svg" version="1.1" viewBox="0 0 337 82">
  <!-- Generator: Adobe Illustrator 29.6.1, SVG Export Plug-In . SVG Version: 2.1.1 Build 9)  -->
  <defs>
    <style>
      .st0 {
        fill: #fced18;
      }

      .st1 {
        fill: #6bbaff;
      }

      .st2 {
        fill: #0a366f;
      }
    </style>
  </defs>
  <g id="_レイヤー_1-2">
    <rect class="st1" y="0" width="82" height="82"/>
    <rect class="st1" x="85" y="0" width="82" height="82"/>
    <rect class="st1" x="170" y="0" width="82" height="82"/>
    <rect class="st1" x="255" y="0" width="82" height="82"/>
    <path class="st2" d="M45.9,26.1v-3h-3v3h3ZM63.1,26.1h3v-3h-3s0,3,0,3ZM63.1,31.6v3h3v-3h-3ZM45.9,31.6h-3v3h3v-3ZM50.6,32.3v-3h-3v3h3ZM55.6,32.3h3v-3h-3v3ZM55.6,52.9v3h3v-3h-3ZM50.6,52.9h-3v3h3v-3ZM46,21l.6-2.9-2.9-.6-.6,2.9,2.9.6h0ZM52,22.2l2.9.7.7-3-3-.6-.6,2.9h0ZM49,30.8l2.7,1.3h0l-2.7-1.3ZM44.4,37.5l-2.4,1.8,2.1,2.7,2.4-2.4-2.1-2.1ZM43.1,36.1l-2.1,2.1h0s0,0,0,0l2.1-2.2h0ZM41.4,34.4l-2.1,2.1h0s0,0,0,0c0,0,2-2.2,2-2.2ZM39.9,33.1l-2-2.2-2.6,2.4,2.9,2.2s1.8-2.4,1.8-2.4ZM43.7,27.8l2.7,1.3h0l-2.7-1.3ZM40.5,42.6l-1.2-2.7-2.6,1.2,1.1,2.7,2.8-1.2h0ZM58.8,34.2l2.8-1.2-1.2-2.9-2.8,1.3s1.2,2.7,1.2,2.7ZM60.9,39.2l1.3,2.7,2.6-1.2-1.1-2.7s-2.8,1.2-2.8,1.1ZM42.6,47.6l-2.8,1.2,1.2,2.9,2.8-1.3s-1.3-2.7-1.3-2.7ZM43.9,35.2v-3h-3v3h3ZM49.3,35.2h3v-3h-3v3ZM58.2,55.6l1.7,2.5h0c0,0,0-.1,0-.1,0,0-1.9-2.3-1.9-2.3ZM58.8,54.3l2.9.7h0s-2.9-.7-2.9-.7h0ZM59.2,51.7l1.7-2.4-4.3-3.1-.4,5.3s3,.2,3,.2ZM61.5,52.9l-1.1,2.8h0l1.1-2.8ZM64.1,53.7l3,.3.3-2.7-2.6-.6-.7,2.9ZM63,58l-2.7-1.2h0s2.7,1.3,2.7,1.3h0ZM61,60.2l-1.3-2.7h0s0,0,0,0l1.4,2.7h0ZM44.5,58.1l2.8-1.1-2.8,1.1ZM57.2,35.2h3v-3h-3v3ZM56.9,35.2l-1.6-2.5-8.5,5.5h10.1v-3ZM57.8,34.6l-1.6-2.5h0s1.6,2.5,1.6,2.5h0ZM58.8,34l1-2.8-1.4-.5-1.2.8,1.6,2.5ZM62.5,35.3l2.9.8.7-2.7-2.7-.9-1,2.8h0ZM62.3,36.1l-2.9-.8v.4c0,0,0,.4,0,.4h3ZM62.2,45.7h-3c0-.1,0,0,0,0h0c0,0,3,0,3,0h0ZM62.2,47.1l-3-.2h0c0,.1,3,.2,3,.2h0ZM61.8,49.1l2.6,1.5h0s0,0,0,0l-2.7-1.4h0ZM60.4,50.3l-1.4-2.7h0l1.4,2.7h0ZM58.6,50.9l.3,3h.1s-.4-3-.4-3h0ZM56.8,51l-3,.2.2,2.8h2.8s0-3,0-3ZM56.4,48.7l-3,.6h0c0,0,0,.1,0,.1l2.9-.7h0ZM55.7,46.6l.5-3-6-1,2.8,5.3s2.7-1.4,2.6-1.4ZM57,46.5l-2.1-2.1h0l2.1,2.1ZM57.2,46.1l3,.4v-.2s0-.2,0-.2h-3ZM57.2,45.2l-3-.2h0v.2h3,0ZM24.3,27.2v-3h-3v3h3ZM42.3,27.2h3v-3h-3v3ZM42.3,32.8v3h3v-3h-3ZM24.3,32.8h-3v3h3v-3ZM31.2,36.6v-3h-3v3h3ZM37.6,36.6h3v-3h-3v3ZM37.6,42.1v3h3v-3h-3ZM31.2,42.1h-3v3h3v-3ZM30.3,21.1v-3h-3v3h3ZM36.2,21.1h3v-3h-3v3ZM36.2,29v3h3v-3h-3ZM30.3,29h-3v3h3v-3ZM28.1,30.7v-3h-3v3s3,0,3,0ZM33.9,30.7h3c0,0,0-3,0-3h-3.1v3ZM33.6,39.4l3,.2h0l-3-.2ZM32.8,47.5l3,.5h0l-3-.5ZM31,54.8l-2.8-1h0s0,0,0,0l2.9,1h0ZM27.9,60.9l-2.5,1.6,2.4,3.7,2.6-3.5-2.4-1.8h0ZM26,58.5l-2.2,2.1h0l2.2-2.1ZM23.6,56.6l-2.5-1.7-1.8,2.6,2.7,1.7s1.6-2.5,1.6-2.5ZM26.2,51.4l-2.9-.9h0s2.9.9,2.9.9ZM27.5,45.2l-3-.4,3,.4ZM28,38.2h-3c0,0,0,0,0,0h0s3,0,3,0h0ZM35.7,36.6v-3h-3v3h3ZM41.2,36.6h3v-3h-3v3ZM41.2,38.8h3s0,0,0,0h-3ZM41,47.3h3c0,0-3,0-3,0ZM40.8,53.1l-3-.2h0c0,0,3,.2,3,.2h0ZM40.4,56.8l3,.6h0s-3-.6-3-.6ZM39.8,58.7l2.5,1.6h0s-2.5-1.6-2.5-1.6h0ZM38.5,60.1l-1.6-2.5h0l1.6,2.5ZM36.9,60.7l-.7-2.9h0s.8,2.9.8,2.9h0ZM35,60.9v3c.1,0,0-3,0-3ZM32.6,61h-3c0,0,.1,3,.1,3h2.9v-3ZM32.1,58.2l-2.9.7h0s0,0,0,0l2.9-.8h0ZM31.2,55.6l.3-3-5.6-.6,2.7,5,2.6-1.4h0ZM32.6,55.7l-.2,3h.2v-3h0ZM34.4,55.6l-1.2-2.8h0s0,0,0,0l1.3,2.7h0ZM34.9,55.1l-2.5-1.6h0s0,0,0,0l2.6,1.5h0ZM35.3,52.9l-3-.3h0c0,0,3,.3,3,.3ZM35.6,47.5h3c0,0-3,0-3,0ZM35.7,37.7h3s0,0,0,0h-3ZM45.9,26.1v3h17.2v-6h-17.2s0,3,0,3ZM63.1,26.1h-3v5.5h6v-5.5h-3ZM63.1,31.6v-3h-17.2v6h17.2s0-3,0-3ZM45.9,31.6h3v-5.5h-6v5.5h3ZM50.6,32.3v3h5v-6h-5v3ZM55.6,32.3h-3v20.6h6v-20.6s-3,0-3,0ZM55.6,52.9v-3h-5v6h5v-3ZM50.6,52.9h3v-20.6h-6v20.6h3ZM46,21l-.6,2.9,6,1.2.6-2.9.6-2.9-6-1.2-.6,2.9ZM52,22.2l-2.9-.7c-.7,2.8-1.6,5.5-2.8,8l2.7,1.3,2.7,1.3c1.4-2.9,2.5-6,3.2-9.1l-2.9-.7h0ZM49,30.8l-2.7-1.3c-1.2,2.5-2.5,4.4-4,5.9l2.1,2.1,2.1,2.1c2-2,3.7-4.6,5.1-7.5l-2.7-1.3h0ZM44.4,37.5l2.4-1.8c-.4-.5-1-1.1-1.6-1.7l-2.1,2.2-2.1,2.2c.5.5.8.8,1,1.1,0,0,2.4-1.8,2.4-1.9ZM43.1,36.1l2.1-2.1c-.6-.6-1.2-1.2-1.8-1.7l-2,2.2-2,2.2c.5.5,1.1,1,1.6,1.5l2.1-2.1h0ZM41.4,34.4l2.1-2.1c-.6-.6-1.2-1.2-1.8-1.6l-1.8,2.4-1.8,2.4c.3.2.7.6,1.2,1.1l2.1-2.1h0ZM39.9,33.1l2,2.2c1.8-1.7,3.3-3.8,4.5-6.2l-2.7-1.3-2.7-1.3c-.9,1.9-2,3.3-3.1,4.4l2,2.2h0ZM43.7,27.8l2.7,1.3c1.1-2.4,2-4.9,2.5-7.5l-2.9-.6-2.9-.6c-.5,2.1-1.2,4.2-2.1,6.1l2.7,1.3h0ZM40.5,42.6l1.2,2.7,18.3-8.4-1.2-2.7-1.2-2.7-18.3,8.4,1.2,2.7ZM58.8,34.2l-2.8,1.2,2.1,5,2.8-1.2,2.8-1.2-2.1-5-2.8,1.2ZM60.9,39.2l-1.3-2.7-18.2,8.4,1.3,2.7,1.3,2.7,18.2-8.4-1.3-2.7ZM42.6,47.6l2.8-1.2-2.1-5-2.8,1.2-2.8,1.2,2.1,5,2.8-1.2ZM43.9,35.2v3h5.4v-6h-5.4v3ZM49.3,35.2h-3v18.6h6v-18.6h-3ZM49.3,53.8h-3c0,.6,0,1.2.2,1.8.1.5.4,1.5,1.2,2.2l2-2.2,2-2.2c.3.3.5.6.5.7,0,.2,0,.3,0,.3,0,0,0-.1,0-.5h-3,0ZM49.7,55.5l-2,2.2c.8.7,1.7.9,2.1,1,.6,0,1.2.1,1.7.1v-6c-.2,0-.3,0-.5,0-.1,0-.2,0-.2,0,0,0,0,0,.2,0,0,0,.2,0,.3.1.1,0,.2.2.4.3l-2,2.2h0ZM51.5,55.9v3h1v-6h-1v3ZM52.5,55.9v3h1.6v-6h-1.6v3ZM54.2,55.9v3h1.6v-6h-1.6v3ZM55.8,55.9v3h1.2v-6h-1.2v3ZM57,55.9v3c.8,0,1.9-.1,2.9-.8l-1.7-2.5-1.7-2.5c.2-.2.4-.2.5-.2s0,0,0,0v3h0ZM58.2,55.6l1.9,2.3c1-.8,1.5-2,1.7-2.9l-2.9-.7-2.9-.7c0,.1,0,.1,0,0,0,0,.2-.3.4-.5l1.9,2.3h0ZM58.8,54.3l2.9.7c.2-.8.3-1.9.4-3.1l-3-.2-3-.2c0,1.1-.2,1.8-.3,2.2l2.9.7h0ZM59.2,51.7l-1.7,2.4c.8.6,1.8,1.1,2.9,1.5l1.1-2.8,1.1-2.8c-.8-.3-1.4-.6-1.7-.9,0,0-1.7,2.4-1.7,2.4ZM61.5,52.9l-1.1,2.8c1.1.4,2.1.8,3,1l.7-2.9.7-2.9c-.5-.1-1.2-.3-2.1-.7l-1.1,2.8h0ZM64.1,53.7l-3-.3c-.2,1.7-.5,2.7-.8,3.3l2.7,1.2,2.7,1.2c.7-1.5,1.1-3.2,1.3-5.2l-3-.3h0ZM63,58l-2.7-1.2c-.2.5-.5.7-.6.7l1.3,2.7,1.3,2.7c1.7-.8,2.8-2.1,3.5-3.7l-2.7-1.2h0ZM61,60.2l-1.4-2.7c-.3.2-.9.3-2.1.3v6c1.7,0,3.4-.3,4.9-1l-1.4-2.7h0ZM57.5,60.9v-3h-1v6h1v-3ZM56.5,60.9v-3h-1.5v6h1.5v-3ZM54.9,60.9v-3h-1.6v6h1.6v-3ZM53.3,60.9v-3h-1.5v6h1.5v-3ZM51.8,60.9v-3h-1v6h1v-3ZM50.8,60.9v-3c-1.7,0-2.6-.2-3.1-.4l-1.2,2.8-1.2,2.8c1.5.6,3.4.9,5.4.9v-3h0ZM46.6,60.3l1.2-2.8c-.2,0-.3-.2-.5-.5l-2.8,1.1-2.8,1.1c.7,1.8,2,3.2,3.8,3.9l1.2-2.8h0ZM44.5,58.1l2.8-1.1c-.2-.5-.4-1.6-.4-3.2h-6c0,2,.2,3.8.8,5.3l2.8-1.1h0ZM43.9,53.8h3v-18.6h-6v18.6h3ZM57.2,35.2v-3h-.3v6h.3v-3ZM56.9,35.2l1.6,2.5,1-.6-1.6-2.5-1.6-2.5-1,.6,1.6,2.5ZM57.8,34.6l1.6,2.5.9-.6-1.6-2.5-1.6-2.5-.9.6s1.6,2.5,1.6,2.5ZM58.8,34l-1,2.8,3.7,1.3,1-2.8,1-2.8-3.7-1.3s-1,2.8-1,2.8ZM62.5,35.3l-2.9-.8-.2.8,2.9.8,2.9.8.2-.8-2.9-.8ZM62.3,36.1h-3v.2h0v.2h0v.2h0v.2h0v.2h0v.2h0v.2h0v.2h0v.2h0v.2h0v.2h0v.2h0v.2h0v.2h0v.2h0v.2h0v.2h0v.2h0v.2h0v.2h0v.2h0v.2h0v.2h0v.2h0v.2h0v.2h0v.2h0v.2h0c0,.1,3,.2,3,.2h3v-.2h0v-.2h0v-.2h0v-.2h0v-.2h0v-.2h0v-.2h0v-.2h0v-.2h0v-.2h0v-.2h0v-.2h0v-.2h0v-.2h0v-.2h0v-.2h0v-.2h0v-.2h0v-.2h0v-.2h0v-.2h0v-.2h0v-.2h0v-.2h0v-.2h0v-.2h0v-.2h0v-.2h0c0-.1-3-.1-3-.1h0ZM62.3,40.1h-3v.2h0v.2h0v.2h0v.2h0v.2h0v.2h0v.2h0v.2h0v.2h0v.2h0v.2h0v.2h0v.2h0v.2h0v.2h0v.2h0v.2h0v.2h0v.2h0v.2h0v.2h0s3,0,3,0h3v-.2h0v-.2h0v-.2h0v-.2h0v-.2h0v-.2h0v-.2h0v-.2h0v-.2h0v-.2h0v-.2h0v-.2h0v-.2h0v-.2h0v-.2h0v-.2h0v-.2h0v-.2h0v-.2h0v-.2h0v-.2h0s-3,0-3,0ZM62.3,43.3h-3c0,.9,0,1.6,0,2.2h3c0,.1,3,.3,3,.3,0-.7,0-1.5,0-2.5,0,0-3,0-3,0ZM62.2,45.7h-3c0,.6,0,1,0,1.2l3,.2,3,.2c0-.5,0-1,0-1.7h-3ZM62.2,47.1h-3c0,.4-.1.6-.1.6l2.7,1.4,2.6,1.4c.6-1,.8-2.2.8-3.3h-3c0,0,0-.1,0-.1ZM61.8,49.1l-2.6-1.5s0,0,0,0,0,0,0,0c0,0,0,0-.1,0l1.4,2.7,1.4,2.7c1-.5,1.9-1.3,2.5-2.4l-2.6-1.5h0ZM60.4,50.3l-1.4-2.7c-.2,0-.4.2-.8.2l.4,3,.4,3c1-.1,1.9-.4,2.8-.9l-1.4-2.7h0ZM58.6,50.9l-.3-3c-.6,0-1.1,0-1.6,0v6c.7,0,1.4,0,2.1,0l-.3-3h0ZM56.8,51l3-.2c0-.8-.2-1.8-.5-2.7l-2.9.7-2.9.7c.2.7.3,1.3.3,1.8,0,0,3-.2,3-.2ZM56.4,48.7l3-.6c-.2-1-.5-2-1-2.9l-2.7,1.4-2.7,1.4c0,.2.2.6.4,1.3l3-.6h0ZM55.7,46.6l-.5,3c.3,0,.7,0,1,0v-6h0l-.5,3h0ZM56.2,46.6v3h.5v-6h-.5v3ZM56.7,46.6v3c.4,0,1.5,0,2.4-1l-2.1-2.1-2.1-2.1c.4-.4.9-.6,1.2-.7s.5,0,.7,0v3h0ZM57,46.5l2.1,2.1c.8-.8,1-1.7,1-2.1l-3-.4-3-.4c0,0,0-.2.1-.4,0-.2.2-.5.6-.8,0,0,2.1,2.1,2.1,2.1ZM57.2,46.1h3v-.2h0v-.2h0v-.2h0v-.2h0v-.2h0v-.2h0c0-.1-3-.1-3-.1h-3v.2h0v.2h0v.2h0v.2h0v.2h0v.2h0c0,.1,3,.1,3,.1ZM57.2,45.2l3,.2c0-.6,0-1.3,0-2.2h-6c0,.8,0,1.5,0,1.8l3,.2h0ZM57.2,43.2h3v-.2h0v-.2h0v-.2h0v-.2h0v-.2h0v-.2h0v-.2h0v-.2h0v-.2h0v-.2h0v-.2h0v-.2h0v-.2h0v-.2h0v-.2h0v-.2h0v-.2h0v-.2h0v-.2h0v-.2h0v-.2h0v-.2h0s-6,0-6,0h0v.2h0v.2h0v.2h0v.2h0v.2h0v.2h0v.2h0v.2h0v.2h0v.2h0v.2h0v.2h0v.2h0v.2h0v.2h0v.2h0v.2h0v.2h0v.2h0v.2h0v.2h0v.2h0s3,0,3,0ZM57.2,39.9h3v-.2h0v-.2h0v-.2h0v-.2h0v-.2h0v-.2h0v-.2h0v-.2h0v-.2h0v-.2h0v-.2h0v-.2h0v-.2h0v-.2h0v-.2h0v-.2h0v-.2h0v-.2h0v-.2h0v-.2h0v-.2h0v-.2h0v-.2h0v-.2h0v-.2h0v-.2h0v-.2h0v-.2h0v-.2h0v-.2h0v-.2h0v-.2h-6v.2h0v.2h0v.2h0v.2h0v.2h0v.2h0v.2h0v.2h0v.2h0v.2h0v.2h0v.2h0v.2h0v.2h0v.2h0v.2h0v.2h0v.2h0v.2h0v.2h0v.2h0v.2h0v.2h0v.2h0v.2h0v.2h0v.2h0v.2h0v.2h0v.2h0v.2h0v.2h3ZM24.3,27.2v3h18v-6h-18v3ZM42.3,27.2h-3v5.6h6v-5.6s-3,0-3,0ZM42.3,32.8v-3h-18v6h18v-3ZM24.3,32.8h3v-5.6h-6v5.6h3ZM31.2,36.6v3h6.5v-6h-6.5v3ZM37.6,36.6h-3v5.5h6v-5.5h-3ZM37.6,42.1v-3h-6.5v6h6.5v-3ZM31.2,42.1h3v-5.5h-6v5.5h3ZM30.3,21.1v3h5.8v-6h-5.8s0,3,0,3ZM36.2,21.1h-3v7.9h6v-7.9h-3ZM36.2,29v-3h-5.8v6h5.8v-3ZM30.3,29h3v-7.9h-6v7.9s3,0,3,0ZM28.1,30.7v3h5.8v-6h-5.8s0,3,0,3ZM33.9,30.7h-3c0,2.9-.1,5.7-.3,8.5l3,.2,3,.2c.1-2.9.2-5.8.3-8.7h-3c0,0,0,0,0,0ZM33.6,39.4l-3-.2c-.1,2.7-.4,5.3-.8,7.8l3,.5,3,.5c.4-2.7.7-5.5.8-8.5,0,0-3-.2-3-.1ZM32.8,47.5l-3-.5c-.4,2.4-.9,4.7-1.6,6.7l2.8,1,2.8,1c.8-2.5,1.5-5,1.9-7.8l-3-.5h0ZM31,54.8l-2.9-1c-.7,2-1.6,3.8-2.7,5.3l2.4,1.8,2.4,1.8c1.5-2.1,2.7-4.4,3.5-6.9l-2.9-1h0ZM27.9,60.9l2.5-1.6c-.6-.9-1.4-1.9-2.3-2.8l-2.2,2.1-2.2,2.1c.7.8,1.2,1.4,1.6,1.9l2.5-1.6h0ZM26,58.5l2.2-2.1c-.9-1-1.9-1.8-2.9-2.4l-1.6,2.5-1.6,2.5c.5.3,1.1.8,1.8,1.5l2.2-2.1h0ZM23.6,56.6l2.5,1.7c1.3-1.8,2.3-3.8,2.9-6.1l-2.9-.9-2.9-.9c-.5,1.7-1.2,3.1-2.1,4.3l2.5,1.7h0ZM26.2,51.4l2.9.9c.6-2.1,1.1-4.3,1.4-6.7l-3-.4-3-.4c-.3,2.1-.7,4-1.2,5.7l2.9.9h0ZM27.5,45.2l3,.4c.3-2.3.5-4.8.5-7.3h-3c0,0-3-.1-3-.1,0,2.3-.2,4.6-.5,6.7l3,.4h0ZM28,38.2h3c0-2.4.1-4.9.2-7.5h-3s-3,0-3,0c0,2.5,0,5-.2,7.4,0,0,3,0,3,.1ZM35.7,36.6v3h5.5v-6h-5.5v3ZM41.2,36.6h-3v.2h0v.2h0v.2h0s3,0,3,0h3v-.2h0v-.2h0v-.2h0s0,0-3,0ZM41.2,37h-3v.2h0v.2h0v.2h0v.2h0v.2h0v.2h0v.2h0c0,0,3,0,3,0h3v-.2h0v-.2h0v-.2h0v-.2h0v-.2h0v-.2h0v-.2h0c0,0-3,0-3,0ZM41.2,38h-3v.2h0v.2h0v.2h0v.2h0v.2h0v.2h0c0,.1,3,.1,3,.1h3v-.2h0v-.2h0v-.2h0v-.2h0v-.2h0v-.2h0c0-.1-3-.1-3-.1ZM41.2,38.8h-3c0,3.3,0,6.1-.1,8.4h3c0,0,3,.1,3,.1,0-2.4,0-5.2.1-8.5h-3s0,0,0,0ZM41,47.3h-3c0,2.2-.1,4.1-.2,5.6l3,.2,3,.2c.1-1.6.2-3.6.3-5.9h-3ZM40.8,53.1l-3-.2c0,1.5-.2,2.5-.3,3.3l3,.5,3,.5c.2-1.1.3-2.5.4-4l-3-.2h0ZM40.4,56.8l-3-.6c0,.3-.1.6-.2.7,0,.2,0,.2,0,0l2.5,1.6,2.5,1.6c.6-.9.9-2,1-2.9l-3-.6h0ZM39.8,58.7l-2.5-1.6c-.1.2-.2.3-.3.4,0,0,0,0,0,0l1.6,2.5,1.6,2.5c1-.6,1.7-1.4,2.2-2.3l-2.5-1.6h0ZM38.5,60.1l-1.6-2.5c-.1,0-.3.2-.7.2l.7,2.9.7,2.9c.9-.2,1.7-.5,2.5-1l-1.6-2.5h0ZM36.9,60.7l-.8-2.9c-.3,0-.7.1-1.2.2v3c.1,0,.2,3,.2,3,.9,0,1.7-.1,2.5-.3l-.8-2.9h0ZM35,60.9v-3c-.8,0-1.6,0-2.4,0v6c.9,0,1.7,0,2.5,0v-3c-.1,0-.1,0-.1,0ZM32.6,61h3c0-1.2-.2-2.4-.6-3.5l-2.9.8-2.9.8c.2.9.3,1.6.4,2.1h3ZM32.1,58.2l2.9-.7c-.3-1.2-.7-2.3-1.2-3.3l-2.6,1.4-2.6,1.4c.2.5.5,1.1.7,1.9l2.9-.7h0ZM31.2,55.6l-.3,3c.6,0,1.1.1,1.6.1l.2-3,.2-3c-.4,0-.9,0-1.3-.1l-.3,3h0ZM32.6,55.7v3h1.1v-6h-1.1v3ZM33.7,55.7v3c.6,0,1.3,0,2-.4l-1.3-2.7-1.3-2.7c.4-.2.7-.2.7-.2v3h0ZM34.4,55.6l1.2,2.8c1-.4,1.6-1.2,1.9-1.8l-2.6-1.5-2.6-1.5s0-.1.2-.2.3-.3.7-.4l1.2,2.8h0ZM34.9,55.1l2.5,1.6c.4-.7.6-1.4.7-1.8,0-.5.2-1.1.2-1.8l-3-.2-3-.2c0,.5,0,.8-.1,1.1,0,0,0,.1,0,.1,0,0,0-.2.2-.4l2.5,1.6h0ZM35.3,52.9l3,.3c.1-1.3.2-3.2.3-5.6h-3c0,0-3-.1-3-.1,0,2.4-.1,4.1-.2,5.2l3,.3h0ZM35.6,47.5h3c0-2.4,0-5.7.1-9.8h-3s-3,0-3,0c0,4.1,0,7.3-.1,9.7h3c0,0,0,0,0,0ZM35.7,37.7h3v-1.1h-6v1.1h3ZM111,25.2v-3h-3v3h3ZM144.9,25.2h3v-3h-3v3ZM144.9,31.6v3h3v-3h-3ZM111,31.6h-3v3h3v-3ZM108.6,52v-3h-3v3h3ZM147.4,52h3v-3h-3v3ZM147.4,58.2v3h3v-3h-3ZM108.6,58.2h-3v3h3v-3ZM124.2,28.8v-3h-3v3h3ZM131.2,28.8h3v-3h-3v3ZM131.2,54.5v3h3v-3h-3ZM124.2,54.5h-3v3h3v-3ZM111,25.2v3h33.8v-6h-33.8v3ZM144.9,25.2h-3v6.4h6v-6.4h-3ZM144.9,31.6v-3h-33.8v6h33.8v-3ZM111,31.6h3v-6.4h-6v6.4h3ZM108.6,52v3h38.8v-6h-38.8s0,3,0,3ZM147.4,52h-3v6.2h6v-6.2h-3ZM147.4,58.2v-3h-38.8v6h38.8v-3ZM108.6,58.2h3v-6.2h-6v6.2h3ZM124.2,28.8v3h7v-6h-7s0,3,0,3ZM131.2,28.8h-3v25.7h6v-25.7h-3ZM131.2,54.5v-3h-7v6h7v-3ZM124.2,54.5h3v-25.7h-6v25.7h3ZM208.6,21v-3h-3v3h3ZM214.8,21h3v-3h-3v3ZM214.3,58.5l2.7,1.4-2.7-1.4ZM212.4,60.2l1.1,2.8h0s0,0,0,0l-1.3-2.7h0ZM209.2,60.9l-.2-3h0l.3,3h0ZM204.7,61.1l-2.9.6.5,2.4h2.5v-3ZM203.9,58.6l2.8-1.2h0s0,0,0,0l-2.8,1.2h0ZM202.7,56.4v-3c.1,0-5.6-.3-5.6-.3l3.1,4.9,2.5-1.6h0ZM204.6,56.5v3c-.1,0,0,0,0,0h0v-3ZM207.6,56.5v3h.2l-.2-3ZM208.4,56.2l-1.9-2.3h-.1c0,0-.1.2-.1.2l2.1,2.1h0ZM193.3,23.4v-3h-3v3h3ZM230.5,23.4h3v-3h-3v3ZM230.5,28.2v3h3v-3h-3ZM193.3,28.2h-3v3h3v-3ZM203.4,33.2v-3h-3v3h3ZM203.4,34.6h-3v3h3v-3ZM220.2,34.6v3h3v-3h-3ZM220.2,33.2h3v-3h-3v3ZM197.5,29.4v-3h-3v3h3ZM226.4,29.4h3v-3h-3v3ZM226.4,38.3v3h3v-3h-3ZM197.5,38.3h-3v3h3v-3ZM196.6,39.6v-3h-3v3h3ZM227.2,39.6h3v-3h-3v3ZM227.2,56.7v3h3v-3h-3ZM221,56.7h-3v3h3v-3ZM221,43.6h3v-3h-3v3ZM196.6,43.6h-3v3h3v-3ZM192.2,44.8v-3h-3v3h3ZM231.6,44.8h3v-3h-3v3ZM231.6,49.3v3h3v-3h-3ZM192.2,49.3h-3v3h3v-3ZM196.3,50.6v-3h-3v3h3ZM224.3,50.6h3v-3h-3v3ZM224.3,54.9v3h3v-3h-3ZM196.3,54.9h-3v3h3v-3ZM208.6,21v3h6.2v-6h-6.2v3ZM214.8,21h-3v34.4h6V21h-3ZM214.8,55.4h-3c0,.6,0,1,0,1.3,0,.2,0,.3,0,.3,0,0,0,.1,0,0l2.7,1.4,2.7,1.4c.7-1.3.9-3,.9-4.5h-3,0ZM214.3,58.5l-2.7-1.4s0,0,0,0c0,0-.2.2-.4.3l1.3,2.7,1.3,2.7c1.3-.6,2.5-1.6,3.3-3l-2.7-1.4h0ZM212.4,60.2l-1.1-2.8c-.5.2-1.3.4-2.3.5l.2,3,.2,3c1.5,0,2.9-.4,4.1-.9l-1.1-2.8h0ZM209.2,60.9l-.3-3c-1.1,0-2.5.2-4.3.2v6c1.9,0,3.5,0,4.8-.2l-.3-3h0ZM204.7,61.1l2.9-.6c-.2-1-.5-2-1-3l-2.8,1.2-2.8,1.2c.3.8.5,1.4.6,1.8l2.9-.6h0ZM203.9,58.6l2.8-1.2c-.4-1-.9-1.9-1.4-2.7l-2.5,1.6-2.5,1.6c.3.5.6,1.1,1,1.9l2.8-1.2h0ZM202.7,56.4v3c.4,0,1.1,0,1.7,0v-3c.1,0,.3-3,.3-3-.6,0-1.2,0-1.8,0v3h-.2ZM204.6,56.5v3h1.9v-6h-1.9v3ZM206.4,56.5v3h1.2v-6h-1.2v3ZM207.6,56.5l.2,3c.5,0,1.8-.2,2.7-1.1l-2.1-2.1-2.1-2.1c.4-.4.8-.5.9-.6.2,0,.2,0,.2,0l.2,3h0ZM208.4,56.2l1.9,2.3c1.2-1,1.3-2.4,1.3-3.1h-6s0-.2,0-.5c.1-.3.3-.7.7-1.1l1.9,2.3h0ZM208.6,55.4h3V21h-6v34.4s3,0,3,0ZM193.3,23.4v3h37.2v-6h-37.2v3ZM230.5,23.4h-3v4.8h6v-4.8h-3ZM230.5,28.2v-3h-37.2v6h37.2v-3ZM193.3,28.2h3v-4.8h-6v4.8h3ZM203.4,33.2h-3v1.4h6v-1.4h-3ZM203.4,34.6v3h16.8v-6h-16.8v3ZM220.2,34.6h3v-1.4h-6v1.4h3ZM220.2,33.2v-3h-16.8v6h16.8v-3ZM197.5,29.4v3h28.9v-6h-28.9s0,3,0,3ZM226.4,29.4h-3v8.9h6v-8.9h-3ZM226.4,38.3v-3h-28.9v6h28.9v-3ZM197.5,38.3h3v-8.9h-6v8.9h3ZM196.6,39.6v3h30.6v-6h-30.6v3ZM227.2,39.6h-3v17h6v-17h-3ZM227.2,56.7v-3h-6.2v6h6.2v-3ZM221,56.7h3v-13h-6v13h3ZM221,43.6v-3h-24.4v6h24.4v-3ZM196.6,43.6h3v-4h-6v4h3ZM192.2,44.8v3h39.3v-6h-39.4v3h0ZM231.6,44.8h-3v4.6h6v-4.6s-3,0-3,0ZM231.6,49.3v-3h-39.4v6h39.4v-3ZM192.2,49.3h3v-4.6h-6v4.6h3ZM196.3,50.6v3h28v-6h-28v3ZM224.3,50.6h-3v4.3h6v-4.3h-3ZM224.3,54.9v-3h-28v6h28v-3ZM196.3,54.9h3v-4.3h-6v4.3s3,0,3,0ZM288.1,22.7v-3h-3v3h3ZM302.9,22.7h3v-3h-3v3ZM302.9,28v3h3v-3h-3ZM288.1,28h-3v3h3v-3ZM292.4,31.8v-3h-2.2l-.7,2.1,2.9.9h0ZM299,31.8h3v-3h-3v3ZM299,37v3h3v-3h-3ZM290.8,37l-2.9-.9-1.2,3.9h4.1v-3h0ZM289.7,44.5l-2.6-1.5-1.3,2.2,2,1.6,1.9-2.3h0ZM292.3,39.9l1.7-2.5-2.7-1.8-1.6,2.8,2.6,1.5ZM293.7,41l-1.9,2.3h0l1.9-2.3ZM295.1,42.1l-2,2.2h0c0,0,0,.1,0,.1l1.9-2.3h0ZM296.1,43.2l2.6,1.4.9-1.7-1.1-1.5-2.4,1.8ZM293.4,48.3l-2.5,1.6,2.8,4.5,2.5-4.6-2.6-1.4h0ZM292.5,47l-2.2,2,2.2-2ZM291.1,45.7l-2.1,2.2,2.1-2.2ZM302.3,26v-3h-3v3h3ZM307.6,26h3v-3h-3v3ZM307.6,50.8v3h3v-3h-3ZM302.3,50.8h-3v3h3v-3ZM309,21.9v-3h-3v3h3ZM314.6,21.9h3v-3h-3v3ZM314.2,57.8l-2.8-1h0s2.8,1,2.8,1h0ZM312.4,59.8l-1.4-2.6h0s1.5,2.6,1.5,2.6h0ZM309.2,60.7l-.3-3h0l.4,3h0ZM304.8,61l-3,.4.4,2.6h2.6v-3h0ZM304.1,58l-2.9.8h0s0,0,0,0l2.9-.9h0ZM303,55l.2-3-5-.3,2.1,4.5,2.7-1.3ZM306.1,55.2v3c0,0,0,0,0,0h0v-3h0ZM308.1,55.2v3h.2l-.2-3ZM308.8,54.9l1.9,2.3h.1c0,0,.1-.2.1-.2,0,0-2.1-2.1-2.1-2.1ZM290.6,24.6l.4-3-3.1-.4-.3,3.1,3,.3h0ZM296.4,25.4l3,.5.5-3-3-.4s-.4,3-.4,3ZM295.3,31.5l-2.9-.6h0l2.9.6ZM293.6,37.7l-2.9-.9,2.9.9ZM291.3,43.4l2.7,1.3h0l-2.7-1.3ZM288.2,48.2l-2.6,1.5,2.2,3.6,2.7-3.2-2.3-1.9h0ZM287.2,46.8l-2.4,1.8h0s0,0,0,0l2.4-1.9h0ZM285.9,45.2l-2.3,1.9h0s0,0,0,0l2.2-2h0ZM284.7,43.9l-2.3-1.9-1.8,2.2,2.1,1.9,2-2.2ZM287.1,39.9l-2.7-1.2h0s0,0,0,0l2.8,1.2ZM288.8,35l-2.9-.8h0s2.9.8,2.9.8h0ZM289.9,29.6l-3-.5h0s3,.5,3,.5h0ZM296.8,31.8v-3h-3v3h3ZM297.8,31.8v3h.5s-.5-3-.5-3h0ZM298.8,31.6l.8-2.9-.7-.2h-.7c0,.1.5,3.1.5,3.1h0ZM302.3,32.6l3,.3.3-2.5-2.4-.7-.8,2.9h0ZM298.1,50.1l2.8,1.2-2.8-1.2ZM290.1,60.9l-2.6,1.4,1.6,3.1,2.8-2.1-1.8-2.4h0ZM287.6,57.5l-2.3,1.9,2.3-1.9ZM286.3,56.2l-1.7-2.5-3.4,2.3,3.2,2.5,1.9-2.4ZM293.4,47.2l-2.8-1.2h0l2.8,1.2ZM296.8,32.9l3,.3h0c0-.1,0-.3,0-.3h-3ZM283.2,21l.9-2.9-2.9-.9-.8,2.9,2.9.8ZM288.8,22.7l2.9.9.9-2.9-2.9-.9s-.9,2.9-.9,2.9ZM285.9,30.2l2.8,1.2s-2.8-1.2-2.8-1.2ZM282.2,37.5l-2.6-1.5h0s2.6,1.5,2.6,1.5h0ZM278.1,43.5l-2.9.8,1.5,5.4,3.7-4.3-2.3-2h0ZM277.4,41.5l-2.8,1.1h0s0,0,0,0l2.8-1.1h0ZM276.3,38.9l-2.7,1.2h0l2.7-1.2ZM275.2,36.8l-2.3-1.9-1.4,1.6,1.1,1.8s2.6-1.5,2.6-1.5ZM278.3,32.3l-2.6-1.5h0s0,0,0,0l2.6,1.5h0ZM281.1,26.9l-2.8-1.2h0s0,0,0,0l2.8,1.2ZM279.9,33.3l-2.1-2.1-.9.9v1.2s3,0,3,0ZM285.3,27.8l1.7-2.5-2-1.4-1.7,1.7,2.1,2.1h0ZM285.4,27.9h3v-1.6l-1.3-.9-1.7,2.5ZM285.4,60.9v3h3v-3h-3ZM279.9,60.9h-3v3h3v-3ZM288.1,22.7v3h14.8v-6h-14.8v3ZM302.9,22.7h-3v5.3h6v-5.3s-3,0-3,0ZM302.9,28v-3h-14.8v6h14.8v-3ZM288.1,28h3v-5.3h-6v5.3h3ZM292.4,31.8v3h6.6v-6h-6.6v3ZM299,31.8h-3v5.2h6v-5.2h-3ZM299,37v-3h-8.3v6h8.3v-3ZM290.8,37l2.9.9,1.6-5.2-2.9-.9-2.9-.9-1.6,5.2,2.9.9ZM289.7,44.5l2.6,1.5,2.6-4.6-2.6-1.5-2.6-1.5-2.6,4.6,2.6,1.5ZM292.3,39.9l-1.7,2.5c.4.2.8.5,1.2.9l1.9-2.3,1.9-2.3c-.5-.4-1.1-.8-1.6-1.2l-1.7,2.5h0ZM293.7,41l-1.9,2.3c.4.4.8.7,1.2,1l2-2.2,2-2.2c-.5-.4-1-.9-1.5-1.3l-1.9,2.3h0ZM295.1,42.1l-1.9,2.3c.3.3.5.4.5.5l2.4-1.8,2.4-1.8c-.4-.6-1-1.1-1.6-1.6l-1.9,2.3h0ZM296.1,43.2l-2.6-1.4-2.7,5.1,2.6,1.4,2.6,1.4,2.7-5.1-2.6-1.4ZM293.4,48.3l2.5-1.6c-.4-.6-.8-1.2-1.3-1.7l-2.2,2-2.2,2c.3.4.5.6.6.7l2.5-1.6h0ZM292.5,47l2.2-2c-.5-.5-1-1-1.5-1.5l-2.1,2.2-2.1,2.2c.4.4.8.8,1.2,1.2l2.2-2h0ZM291.1,45.7l2.1-2.2c-.5-.5-1-1-1.5-1.4l-1.9,2.3-1.9,2.3c.4.3.8.7,1.2,1.1l2.1-2.2h0ZM302.3,26v3h5.3v-6h-5.3v3ZM307.6,26h-3v24.8h6v-24.8s-3,0-3,0ZM307.6,50.8v-3h-5.3v6h5.3v-3ZM302.3,50.8h3v-24.8h-6v24.8h3ZM309,21.9v3h5.6v-6h-5.6v3ZM314.6,21.9h-3v32.3h6V21.9h-3ZM314.6,54.3h-3c0,1.4-.1,2.1-.3,2.5l2.8,1,2.8,1c.5-1.3.6-2.9.6-4.6h-3ZM314.2,57.8l-2.8-1c0,.1-.1.2-.4.4l1.4,2.6,1.4,2.6c1.5-.8,2.6-2,3.1-3.6l-2.8-1h0ZM312.4,59.8l-1.5-2.6c-.4.2-1,.4-2,.5l.3,3,.3,3c1.5-.2,3-.6,4.3-1.3l-1.5-2.6h0ZM309.2,60.7l-.4-3c-1.1.2-2.4.2-4,.2v6c1.8,0,3.4,0,4.8-.3l-.4-3h0ZM304.8,61l3-.4c-.1-1-.4-2.2-.8-3.5l-2.9.9-2.9.9c.3,1.1.5,1.9.6,2.5l3-.4h0ZM304.1,58l2.9-.8c-.4-1.2-.8-2.4-1.2-3.4l-2.7,1.3-2.7,1.3c.3.7.6,1.5.9,2.6l2.9-.8h0ZM303,55l-.2,3c1.1,0,2.1,0,3.1.1v-3c0,0,.2-3,.2-3-.9,0-1.9,0-3-.1l-.2,3h0ZM306.1,55.2v3h2v-6h-2v3ZM308.1,55.2l.2,3c.5,0,1.5-.2,2.3-.9l-1.9-2.3-1.9-2.3c.3-.3.6-.4.7-.4.1,0,.2,0,.2,0l.2,3h0ZM308.8,54.9l2.1,2.1c1-1,1.1-2.2,1.1-2.8h-6s0-.2,0-.4c0-.2.2-.6.6-1l2.1,2.1h0ZM309,54.2h3V21.9h-6v32.3h3ZM290.6,24.6l-.4,3,5.8.8.4-3,.4-3-5.8-.8-.4,3ZM296.4,25.4l-3-.5c-.3,1.9-.7,3.9-1.1,6l2.9.6,2.9.6c.5-2.1.9-4.2,1.2-6.3l-3-.5h0ZM295.3,31.5l-2.9-.6c-.4,2-1,4-1.6,5.9l2.9.9,2.9.9c.7-2.1,1.2-4.3,1.7-6.5l-2.9-.6h0ZM293.6,37.7l-2.9-.9c-.6,1.9-1.3,3.6-2.1,5.3l2.7,1.3,2.7,1.3c1-1.9,1.8-4,2.5-6.1l-2.9-.9h0ZM291.3,43.4l-2.7-1.3c-.8,1.6-1.7,3-2.7,4.2l2.3,1.9,2.3,1.9c1.3-1.6,2.5-3.4,3.5-5.4l-2.7-1.3h0ZM288.2,48.2l2.6-1.5c-.3-.6-.8-1.2-1.2-1.7l-2.4,1.9-2.4,1.9c.4.5.6.8.8,1.1l2.6-1.5h0ZM287.2,46.8l2.4-1.8c-.5-.6-1-1.2-1.5-1.8l-2.2,2-2.2,2c.4.4.8.9,1.1,1.4l2.4-1.8h0ZM285.9,45.2l2.3-1.9c-.5-.6-1-1.1-1.5-1.6l-2,2.2-2,2.2c.2.2.6.6,1,1l2.3-1.9h0ZM284.7,43.9l2.3,1.9c1.1-1.4,2-3,2.8-4.7l-2.8-1.2-2.8-1.2c-.6,1.3-1.2,2.4-2,3.3l2.3,1.9h0ZM287.1,39.9l2.7,1.2c.8-1.7,1.4-3.5,1.9-5.4l-2.9-.8-2.9-.8c-.4,1.6-.9,3-1.5,4.4l2.7,1.2h0ZM288.8,35l2.9.8c.5-1.9.9-3.7,1.2-5.6l-3-.5-3-.5c-.3,1.7-.6,3.3-1.1,5l2.9.8h0ZM289.9,29.6l3,.5c.3-1.8.6-3.6.7-5.2l-3-.3-3-.3c-.2,1.5-.4,3.1-.7,4.8l3,.5h0ZM296.8,31.8v3h1v-6h-1v3ZM297.8,31.8l.5,3,1-.2-.5-3-.5-3-1,.2s.5,3,.5,3ZM298.8,31.6l-.8,2.9,3.5,1,.8-2.9.8-2.9-3.5-1s-.8,2.9-.8,2.9ZM302.3,32.6l-3-.3c-.7,6.6-2,12.1-4,16.6l2.8,1.2,2.8,1.2c2.3-5.2,3.7-11.3,4.4-18.4l-3-.3h0ZM298.1,50.1l-2.8-1.2c-2,4.5-4.3,7.6-7.1,9.6l1.8,2.4,1.8,2.4c3.8-2.8,6.7-6.9,9-12l-2.8-1.2h0ZM290.1,60.9l2.6-1.4c-.3-.6-.8-1.3-1.3-2l-2.4,1.8-2.4,1.8c.4.5.7,1,.8,1.3l2.6-1.4h0ZM289,59.3l2.4-1.8c-.5-.7-1-1.3-1.5-1.9l-2.3,1.9-2.3,1.9c.4.5.8,1,1.2,1.6l2.4-1.8h0ZM287.6,57.5l2.3-1.9c-.5-.7-1.1-1.2-1.7-1.7l-1.9,2.4-1.9,2.4c.2.1.5.4.9.9l2.3-1.9h0ZM286.3,56.2l1.7,2.5c3.5-2.4,6.2-5.9,8.1-10.3l-2.8-1.2-2.8-1.2c-1.5,3.5-3.5,6-6,7.7l1.7,2.5h0ZM293.4,47.2l2.8,1.2c1.9-4.3,3.1-9.4,3.6-15.2l-3-.3-3-.3c-.5,5.3-1.6,9.8-3.2,13.4l2.8,1.2h0ZM296.8,32.9h3v-1.1h-6v1.1h3ZM283.2,21l-.9,2.9,5.6,1.7.9-2.9.9-2.9-5.6-1.7-.9,2.9ZM288.8,22.7l-2.9-.9c-.8,2.4-1.7,4.8-2.7,7.2l2.8,1.2,2.8,1.2c1.2-2.6,2.1-5.2,3-7.8l-2.9-.9h0ZM285.9,30.2l-2.8-1.2c-1.1,2.5-2.3,4.8-3.5,7l2.6,1.5,2.6,1.5c1.4-2.4,2.7-4.9,3.9-7.6l-2.8-1.2h0ZM282.2,37.5l-2.6-1.5c-1.2,2.2-2.5,4-3.8,5.5l2.3,2,2.3,2c1.6-1.9,3.1-4,4.5-6.5l-2.6-1.5h0ZM278.1,43.5l2.9-.8c-.2-.7-.5-1.5-.8-2.3l-2.8,1.1-2.8,1.1c.3.8.5,1.4.6,1.7l2.9-.8h0ZM277.4,41.5l2.8-1.1c-.4-.9-.7-1.8-1.2-2.8l-2.7,1.2-2.7,1.2c.4.8.7,1.6,1,2.5l2.8-1.1h0ZM276.3,38.9l2.7-1.2c-.4-.9-.8-1.7-1.2-2.4l-2.6,1.5-2.6,1.5c.2.4.5,1,.9,1.8l2.7-1.2h0ZM275.2,36.8l2.3,1.9c1.2-1.4,2.4-3.1,3.4-4.9l-2.6-1.5-2.6-1.5c-.9,1.6-1.8,2.9-2.8,4l2.3,1.9h0ZM278.3,32.3l2.6,1.5c1.1-1.8,2.1-3.7,2.9-5.8l-2.8-1.2-2.8-1.2c-.8,1.8-1.6,3.5-2.5,5l2.6,1.5h0ZM281.1,26.9l2.8,1.2c.9-2,1.6-4.1,2.2-6.3l-2.9-.8-2.9-.8c-.5,1.9-1.2,3.7-2,5.5l2.8,1.2h0ZM279.9,33.3l2.1,2.1,5.5-5.5-2.1-2.1-2.1-2.1-5.5,5.5,2.1,2.1ZM285.3,27.8l-1.7,2.5h.1c0,0,1.7-2.4,1.7-2.4l1.7-2.5h-.1c0,0-1.7,2.4-1.7,2.4ZM285.4,27.9h-3v33h6V27.9h-3ZM285.4,60.9v-3h-5.6v6h5.6v-3ZM279.9,60.9h3v-27.6h-6v27.6h3Z"/>
    <path class="st0" d="M45.9,26.1h17.2v5.5h-17.2s0-5.5,0-5.5ZM50.6,32.3h5v20.6h-5s0-20.6,0-20.6ZM46,21l6,1.2c-.7,3-1.7,5.9-3,8.6-1.3,2.7-2.8,4.9-4.5,6.7-.3-.4-.7-.8-1.3-1.4-.6-.6-1.1-1.1-1.7-1.6-.6-.6-1.1-1-1.5-1.3,1.5-1.4,2.7-3.1,3.8-5.3,1-2.2,1.8-4.4,2.3-6.8h0ZM40.5,42.6l18.3-8.4,2.1,5-18.2,8.4s-2.1-5-2.1-5ZM43.9,35.2h5.4v18.6c0,.9.1,1.5.4,1.7s.9.3,1.8.3h5.5c.5,0,.9,0,1.2-.3.3-.2.5-.6.6-1.2.1-.6.2-1.5.3-2.7.6.4,1.4.8,2.3,1.2s1.8.7,2.6.8c-.2,1.8-.5,3.2-1,4.3-.5,1.1-1.2,1.8-2.1,2.2-.9.5-2,.7-3.5.7h-6.7c-1.8,0-3.2-.2-4.2-.6-1-.4-1.7-1.2-2.1-2.2-.4-1-.6-2.5-.6-4.3v-18.6h0ZM57.2,35.2h-.3l1-.6.9-.6,3.7,1.3-.2.8v7.2c0,.9,0,1.7,0,2.3,0,.6,0,1.1,0,1.4,0,.8-.2,1.5-.5,2-.3.5-.7.9-1.3,1.2-.5.3-1.1.5-1.8.5-.6,0-1.3,0-1.8,0,0-.7-.2-1.4-.4-2.3-.2-.9-.4-1.6-.7-2.1.2,0,.3,0,.5,0h.5c.1,0,.2,0,.3,0,0,0,.1-.2.2-.4v-.9c0-.5,0-1.2,0-2v-8h0ZM24.3,27.2h18v5.6h-18s0-5.6,0-5.6ZM31.2,36.6h6.5v5.5h-6.5v-5.5ZM30.3,21.1h5.8v7.9h-5.8s0-7.9,0-7.9ZM28.1,30.7h5.8c0,2.9-.2,5.8-.3,8.6-.1,2.8-.4,5.5-.8,8.2-.4,2.6-1,5-1.8,7.3-.8,2.3-1.8,4.3-3.1,6.1-.5-.7-1.1-1.5-1.9-2.3s-1.6-1.5-2.4-2c1.1-1.5,1.9-3.3,2.5-5.2s1-4,1.3-6.2.5-4.5.5-7c0-2.4.1-4.9.2-7.5ZM35.7,36.6h5.5v2.2c0,3.3,0,6.1-.1,8.5,0,2.3-.1,4.3-.2,5.8,0,1.5-.2,2.8-.4,3.7-.2.9-.4,1.5-.6,1.9-.4.6-.8,1.1-1.3,1.4s-1,.5-1.6.6c-.5.1-1.2.2-1.9.2s-1.5,0-2.4,0c0-.8-.2-1.7-.5-2.8-.2-1-.6-1.9-1-2.6.5,0,1,0,1.5.1h1.1c.2,0,.5,0,.6-.1.2,0,.4-.3.5-.5.2-.3.3-1,.4-2.2.1-1.2.2-3,.2-5.4,0-2.4,0-5.7.1-9.8v-1.1ZM111,25.2h33.8v6.4h-33.8v-6.4ZM108.6,52h38.8v6.2h-38.8s0-6.2,0-6.2ZM124.2,28.8h7v25.7h-7s0-25.7,0-25.7ZM208.6,21h6.2v34.4c0,1.4-.2,2.4-.6,3.1s-1,1.3-1.9,1.7c-.9.4-2,.6-3.2.7-1.2.1-2.7.2-4.5.2-.1-.7-.4-1.5-.8-2.4-.4-.9-.8-1.7-1.2-2.3.6,0,1.2,0,1.9,0h3c.4,0,.7-.1.8-.2.2-.1.2-.4.2-.8V21h0ZM193.3,23.4h37.2v4.8h-37.2v-4.8ZM203.4,33.2v1.4h16.8v-1.4h-16.8ZM197.5,29.4h28.9v8.9h-28.9v-8.9ZM196.6,39.6h30.6v17h-6.2v-13h-24.4v-4ZM192.2,44.8h39.3v4.6h-39.4v-4.6h0ZM196.3,50.6h28v4.3h-28v-4.3ZM288.1,22.7h14.8v5.3h-14.8s0-5.3,0-5.3ZM292.4,31.8h6.6v5.2h-8.3l1.6-5.2h0ZM289.7,44.5l2.6-4.6c.5.3.9.7,1.4,1s.9.8,1.3,1.2c.5.4.8.7,1,1l-2.7,5.1c-.2-.4-.5-.8-1-1.2s-.9-.9-1.3-1.3c-.5-.5-.9-.8-1.4-1.2h0ZM302.3,26h5.3v24.8h-5.3s0-24.8,0-24.8ZM309,21.9h5.6v32.3c0,1.5-.1,2.7-.5,3.5-.3.9-.9,1.5-1.8,2-.8.5-1.9.8-3.1.9-1.3.2-2.7.2-4.4.2-.1-.8-.4-1.8-.7-3-.3-1.2-.7-2.1-1.1-3,1.1,0,2.1,0,3,.1h2c.3,0,.6,0,.7-.2.1-.1.2-.4.2-.7V21.9h0ZM290.6,24.6l5.8.8c-.3,2-.7,4-1.1,6.1-.5,2.1-1,4.2-1.6,6.2-.6,2-1.4,3.9-2.3,5.7s-1.9,3.4-3.1,4.8c-.2-.4-.6-.9-1-1.4-.4-.6-.9-1.1-1.3-1.6-.5-.5-.9-1-1.2-1.3.9-1.2,1.7-2.5,2.4-4,.7-1.5,1.3-3.2,1.7-4.9.5-1.8.9-3.5,1.1-5.3.3-1.8.5-3.4.7-5h0ZM296.8,31.8h1l1-.2,3.5,1c-.7,6.8-2.1,12.7-4.2,17.5-2.1,4.8-4.8,8.4-8,10.8-.2-.5-.6-1-1-1.6s-.9-1.2-1.4-1.8c-.5-.6-.9-1-1.3-1.3,3-2,5.4-5,7.1-9,1.7-4,2.9-8.8,3.4-14.3v-1.1h0ZM283.2,21l5.6,1.7c-.8,2.5-1.7,5-2.9,7.5-1.1,2.5-2.4,5-3.7,7.3-1.3,2.3-2.7,4.3-4.2,6-.1-.5-.4-1.2-.7-2-.3-.9-.7-1.7-1.1-2.6-.4-.9-.7-1.6-1-2.1,1.1-1.3,2.1-2.8,3.1-4.5,1-1.7,1.9-3.5,2.7-5.4.8-1.9,1.5-3.9,2.1-5.9h0ZM279.9,33.3l5.5-5.5h.1v33.1h-5.6v-27.6h0Z"/>
  </g>
</svg>