<svg width="67" height="62" viewBox="0 0 67 62" fill="none" xmlns="http://www.w3.org/2000/svg">
<path d="M47.0048 28.7532L48.3292 27.4144C48.3292 27.4144 50.3647 25.6662 52.6856 26.4588C56.7261 27.8382 61.3943 26.3447 64.632 23.1029C65.553 22.1818 66.6717 20.3339 66.6717 20.3339C66.8 20.1586 66.8448 19.9365 66.7919 19.7246L66.5413 18.6936C66.4944 18.5001 66.37 18.335 66.1989 18.2331C66.0277 18.1333 65.8219 18.1068 65.6325 18.1618L57.6798 20.3747C57.3843 20.4562 57.0684 20.3461 56.8891 20.0996L53.2358 15.0667C53.1237 14.9139 53.0768 14.7223 53.1033 14.5369L53.8389 9.19024C53.8776 8.89891 54.0855 8.66249 54.3687 8.58307L62.7677 6.24593C63.1467 6.13991 63.3769 5.74869 63.2832 5.3636L62.951 4.01272C62.9062 3.82115 62.784 3.65814 62.6168 3.5563C62.6168 3.5563 61.9587 3.12022 61.4798 2.87375C56.7098 0.410243 50.703 1.17442 46.7032 5.1762C43.7487 8.13069 42.5914 12.1775 43.1333 16.0203C43.551 18.9748 43.3554 20.5458 42.0799 21.8947C41.9637 22.0149 41.597 22.3816 41.0305 22.9379L47.0048 28.7532Z" fill="#0A366F"/>
<path d="M27.6109 35.9785C18.6965 44.6158 8.97297 54.0133 8.97297 54.0133C8.64083 54.3313 8.45135 54.7693 8.44522 55.2278C8.43909 55.6842 8.62048 56.1264 8.94246 56.4504L13.1074 60.6153C13.4334 60.9392 13.8735 61.1185 14.332 61.1125C14.7905 61.1085 15.2265 60.9169 15.5423 60.5868L33.7116 42.2057L27.6109 35.9785Z" fill="#0A366F"/>
<path d="M65.435 56.3159C65.7589 55.992 65.9383 55.5519 65.9323 55.0933C65.9282 54.6348 65.7367 54.1989 65.4066 53.881L29.7017 19.1338L23.97 24.8676L58.8332 60.4523C59.1511 60.7844 59.5871 60.9739 60.0456 60.98C60.5041 60.9861 60.9442 60.8047 61.2702 60.4808L65.435 56.3159Z" fill="#0A366F"/>
<path d="M33.1941 1.70816C28.8948 0.031265 21.9425 -0.211291 17.9162 3.81305C14.7457 6.98362 10.1082 11.6232 10.1082 11.6232C8.45564 13.2736 9.99 14.9119 8.7694 16.1305C7.54893 17.3509 5.59883 16.1305 4.50068 17.2287L0.474383 21.2569C-0.0982317 21.8274 -0.0982317 22.7565 0.474383 23.3291L6.08394 28.9387C6.65656 29.5113 7.5857 29.5113 8.15819 28.9387L12.1845 24.9124C13.2849 23.8141 12.0622 21.8642 13.2849 20.6456C14.9291 18.9993 16.7243 19.2785 17.7614 20.3135L19.8337 22.3858L22.0792 22.9767L27.8109 17.2449L27.1507 15.0687C25.3229 13.239 25.0621 11.1218 26.2073 9.97671C27.9801 8.20396 30.9081 5.64278 33.6507 4.5445C35.3988 3.84565 34.871 2.10551 33.1941 1.70816ZM25.4186 10.9486C25.4104 10.9548 26.1827 9.99914 26.197 9.98688L25.4186 10.9486Z" fill="#0A366F"/>
</svg>
