<?xml version="1.0" encoding="UTF-8"?>
<svg id="_レイヤー_1" data-name="レイヤー_1" xmlns="http://www.w3.org/2000/svg" xmlns:xlink="http://www.w3.org/1999/xlink" version="1.1" viewBox="0 0 422 82">
  <!-- Generator: Adobe Illustrator 29.6.1, SVG Export Plug-In . SVG Version: 2.1.1 Build 9)  -->
  <defs>
    <style>
      .st0 {
        mask: url(#mask);
      }

      .st1 {
        fill: #ffc739;
      }

      .st2 {
        fill: #fff;
      }

      .st3 {
        fill: #0a366f;
      }
    </style>
    <mask id="mask" x="20" y="19" width="385" height="49" maskUnits="userSpaceOnUse">
      <g id="path-6-outside-1_54_1763">
        <rect class="st2" x="20" y="19" width="385" height="49"/>
        <path d="M39.4,24.6c0,.3-.1.6-.2,1.2,0,.5-.1,1-.2,1.6,0,.5,0,1-.1,1.3,0,1-.1,1.9-.2,2.8,0,.9,0,1.8,0,2.7,0,.9,0,1.8,0,2.7v2.7c0,1.2,0,2.5,0,3.9,0,1.4,0,2.9,0,4.3,0,1.4,0,2.7.1,3.8,0,1.1,0,2,0,2.6,0,2-.2,3.5-.7,4.6-.4,1.1-1,1.8-1.8,2.2-.8.4-1.6.6-2.6.6s-2.3-.2-3.5-.7c-1.2-.4-2.4-1-3.4-1.8-1-.8-1.9-1.7-2.6-2.7-.6-1-1-2.2-1-3.4s.5-2.8,1.6-4.2c1.1-1.4,2.5-2.7,4.2-3.8,1.8-1.2,3.7-2.1,5.8-2.8,1.9-.6,3.8-1.1,5.8-1.4,2-.3,3.8-.5,5.3-.5,2.2,0,4.2.4,6,1.1,1.8.7,3.3,1.8,4.4,3.2,1.1,1.4,1.7,3.2,1.7,5.2s-.3,3.1-.9,4.6c-.6,1.4-1.5,2.6-2.9,3.7-1.4,1-3.3,1.9-5.7,2.5-1,.2-1.9.3-2.9.5-1,.1-1.9.2-2.8.3l-2.3-6.6c1,0,2,0,2.9,0,.9,0,1.7-.1,2.4-.3,1.1-.2,2.1-.5,2.9-.9.8-.4,1.5-.9,2-1.6.5-.6.7-1.4.7-2.2s-.2-1.6-.7-2.1-1.1-1-1.9-1.3c-.8-.3-1.8-.5-3-.5-1.7,0-3.5.2-5.3.5-1.8.3-3.5.8-5.1,1.4-1.2.4-2.2,1-3.1,1.5s-1.6,1.1-2.1,1.7c-.5.6-.8,1.2-.8,1.7s0,.5.2.7c.2.2.4.4.6.6.3.2.5.3.8.4.3,0,.5.1.7.1.3,0,.6,0,.8-.3.3-.2.4-.7.4-1.4s0-1.8,0-3.1c0-1.4,0-3-.1-4.7,0-1.8,0-3.6,0-5.3v-11.1c0-.3,0-.7,0-1.3,0-.6,0-1.1-.1-1.6,0-.6,0-1-.1-1.2h7ZM50.8,29.1c1.1.5,2.4,1.1,3.7,1.8,1.4.7,2.7,1.4,3.9,2.1s2.3,1.3,3.1,1.8l-3,5.2c-.5-.4-1.2-.9-2.1-1.4-.9-.6-1.9-1.1-2.9-1.7-1-.6-2-1.1-3-1.6-1-.5-1.8-.9-2.4-1.2l2.7-5ZM24.7,31.1c1.3.1,2.4.2,3.4.3,1,0,1.9,0,2.6,0,1.1,0,2.3,0,3.7-.1,1.3-.1,2.7-.3,4.1-.4,1.4-.2,2.7-.4,4-.6,1.3-.3,2.5-.5,3.6-.8v6.3c-1.1.3-2.4.5-3.8.8-1.4.2-2.8.4-4.2.5-1.4.1-2.7.3-3.9.3s-2.3.1-3.2.1c-1.5,0-2.7,0-3.7,0s-1.8,0-2.5-.2v-6.1ZM121.3,31.2l6.5,1.3c-1.7,2.4-3.7,4.5-5.9,6.4-2.3,1.8-5.1,3.5-8.4,5-.3-.5-.6-1-1.1-1.6-.4-.6-.9-1.1-1.5-1.7-.5-.6-1-1-1.4-1.3,3-1,5.5-2.3,7.4-3.7,1.9-1.4,3.4-2.9,4.5-4.5ZM123.4,33.9h11.4v4.5h-15.5l4.1-4.5ZM132.9,33.9h1.2l1-.3,4.1,2.4c-1.4,2.4-3.1,4.5-5.2,6.3-2.1,1.8-4.4,3.4-7,4.7-2.6,1.3-5.4,2.4-8.4,3.4-2.9.9-6,1.7-9.1,2.3-.3-.8-.7-1.8-1.3-2.8-.5-1.1-1.1-1.9-1.6-2.6,2.9-.4,5.7-1,8.4-1.7s5.2-1.6,7.6-2.6c2.4-1.1,4.4-2.3,6.2-3.7,1.8-1.4,3.1-3,4.1-4.7v-.8ZM120.9,37.2c1.6,1.7,3.7,3.1,6.3,4.3s5.5,2.2,8.8,3c3.3.8,6.9,1.3,10.7,1.6-.4.5-.9,1.1-1.4,1.8-.5.7-.9,1.4-1.4,2.1-.4.7-.8,1.4-1.1,2-3.9-.5-7.5-1.3-10.9-2.4-3.3-1.1-6.4-2.4-9.1-4.1-2.7-1.7-5.1-3.7-7.2-6l5.3-2.3ZM114.7,49.7h24.7v13.2h-6.3v-8.2h-12.4v8.4h-6v-13.3ZM117.7,56.8h18.4v5h-18.4v-5ZM123.5,23.1h6.3v6.3h-6.3v-6.3ZM108.5,26.3h36.6v10.1h-6.3v-4.6h-24.4v4.6h-6v-10.1ZM207.8,27.4h23.1v4.7h-23.1v-4.7ZM208.8,33.1h21.2v4.5h-21.2v-4.5ZM207,38.6h24.8v4.9h-24.8v-4.9ZM223.5,23l6.1,1.4c-.6,1-1.2,1.8-1.7,2.7-.5.8-1,1.6-1.4,2.1l-4.7-1.3c.3-.7.7-1.5,1-2.4.3-.9.6-1.7.8-2.4ZM210.2,24.7l4.8-1.6c.5.7.9,1.5,1.3,2.3.4.8.8,1.6,1,2.2l-5.1,1.8c-.1-.6-.4-1.4-.8-2.3-.4-.9-.8-1.7-1.2-2.4ZM227.1,43.9l4.6,3.2c-1,1-1.9,1.9-3,2.8s-2,1.7-2.8,2.3l-3.9-2.9c.5-.4,1.1-1,1.7-1.6.6-.6,1.3-1.3,1.8-1.9.6-.7,1.1-1.3,1.5-1.8ZM207.5,46.7l4.1-2.7c.7.7,1.5,1.6,2.3,2.5.8.9,1.4,1.8,1.8,2.5l-4.4,3c-.4-.7-.9-1.6-1.7-2.6-.7-1-1.5-1.9-2.2-2.7ZM205.3,55.2c1.2-.5,2.7-1.2,4.4-2s3.4-1.7,5.1-2.5l1.6,4.9c-1.4.8-2.8,1.6-4.3,2.4-1.5.8-2.8,1.6-4.2,2.3l-2.6-5.1ZM216.5,30.6h5.9v26.6c0,1.3-.1,2.3-.4,3.1-.3.8-.8,1.4-1.5,1.8-.8.4-1.7.7-2.7.8-1,.1-2.2.2-3.5.2,0-.8-.3-1.7-.6-2.7-.3-1-.6-1.9-1-2.6.6,0,1.2,0,1.8,0h1.3c.3,0,.4,0,.5-.2.1-.1.2-.3.2-.5v-26.5ZM222,44c.6,1.8,1.4,3.4,2.4,5,1,1.5,2.2,2.9,3.5,4.1,1.4,1.2,2.9,2.1,4.7,2.9-.4.4-.8.8-1.3,1.4-.5.6-.9,1.2-1.4,1.8-.4.6-.8,1.2-1.1,1.7-1.8-1-3.4-2.4-4.7-3.9-1.3-1.6-2.5-3.5-3.5-5.5-1-2-1.8-4.2-2.4-6.6l3.9-.9ZM192.7,31.6h14v5.6h-14v-5.6ZM197.4,23.1h5.5v39.9h-5.5V23.1ZM197.3,35.6l3.3,1.1c-.3,1.7-.6,3.4-1,5.2-.4,1.8-.9,3.5-1.4,5.2-.5,1.7-1.1,3.3-1.7,4.8-.6,1.5-1.3,2.8-2.1,3.9-.3-.8-.6-1.7-1.2-2.8-.5-1.1-1-1.9-1.4-2.6.6-.9,1.3-1.9,1.8-3.1.6-1.2,1.1-2.4,1.6-3.7.5-1.3.9-2.6,1.3-4,.4-1.4.7-2.7.9-3.9ZM202.7,38.3c.2.3.6.8,1,1.5s1,1.5,1.5,2.3c.6.8,1.1,1.6,1.5,2.3s.8,1.2.9,1.5l-3.1,4.3c-.3-.6-.6-1.4-.9-2.2-.4-.9-.8-1.8-1.2-2.6-.4-.9-.8-1.7-1.2-2.5-.4-.8-.7-1.5-1-2l2.5-2.4ZM301.8,30.1c-.3,2.1-.7,4.4-1.1,6.8s-1.1,4.9-1.9,7.6c-.8,2.8-1.8,5.2-2.9,7.4-1.1,2.1-2.4,3.7-3.8,4.9-1.4,1.2-2.9,1.8-4.5,1.8s-3.3-.6-4.7-1.7c-1.4-1.1-2.5-2.7-3.3-4.6-.8-2-1.2-4.1-1.2-6.5s.5-4.8,1.5-7.1c1-2.2,2.4-4.2,4.2-5.9s3.9-3.1,6.3-4,5-1.5,7.8-1.5,5.1.4,7.2,1.3c2.2.8,4,2,5.5,3.6,1.5,1.5,2.7,3.3,3.5,5.4.8,2,1.2,4.3,1.2,6.6s-.6,5.6-1.8,8c-1.2,2.4-3,4.3-5.3,5.9-2.4,1.6-5.4,2.7-9,3.3l-3.9-6c.9-.1,1.7-.2,2.3-.3.6-.1,1.2-.3,1.8-.4,1.3-.3,2.6-.8,3.7-1.4,1.1-.6,2-1.4,2.8-2.3s1.4-1.9,1.8-3.1c.4-1.2.6-2.5.6-3.8s-.2-3.1-.7-4.4c-.4-1.3-1.1-2.5-2.1-3.4-.9-1-2-1.7-3.3-2.2-1.3-.5-2.8-.8-4.5-.8s-4.1.4-5.8,1.2c-1.6.8-3,1.8-4.1,3-1.1,1.2-1.9,2.5-2.5,3.9-.5,1.4-.8,2.6-.8,3.8s.1,2.2.4,3.1c.3.8.6,1.4,1,1.8.4.4.9.6,1.4.6s1.1-.3,1.6-.8c.5-.6,1-1.4,1.4-2.5.5-1.1,1-2.5,1.5-4.1.6-2,1.2-4.1,1.6-6.4.4-2.3.8-4.6,1-6.8l7,.2ZM363.8,26.1h37.3v5.1h-37.3v-5.1ZM366.6,32.9h32.5v5.1h-32.5v-5.1ZM371.1,47.9h23.3v5.1h-23.3v-5.1ZM371.3,39.7h27.4v15.6h-6.1v-10.7h-21.3v-4.9ZM367.1,39.7h6v5.1c0,1.4,0,2.9-.3,4.5-.2,1.6-.5,3.3-1,5-.4,1.7-1.1,3.2-1.9,4.8-.8,1.5-1.9,2.9-3.2,4.1-.3-.4-.8-.9-1.3-1.4-.6-.5-1.2-1-1.8-1.6-.6-.5-1.1-.9-1.6-1.1,1.6-1.4,2.7-2.9,3.4-4.6.7-1.7,1.2-3.4,1.4-5,.2-1.7.3-3.3.3-4.7v-5ZM379.3,23.1h6.2v12.5h-6.2v-12.5ZM379.5,41.4h5.9v9.7h-5.9v-9.7Z"/>
      </g>
    </mask>
  </defs>
  <rect class="st1" y="0" width="82" height="82"/>
  <rect class="st1" x="85" y="0" width="82" height="82"/>
  <rect class="st1" x="170" y="0" width="82" height="82"/>
  <rect class="st1" x="255" y="0" width="82" height="82"/>
  <rect class="st1" x="340" y="0" width="82" height="82"/>
  <path class="st2" d="M39.4,24.6c0,.3-.1.6-.2,1.2,0,.5-.1,1-.2,1.6,0,.5,0,1-.1,1.3,0,1-.1,1.9-.2,2.8,0,.9,0,1.8,0,2.7,0,.9,0,1.8,0,2.7v2.7c0,1.2,0,2.5,0,3.9,0,1.4,0,2.9,0,4.3,0,1.4,0,2.7.1,3.8,0,1.1,0,2,0,2.6,0,2-.2,3.5-.7,4.6-.4,1.1-1,1.8-1.8,2.2-.8.4-1.6.6-2.6.6s-2.3-.2-3.5-.7c-1.2-.4-2.4-1-3.4-1.8-1-.8-1.9-1.7-2.6-2.7-.6-1-1-2.2-1-3.4s.5-2.8,1.6-4.2c1.1-1.4,2.5-2.7,4.2-3.8,1.8-1.2,3.7-2.1,5.8-2.8,1.9-.6,3.8-1.1,5.8-1.4,2-.3,3.8-.5,5.3-.5,2.2,0,4.2.4,6,1.1,1.8.7,3.3,1.8,4.4,3.2,1.1,1.4,1.7,3.2,1.7,5.2s-.3,3.1-.9,4.6c-.6,1.4-1.5,2.6-2.9,3.7-1.4,1-3.3,1.9-5.7,2.5-1,.2-1.9.3-2.9.5-1,.1-1.9.2-2.8.3l-2.3-6.6c1,0,2,0,2.9,0,.9,0,1.7-.1,2.4-.3,1.1-.2,2.1-.5,2.9-.9.8-.4,1.5-.9,2-1.6.5-.6.7-1.4.7-2.2s-.2-1.6-.7-2.1-1.1-1-1.9-1.3c-.8-.3-1.8-.5-3-.5-1.7,0-3.5.2-5.3.5-1.8.3-3.5.8-5.1,1.4-1.2.4-2.2,1-3.1,1.5s-1.6,1.1-2.1,1.7c-.5.6-.8,1.2-.8,1.7s0,.5.2.7c.2.2.4.4.6.6.3.2.5.3.8.4.3,0,.5.1.7.1.3,0,.6,0,.8-.3.3-.2.4-.7.4-1.4s0-1.8,0-3.1c0-1.4,0-3-.1-4.7,0-1.8,0-3.6,0-5.3v-11.1c0-.3,0-.7,0-1.3,0-.6,0-1.1-.1-1.6,0-.6,0-1-.1-1.2h7ZM50.8,29.1c1.1.5,2.4,1.1,3.7,1.8,1.4.7,2.7,1.4,3.9,2.1s2.3,1.3,3.1,1.8l-3,5.2c-.5-.4-1.2-.9-2.1-1.4-.9-.6-1.9-1.1-2.9-1.7-1-.6-2-1.1-3-1.6-1-.5-1.8-.9-2.4-1.2l2.7-5ZM24.7,31.1c1.3.1,2.4.2,3.4.3,1,0,1.9,0,2.6,0,1.1,0,2.3,0,3.7-.1,1.3-.1,2.7-.3,4.1-.4,1.4-.2,2.7-.4,4-.6,1.3-.3,2.5-.5,3.6-.8v6.3c-1.1.3-2.4.5-3.8.8-1.4.2-2.8.4-4.2.5-1.4.1-2.7.3-3.9.3s-2.3.1-3.2.1c-1.5,0-2.7,0-3.7,0s-1.8,0-2.5-.2v-6.1ZM121.3,31.2l6.5,1.3c-1.7,2.4-3.7,4.5-5.9,6.4-2.3,1.8-5.1,3.5-8.4,5-.3-.5-.6-1-1.1-1.6-.4-.6-.9-1.1-1.5-1.7-.5-.6-1-1-1.4-1.3,3-1,5.5-2.3,7.4-3.7,1.9-1.4,3.4-2.9,4.5-4.5ZM123.4,33.9h11.4v4.5h-15.5l4.1-4.5ZM132.9,33.9h1.2l1-.3,4.1,2.4c-1.4,2.4-3.1,4.5-5.2,6.3-2.1,1.8-4.4,3.4-7,4.7-2.6,1.3-5.4,2.4-8.4,3.4-2.9.9-6,1.7-9.1,2.3-.3-.8-.7-1.8-1.3-2.8-.5-1.1-1.1-1.9-1.6-2.6,2.9-.4,5.7-1,8.4-1.7s5.2-1.6,7.6-2.6c2.4-1.1,4.4-2.3,6.2-3.7,1.8-1.4,3.1-3,4.1-4.7v-.8ZM120.9,37.2c1.6,1.7,3.7,3.1,6.3,4.3s5.5,2.2,8.8,3c3.3.8,6.9,1.3,10.7,1.6-.4.5-.9,1.1-1.4,1.8-.5.7-.9,1.4-1.4,2.1-.4.7-.8,1.4-1.1,2-3.9-.5-7.5-1.3-10.9-2.4-3.3-1.1-6.4-2.4-9.1-4.1-2.7-1.7-5.1-3.7-7.2-6l5.3-2.3ZM114.7,49.7h24.7v13.2h-6.3v-8.2h-12.4v8.4h-6v-13.3ZM117.7,56.8h18.4v5h-18.4v-5ZM123.5,23.1h6.3v6.3h-6.3v-6.3ZM108.5,26.3h36.6v10.1h-6.3v-4.6h-24.4v4.6h-6v-10.1ZM207.8,27.4h23.1v4.7h-23.1v-4.7ZM208.8,33.1h21.2v4.5h-21.2v-4.5ZM207,38.6h24.8v4.9h-24.8v-4.9ZM223.5,23l6.1,1.4c-.6,1-1.2,1.8-1.7,2.7-.5.8-1,1.6-1.4,2.1l-4.7-1.3c.3-.7.7-1.5,1-2.4.3-.9.6-1.7.8-2.4ZM210.2,24.7l4.8-1.6c.5.7.9,1.5,1.3,2.3.4.8.8,1.6,1,2.2l-5.1,1.8c-.1-.6-.4-1.4-.8-2.3-.4-.9-.8-1.7-1.2-2.4ZM227.1,43.9l4.6,3.2c-1,1-1.9,1.9-3,2.8s-2,1.7-2.8,2.3l-3.9-2.9c.5-.4,1.1-1,1.7-1.6.6-.6,1.3-1.3,1.8-1.9.6-.7,1.1-1.3,1.5-1.8ZM207.5,46.7l4.1-2.7c.7.7,1.5,1.6,2.3,2.5.8.9,1.4,1.8,1.8,2.5l-4.4,3c-.4-.7-.9-1.6-1.7-2.6-.7-1-1.5-1.9-2.2-2.7ZM205.3,55.2c1.2-.5,2.7-1.2,4.4-2s3.4-1.7,5.1-2.5l1.6,4.9c-1.4.8-2.8,1.6-4.3,2.4-1.5.8-2.8,1.6-4.2,2.3l-2.6-5.1ZM216.5,30.6h5.9v26.6c0,1.3-.1,2.3-.4,3.1-.3.8-.8,1.4-1.5,1.8-.8.4-1.7.7-2.7.8-1,.1-2.2.2-3.5.2,0-.8-.3-1.7-.6-2.7-.3-1-.6-1.9-1-2.6.6,0,1.2,0,1.8,0h1.3c.3,0,.4,0,.5-.2.1-.1.2-.3.2-.5v-26.5ZM222,44c.6,1.8,1.4,3.4,2.4,5,1,1.5,2.2,2.9,3.5,4.1,1.4,1.2,2.9,2.1,4.7,2.9-.4.4-.8.8-1.3,1.4-.5.6-.9,1.2-1.4,1.8-.4.6-.8,1.2-1.1,1.7-1.8-1-3.4-2.4-4.7-3.9-1.3-1.6-2.5-3.5-3.5-5.5-1-2-1.8-4.2-2.4-6.6l3.9-.9ZM192.7,31.6h14v5.6h-14v-5.6ZM197.4,23.1h5.5v39.9h-5.5V23.1ZM197.3,35.6l3.3,1.1c-.3,1.7-.6,3.4-1,5.2-.4,1.8-.9,3.5-1.4,5.2-.5,1.7-1.1,3.3-1.7,4.8-.6,1.5-1.3,2.8-2.1,3.9-.3-.8-.6-1.7-1.2-2.8-.5-1.1-1-1.9-1.4-2.6.6-.9,1.3-1.9,1.8-3.1.6-1.2,1.1-2.4,1.6-3.7.5-1.3.9-2.6,1.3-4,.4-1.4.7-2.7.9-3.9ZM202.7,38.3c.2.3.6.8,1,1.5s1,1.5,1.5,2.3c.6.8,1.1,1.6,1.5,2.3s.8,1.2.9,1.5l-3.1,4.3c-.3-.6-.6-1.4-.9-2.2-.4-.9-.8-1.8-1.2-2.6-.4-.9-.8-1.7-1.2-2.5-.4-.8-.7-1.5-1-2l2.5-2.4ZM301.8,30.1c-.3,2.1-.7,4.4-1.1,6.8s-1.1,4.9-1.9,7.6c-.8,2.8-1.8,5.2-2.9,7.4-1.1,2.1-2.4,3.7-3.8,4.9-1.4,1.2-2.9,1.8-4.5,1.8s-3.3-.6-4.7-1.7c-1.4-1.1-2.5-2.7-3.3-4.6-.8-2-1.2-4.1-1.2-6.5s.5-4.8,1.5-7.1c1-2.2,2.4-4.2,4.2-5.9s3.9-3.1,6.3-4,5-1.5,7.8-1.5,5.1.4,7.2,1.3c2.2.8,4,2,5.5,3.6,1.5,1.5,2.7,3.3,3.5,5.4.8,2,1.2,4.3,1.2,6.6s-.6,5.6-1.8,8c-1.2,2.4-3,4.3-5.3,5.9-2.4,1.6-5.4,2.7-9,3.3l-3.9-6c.9-.1,1.7-.2,2.3-.3.6-.1,1.2-.3,1.8-.4,1.3-.3,2.6-.8,3.7-1.4,1.1-.6,2-1.4,2.8-2.3s1.4-1.9,1.8-3.1c.4-1.2.6-2.5.6-3.8s-.2-3.1-.7-4.4c-.4-1.3-1.1-2.5-2.1-3.4-.9-1-2-1.7-3.3-2.2-1.3-.5-2.8-.8-4.5-.8s-4.1.4-5.8,1.2c-1.6.8-3,1.8-4.1,3-1.1,1.2-1.9,2.5-2.5,3.9-.5,1.4-.8,2.6-.8,3.8s.1,2.2.4,3.1c.3.8.6,1.4,1,1.8.4.4.9.6,1.4.6s1.1-.3,1.6-.8c.5-.6,1-1.4,1.4-2.5.5-1.1,1-2.5,1.5-4.1.6-2,1.2-4.1,1.6-6.4.4-2.3.8-4.6,1-6.8l7,.2ZM363.8,26.1h37.3v5.1h-37.3v-5.1ZM366.6,32.9h32.5v5.1h-32.5v-5.1ZM371.1,47.9h23.3v5.1h-23.3v-5.1ZM371.3,39.7h27.4v15.6h-6.1v-10.7h-21.3v-4.9ZM367.1,39.7h6v5.1c0,1.4,0,2.9-.3,4.5-.2,1.6-.5,3.3-1,5-.4,1.7-1.1,3.2-1.9,4.8-.8,1.5-1.9,2.9-3.2,4.1-.3-.4-.8-.9-1.3-1.4-.6-.5-1.2-1-1.8-1.6-.6-.5-1.1-.9-1.6-1.1,1.6-1.4,2.7-2.9,3.4-4.6.7-1.7,1.2-3.4,1.4-5,.2-1.7.3-3.3.3-4.7v-5ZM379.3,23.1h6.2v12.5h-6.2v-12.5ZM379.5,41.4h5.9v9.7h-5.9v-9.7Z"/>
  <g class="st0">
    <path class="st3" d="M39.4,24.6l2.9.7.8-3.7h-3.7v3ZM39.3,25.7l3,.3h0s0,0,0,0l-3-.3ZM39,28.6l-3-.2h0s0,0,0,0l3,.2ZM38.8,31.4l-3-.2h0s0,0,0,0h3ZM38.7,34.1h-3c0,0,3,0,3,0ZM38.6,36.8h-3c0,0,0,0,0,0h0s3,0,3,0ZM38.7,43.5h-3c0,0,3,0,3,0ZM38.8,47.8h-3c0,0,0,.1,0,.1h3ZM38.9,51.6h3c0,0-3,0-3,0ZM38.2,58.8l-2.8-1.1h0s0,0,0,0l2.8,1.1ZM36.4,61l-1.3-2.7h0s0,0,0,0l1.5,2.6ZM30.3,60.9l1-2.8h0s0,0,0,0l-1,2.8ZM26.8,59.1l1.8-2.4h0s-1.8,2.4-1.8,2.4ZM24.3,56.4l-2.5,1.6h0s0,0,0,0l2.5-1.6ZM29.1,45l1.6,2.5h0s0,0,0,0l-1.7-2.5ZM34.9,42.2l1,2.8h0s0,0,0,0l-1-2.8ZM40.7,40.8l-.5-3h0s.5,3,.5,3ZM52.1,41.4l-1.2,2.8h0s0,0,0,0l1.1-2.8ZM56.5,44.7l-2.4,1.8h0s0,0,0,0l2.4-1.9ZM57.3,54.5l-2.8-1.1h0s0,0,0,0l2.8,1.1ZM54.4,58.2l1.8,2.4h0s0,0,0,0l-1.8-2.4ZM48.7,60.7l.6,2.9h0s0,0,0,0l-.7-2.9ZM45.8,61.1l.4,3-.4-3ZM43,61.4l-2.8,1,.8,2.2,2.3-.2-.3-3ZM40.7,54.8v-3h-4.2l1.4,4,2.8-1ZM43.5,54.8v3c0,0,.1,0,.1,0h0s-.2-3-.2-3ZM45.9,54.5l.5,3h0s0,0,0,0l-.5-3ZM48.8,53.7l1.3,2.7h0s0,0,0,0l-1.3-2.7ZM50.8,52.1l2.4,1.8h0s0,0,0,0l-2.4-1.8ZM50.8,47.7l2.4-1.8h0l-2.4,1.8ZM48.9,46.4l-1.1,2.8h0s0,0,0,0l1-2.8ZM40.6,46.4l.5,3h0s0,0,0,0l-.6-2.9ZM35.5,47.8l-1.1-2.8h0s0,0,0,0l1.1,2.8ZM30.3,51.1l2.3,2-2.3-2ZM29.8,53.5l-2.5,1.6h0c0,.1,0,.2,0,.2l2.4-1.8ZM30.4,54.1l-1.8,2.4h0s0,0,0,0l1.7-2.5ZM31.1,54.5l-1.2,2.7h.1c0,0,.1.1.1.1l.9-2.8ZM32.6,54.4l1.7,2.5h0c0,0,0-.1,0-.1l-1.8-2.4ZM32.9,49.8h-3c0,0,0,.1,0,.1h3ZM32.8,45.1h-3s0,0,0,0h0s3,0,3,0ZM32.7,27.4h-3v.2l3-.2ZM32.6,25.8h-3c0,.1,0,.2,0,.2h0c0,0,3-.2,3-.2ZM32.5,24.6v-3h-3.7l.8,3.7,2.9-.7ZM50.8,29.1l1.2-2.7-2.5-1.1-1.3,2.4,2.6,1.4ZM54.5,30.9l-1.4,2.6h0s0,0,0,0l1.4-2.7ZM58.4,33l-1.5,2.6h0l1.5-2.6ZM61.5,34.8l2.6,1.5,1.4-2.4-2.3-1.6-1.7,2.5ZM58.5,40l-1.8,2.4,2.7,2.1,1.7-3-2.6-1.5ZM53.5,36.9l-1.5,2.6h0s0,0,0,0l1.5-2.6ZM50.4,35.2l-1.5,2.6h0s0,0,0,0l1.4-2.7ZM48,34l-2.6-1.4-1.6,2.9,3,1.3,1.2-2.8ZM24.7,31.1l.3-3-3.4-.4v3.4c0,0,3.1,0,3.1,0ZM28.1,31.3v3c0,0,0,0,0,0v-3ZM34.4,31.2l.2,3h0s0,0,0,0l-.2-3ZM38.5,30.8l.4,3-.4-3ZM42.5,30.2l.6,2.9-.6-2.9ZM46.1,29.3h3c0,0,0-3.9,0-3.9l-3.7,1.1.8,2.9ZM46.2,35.6l.7,2.9,2.4-.5v-2.4s-3,0-3,0ZM42.3,36.4l.4,3h0s0,0,0,0l-.5-3ZM38.1,37l.3,3h0s0,0,0,0l-.4-3ZM27.3,37.4v-3c0,0,0,3,0,3ZM24.8,37.2h-3c0,0,0,2.7,0,2.7l2.6.3.3-3ZM39.4,24.6l-2.9-.7c0,.4-.2,1-.2,1.5l3,.3,3,.3c0-.5,0-.8.1-.8l-2.9-.7ZM39.3,25.7l-3-.3c0,.5-.1,1-.2,1.6l3,.3,3,.3c0-.5.1-1,.2-1.5l-3-.3ZM39.1,27.3l-3-.3c0,.5-.1,1-.1,1.4l3,.2,3,.2c0-.3,0-.7.1-1.3l-3-.3ZM39,28.6l-3-.2c0,1-.1,1.9-.2,2.8l3,.2,3,.2c0-.9.1-1.9.2-2.8l-3-.2ZM38.8,31.4h-3c0,.8,0,1.7,0,2.6h3c0,0,3,.2,3,.2,0-.9,0-1.8,0-2.7h-3ZM38.7,34.1h-3c0,.8,0,1.7,0,2.6h3c0,0,3,.2,3,.2,0-.9,0-1.8,0-2.7h-3ZM38.6,36.8h-3v.2h0v.2h0v.2h0v.2h0v.2h0v.2h0v.2h0v.2h0v.2h0v.2h0v.2h0v.2h0v.2h0v.2h0v.2h0v.2h0v.2h0c0,.1,3,.1,3,.1h3v-.2h0v-.2h0v-.2h0v-.2h0v-.2h0v-.2h0v-.2h0v-.2h0v-.2h0v-.2h0v-.2h0v-.2h0v-.2h0v-.2h0v-.2h0v-.2h0v-.2h0c0-.1-3-.1-3-.1ZM38.6,39.6h-3c0,1.2,0,2.5,0,4h3c0,0,3-.1,3-.1,0-1.4,0-2.7,0-3.9h-3ZM38.7,43.5h-3c0,1.5,0,2.9,0,4.3h3c0,0,3-.1,3-.1,0-1.4,0-2.9,0-4.3h-3ZM38.8,47.8h-3c0,1.5,0,2.8.1,3.9h3c0,0,3-.1,3-.1,0-1.2,0-2.5-.1-3.9h-3ZM38.9,51.6h-3c0,1.2,0,2.1,0,2.6h6c0-.6,0-1.5,0-2.7h-3ZM38.9,54.2h-3c0,1.8-.2,2.9-.4,3.4l2.8,1.1,2.8,1.1c.7-1.6.9-3.6.9-5.7h-3ZM38.2,58.8l-2.8-1.1c-.1.3-.2.5-.3.5,0,0,0,0,0,0,0,0,0,0,0,0,0,0,0,0,0,0l1.3,2.7,1.3,2.7c1.6-.8,2.6-2.2,3.3-3.8l-2.8-1.1ZM36.4,61l-1.5-2.6c-.2.1-.6.3-1.2.3v6c1.4,0,2.8-.3,4.1-1l-1.5-2.6ZM33.8,61.6v-3c-.7,0-1.5-.1-2.5-.5l-1,2.8-1,2.8c1.5.5,3,.9,4.6.9v-3ZM30.3,60.9l1-2.8c-.9-.3-1.8-.8-2.6-1.4l-1.8,2.4-1.8,2.4c1.3,1,2.7,1.7,4.3,2.2l1-2.8ZM26.8,59.1l1.8-2.4c-.8-.5-1.3-1.2-1.8-1.9l-2.5,1.6-2.5,1.6c.9,1.4,2,2.5,3.3,3.5l1.8-2.4ZM24.3,56.4l2.5-1.6c-.4-.6-.5-1.1-.5-1.8h-6c0,1.8.5,3.4,1.4,4.9l2.5-1.6ZM23.3,53.1h3c0-.6.2-1.4,1-2.4l-2.4-1.8-2.4-1.8c-1.4,1.8-2.2,3.8-2.2,6.1h3ZM24.9,48.8l2.4,1.8c.8-1.1,2-2.1,3.5-3.1l-1.6-2.5-1.6-2.5c-2,1.3-3.7,2.8-5,4.5l2.4,1.8ZM29.1,45l1.7,2.5c1.5-1,3.2-1.8,5.1-2.5l-1-2.8-1-2.8c-2.3.8-4.5,1.8-6.5,3.2l1.7,2.5ZM34.9,42.2l1,2.8c1.7-.6,3.5-1,5.3-1.3l-.5-3-.5-3c-2.2.3-4.3.9-6.3,1.6l1,2.8ZM40.7,40.8l.5,3c1.9-.3,3.5-.4,4.9-.4v-6c-1.7,0-3.7.2-5.8.5l.5,3ZM46,40.3v3c1.9,0,3.5.3,4.9.9l1.2-2.8,1.2-2.8c-2.2-.9-4.6-1.4-7.2-1.4v3ZM52.1,41.4l-1.1,2.8c1.4.5,2.4,1.3,3.1,2.3l2.4-1.8,2.4-1.8c-1.5-1.9-3.4-3.3-5.7-4.2l-1.1,2.8ZM56.5,44.7l-2.4,1.9c.6.8,1,1.9,1,3.4h6c0-2.6-.7-5.1-2.3-7.1l-2.4,1.9ZM58.2,49.9h-3c0,1.3-.2,2.4-.7,3.4l2.8,1.1,2.8,1.1c.7-1.8,1.1-3.7,1.1-5.7h-3ZM57.3,54.5l-2.8-1.1c-.3.8-.9,1.7-2,2.4l1.8,2.4,1.8,2.4c1.7-1.3,3.1-3,3.8-5l-2.8-1.1ZM54.4,58.2l-1.8-2.4c-.9.7-2.4,1.4-4.6,2l.7,2.9.7,2.9c2.6-.7,4.9-1.6,6.7-3l-1.8-2.4ZM48.7,60.7l-.6-2.9c-.9.2-1.8.3-2.7.4l.4,3,.4,3c1-.1,2.1-.3,3.1-.5l-.6-2.9ZM45.8,61.1l-.4-3c-.9.1-1.8.2-2.7.3l.3,3,.3,3c1,0,1.9-.2,2.9-.3l-.4-3ZM43,61.4l2.8-1-2.3-6.6-2.8,1-2.8,1,2.3,6.6,2.8-1ZM40.7,54.8v3c1,0,2,0,2.9,0v-3c0,0-.2-3-.2-3-.9,0-1.8,0-2.8,0v3ZM43.5,54.8l.2,3c1,0,1.9-.2,2.7-.3l-.5-3-.5-3c-.6,0-1.3.2-2.1.2l.2,3ZM45.9,54.5l.5,3c1.3-.2,2.5-.6,3.6-1.1l-1.3-2.7-1.3-2.7c-.6.3-1.3.5-2.2.6l.5,3ZM48.8,53.7l1.3,2.7c1.2-.6,2.2-1.4,3-2.4l-2.4-1.8-2.4-1.8c-.1.2-.4.4-.9.7l1.3,2.7ZM50.8,52.1l2.4,1.8c.9-1.2,1.3-2.6,1.3-4h-6c0,.2,0,.3-.1.4l2.4,1.8ZM51.5,49.9h3c0-1.4-.4-2.8-1.3-4l-2.4,1.8-2.4,1.8s0,0,0,0c0,0,0,.1,0,.3h3ZM50.8,47.7l2.4-1.8c-.9-1.1-2-1.9-3.3-2.3l-1,2.8-1,2.8c.4.2.5.3.6.3l2.4-1.8ZM48.9,46.4l1.1-2.8c-1.3-.5-2.7-.7-4.1-.7v6c.9,0,1.5.1,1.8.3l1.1-2.8ZM45.9,45.9v-3c-1.9,0-3.9.2-5.9.6l.6,2.9.6,2.9c1.7-.3,3.3-.5,4.8-.5v-3ZM40.6,46.4l-.5-3c-2,.4-3.8.9-5.6,1.5l1.1,2.8,1.1,2.8c1.4-.5,2.9-.9,4.6-1.2l-.5-3ZM35.5,47.8l-1.1-2.8c-1.3.5-2.5,1.1-3.6,1.8l1.6,2.5,1.6,2.5c.7-.4,1.6-.9,2.6-1.3l-1.1-2.8ZM32.4,49.3l-1.6-2.5c-1.1.7-2,1.4-2.8,2.3l2.3,2,2.3,2c.2-.3.7-.7,1.4-1.1l-1.6-2.5ZM30.3,51.1l-2.3-2c-.8.9-1.5,2.2-1.5,3.7h6c0,0,0,.2,0,.2,0,0,0,.1,0,.1,0,0,0,0,0-.1l-2.3-2ZM29.6,52.8h-3c0,.8.2,1.6.7,2.3l2.5-1.6,2.5-1.6c.1.2.2.5.2.9h-3ZM29.8,53.5l-2.4,1.8c.3.5.7.8,1.2,1.2l1.8-2.4,1.8-2.4s0,0,0,0c0,0,0,0,0,0l-2.4,1.8ZM30.4,54.1l-1.7,2.5c.4.3.8.5,1.2.7l1.2-2.7,1.2-2.7c0,0-.2,0-.3-.2l-1.7,2.5ZM31.1,54.5l-.9,2.8c.5.2,1,.3,1.6.3v-6c.1,0,.2,0,.2,0,0,0,0,0,0,0l-.9,2.8ZM31.8,54.6v3c.9,0,1.8-.3,2.5-.8l-1.7-2.5-1.7-2.5c.1,0,.2-.1.4-.2.2,0,.3,0,.4,0v3ZM32.6,54.4l1.8,2.4c.8-.7,1.2-1.5,1.3-2.1.2-.6.2-1.2.2-1.7h-6c0,.2,0,.2,0,.1,0,0,.2-.6.8-1.1l1.8,2.4ZM33,53h3c0-.8,0-1.9,0-3.3h-3c0,.1-3,.2-3,.2,0,1.4,0,2.4,0,3h3ZM32.9,49.8h3c0-1.5,0-3.1-.1-4.8h-3c0,0-3,.2-3,.2,0,1.8,0,3.3.1,4.7h3ZM32.8,45.1h3c0-1.8,0-3.6,0-5.3h-6c0,1.8,0,3.6,0,5.4h3ZM32.7,39.8h3v-.2h0v-.2h0v-.2h0v-.2h0v-.2h0v-.2h0v-.2h0v-.2h0v-.2h0v-.2h0v-.2h0v-.2h0v-.2h0v-.2h0v-.2h0v-.2h0v-.2h0v-.2h0v-.2h0v-.2h0v-.2h0v-.2h0c0,0-3,0-3,0h-3v.2h0v.2h0v.2h0v.2h0v.2h0v.2h0v.2h0v.2h0v.2h0v.2h0v.2h0v.2h0v.2h0v.2h0v.2h0v.2h0v.2h0v.2h0v.2h0v.2h0v.2h0v.2h0c0,0,3,0,3,0ZM32.7,36.3h3v-.2h0v-.2h0v-.2h0v-.2h0v-.2h0v-.2h0v-.2h0v-.2h0v-.2h0v-.2h0v-.2h0v-.2h0v-.2h0v-.2h0v-.2h0v-.2h0v-.2h0v-.2h0v-.2h0v-.2h0c0,0-3,0-3,0h-3v.2h0v.2h0v.2h0v.2h0v.2h0v.2h0v.2h0v.2h0v.2h0v.2h0v.2h0v.2h0v.2h0v.2h0v.2h0v.2h0v.2h0v.2h0v.2h0v.2h0c0,0,3,0,3,0ZM32.7,33.2h3v-.2h0v-.2h0v-.2h0v-.2h0v-.2h0v-.2h0v-.2h0v-.2h0v-.2h0v-.2h0v-.2h0v-.2h0v-.2h0v-.2h0v-.2h0v-.2h0v-.2h0s-3,0-3,0h-3v.2h0v.2h0v.2h0v.2h0v.2h0v.2h0v.2h0v.2h0v.2h0v.2h0v.2h0v.2h0v.2h0v.2h0v.2h0v.2h0v.2h0s3,0,3,0ZM32.7,30.6h3v-.2h0v-.2h0v-.2h0v-.2h0v-.2h0v-.2h0v-.2h0v-.2h0v-.2h0v-.2h0v-.2h0v-.2h0c0-.1-3-.1-3-.1h-3v.2h0v.2h0v.2h0v.2h0v.2h0v.2h0v.2h0v.2h0v.2h0v.2h0v.2h0v.2h0c0,.1,3,.1,3,.1ZM32.7,28.7h3c0-.4,0-.9,0-1.4l-3,.2-3,.2c0,.5,0,.9,0,1.1h3ZM32.7,27.4h3c0-.8,0-1.4-.1-2l-3,.3-3,.3c0,.5,0,1,.1,1.5h3ZM32.6,25.8h3c0-.7,0-1.4-.2-1.9l-2.9.7-2.9.7s0,0,0,.2c0,.1,0,.3,0,.6h3ZM32.5,24.6v3h7v-6h-7v3ZM50.8,29.1l-1.2,2.7c1,.5,2.2,1.1,3.6,1.8l1.4-2.6,1.4-2.6c-1.4-.8-2.7-1.4-3.9-1.9l-1.2,2.7ZM54.5,30.9l-1.4,2.7c1.3.7,2.6,1.4,3.9,2.1l1.5-2.6,1.5-2.6c-1.3-.7-2.6-1.4-4-2.1l-1.4,2.7ZM58.4,33l-1.5,2.6c1.2.7,2.2,1.2,2.8,1.7l1.7-2.5,1.7-2.5c-.9-.6-2-1.3-3.3-2l-1.5,2.6ZM61.5,34.8l-2.6-1.5-3,5.2,2.6,1.5,2.6,1.5,3-5.2-2.6-1.5ZM58.5,40l1.8-2.4c-.6-.5-1.4-1-2.4-1.6l-1.6,2.5-1.6,2.5c.9.5,1.5,1,1.8,1.3l1.8-2.4ZM56.4,38.6l1.6-2.5c-.9-.6-2-1.2-3.1-1.8l-1.5,2.6-1.5,2.6c1,.6,2,1.1,2.8,1.6l1.6-2.5ZM53.5,36.9l1.5-2.6c-1.1-.6-2.1-1.2-3.1-1.7l-1.4,2.7-1.4,2.7c.9.5,1.9,1,2.9,1.6l1.5-2.6ZM50.4,35.2l1.5-2.6c-1-.6-1.9-1-2.7-1.4l-1.2,2.8-1.2,2.8c.5.2,1.2.6,2.1,1.1l1.5-2.6ZM48,34l2.6,1.4,2.7-5-2.6-1.4-2.6-1.4-2.7,5,2.6,1.4ZM24.7,31.1l-.3,3c1.3.1,2.6.2,3.6.3v-3c0,0,.2-3,.2-3-.9,0-1.9-.1-3.2-.2l-.3,3ZM28.1,31.3v3c.9,0,1.9,0,2.6,0v-6c-.7,0-1.6,0-2.6,0v3ZM30.7,31.4v3c1.2,0,2.5,0,3.8-.1l-.2-3-.2-3c-1.3,0-2.4.1-3.5.1v3ZM34.4,31.2l.2,3c1.4-.1,2.8-.3,4.2-.4l-.4-3-.4-3c-1.3.2-2.7.3-4,.4l.2,3ZM38.5,30.8l.4,3c1.4-.2,2.8-.4,4.2-.7l-.6-2.9-.6-2.9c-1.2.2-2.5.4-3.8.6l.4,3ZM42.5,30.2l.6,2.9c1.4-.3,2.7-.6,3.9-.9l-.8-2.9-.8-2.9c-1,.3-2.1.5-3.4.8l.6,2.9ZM46.1,29.3h-3c0,0,.1,6.4.1,6.4h3c0,0,3-.1,3-.1v-6.3c-.1,0-3.1,0-3.1,0ZM46.2,35.6l-.7-2.9c-1.2.3-2.4.5-3.8.7l.5,3,.5,3c1.5-.2,2.8-.5,4.1-.8l-.7-2.9ZM42.3,36.4l-.4-3c-1.4.2-2.8.4-4.1.5l.4,3,.4,3c1.4-.2,2.8-.4,4.3-.6l-.4-3ZM38.1,37l-.3-3c-1.3.1-2.6.2-3.8.3l.2,3,.2,3c1.3,0,2.6-.2,4-.3l-.3-3ZM34.2,37.3l-.2-3c-1.2,0-2.2.1-3,.1v6c1,0,2.2,0,3.4-.1l-.2-3ZM30.9,37.4v-3c-1.5,0-2.7,0-3.6,0v3c0,0-.2,3-.2,3,1,0,2.2,0,3.7,0v-3ZM27.3,37.4v-3c-.8,0-1.5,0-2.1-.1l-.3,3-.3,3c.8,0,1.7.2,2.7.2v-3ZM24.8,37.2h3c0,0-.1-6.2-.1-6.2h-3c0,0-3,.1-3,.1v6.1c.1,0,3.1,0,3.1,0ZM121.3,31.2l.6-2.9-2-.4-1.1,1.7,2.5,1.7ZM127.8,32.5l2.5,1.7,2.7-3.8-4.5-.9-.6,2.9ZM121.9,38.9l1.9,2.3h0s0,0,0,0l-1.9-2.3ZM113.5,43.9l-2.7,1.4,1.3,2.5,2.6-1.1-1.2-2.7ZM112.4,42.3l-2.4,1.8h0s0,0,0,0l2.3-1.9ZM110.9,40.6l-2.2,2h0c0,0,0,.1,0,.1l2.1-2.1ZM109.5,39.3l-1-2.8-5.6,1.9,4.9,3.4,1.7-2.5ZM116.9,35.7l1.8,2.4h0s0,0,0,0l-1.8-2.4ZM123.4,33.9v-3h-1.3l-.9,1,2.2,2ZM134.8,33.9h3v-3h-3v3ZM134.8,38.4v3h3v-3h-3ZM119.3,38.4l-2.2-2-4.5,5h6.8v-3ZM132.9,33.9v-3h-3v3h3ZM134.1,33.9v3h.7c0,0-.7-3-.7-3ZM135.1,33.6l1.5-2.6-1.1-.6-1.2.3.7,2.9ZM139.2,36.1l2.6,1.5,1.5-2.6-2.6-1.5-1.5,2.6ZM134,42.4l2,2.3h0s0,0,0,0l-2-2.2ZM127,47.2l1.4,2.7h0s0,0,0,0l-1.4-2.7ZM118.7,50.5l-.9-2.9h0s.9,2.9.9,2.9ZM109.6,52.8l-2.8,1,.8,2.4,2.5-.5-.6-2.9ZM108.3,50l-2.7,1.3h0s0,0,0,0l2.7-1.4ZM106.7,47.4l-.4-3-5.2.7,3.3,4.1,2.4-1.9ZM115.1,45.7l.8,2.9h0l-.8-2.9ZM122.7,43l1.2,2.7h0s0,0,0,0l-1.2-2.7ZM128.8,39.4l1.8,2.4h0s0,0,0,0l-1.9-2.3ZM132.9,34.7l2.6,1.5.4-.7v-.8h-3ZM120.9,37.2l2.1-2.1-1.4-1.5-1.9.8,1.2,2.7ZM127.2,41.5l-1.3,2.7,1.3-2.7ZM136.1,44.5l-.7,2.9h0s0,0,0,0l.7-2.9ZM146.7,46.1l2.2,2.1,4.3-4.5-6.2-.5-.2,3ZM145.3,47.9l-2.5-1.7h0s0,0,0,0l2.5,1.7ZM143.9,50.1l-2.6-1.6h0l2.6,1.6ZM142.8,52l-.4,3,2.2.3.9-2-2.7-1.3ZM131.9,49.7l-.9,2.9h0s.9-2.9.9-2.9ZM122.8,45.6l-1.6,2.6h0s0,0,0,0l1.5-2.6ZM115.7,39.6l-1.2-2.7-3.8,1.6,2.7,3.1,2.3-2ZM114.7,49.7v-3h-3v3h3ZM139.3,49.7h3v-3h-3v3ZM139.3,62.9v3h3v-3h-3ZM133,62.9h-3v3h3v-3ZM133,54.7h3v-3h-3v3ZM120.7,54.7v-3h-3v3h3ZM120.7,63v3h3v-3h-3ZM114.7,63h-3v3h3v-3ZM117.7,56.8v-3h-3v3h3ZM136.1,56.8h3v-3h-3v3ZM136.1,61.8v3h3v-3h-3ZM117.7,61.8h-3v3h3v-3ZM123.5,23.1v-3h-3v3h3ZM129.8,23.1h3v-3h-3v3ZM129.8,29.4v3h3v-3h-3ZM123.5,29.4h-3v3h3v-3ZM108.5,26.3v-3h-3v3h3ZM145.1,26.3h3v-3h-3v3ZM145.1,36.4v3h3v-3h-3ZM138.8,36.4h-3v3h3v-3ZM138.8,31.8h3v-3h-3v3ZM114.4,31.8v-3h-3v3h3ZM114.4,36.4v3h3v-3h-3ZM108.5,36.4h-3v3h3v-3ZM121.3,31.2l-.6,2.9,6.5,1.3.6-2.9.6-2.9-6.5-1.3-.6,2.9ZM127.8,32.5l-2.5-1.7c-1.5,2.2-3.3,4.1-5.4,5.8l1.9,2.3,1.9,2.3c2.5-2,4.6-4.4,6.5-7l-2.5-1.7ZM121.9,38.9l-1.9-2.3c-2,1.6-4.6,3.2-7.7,4.6l1.2,2.7,1.2,2.7c3.5-1.6,6.6-3.4,9.1-5.4l-1.9-2.3ZM113.5,43.9l2.7-1.4c-.4-.7-.9-1.4-1.4-2.1l-2.3,1.9-2.3,1.9c.4.5.6.9.8,1.1l2.7-1.4ZM112.4,42.3l2.4-1.8c-.5-.7-1.1-1.4-1.7-2l-2.1,2.1-2.1,2.1c.4.4.8.9,1.2,1.4l2.4-1.8ZM110.9,40.6l2.2-2c-.6-.7-1.3-1.3-2-1.8l-1.7,2.5-1.7,2.5c.2.1.5.4.9.8l2.2-2ZM109.5,39.3l1,2.8c3.2-1.1,5.9-2.4,8.2-4.1l-1.8-2.4-1.8-2.4c-1.6,1.2-3.8,2.3-6.6,3.2l1,2.8ZM116.9,35.7l1.8,2.4c2.1-1.6,3.9-3.3,5.2-5.2l-2.5-1.7-2.5-1.7c-.8,1.2-2,2.4-3.7,3.7l1.8,2.4ZM123.4,33.9v3h11.4v-6h-11.4v3ZM134.8,33.9h-3v4.5h6v-4.5h-3ZM134.8,38.4v-3h-15.5v6h15.5v-3ZM119.3,38.4l2.2,2,4.1-4.5-2.2-2-2.2-2-4.1,4.5,2.2,2ZM132.9,33.9v3h1.2v-6h-1.2v3ZM134.1,33.9l.7,2.9,1-.3-.7-2.9-.7-2.9-1,.3.7,2.9ZM135.1,33.6l-1.5,2.6,4.1,2.4,1.5-2.6,1.5-2.6-4.1-2.4-1.5,2.6ZM139.2,36.1l-2.6-1.5c-1.2,2.1-2.7,4-4.6,5.6l2,2.2,2,2.2c2.3-2.1,4.2-4.4,5.8-7.1l-2.6-1.5ZM134,42.4l-2-2.3c-1.9,1.6-4,3.1-6.4,4.3l1.4,2.7,1.4,2.7c2.8-1.4,5.4-3.2,7.6-5.2l-2-2.3ZM127,47.2l-1.4-2.7c-2.4,1.2-5.1,2.3-7.9,3.2l.9,2.9.9,2.9c3.1-1,6.1-2.2,8.8-3.5l-1.4-2.7ZM118.7,50.5l-.9-2.9c-2.8.9-5.7,1.6-8.8,2.2l.6,2.9.6,2.9c3.2-.6,6.4-1.4,9.5-2.4l-.9-2.9ZM109.6,52.8l2.8-1c-.3-1-.8-2.1-1.4-3.2l-2.7,1.4-2.7,1.4c.5,1,.9,1.8,1.1,2.4l2.8-1ZM108.3,50l2.7-1.3c-.6-1.2-1.2-2.2-1.9-3.1l-2.4,1.9-2.4,1.9c.4.5.8,1.1,1.3,2.1l2.7-1.3ZM106.7,47.4l.4,3c3-.4,5.9-1,8.8-1.8l-.8-2.9-.8-2.9c-2.6.7-5.3,1.2-8,1.6l.4,3ZM115.1,45.7l.8,2.9c2.9-.8,5.5-1.7,8-2.8l-1.2-2.7-1.2-2.7c-2.2,1-4.5,1.8-7.1,2.5l.8,2.9ZM122.7,43l1.2,2.7c2.5-1.1,4.8-2.5,6.8-4l-1.8-2.4-1.8-2.4c-1.6,1.2-3.4,2.3-5.6,3.3l1.2,2.7ZM128.8,39.4l1.9,2.3c2-1.6,3.7-3.5,4.8-5.6l-2.6-1.5-2.6-1.5c-.7,1.3-1.8,2.6-3.3,3.8l1.9,2.3ZM132.9,34.7h3v-.8h-6v.8h3ZM120.9,37.2l-2.1,2.1c1.9,2,4.3,3.6,7.2,4.9l1.3-2.7,1.3-2.7c-2.3-1.1-4.1-2.3-5.4-3.7l-2.1,2.1ZM127.2,41.5l-1.3,2.7c2.8,1.3,5.9,2.4,9.4,3.2l.7-2.9.7-2.9c-3.1-.7-5.9-1.7-8.2-2.8l-1.3,2.7ZM136.1,44.5l-.7,2.9c3.5.8,7.2,1.3,11.1,1.7l.2-3,.2-3c-3.7-.3-7.1-.8-10.2-1.5l-.7,2.9ZM146.7,46.1l-2.2-2.1c-.6.6-1.1,1.3-1.7,2.2l2.5,1.7,2.5,1.7c.4-.6.8-1.1,1.1-1.5l-2.2-2.1ZM145.3,47.9l-2.5-1.7c-.5.7-1,1.5-1.5,2.3l2.6,1.6,2.6,1.6c.4-.7.9-1.4,1.3-2l-2.5-1.7ZM143.9,50.1l-2.6-1.6c-.5.8-.9,1.5-1.2,2.3l2.7,1.3,2.7,1.3c.2-.5.5-1,.9-1.7l-2.6-1.6ZM142.8,52l.4-3c-3.7-.5-7.2-1.2-10.4-2.2l-.9,2.9-.9,2.9c3.5,1.1,7.4,1.9,11.4,2.5l.4-3ZM131.9,49.7l.9-2.9c-3.1-1-6-2.3-8.5-3.8l-1.5,2.6-1.5,2.6c3,1.8,6.2,3.2,9.7,4.4l.9-2.9ZM122.8,45.6l1.6-2.6c-2.5-1.5-4.6-3.4-6.5-5.5l-2.3,2-2.3,2c2.3,2.6,4.9,4.8,7.9,6.6l1.6-2.6ZM115.7,39.6l1.2,2.7,5.3-2.3-1.2-2.7-1.2-2.7-5.3,2.3,1.2,2.7ZM114.7,49.7v3h24.7v-6h-24.7v3ZM139.3,49.7h-3v13.2h6v-13.2h-3ZM139.3,62.9v-3h-6.3v6h6.3v-3ZM133,62.9h3v-8.2h-6v8.2h3ZM133,54.7v-3h-12.4v6h12.4v-3ZM120.7,54.7h-3v8.4h6v-8.4h-3ZM120.7,63v-3h-6v6h6v-3ZM114.7,63h3v-13.3h-6v13.3h3ZM117.7,56.8v3h18.4v-6h-18.4v3ZM136.1,56.8h-3v5h6v-5h-3ZM136.1,61.8v-3h-18.4v6h18.4v-3ZM117.7,61.8h3v-5h-6v5h3ZM123.5,23.1v3h6.3v-6h-6.3v3ZM129.8,23.1h-3v6.3h6v-6.3h-3ZM129.8,29.4v-3h-6.3v6h6.3v-3ZM123.5,29.4h3v-6.3h-6v6.3h3ZM108.5,26.3v3h36.6v-6h-36.6v3ZM145.1,26.3h-3v10.1h6v-10.1h-3ZM145.1,36.4v-3h-6.3v6h6.3v-3ZM138.8,36.4h3v-4.6h-6v4.6h3ZM138.8,31.8v-3h-24.4v6h24.4v-3ZM114.4,31.8h-3v4.6h6v-4.6h-3ZM114.4,36.4v-3h-6v6h6v-3ZM108.5,36.4h3v-10.1h-6v10.1h3ZM207.8,27.4v-3h-3v3h3ZM230.9,27.4h3v-3h-3v3ZM230.9,32.2v3h3v-3h-3ZM207.8,32.2h-3v3h3v-3ZM208.8,33.1v-3h-3v3h3ZM230,33.1h3v-3h-3v3ZM230,37.6v3h3v-3h-3ZM208.8,37.6h-3v3h3v-3ZM207,38.6v-3h-3v3h3ZM231.7,38.6h3v-3h-3v3ZM231.7,43.5v3h3v-3h-3ZM207,43.5h-3v3h3v-3ZM223.5,23l.7-2.9-2.8-.6-.8,2.8,2.9.8ZM229.6,24.4l2.5,1.6,2.3-3.6-4.2-1-.7,2.9ZM227.9,27.1l-2.5-1.6h0l2.5,1.6ZM226.4,29.2l-.8,2.9,2,.6,1.2-1.7-2.4-1.7ZM221.7,27.9l-2.7-1.3-1.5,3.2,3.4,1,.8-2.9ZM222.7,25.4l2.8,1.1h0s0,0,0,0l-2.8-1ZM210.2,24.7l-.9-2.8-3.5,1.2,1.8,3.2,2.6-1.5ZM214.9,23.1l2.5-1.7-1.3-1.9-2.2.7.9,2.8ZM216.3,25.4l-2.7,1.3h0s0,0,0,0l2.6-1.4ZM217.2,27.7l1,2.8,2.7-1-.8-2.7-2.9.9ZM212.2,29.5l-2.9.6.7,3.3,3.2-1.1-1-2.8ZM227.1,43.9l1.7-2.5-2.4-1.7-1.7,2.3,2.4,1.8ZM231.7,47.1l2.1,2.1,2.5-2.5-2.9-2.1-1.7,2.5ZM225.9,52.2l-1.8,2.4,1.9,1.4,1.8-1.4-1.9-2.4ZM222,49.3l-1.9-2.3-2.9,2.4,3,2.3,1.8-2.4ZM223.8,47.7l-2.1-2.2h0s0,0,0,0l2.1,2.1ZM225.6,45.7l2.3,2h0l-2.3-2ZM207.5,46.7l-1.7-2.5-2.9,2,2.4,2.6,2.2-2ZM211.6,44l2.1-2.1-1.7-1.7-2,1.4,1.7,2.5ZM213.8,46.5l-2.3,1.9h0s0,0,0,0l2.3-2ZM215.7,49l1.7,2.5,2.3-1.6-1.4-2.4-2.6,1.5ZM211.3,52l-2.7,1.3,1.5,3.1,2.8-2-1.7-2.5ZM209.6,49.4l-2.4,1.8h0s0,0,0,0l2.4-1.8ZM205.3,55.2l-1.1-2.8-3,1.2,1.5,2.9,2.7-1.4ZM209.7,53.2l1.3,2.7h0l-1.3-2.7ZM214.8,50.7l2.9-.9-1.1-3.3-3.1,1.6,1.3,2.7ZM216.4,55.6l1.5,2.6,2.1-1.2-.7-2.3-2.9.9ZM212.1,58.1l1.5,2.6h0s0,0,0,0l-1.5-2.6ZM207.9,60.3l-2.7,1.4,1.4,2.7,2.7-1.4-1.4-2.6ZM216.5,30.6v-3h-3v3h3ZM222.3,30.6h3v-3h-3v3ZM221.9,60.3l-2.8-1h0s0,0,0,0l2.8.9ZM220.4,62.1l1.5,2.6h0s0,0,0,0l-1.5-2.6ZM217.7,62.9l-.3-3h0s.3,3,.3,3ZM214.1,63.1l-3,.3.3,2.7h2.7v-3ZM213.6,60.3l-2.9.8h0s0,0,0,0l2.9-.9ZM212.6,57.7v-3c.1,0-5.1-.2-5.1-.2l2.4,4.6,2.7-1.4ZM214.4,57.8v3c-.1,0,0,0,0,0h0v-3ZM216.3,57.7l-2.1-2.1-.2.2v.2c-.1,0,2.3,1.8,2.3,1.8ZM222,44l2.8-1-.9-2.5-2.6.6.7,2.9ZM224.3,49l-2.6,1.6h0s0,0,0,0l2.5-1.6ZM227.9,53.2l-2,2.3h0s0,0,0,0l2-2.3ZM232.5,56l2,2.2,3.4-3.2-4.3-1.8-1.2,2.8ZM231.2,57.4l-2.3-2h0s0,0,0,0l2.3,1.9ZM229.8,59.3l-2.4-1.8h0l2.4,1.8ZM228.7,61l-1.5,2.6,2.7,1.6,1.5-2.8-2.7-1.4ZM224,57l-2.3,1.9h0s0,0,0,0l2.3-2ZM220.5,51.5l-2.7,1.3h0s0,0,0,0l2.7-1.3ZM218.1,44.9l-.7-2.9-3.1.7.8,3,2.9-.8ZM192.7,31.6v-3h-3v3h3ZM206.8,31.6h3v-3h-3v3ZM206.8,37.2v3h3v-3h-3ZM192.7,37.2h-3v3h3v-3ZM197.4,23.1v-3h-3v3h3ZM202.9,23.1h3v-3h-3v3ZM202.9,63v3h3v-3h-3ZM197.4,63h-3v3h3v-3ZM197.3,35.6l1-2.8-3.3-1.1-.6,3.4,3,.5ZM200.6,36.7l3,.5.4-2.5-2.4-.8-1,2.8ZM199.5,41.9l2.9.7h0s-2.9-.7-2.9-.7ZM198.1,47.1l-2.9-.9h0s0,0,0,0l2.9.8ZM196.4,51.9l2.8,1.2-2.8-1.2ZM194.3,55.7l-2.9.9,1.8,5.9,3.5-5.1-2.5-1.7ZM193.1,53l-2.7,1.3h0s0,0,0,0l2.7-1.4ZM191.7,50.3l-2.4-1.8-1.2,1.6,1,1.7,2.6-1.5ZM193.5,47.2l-2.7-1.3h0l2.7,1.3ZM195.1,43.5l-2.8-1.1h0s0,0,0,0l2.8,1ZM196.4,39.5l2.9.8h0s0,0,0,0l-2.9-.8ZM202.7,38.3l2.3-1.9-2.1-2.6-2.4,2.3,2.1,2.2ZM203.7,39.8l-2.5,1.7h0l2.5-1.7ZM205.2,42.1l-2.5,1.6h0s0,0,0,0l2.5-1.7ZM207.7,45.8l2.4,1.7,1.1-1.6-1-1.7-2.6,1.5ZM204.6,50.1l-2.8,1.1,2,5.2,3.2-4.5-2.4-1.7ZM203.7,47.9l-2.8,1.2h0s0,0,0,0l2.8-1.2ZM202.5,45.3l-2.7,1.3h0s0,0,0,0l2.7-1.3ZM201.2,42.7l-2.7,1.3h0s0,0,0,0l2.7-1.3ZM200.2,40.7l-2.1-2.2-1.7,1.6,1.2,2,2.6-1.5ZM207.8,27.4v3h23.1v-6h-23.1v3ZM230.9,27.4h-3v4.7h6v-4.7h-3ZM230.9,32.2v-3h-23.1v6h23.1v-3ZM207.8,32.2h3v-4.7h-6v4.7h3ZM208.8,33.1v3h21.2v-6h-21.2v3ZM230,33.1h-3v4.5h6v-4.5h-3ZM230,37.6v-3h-21.2v6h21.2v-3ZM208.8,37.6h3v-4.5h-6v4.5h3ZM207,38.6v3h24.8v-6h-24.8v3ZM231.7,38.6h-3v4.9h6v-4.9h-3ZM231.7,43.5v-3h-24.8v6h24.8v-3ZM207,43.5h3v-4.9h-6v4.9h3ZM223.5,23l-.7,2.9,6.1,1.4.7-2.9.7-2.9-6.1-1.4-.7,2.9ZM229.6,24.4l-2.5-1.6c-.6,1-1.2,1.9-1.7,2.7l2.5,1.6,2.5,1.6c.5-.8,1.1-1.7,1.7-2.7l-2.5-1.6ZM227.9,27.1l-2.5-1.6c-.5.8-1,1.5-1.3,2l2.4,1.7,2.4,1.7c.5-.6,1-1.4,1.5-2.3l-2.5-1.6ZM226.4,29.2l.8-2.9-4.7-1.3-.8,2.9-.8,2.9,4.7,1.3.8-2.9ZM221.7,27.9l2.7,1.3c.4-.8.7-1.7,1.1-2.6l-2.8-1.1-2.8-1.1c-.3.8-.6,1.6-.9,2.2l2.7,1.3ZM222.7,25.4l2.8,1c.4-1,.6-1.9.9-2.7l-2.9-.8-2.9-.8c-.2.6-.4,1.3-.7,2.2l2.8,1ZM210.2,24.7l.9,2.8,4.8-1.6-.9-2.8-.9-2.8-4.8,1.6.9,2.8ZM214.9,23.1l-2.5,1.7c.4.6.8,1.2,1.1,2l2.7-1.3,2.7-1.3c-.5-.9-1-1.8-1.5-2.7l-2.5,1.7ZM216.3,25.4l-2.6,1.4c.4.7.6,1.3.7,1.7l2.9-.9,2.9-.9c-.3-.9-.7-1.8-1.2-2.8l-2.6,1.4ZM217.2,27.7l-1-2.8-5.1,1.8,1,2.8,1,2.8,5.1-1.8-1-2.8ZM212.2,29.5l2.9-.6c-.2-.9-.5-1.9-1-2.9l-2.7,1.2-2.7,1.2c.3.8.5,1.4.6,1.7l2.9-.6ZM211.4,27.2l2.7-1.2c-.4-1-.9-1.9-1.4-2.7l-2.6,1.5-2.6,1.5c.4.6.7,1.3,1.1,2.1l2.7-1.2ZM227.1,43.9l-1.7,2.5,4.6,3.2,1.7-2.5,1.7-2.5-4.6-3.2-1.7,2.5ZM231.7,47.1l-2.1-2.1c-.9.9-1.8,1.8-2.8,2.6l2,2.3,2,2.3c1.1-.9,2.1-1.9,3.1-2.9l-2.1-2.1ZM228.7,49.9l-2-2.3c-1,.9-1.9,1.6-2.7,2.2l1.9,2.4,1.9,2.4c.9-.7,1.8-1.5,2.9-2.4l-2-2.3ZM225.9,52.2l1.8-2.4-3.9-2.9-1.8,2.4-1.8,2.4,3.9,2.9,1.8-2.4ZM222,49.3l1.9,2.3c.6-.5,1.2-1.1,1.9-1.8l-2.1-2.1-2.1-2.1c-.6.6-1.1,1-1.5,1.4l1.9,2.3ZM223.8,47.7l2.1,2.2c.7-.7,1.4-1.4,2-2.1l-2.3-2-2.3-2c-.5.6-1.1,1.2-1.7,1.7l2.1,2.2ZM225.6,45.7l2.3,2c.6-.7,1.2-1.4,1.7-2l-2.4-1.8-2.4-1.8c-.4.5-.8,1-1.4,1.7l2.3,2ZM207.5,46.7l1.7,2.5,4.1-2.7-1.7-2.5-1.7-2.5-4.1,2.7,1.7,2.5ZM211.6,44l-2.1,2.1c.7.7,1.4,1.4,2.1,2.3l2.3-1.9,2.3-1.9c-.8-1-1.6-1.9-2.4-2.7l-2.1,2.1ZM213.8,46.5l-2.3,2c.7.8,1.2,1.5,1.5,2l2.6-1.5,2.6-1.5c-.6-1-1.3-1.9-2.2-3l-2.3,2ZM215.7,49l-1.7-2.5-4.4,3,1.7,2.5,1.7,2.5,4.4-3-1.7-2.5ZM211.3,52l2.7-1.3c-.5-1-1.2-2-2-3.1l-2.4,1.8-2.4,1.8c.7.9,1.1,1.6,1.4,2.1l2.7-1.3ZM209.6,49.4l2.4-1.8c-.8-1.1-1.6-2.1-2.4-3l-2.2,2-2.2,2c.6.7,1.3,1.5,2,2.4l2.4-1.8ZM205.3,55.2l1.1,2.8c1.3-.5,2.8-1.2,4.5-2l-1.3-2.7-1.3-2.7c-1.6.8-3,1.4-4.2,1.9l1.1,2.8ZM209.7,53.2l1.3,2.7c1.7-.8,3.4-1.7,5.2-2.5l-1.3-2.7-1.3-2.7c-1.7.9-3.4,1.7-5.1,2.5l1.3,2.7ZM214.8,50.7l-2.9.9,1.6,4.9,2.9-.9,2.9-.9-1.6-4.9-2.9.9ZM216.4,55.6l-1.5-2.6c-1.4.8-2.8,1.6-4.3,2.4l1.5,2.6,1.5,2.6c1.5-.8,2.9-1.7,4.3-2.4l-1.5-2.6ZM212.1,58.1l-1.5-2.6c-1.4.8-2.8,1.5-4.1,2.2l1.4,2.6,1.4,2.6c1.3-.7,2.7-1.5,4.2-2.3l-1.5-2.6ZM207.9,60.3l2.7-1.4-2.6-5.1-2.7,1.4-2.7,1.4,2.6,5.1,2.7-1.4ZM216.5,30.6v3h5.9v-6h-5.9v3ZM222.3,30.6h-3v26.6h6v-26.6h-3ZM222.3,57.2h-3c0,1.1-.1,1.7-.2,2l2.8,1,2.8,1c.5-1.2.6-2.7.6-4.1h-3ZM221.9,60.3l-2.8-.9s0,0,0,0c0,0,0,0-.2.1l1.5,2.6,1.5,2.6c1.3-.8,2.3-1.9,2.8-3.4l-2.8-.9ZM220.4,62.1l-1.5-2.6c-.4.2-.9.4-1.6.5l.3,3,.3,3c1.4-.1,2.7-.5,3.9-1.2l-1.5-2.6ZM217.7,62.9l-.3-3c-.9,0-1.9.1-3.2.1v6c1.4,0,2.7,0,3.9-.2l-.3-3ZM214.1,63.1l3-.3c-.1-1-.4-2.1-.7-3.3l-2.9.9-2.9.9c.3.9.4,1.6.5,2.2l3-.3ZM213.6,60.3l2.9-.8c-.3-1.2-.7-2.3-1.2-3.2l-2.7,1.4-2.7,1.4c.2.5.5,1.1.7,2l2.9-.8ZM212.6,57.7v3c.5,0,1.1,0,1.7,0v-3c.1,0,.3-3,.3-3-.6,0-1.3,0-1.8,0v3ZM214.4,57.8v3h1.3v-6h-1.3v3ZM215.8,57.8v3c.5,0,1.9,0,2.9-1.4l-2.4-1.8-2.4-1.8c.4-.5.9-.8,1.3-.9.3-.1.6-.1.6-.1v3ZM216.3,57.7l2.1,2.1c.9-.9,1-1.9,1-2.6h-6c0-.2,0-1,.7-1.6l2.1,2.1ZM216.5,57.2h3v-26.5h-6v26.5h3ZM222,44l-2.8,1c.7,2,1.6,3.8,2.6,5.6l2.6-1.6,2.6-1.6c-.8-1.4-1.5-2.9-2.1-4.4l-2.8,1ZM224.3,49l-2.5,1.6c1.1,1.8,2.5,3.4,4.1,4.8l2-2.3,2-2.3c-1.2-1-2.1-2.2-3-3.5l-2.5,1.6ZM227.9,53.2l-2,2.3c1.6,1.4,3.4,2.5,5.5,3.3l1.2-2.8,1.2-2.8c-1.5-.6-2.7-1.4-3.9-2.4l-2,2.3ZM232.5,56l-2-2.2c-.5.5-1,1-1.6,1.7l2.3,2,2.3,2c.5-.5.8-.9,1.1-1.2l-2-2.2ZM231.2,57.4l-2.3-1.9c-.5.6-1,1.3-1.5,1.9l2.4,1.8,2.4,1.8c.4-.6.8-1.1,1.3-1.7l-2.3-1.9ZM229.8,59.3l-2.4-1.8c-.5.7-1,1.4-1.3,2.1l2.7,1.4,2.7,1.4c.2-.4.5-.8.9-1.4l-2.4-1.8ZM228.7,61l1.5-2.6c-1.5-.9-2.8-2-4-3.3l-2.3,2-2.3,2c1.6,1.8,3.4,3.4,5.5,4.6l1.5-2.6ZM224,57l2.3-1.9c-1.2-1.4-2.2-3-3.1-4.9l-2.7,1.3-2.7,1.3c1.1,2.2,2.4,4.3,3.9,6.1l2.3-1.9ZM220.5,51.5l2.7-1.3c-.9-1.9-1.6-3.9-2.2-6.1l-2.9.8-2.9.8c.7,2.5,1.5,4.9,2.6,7.1l2.7-1.3ZM218.1,44.9l.7,2.9,3.9-.9-.7-2.9-.7-2.9-3.9.9.7,2.9ZM192.7,31.6v3h14v-6h-14v3ZM206.8,31.6h-3v5.6h6v-5.6h-3ZM206.8,37.2v-3h-14v6h14v-3ZM192.7,37.2h3v-5.6h-6v5.6h3ZM197.4,23.1v3h5.5v-6h-5.5v3ZM202.9,23.1h-3v39.9h6V23.1h-3ZM202.9,63v-3h-5.5v6h5.5v-3ZM197.4,63h3V23.1h-6v39.9h3ZM197.3,35.6l-1,2.8,3.3,1.1,1-2.8,1-2.8-3.3-1.1-1,2.8ZM200.6,36.7l-3-.5c-.3,1.6-.6,3.2-1,5l2.9.7,2.9.7c.4-1.8.8-3.6,1.1-5.3l-3-.5ZM199.5,41.9l-2.9-.7c-.4,1.7-.9,3.4-1.4,5l2.9.9,2.9.9c.6-1.8,1-3.6,1.5-5.4l-2.9-.7ZM198.1,47.1l-2.9-.8c-.5,1.6-1,3.1-1.6,4.4l2.8,1.2,2.8,1.2c.7-1.6,1.3-3.3,1.8-5.1l-2.9-.8ZM196.4,51.9l-2.8-1.2c-.6,1.3-1.2,2.5-1.8,3.4l2.5,1.7,2.5,1.7c.9-1.3,1.7-2.8,2.4-4.4l-2.8-1.2ZM194.3,55.7l2.9-.9c-.3-1-.8-2.1-1.4-3.3l-2.7,1.4-2.7,1.4c.5.9.8,1.7,1,2.3l2.9-.9ZM193.1,53l2.7-1.3c-.6-1.1-1.1-2.1-1.5-2.8l-2.6,1.5-2.6,1.5c.4.6.8,1.4,1.3,2.4l2.7-1.3ZM191.7,50.3l2.4,1.8c.8-1,1.4-2.2,2.1-3.5l-2.7-1.3-2.7-1.3c-.5,1.1-1.1,2-1.6,2.7l2.4,1.8ZM193.5,47.2l2.7,1.3c.6-1.3,1.2-2.6,1.7-4.1l-2.8-1-2.8-1c-.4,1.2-.9,2.4-1.5,3.4l2.7,1.3ZM195.1,43.5l2.8,1.1c.5-1.4,1-2.8,1.4-4.3l-2.9-.8-2.9-.8c-.3,1.2-.7,2.5-1.2,3.7l2.8,1.1ZM196.4,39.5l2.9.8c.4-1.4.7-2.8.9-4.1l-3-.5-3-.5c-.2,1.1-.5,2.4-.8,3.7l2.9.8ZM202.7,38.3l-2.3,1.9c.1.2.4.6.9,1.3l2.5-1.7,2.5-1.7c-.5-.7-.9-1.3-1.2-1.7l-2.3,1.9ZM203.7,39.8l-2.5,1.7c.5.7,1,1.4,1.5,2.2l2.5-1.6,2.5-1.6c-.5-.8-1.1-1.6-1.5-2.3l-2.5,1.7ZM205.2,42.1l-2.5,1.7c.5.8,1,1.5,1.5,2.2l2.5-1.6,2.5-1.6c-.5-.7-1-1.5-1.6-2.4l-2.5,1.7ZM206.8,44.3l-2.5,1.6c.4.7.7,1.2.9,1.4l2.6-1.5,2.6-1.5c-.2-.3-.5-.8-1-1.5l-2.5,1.6ZM207.7,45.8l-2.4-1.7-3.1,4.3,2.4,1.7,2.4,1.7,3.1-4.3-2.4-1.7ZM204.6,50.1l2.8-1.1c-.3-.7-.6-1.5-1-2.3l-2.8,1.2-2.8,1.2c.4.8.6,1.5.9,2.1l2.8-1.1ZM203.7,47.9l2.8-1.2c-.4-.9-.8-1.9-1.3-2.8l-2.7,1.3-2.7,1.3c.4.8.8,1.7,1.1,2.5l2.8-1.2ZM202.5,45.3l2.7-1.3c-.4-.9-.8-1.8-1.3-2.6l-2.7,1.3-2.7,1.3c.4.8.8,1.6,1.2,2.5l2.7-1.3ZM201.2,42.7l2.7-1.3c-.4-.9-.8-1.6-1.2-2.2l-2.6,1.5-2.6,1.5c.3.4.6,1,.9,1.8l2.7-1.3ZM200.2,40.7l2.1,2.2,2.5-2.4-2.1-2.2-2.1-2.2-2.5,2.4,2.1,2.2ZM301.8,30.1l3,.4.5-3.3h-3.4c0-.1,0,2.9,0,2.9ZM300.6,37l2.9.5h0l-2.9-.5ZM298.7,44.5l-2.9-.9h0s0,0,0,0l2.9.8ZM295.8,51.9l-2.6-1.4,2.6,1.4ZM292.1,56.8l-1.9-2.3h0s0,0,0,0l2,2.3ZM282.8,56.9l-1.9,2.3h0s0,0,0,0l1.9-2.3ZM279.5,52.2l-2.8,1.1h0s0,0,0,0l2.8-1.2ZM279.9,38.7l2.7,1.2h0s0,0,0,0l-2.7-1.2ZM284.1,32.8l2.1,2.2-2.1-2.2ZM290.4,28.7l1.1,2.8h0l-1.1-2.8ZM305.4,28.5l-1.1,2.8h0s0,0,0,0l1.1-2.8ZM310.9,32.1l-2.1,2.1h0s0,0,0,0l2.1-2.1ZM314.4,37.5l-2.8,1.1h0s2.8-1.1,2.8-1.1ZM313.9,52.2l2.7,1.3h0s0,0,0,0l-2.7-1.3ZM308.6,58.1l1.7,2.5h0s0,0,0,0l-1.7-2.5ZM299.5,61.4l-2.5,1.6,1.1,1.7,2-.3-.5-3ZM295.7,55.3l-.4-3-4.7.6,2.6,4,2.5-1.6ZM297.9,55l.5,3h0s0,0,0,0l-.7-2.9ZM299.8,54.5l.7,2.9h0s0,0,0,0l-.7-2.9ZM303.4,53.1l-1.5-2.6,1.5,2.6ZM308.1,47.8l2.8,1h0s0,0,0,0l-2.8-1ZM308,39.6l-2.8,1h0s0,0,0,0l2.8-1ZM305.9,36.2l-2.2,2.1h0s0,0,0,0l2.2-2.1ZM292.3,34.4l1.3,2.7h0s0,0,0,0l-1.3-2.7ZM288.2,37.4l2.2,2h0s0,0,0,0l-2.2-2ZM285.8,41.2l-2.8-1.1h0s0,0,0,0l2.8,1.1ZM285.3,48.1l-2.9.9h0s0,0,0,0l2.9-.9ZM286.3,50l-2.2,2h0s0,0,0,0l2.1-2.1ZM289.2,49.8l-2.2-2h0s0,0,0,0l2.3,1.9ZM290.7,47.3l-2.8-1.2h0s0,0,0,0l2.8,1.1ZM292.1,43.2l-2.9-.9h0s0,0,0,0l2.9.9ZM293.8,36.7l2.9.6h0s-2.9-.6-2.9-.6ZM294.7,29.9v-3c0,0-2.7,0-2.7,0l-.2,2.8,3,.3ZM301.8,30.1l-3-.4c-.3,2.1-.7,4.3-1.1,6.7l2.9.5,2.9.5c.5-2.4.8-4.8,1.2-6.9l-3-.4ZM300.6,37l-2.9-.5c-.4,2.3-1,4.7-1.8,7.2l2.9.9,2.9.9c.8-2.7,1.5-5.4,2-7.9l-2.9-.5ZM298.7,44.5l-2.9-.8c-.8,2.6-1.7,4.9-2.7,6.8l2.6,1.4,2.6,1.4c1.2-2.3,2.3-5,3.1-7.9l-2.9-.8ZM295.8,51.9l-2.6-1.4c-1,1.9-2,3.2-3.1,4l1.9,2.3,1.9,2.3c1.8-1.5,3.2-3.5,4.5-5.8l-2.6-1.4ZM292.1,56.8l-2-2.3c-.9.8-1.7,1-2.6,1v6c2.4,0,4.6-.9,6.5-2.5l-2-2.3ZM287.5,58.5v-3c-1,0-1.9-.3-2.8-1l-1.9,2.3-1.9,2.3c1.9,1.5,4.1,2.3,6.6,2.3v-3ZM282.8,56.9l1.9-2.3c-.9-.8-1.8-1.9-2.4-3.5l-2.8,1.2-2.8,1.2c1,2.3,2.3,4.3,4.1,5.8l1.9-2.3ZM279.5,52.2l2.8-1.1c-.6-1.6-1-3.3-1-5.4h-6c0,2.7.4,5.3,1.4,7.6l2.8-1.1ZM278.4,45.7h3c0-2.1.4-4,1.2-5.8l-2.7-1.2-2.7-1.2c-1.2,2.6-1.8,5.4-1.8,8.3h3ZM279.9,38.7l2.7,1.2c.8-1.9,2-3.5,3.5-5l-2.1-2.2-2.1-2.2c-2.1,2-3.7,4.3-4.9,6.9l2.7,1.2ZM284.1,32.8l2.1,2.2c1.5-1.4,3.3-2.6,5.4-3.4l-1.1-2.8-1.1-2.8c-2.7,1.1-5.2,2.7-7.2,4.6l2.1,2.2ZM290.4,28.7l1.1,2.8c2-.8,4.2-1.2,6.7-1.2v-6c-3.2,0-6.1.6-8.9,1.7l1.1,2.8ZM298.2,27.2v3c2.4,0,4.4.4,6.1,1.1l1.1-2.8,1.1-2.8c-2.5-1-5.3-1.5-8.4-1.5v3ZM305.4,28.5l-1.1,2.8c1.8.7,3.3,1.7,4.5,2.9l2.1-2.1,2.1-2.1c-1.8-1.9-4-3.3-6.6-4.3l-1.1,2.8ZM310.9,32.1l-2.1,2.1c1.2,1.2,2.2,2.7,2.9,4.4l2.8-1.1,2.8-1.1c-1-2.4-2.4-4.6-4.2-6.4l-2.1,2.1ZM314.4,37.5l-2.8,1.1c.7,1.7,1,3.5,1,5.5h6c0-2.7-.5-5.3-1.4-7.7l-2.8,1.1ZM315.7,44.2h-3c0,2.5-.5,4.7-1.5,6.7l2.7,1.3,2.7,1.3c1.4-2.8,2.1-6,2.1-9.3h-3ZM313.9,52.2l-2.7-1.3c-.9,1.8-2.3,3.4-4.3,4.8l1.7,2.5,1.7,2.5c2.8-1.9,4.9-4.2,6.3-7.1l-2.7-1.3ZM308.6,58.1l-1.6-2.5c-1.9,1.3-4.5,2.3-7.9,2.8l.5,3,.5,3c3.9-.7,7.4-1.9,10.2-3.7l-1.7-2.5ZM299.5,61.4l2.5-1.6-3.9-6-2.5,1.6-2.5,1.6,3.9,6,2.5-1.6ZM295.7,55.3l.4,3c.9-.1,1.7-.2,2.4-.4l-.5-3-.5-3c-.5,0-1.2.2-2.1.3l.4,3ZM297.9,55l.7,2.9c.6-.1,1.2-.3,1.8-.4l-.7-2.9-.7-2.9c-.6.1-1.2.3-1.8.4l.7,2.9ZM299.8,54.5l.7,2.9c1.6-.4,3.1-1,4.4-1.7l-1.5-2.6-1.5-2.6c-.8.5-1.8.9-2.9,1.1l.7,2.9ZM303.4,53.1l1.5,2.6c1.4-.8,2.6-1.7,3.6-2.9l-2.3-2-2.3-2c-.5.6-1.2,1.2-2,1.6l1.5,2.6ZM306.2,50.9l2.3,2c1-1.2,1.8-2.5,2.4-4l-2.8-1-2.8-1c-.3.8-.7,1.5-1.2,2.1l2.3,2ZM308.1,47.8l2.8,1c.5-1.5.8-3.1.8-4.8h-6c0,1.1-.2,2-.5,2.8l2.8,1ZM308.7,44h3c0-1.9-.3-3.7-.9-5.4l-2.8,1-2.8,1c.3.9.5,2.1.5,3.4h3ZM308,39.6l2.8-1c-.6-1.7-1.5-3.2-2.7-4.5l-2.2,2.1-2.2,2.1c.6.6,1.1,1.4,1.4,2.3l2.8-1ZM305.9,36.2l2.2-2.1c-1.2-1.3-2.7-2.3-4.4-2.9l-1.1,2.8-1.1,2.8c.9.4,1.6.8,2.2,1.4l2.2-2.1ZM302.6,34l1.1-2.8c-1.7-.7-3.6-1-5.6-1v6c1.4,0,2.6.2,3.5.6l1.1-2.8ZM298.1,33.2v-3c-2.5,0-4.9.5-7,1.5l1.3,2.7,1.3,2.7c1.2-.6,2.6-.9,4.5-.9v-3ZM292.3,34.4l-1.3-2.7c-2,.9-3.7,2.1-5.1,3.7l2.2,2,2.2,2c.8-.9,1.8-1.7,3.1-2.3l-1.3-2.7ZM288.2,37.4l-2.2-2c-1.3,1.4-2.3,3-3,4.7l2.8,1.1,2.8,1.1c.4-1,1-2,1.9-3l-2.2-2ZM285.8,41.2l-2.8-1.1c-.6,1.6-1,3.3-1,4.9h6c0-.7.2-1.6.6-2.7l-2.8-1.1ZM285,45.1h-3c0,1.4.1,2.7.5,3.9l2.9-.9,2.9-.9c-.1-.5-.3-1.2-.3-2.2h-3ZM285.3,48.1l-2.9.9c.3,1.1.8,2.1,1.6,3l2.2-2,2.2-2s0,0,0-.1c0-.1-.1-.3-.2-.6l-2.9.9ZM286.3,50l-2.1,2.1c.9.9,2.1,1.5,3.5,1.5v-6c.2,0,.4,0,.5.1.1,0,.2.1.2.1l-2.1,2.1ZM287.7,50.6v3c1.7,0,3-.9,3.8-1.9l-2.3-1.9-2.3-1.9c0,0,0,0,.1,0,.2,0,.4-.2.6-.2v3ZM289.2,49.8l2.2,2c.8-.9,1.5-2.1,2-3.3l-2.8-1.1-2.8-1.1c-.4.9-.7,1.4-.9,1.6l2.2,2ZM290.7,47.3l2.8,1.2c.5-1.2,1.1-2.7,1.6-4.4l-2.9-.9-2.9-.9c-.5,1.6-.9,2.8-1.4,3.8l2.8,1.2ZM292.1,43.2l2.9.9c.7-2.1,1.3-4.4,1.7-6.8l-2.9-.6-2.9-.6c-.4,2.2-.9,4.2-1.5,6.1l2.9.9ZM293.8,36.7l2.9.6c.5-2.4.8-4.8,1-7.1l-3-.3-3-.3c-.2,2.1-.5,4.3-.9,6.5l2.9.6ZM294.7,29.9v3c0,0,6.9.2,6.9.2v-3c0,0,.2-3,.2-3l-7-.2v3ZM363.8,26.1v-3h-3v3h3ZM401.1,26.1h3v-3h-3v3ZM401.1,31.2v3h3v-3h-3ZM363.8,31.2h-3v3h3v-3ZM366.6,32.9v-3h-3v3h3ZM399.2,32.9h3v-3h-3v3ZM399.2,38v3h3v-3h-3ZM366.6,38h-3v3h3v-3ZM371.1,47.9v-3h-3v3h3ZM394.4,47.9h3v-3h-3v3ZM394.4,53v3h3v-3h-3ZM371.1,53h-3v3h3v-3ZM371.3,39.7v-3h-3v3h3ZM398.6,39.7h3v-3h-3v3ZM398.6,55.3v3h3v-3h-3ZM392.5,55.3h-3v3h3v-3ZM392.5,44.6h3v-3h-3v3ZM371.3,44.6h-3v3h3v-3ZM367.1,39.7v-3h-3v3h3ZM373.2,39.7h3v-3h-3v3ZM372.9,49.3l3,.3-3-.3ZM372,54.3l-2.9-.8h0s0,0,0,0l2.9.8ZM370,59.1l-2.6-1.4h0s0,0,0,0l2.7,1.4ZM366.9,63.2l-2.4,1.9,2,2.5,2.4-2.2-2-2.2ZM365.5,61.8l2.1-2.2h0s0,0,0,0l-2,2.2ZM363.7,60.2l-1.9,2.3h0s0,0,0,0l1.8-2.4ZM362.1,59.1l-2-2.2-3.1,2.8,3.7,2.1,1.5-2.6ZM365.5,54.5l-2.8-1.2h0s0,0,0,0l2.8,1.2ZM366.9,49.4l3,.3h0s-3-.3-3-.3ZM379.3,23.1v-3h-3v3h3ZM385.5,23.1h3v-3h-3v3ZM385.5,35.6v3h3v-3h-3ZM379.3,35.6h-3v3h3v-3ZM379.5,41.4v-3h-3v3h3ZM385.4,41.4h3v-3h-3v3ZM385.4,51.1v3h3v-3h-3ZM379.5,51.1h-3v3h3v-3ZM363.8,26.1v3h37.3v-6h-37.3v3ZM401.1,26.1h-3v5.1h6v-5.1h-3ZM401.1,31.2v-3h-37.3v6h37.3v-3ZM363.8,31.2h3v-5.1h-6v5.1h3ZM366.6,32.9v3h32.5v-6h-32.5v3ZM399.2,32.9h-3v5.1h6v-5.1h-3ZM399.2,38v-3h-32.5v6h32.5v-3ZM366.6,38h3v-5.1h-6v5.1h3ZM371.1,47.9v3h23.3v-6h-23.3v3ZM394.4,47.9h-3v5.1h6v-5.1h-3ZM394.4,53v-3h-23.3v6h23.3v-3ZM371.1,53h3v-5.1h-6v5.1h3ZM371.3,39.7v3h27.4v-6h-27.4v3ZM398.6,39.7h-3v15.6h6v-15.6h-3ZM398.6,55.3v-3h-6.1v6h6.1v-3ZM392.5,55.3h3v-10.7h-6v10.7h3ZM392.5,44.6v-3h-21.3v6h21.3v-3ZM371.3,44.6h3v-4.9h-6v4.9h3ZM367.1,39.7v3h6v-6h-6v3ZM373.2,39.7h-3v5.1h6v-5.1h-3ZM373.2,44.8h-3c0,1.3,0,2.6-.2,4.2l3,.3,3,.3c.2-1.7.3-3.3.3-4.8h-3ZM372.9,49.3l-3-.3c-.1,1.4-.4,2.9-.9,4.4l2.9.8,2.9.8c.5-1.8.9-3.7,1.1-5.5l-3-.3ZM372,54.3l-2.9-.8c-.4,1.4-.9,2.8-1.7,4.1l2.6,1.4,2.6,1.4c.9-1.7,1.7-3.6,2.2-5.4l-2.9-.8ZM370,59.1l-2.7-1.4c-.6,1.2-1.5,2.3-2.6,3.3l2,2.2,2,2.2c1.6-1.4,2.8-3.1,3.8-4.9l-2.7-1.4ZM366.9,63.2l2.4-1.9c-.4-.6-1-1.1-1.6-1.7l-2.1,2.2-2.1,2.2c.5.5.9.9,1.1,1.1l2.4-1.9ZM365.5,61.8l2-2.2c-.6-.6-1.3-1.1-2-1.7l-1.8,2.4-1.8,2.4c.6.5,1.2.9,1.7,1.4l2-2.2ZM363.7,60.2l1.9-2.3c-.7-.6-1.4-1.1-2-1.4l-1.5,2.6-1.5,2.6c.2.1.6.4,1.2.8l1.9-2.3ZM362.1,59.1l2,2.2c1.9-1.7,3.3-3.5,4.2-5.7l-2.8-1.2-2.8-1.2c-.5,1.2-1.3,2.4-2.6,3.5l2,2.2ZM365.5,54.5l2.8,1.2c.8-1.9,1.4-3.9,1.6-5.9l-3-.3-3-.3c-.2,1.4-.5,2.8-1.2,4.2l2.8,1.2ZM366.9,49.4l3,.3c.2-1.8.3-3.5.3-5h-6c0,1.3,0,2.7-.3,4.3l3,.3ZM367.1,44.8h3v-5h-6v5h3ZM379.3,23.1v3h6.2v-6h-6.2v3ZM385.5,23.1h-3v12.5h6v-12.5h-3ZM385.5,35.6v-3h-6.2v6h6.2v-3ZM379.3,35.6h3v-12.5h-6v12.5h3ZM379.5,41.4v3h5.9v-6h-5.9v3ZM385.4,41.4h-3v9.7h6v-9.7h-3ZM385.4,51.1v-3h-5.9v6h5.9v-3ZM379.5,51.1h3v-9.7h-6v9.7h3Z"/>
  </g>
</svg>