<svg width="293" height="59" viewBox="0 0 293 59" fill="none" xmlns="http://www.w3.org/2000/svg">
<g filter="url(#filter0_d_27_96)">
<mask id="path-1-outside-1_27_96" maskUnits="userSpaceOnUse" x="6.70117" y="5.50684" width="280" height="47" fill="black">
<rect fill="white" x="6.70117" y="5.50684" width="280" height="47"/>
<path d="M39.0466 27.3023C39.0466 29.831 38.8477 32.1609 38.4499 34.2919C38.0521 36.3945 37.3702 38.3408 36.4042 40.1309C35.4381 41.8925 34.0885 43.4979 32.3553 44.9469C30.6505 46.3676 28.4769 47.6604 25.8344 48.8254L20.2938 43.6257C22.4248 42.9154 24.2433 42.134 25.7492 41.2816C27.2835 40.4008 28.5195 39.3495 29.4571 38.1277C30.4232 36.8776 31.1335 35.4001 31.5881 33.6953C32.0427 31.962 32.27 29.8879 32.27 27.4727V15.5818C32.27 14.7009 32.2416 13.9196 32.1848 13.2377C32.1564 12.5273 32.0996 11.9022 32.0143 11.3624H39.345C39.2881 11.9022 39.2171 12.5273 39.1319 13.2377C39.075 13.9196 39.0466 14.7009 39.0466 15.5818V27.3023ZM23.6182 11.7886C23.5613 12.3 23.4903 12.9251 23.4051 13.6639C23.3482 14.3742 23.3198 15.184 23.3198 16.0932V31.0954C23.3198 31.7774 23.334 32.4309 23.3625 33.056C23.3909 33.6526 23.4193 34.1925 23.4477 34.6755C23.4761 35.1301 23.5045 35.5421 23.5329 35.9115H16.3302C16.387 35.5421 16.4296 35.1301 16.458 34.6755C16.4864 34.1925 16.5148 33.6526 16.5433 33.056C16.5717 32.4309 16.5859 31.7774 16.5859 31.0954V16.0506C16.5859 15.3402 16.5575 14.6441 16.5006 13.9622C16.4438 13.2519 16.3728 12.5273 16.2875 11.7886H23.6182ZM8.70117 19.1192C9.04213 19.176 9.43992 19.2471 9.89453 19.3323C10.3491 19.3891 10.8748 19.446 11.4715 19.5028C12.0682 19.5596 12.7501 19.588 13.5172 19.588H41.3055C42.5557 19.588 43.5359 19.5596 44.2463 19.5028C44.985 19.446 45.7237 19.3607 46.4625 19.2471V26.0663C45.8658 26.0094 45.1697 25.981 44.3741 25.981C43.5785 25.9526 42.5699 25.9384 41.3481 25.9384H13.5172C12.7501 25.9384 12.0824 25.9526 11.5141 25.981C10.9458 25.981 10.4344 25.9952 9.97977 26.0237C9.55357 26.0521 9.12737 26.0805 8.70117 26.1089V19.1192Z"/>
<path d="M57.0323 25.2565C57.6005 25.2849 58.3251 25.3275 59.2059 25.3844C60.1151 25.4412 61.0385 25.4838 61.9762 25.5122C62.9138 25.5406 63.7236 25.5548 64.4055 25.5548C65.2863 25.5548 66.2666 25.5548 67.3463 25.5548C68.4544 25.5548 69.6194 25.5548 70.8411 25.5548C72.0629 25.5548 73.2989 25.5548 74.5491 25.5548C75.8277 25.5548 77.0779 25.5548 78.2996 25.5548C79.5214 25.5548 80.6864 25.5548 81.7945 25.5548C82.9026 25.5548 83.8971 25.5548 84.7779 25.5548C85.6871 25.5548 86.4401 25.5548 87.0367 25.5548C88.0028 25.5548 88.9546 25.5122 89.8923 25.427C90.8583 25.3417 91.6539 25.2849 92.279 25.2565V33.3969C91.7391 33.3685 90.9436 33.3259 89.8923 33.2691C88.8694 33.1838 87.9175 33.1412 87.0367 33.1412C86.4401 33.1412 85.6871 33.1412 84.7779 33.1412C83.8686 33.1412 82.86 33.1412 81.7519 33.1412C80.6437 33.1412 79.4788 33.1412 78.257 33.1412C77.0352 33.1412 75.7851 33.1412 74.5065 33.1412C73.2563 33.1412 72.0203 33.1412 70.7985 33.1412C69.5767 33.1412 68.4118 33.1412 67.3037 33.1412C66.224 33.1412 65.2579 33.1412 64.4055 33.1412C63.1837 33.1412 61.8625 33.1696 60.4419 33.2264C59.0496 33.2833 57.9131 33.3401 57.0323 33.3969V25.2565Z"/>
<path d="M131.958 10.5526C132.328 11.064 132.711 11.6891 133.109 12.4279C133.535 13.1382 133.933 13.8485 134.302 14.5589C134.7 15.2692 135.027 15.8801 135.283 16.3915L131.234 18.0963C130.779 17.2155 130.253 16.2211 129.657 15.1129C129.088 13.9764 128.52 12.9961 127.952 12.1722L131.958 10.5526ZM137.2 8.50684C137.57 9.04669 137.968 9.68599 138.394 10.4247C138.82 11.1351 139.232 11.8454 139.63 12.5557C140.028 13.2377 140.34 13.8201 140.567 14.3032L136.561 16.008C136.135 15.1271 135.609 14.1327 134.984 13.0246C134.359 11.888 133.762 10.922 133.194 10.1264L137.2 8.50684ZM113.973 12.641C113.859 13.3513 113.774 14.2037 113.717 15.1982C113.66 16.1926 113.632 17.0024 113.632 17.6275C113.632 18.0821 113.632 18.8351 113.632 19.8864C113.632 20.9377 113.632 22.1594 113.632 23.5517C113.632 24.9439 113.632 26.4072 113.632 27.9416C113.632 29.4475 113.632 30.9107 113.632 32.3314C113.632 33.7237 113.632 34.9739 113.632 36.082C113.632 37.1901 113.632 38.0141 113.632 38.5539C113.632 39.3779 113.845 39.9462 114.271 40.2587C114.697 40.5713 115.365 40.8128 116.274 40.9833C116.899 41.0685 117.581 41.1253 118.32 41.1538C119.087 41.1822 119.911 41.1964 120.792 41.1964C121.9 41.1964 123.136 41.168 124.5 41.1111C125.864 41.0259 127.242 40.9265 128.634 40.8128C130.055 40.6707 131.376 40.5002 132.598 40.3014C133.848 40.1025 134.913 39.8894 135.794 39.6621V47.2058C134.402 47.4047 132.796 47.561 130.978 47.6746C129.188 47.8167 127.369 47.9161 125.523 47.973C123.676 48.0298 121.957 48.0582 120.366 48.0582C118.916 48.0582 117.553 48.0014 116.274 47.8877C115.024 47.8025 113.93 47.6888 112.992 47.5468C111.032 47.1774 109.497 46.4244 108.389 45.2879C107.281 44.1229 106.727 42.5886 106.727 40.6849C106.727 39.8041 106.727 38.696 106.727 37.3606C106.727 36.0251 106.727 34.5761 106.727 33.0133C106.727 31.4222 106.727 29.831 106.727 28.2399C106.727 26.6203 106.727 25.1002 106.727 23.6796C106.727 22.2589 106.727 21.0229 106.727 19.9716C106.727 18.8919 106.727 18.1105 106.727 17.6275C106.727 17.315 106.713 16.8604 106.685 16.2637C106.656 15.6386 106.614 14.9993 106.557 14.3458C106.528 13.6923 106.471 13.124 106.386 12.641H113.973ZM110.606 25.5122C112.026 25.1997 113.504 24.8445 115.038 24.4467C116.572 24.0205 118.093 23.5801 119.598 23.1255C121.133 22.6425 122.568 22.1594 123.903 21.6764C125.267 21.1934 126.474 20.7388 127.526 20.3126C128.35 20 129.174 19.6449 129.998 19.2471C130.822 18.8493 131.717 18.3663 132.683 17.798L135.41 24.3189C134.473 24.6882 133.507 25.086 132.512 25.5122C131.518 25.91 130.651 26.251 129.912 26.5351C128.691 26.9897 127.284 27.4869 125.693 28.0268C124.13 28.5382 122.482 29.0497 120.749 29.5611C119.016 30.0726 117.283 30.5698 115.55 31.0528C113.816 31.5074 112.183 31.9052 110.648 32.2462L110.606 25.5122Z"/>
<path d="M183.486 16.6046C183.287 16.8888 183.003 17.3434 182.633 17.9685C182.264 18.5936 181.966 19.176 181.738 19.7159C181.142 21.0229 180.403 22.5004 179.522 24.1484C178.67 25.7679 177.689 27.4159 176.581 29.0923C175.502 30.7687 174.337 32.3456 173.087 33.8231C171.495 35.67 169.72 37.4884 167.759 39.2785C165.827 41.0401 163.781 42.6739 161.622 44.1798C159.491 45.6573 157.331 46.9217 155.143 47.973L149.773 42.3897C152.075 41.5373 154.319 40.4434 156.507 39.108C158.695 37.7726 160.713 36.3377 162.559 34.8034C164.406 33.2691 165.955 31.8058 167.205 30.4135C168.143 29.3622 168.995 28.2683 169.762 27.1318C170.558 25.9952 171.254 24.8871 171.851 23.8074C172.447 22.6993 172.888 21.6906 173.172 20.7814C172.859 20.7814 172.362 20.7814 171.68 20.7814C170.998 20.7814 170.217 20.7814 169.336 20.7814C168.455 20.7814 167.532 20.7814 166.566 20.7814C165.628 20.7814 164.719 20.7814 163.838 20.7814C162.957 20.7814 162.162 20.7814 161.451 20.7814C160.769 20.7814 160.258 20.7814 159.917 20.7814C159.292 20.7814 158.624 20.8098 157.914 20.8666C157.232 20.895 156.578 20.9377 155.953 20.9945C155.357 21.0513 154.859 21.0939 154.462 21.1224V13.7917C154.973 13.8485 155.57 13.9054 156.252 13.9622C156.962 14.019 157.644 14.0616 158.297 14.0901C158.979 14.1185 159.519 14.1327 159.917 14.1327C160.343 14.1327 160.94 14.1327 161.707 14.1327C162.474 14.1327 163.327 14.1327 164.264 14.1327C165.23 14.1327 166.21 14.1327 167.205 14.1327C168.228 14.1327 169.194 14.1327 170.103 14.1327C171.041 14.1327 171.865 14.1327 172.575 14.1327C173.285 14.1327 173.811 14.1327 174.152 14.1327C175.232 14.1327 176.226 14.0758 177.135 13.9622C178.073 13.8201 178.783 13.6639 179.266 13.4934L183.486 16.6046ZM173.641 29.5611C174.72 30.4135 175.885 31.4222 177.135 32.5871C178.386 33.7521 179.622 34.9739 180.843 36.2525C182.094 37.5026 183.244 38.7102 184.296 39.8752C185.347 41.0401 186.213 42.0346 186.895 42.8586L180.971 48.0156C179.92 46.4813 178.727 44.9469 177.391 43.4126C176.084 41.8499 174.692 40.3014 173.214 38.767C171.765 37.2327 170.274 35.7694 168.739 34.3772L173.641 29.5611Z"/>
<path d="M216.729 42.6455H230.751V48.0582H216.729V42.6455ZM213.831 31.3085H233.735V49.5073H227.768V36.7213H219.5V49.6778H213.831V31.3085ZM212.382 11.1493H231.774V16.8177H212.382V11.1493ZM228.833 11.1493H234.587C234.587 11.1493 234.573 11.4192 234.545 11.9591C234.545 12.4989 234.53 12.9393 234.502 13.2803C234.445 16.2068 234.36 18.6362 234.246 20.5683C234.161 22.472 234.019 23.9637 233.82 25.0434C233.621 26.1231 233.337 26.9045 232.968 27.3875C232.485 28.0126 231.959 28.4672 231.391 28.7513C230.851 29.0071 230.212 29.1917 229.473 29.3054C228.876 29.419 228.095 29.4901 227.129 29.5185C226.191 29.5185 225.182 29.5185 224.103 29.5185C224.046 28.6093 223.847 27.629 223.506 26.5777C223.193 25.498 222.796 24.5746 222.313 23.8074C223.165 23.8927 223.975 23.9495 224.742 23.9779C225.509 23.9779 226.106 23.9779 226.532 23.9779C226.845 23.9779 227.1 23.9495 227.299 23.8927C227.526 23.8358 227.74 23.708 227.938 23.5091C228.137 23.2534 228.294 22.7277 228.407 21.9321C228.521 21.1081 228.606 19.9006 228.663 18.3094C228.748 16.6899 228.805 14.5873 228.833 12.0017V11.1493ZM217.923 13.536H223.975C223.833 15.326 223.591 17.0592 223.25 18.7356C222.938 20.3836 222.44 21.9321 221.759 23.3812C221.077 24.8303 220.125 26.1799 218.903 27.4301C217.681 28.6519 216.104 29.7316 214.172 30.6692C213.831 29.9305 213.306 29.1065 212.595 28.1973C211.913 27.2596 211.246 26.5209 210.592 25.981C212.155 25.2991 213.405 24.5035 214.343 23.5943C215.28 22.6851 215.976 21.7048 216.431 20.6535C216.914 19.6022 217.255 18.4799 217.454 17.2866C217.653 16.0648 217.809 14.8146 217.923 13.536ZM201.344 9.31662L206.671 11.2771C206.074 12.3853 205.464 13.536 204.838 14.7294C204.213 15.8943 203.602 17.0024 203.006 18.0537C202.409 19.105 201.841 20.0284 201.301 20.824L197.209 19.0766C197.721 18.1958 198.232 17.2013 198.744 16.0932C199.255 14.9567 199.738 13.8059 200.193 12.641C200.676 11.4476 201.059 10.3395 201.344 9.31662ZM206.287 14.4736L211.274 16.7325C210.223 18.3521 209.072 20.0426 207.822 21.8043C206.6 23.5659 205.364 25.2423 204.114 26.8334C202.892 28.4246 201.727 29.831 200.619 31.0528L197.082 29.0923C197.877 28.1262 198.701 27.0465 199.554 25.8532C200.406 24.6314 201.244 23.367 202.068 22.06C202.892 20.753 203.659 19.446 204.37 18.139C205.108 16.8319 205.748 15.6102 206.287 14.4736ZM194.865 20.0569L197.763 15.7949C198.502 16.4199 199.255 17.1303 200.022 17.9259C200.79 18.693 201.5 19.4602 202.153 20.2273C202.807 20.9945 203.304 21.7048 203.645 22.3583L200.491 27.1744C200.179 26.4925 199.71 25.7395 199.085 24.9155C198.46 24.0631 197.778 23.2107 197.039 22.3583C196.3 21.5059 195.576 20.7388 194.865 20.0569ZM205.179 24.7877L209.186 23.1255C209.726 24.0915 210.237 25.1428 210.72 26.2794C211.231 27.3875 211.672 28.4672 212.041 29.5185C212.411 30.5698 212.666 31.5216 212.808 32.374L208.504 34.2919C208.39 33.4395 208.163 32.4735 207.822 31.3938C207.481 30.2857 207.083 29.1633 206.628 28.0268C206.174 26.8618 205.691 25.7821 205.179 24.7877ZM194.865 27.8989C196.883 27.8421 199.298 27.7569 202.111 27.6432C204.952 27.5296 207.808 27.4159 210.677 27.3023L210.635 32.1609C207.964 32.3598 205.293 32.5587 202.622 32.7576C199.951 32.9281 197.536 33.0844 195.377 33.2264L194.865 27.8989ZM205.989 35.741L210.294 34.3346C210.777 35.5563 211.26 36.8918 211.743 38.3408C212.254 39.7615 212.638 41.0117 212.894 42.0914L208.376 43.711C208.177 42.6313 207.836 41.3526 207.353 39.8752C206.898 38.3692 206.444 36.9912 205.989 35.741ZM196.4 34.7181L201.471 35.6132C201.301 37.6589 201.003 39.6905 200.576 41.7078C200.15 43.7252 199.653 45.4158 199.085 46.7796C198.744 46.5523 198.289 46.2966 197.721 46.0124C197.153 45.7283 196.57 45.4584 195.973 45.2027C195.377 44.9185 194.865 44.7054 194.439 44.5634C195.007 43.3132 195.448 41.8073 195.76 40.0456C196.073 38.2556 196.286 36.4798 196.4 34.7181ZM201.301 30.7545H206.671V49.763H201.301V30.7545Z"/>
<path d="M262.034 15.4539C260.955 17.2155 259.562 18.9771 257.858 20.7388C256.153 22.5004 254.235 24.1768 252.104 25.7679C249.973 27.3307 247.728 28.7229 245.37 29.9447C245.114 29.4333 244.759 28.865 244.305 28.2399C243.878 27.5864 243.424 26.9613 242.941 26.3646C242.458 25.7395 241.989 25.2139 241.534 24.7877C244.063 23.6227 246.421 22.1736 248.609 20.4404C250.825 18.6788 252.772 16.8035 254.448 14.8146C256.153 12.8257 257.474 10.922 258.412 9.10352H265.146C266.254 10.922 267.476 12.6268 268.811 14.2179C270.146 15.7806 271.567 17.2013 273.073 18.4799C274.607 19.7301 276.213 20.8382 277.889 21.8043C279.565 22.7419 281.284 23.5233 283.046 24.1484C282.251 24.9724 281.512 25.8958 280.83 26.9187C280.148 27.9131 279.523 28.8934 278.955 29.8595C276.682 28.7229 274.451 27.3733 272.263 25.8106C270.104 24.2478 268.129 22.5714 266.339 20.7814C264.577 18.9914 263.143 17.2155 262.034 15.4539ZM266.041 25.2139H272.519V49.763H266.041V25.2139ZM251.635 25.4696H258.028V30.3709C258.028 31.8768 257.929 33.4822 257.73 35.187C257.559 36.8918 257.176 38.6108 256.579 40.344C255.982 42.0488 255.073 43.711 253.851 45.3305C252.63 46.9501 250.982 48.4276 248.907 49.763C248.538 49.3084 248.041 48.7969 247.416 48.2287C246.819 47.6604 246.18 47.1064 245.498 46.5665C244.844 46.0551 244.233 45.6431 243.665 45.3305C245.455 44.2224 246.876 43.0432 247.927 41.7931C249.007 40.5145 249.802 39.2074 250.314 37.872C250.854 36.5366 251.209 35.2296 251.379 33.951C251.55 32.644 251.635 31.3938 251.635 30.2004V25.4696Z"/>
</mask>
<path d="M39.0466 27.3023C39.0466 29.831 38.8477 32.1609 38.4499 34.2919C38.0521 36.3945 37.3702 38.3408 36.4042 40.1309C35.4381 41.8925 34.0885 43.4979 32.3553 44.9469C30.6505 46.3676 28.4769 47.6604 25.8344 48.8254L20.2938 43.6257C22.4248 42.9154 24.2433 42.134 25.7492 41.2816C27.2835 40.4008 28.5195 39.3495 29.4571 38.1277C30.4232 36.8776 31.1335 35.4001 31.5881 33.6953C32.0427 31.962 32.27 29.8879 32.27 27.4727V15.5818C32.27 14.7009 32.2416 13.9196 32.1848 13.2377C32.1564 12.5273 32.0996 11.9022 32.0143 11.3624H39.345C39.2881 11.9022 39.2171 12.5273 39.1319 13.2377C39.075 13.9196 39.0466 14.7009 39.0466 15.5818V27.3023ZM23.6182 11.7886C23.5613 12.3 23.4903 12.9251 23.4051 13.6639C23.3482 14.3742 23.3198 15.184 23.3198 16.0932V31.0954C23.3198 31.7774 23.334 32.4309 23.3625 33.056C23.3909 33.6526 23.4193 34.1925 23.4477 34.6755C23.4761 35.1301 23.5045 35.5421 23.5329 35.9115H16.3302C16.387 35.5421 16.4296 35.1301 16.458 34.6755C16.4864 34.1925 16.5148 33.6526 16.5433 33.056C16.5717 32.4309 16.5859 31.7774 16.5859 31.0954V16.0506C16.5859 15.3402 16.5575 14.6441 16.5006 13.9622C16.4438 13.2519 16.3728 12.5273 16.2875 11.7886H23.6182ZM8.70117 19.1192C9.04213 19.176 9.43992 19.2471 9.89453 19.3323C10.3491 19.3891 10.8748 19.446 11.4715 19.5028C12.0682 19.5596 12.7501 19.588 13.5172 19.588H41.3055C42.5557 19.588 43.5359 19.5596 44.2463 19.5028C44.985 19.446 45.7237 19.3607 46.4625 19.2471V26.0663C45.8658 26.0094 45.1697 25.981 44.3741 25.981C43.5785 25.9526 42.5699 25.9384 41.3481 25.9384H13.5172C12.7501 25.9384 12.0824 25.9526 11.5141 25.981C10.9458 25.981 10.4344 25.9952 9.97977 26.0237C9.55357 26.0521 9.12737 26.0805 8.70117 26.1089V19.1192Z" fill="#FCED18"/>
<path d="M57.0323 25.2565C57.6005 25.2849 58.3251 25.3275 59.2059 25.3844C60.1151 25.4412 61.0385 25.4838 61.9762 25.5122C62.9138 25.5406 63.7236 25.5548 64.4055 25.5548C65.2863 25.5548 66.2666 25.5548 67.3463 25.5548C68.4544 25.5548 69.6194 25.5548 70.8411 25.5548C72.0629 25.5548 73.2989 25.5548 74.5491 25.5548C75.8277 25.5548 77.0779 25.5548 78.2996 25.5548C79.5214 25.5548 80.6864 25.5548 81.7945 25.5548C82.9026 25.5548 83.8971 25.5548 84.7779 25.5548C85.6871 25.5548 86.4401 25.5548 87.0367 25.5548C88.0028 25.5548 88.9546 25.5122 89.8923 25.427C90.8583 25.3417 91.6539 25.2849 92.279 25.2565V33.3969C91.7391 33.3685 90.9436 33.3259 89.8923 33.2691C88.8694 33.1838 87.9175 33.1412 87.0367 33.1412C86.4401 33.1412 85.6871 33.1412 84.7779 33.1412C83.8686 33.1412 82.86 33.1412 81.7519 33.1412C80.6437 33.1412 79.4788 33.1412 78.257 33.1412C77.0352 33.1412 75.7851 33.1412 74.5065 33.1412C73.2563 33.1412 72.0203 33.1412 70.7985 33.1412C69.5767 33.1412 68.4118 33.1412 67.3037 33.1412C66.224 33.1412 65.2579 33.1412 64.4055 33.1412C63.1837 33.1412 61.8625 33.1696 60.4419 33.2264C59.0496 33.2833 57.9131 33.3401 57.0323 33.3969V25.2565Z" fill="#FCED18"/>
<path d="M131.958 10.5526C132.328 11.064 132.711 11.6891 133.109 12.4279C133.535 13.1382 133.933 13.8485 134.302 14.5589C134.7 15.2692 135.027 15.8801 135.283 16.3915L131.234 18.0963C130.779 17.2155 130.253 16.2211 129.657 15.1129C129.088 13.9764 128.52 12.9961 127.952 12.1722L131.958 10.5526ZM137.2 8.50684C137.57 9.04669 137.968 9.68599 138.394 10.4247C138.82 11.1351 139.232 11.8454 139.63 12.5557C140.028 13.2377 140.34 13.8201 140.567 14.3032L136.561 16.008C136.135 15.1271 135.609 14.1327 134.984 13.0246C134.359 11.888 133.762 10.922 133.194 10.1264L137.2 8.50684ZM113.973 12.641C113.859 13.3513 113.774 14.2037 113.717 15.1982C113.66 16.1926 113.632 17.0024 113.632 17.6275C113.632 18.0821 113.632 18.8351 113.632 19.8864C113.632 20.9377 113.632 22.1594 113.632 23.5517C113.632 24.9439 113.632 26.4072 113.632 27.9416C113.632 29.4475 113.632 30.9107 113.632 32.3314C113.632 33.7237 113.632 34.9739 113.632 36.082C113.632 37.1901 113.632 38.0141 113.632 38.5539C113.632 39.3779 113.845 39.9462 114.271 40.2587C114.697 40.5713 115.365 40.8128 116.274 40.9833C116.899 41.0685 117.581 41.1253 118.32 41.1538C119.087 41.1822 119.911 41.1964 120.792 41.1964C121.9 41.1964 123.136 41.168 124.5 41.1111C125.864 41.0259 127.242 40.9265 128.634 40.8128C130.055 40.6707 131.376 40.5002 132.598 40.3014C133.848 40.1025 134.913 39.8894 135.794 39.6621V47.2058C134.402 47.4047 132.796 47.561 130.978 47.6746C129.188 47.8167 127.369 47.9161 125.523 47.973C123.676 48.0298 121.957 48.0582 120.366 48.0582C118.916 48.0582 117.553 48.0014 116.274 47.8877C115.024 47.8025 113.93 47.6888 112.992 47.5468C111.032 47.1774 109.497 46.4244 108.389 45.2879C107.281 44.1229 106.727 42.5886 106.727 40.6849C106.727 39.8041 106.727 38.696 106.727 37.3606C106.727 36.0251 106.727 34.5761 106.727 33.0133C106.727 31.4222 106.727 29.831 106.727 28.2399C106.727 26.6203 106.727 25.1002 106.727 23.6796C106.727 22.2589 106.727 21.0229 106.727 19.9716C106.727 18.8919 106.727 18.1105 106.727 17.6275C106.727 17.315 106.713 16.8604 106.685 16.2637C106.656 15.6386 106.614 14.9993 106.557 14.3458C106.528 13.6923 106.471 13.124 106.386 12.641H113.973ZM110.606 25.5122C112.026 25.1997 113.504 24.8445 115.038 24.4467C116.572 24.0205 118.093 23.5801 119.598 23.1255C121.133 22.6425 122.568 22.1594 123.903 21.6764C125.267 21.1934 126.474 20.7388 127.526 20.3126C128.35 20 129.174 19.6449 129.998 19.2471C130.822 18.8493 131.717 18.3663 132.683 17.798L135.41 24.3189C134.473 24.6882 133.507 25.086 132.512 25.5122C131.518 25.91 130.651 26.251 129.912 26.5351C128.691 26.9897 127.284 27.4869 125.693 28.0268C124.13 28.5382 122.482 29.0497 120.749 29.5611C119.016 30.0726 117.283 30.5698 115.55 31.0528C113.816 31.5074 112.183 31.9052 110.648 32.2462L110.606 25.5122Z" fill="#FCED18"/>
<path d="M183.486 16.6046C183.287 16.8888 183.003 17.3434 182.633 17.9685C182.264 18.5936 181.966 19.176 181.738 19.7159C181.142 21.0229 180.403 22.5004 179.522 24.1484C178.67 25.7679 177.689 27.4159 176.581 29.0923C175.502 30.7687 174.337 32.3456 173.087 33.8231C171.495 35.67 169.72 37.4884 167.759 39.2785C165.827 41.0401 163.781 42.6739 161.622 44.1798C159.491 45.6573 157.331 46.9217 155.143 47.973L149.773 42.3897C152.075 41.5373 154.319 40.4434 156.507 39.108C158.695 37.7726 160.713 36.3377 162.559 34.8034C164.406 33.2691 165.955 31.8058 167.205 30.4135C168.143 29.3622 168.995 28.2683 169.762 27.1318C170.558 25.9952 171.254 24.8871 171.851 23.8074C172.447 22.6993 172.888 21.6906 173.172 20.7814C172.859 20.7814 172.362 20.7814 171.68 20.7814C170.998 20.7814 170.217 20.7814 169.336 20.7814C168.455 20.7814 167.532 20.7814 166.566 20.7814C165.628 20.7814 164.719 20.7814 163.838 20.7814C162.957 20.7814 162.162 20.7814 161.451 20.7814C160.769 20.7814 160.258 20.7814 159.917 20.7814C159.292 20.7814 158.624 20.8098 157.914 20.8666C157.232 20.895 156.578 20.9377 155.953 20.9945C155.357 21.0513 154.859 21.0939 154.462 21.1224V13.7917C154.973 13.8485 155.57 13.9054 156.252 13.9622C156.962 14.019 157.644 14.0616 158.297 14.0901C158.979 14.1185 159.519 14.1327 159.917 14.1327C160.343 14.1327 160.94 14.1327 161.707 14.1327C162.474 14.1327 163.327 14.1327 164.264 14.1327C165.23 14.1327 166.21 14.1327 167.205 14.1327C168.228 14.1327 169.194 14.1327 170.103 14.1327C171.041 14.1327 171.865 14.1327 172.575 14.1327C173.285 14.1327 173.811 14.1327 174.152 14.1327C175.232 14.1327 176.226 14.0758 177.135 13.9622C178.073 13.8201 178.783 13.6639 179.266 13.4934L183.486 16.6046ZM173.641 29.5611C174.72 30.4135 175.885 31.4222 177.135 32.5871C178.386 33.7521 179.622 34.9739 180.843 36.2525C182.094 37.5026 183.244 38.7102 184.296 39.8752C185.347 41.0401 186.213 42.0346 186.895 42.8586L180.971 48.0156C179.92 46.4813 178.727 44.9469 177.391 43.4126C176.084 41.8499 174.692 40.3014 173.214 38.767C171.765 37.2327 170.274 35.7694 168.739 34.3772L173.641 29.5611Z" fill="#FCED18"/>
<path d="M216.729 42.6455H230.751V48.0582H216.729V42.6455ZM213.831 31.3085H233.735V49.5073H227.768V36.7213H219.5V49.6778H213.831V31.3085ZM212.382 11.1493H231.774V16.8177H212.382V11.1493ZM228.833 11.1493H234.587C234.587 11.1493 234.573 11.4192 234.545 11.9591C234.545 12.4989 234.53 12.9393 234.502 13.2803C234.445 16.2068 234.36 18.6362 234.246 20.5683C234.161 22.472 234.019 23.9637 233.82 25.0434C233.621 26.1231 233.337 26.9045 232.968 27.3875C232.485 28.0126 231.959 28.4672 231.391 28.7513C230.851 29.0071 230.212 29.1917 229.473 29.3054C228.876 29.419 228.095 29.4901 227.129 29.5185C226.191 29.5185 225.182 29.5185 224.103 29.5185C224.046 28.6093 223.847 27.629 223.506 26.5777C223.193 25.498 222.796 24.5746 222.313 23.8074C223.165 23.8927 223.975 23.9495 224.742 23.9779C225.509 23.9779 226.106 23.9779 226.532 23.9779C226.845 23.9779 227.1 23.9495 227.299 23.8927C227.526 23.8358 227.74 23.708 227.938 23.5091C228.137 23.2534 228.294 22.7277 228.407 21.9321C228.521 21.1081 228.606 19.9006 228.663 18.3094C228.748 16.6899 228.805 14.5873 228.833 12.0017V11.1493ZM217.923 13.536H223.975C223.833 15.326 223.591 17.0592 223.25 18.7356C222.938 20.3836 222.44 21.9321 221.759 23.3812C221.077 24.8303 220.125 26.1799 218.903 27.4301C217.681 28.6519 216.104 29.7316 214.172 30.6692C213.831 29.9305 213.306 29.1065 212.595 28.1973C211.913 27.2596 211.246 26.5209 210.592 25.981C212.155 25.2991 213.405 24.5035 214.343 23.5943C215.28 22.6851 215.976 21.7048 216.431 20.6535C216.914 19.6022 217.255 18.4799 217.454 17.2866C217.653 16.0648 217.809 14.8146 217.923 13.536ZM201.344 9.31662L206.671 11.2771C206.074 12.3853 205.464 13.536 204.838 14.7294C204.213 15.8943 203.602 17.0024 203.006 18.0537C202.409 19.105 201.841 20.0284 201.301 20.824L197.209 19.0766C197.721 18.1958 198.232 17.2013 198.744 16.0932C199.255 14.9567 199.738 13.8059 200.193 12.641C200.676 11.4476 201.059 10.3395 201.344 9.31662ZM206.287 14.4736L211.274 16.7325C210.223 18.3521 209.072 20.0426 207.822 21.8043C206.6 23.5659 205.364 25.2423 204.114 26.8334C202.892 28.4246 201.727 29.831 200.619 31.0528L197.082 29.0923C197.877 28.1262 198.701 27.0465 199.554 25.8532C200.406 24.6314 201.244 23.367 202.068 22.06C202.892 20.753 203.659 19.446 204.37 18.139C205.108 16.8319 205.748 15.6102 206.287 14.4736ZM194.865 20.0569L197.763 15.7949C198.502 16.4199 199.255 17.1303 200.022 17.9259C200.79 18.693 201.5 19.4602 202.153 20.2273C202.807 20.9945 203.304 21.7048 203.645 22.3583L200.491 27.1744C200.179 26.4925 199.71 25.7395 199.085 24.9155C198.46 24.0631 197.778 23.2107 197.039 22.3583C196.3 21.5059 195.576 20.7388 194.865 20.0569ZM205.179 24.7877L209.186 23.1255C209.726 24.0915 210.237 25.1428 210.72 26.2794C211.231 27.3875 211.672 28.4672 212.041 29.5185C212.411 30.5698 212.666 31.5216 212.808 32.374L208.504 34.2919C208.39 33.4395 208.163 32.4735 207.822 31.3938C207.481 30.2857 207.083 29.1633 206.628 28.0268C206.174 26.8618 205.691 25.7821 205.179 24.7877ZM194.865 27.8989C196.883 27.8421 199.298 27.7569 202.111 27.6432C204.952 27.5296 207.808 27.4159 210.677 27.3023L210.635 32.1609C207.964 32.3598 205.293 32.5587 202.622 32.7576C199.951 32.9281 197.536 33.0844 195.377 33.2264L194.865 27.8989ZM205.989 35.741L210.294 34.3346C210.777 35.5563 211.26 36.8918 211.743 38.3408C212.254 39.7615 212.638 41.0117 212.894 42.0914L208.376 43.711C208.177 42.6313 207.836 41.3526 207.353 39.8752C206.898 38.3692 206.444 36.9912 205.989 35.741ZM196.4 34.7181L201.471 35.6132C201.301 37.6589 201.003 39.6905 200.576 41.7078C200.15 43.7252 199.653 45.4158 199.085 46.7796C198.744 46.5523 198.289 46.2966 197.721 46.0124C197.153 45.7283 196.57 45.4584 195.973 45.2027C195.377 44.9185 194.865 44.7054 194.439 44.5634C195.007 43.3132 195.448 41.8073 195.76 40.0456C196.073 38.2556 196.286 36.4798 196.4 34.7181ZM201.301 30.7545H206.671V49.763H201.301V30.7545Z" fill="#FCED18"/>
<path d="M262.034 15.4539C260.955 17.2155 259.562 18.9771 257.858 20.7388C256.153 22.5004 254.235 24.1768 252.104 25.7679C249.973 27.3307 247.728 28.7229 245.37 29.9447C245.114 29.4333 244.759 28.865 244.305 28.2399C243.878 27.5864 243.424 26.9613 242.941 26.3646C242.458 25.7395 241.989 25.2139 241.534 24.7877C244.063 23.6227 246.421 22.1736 248.609 20.4404C250.825 18.6788 252.772 16.8035 254.448 14.8146C256.153 12.8257 257.474 10.922 258.412 9.10352H265.146C266.254 10.922 267.476 12.6268 268.811 14.2179C270.146 15.7806 271.567 17.2013 273.073 18.4799C274.607 19.7301 276.213 20.8382 277.889 21.8043C279.565 22.7419 281.284 23.5233 283.046 24.1484C282.251 24.9724 281.512 25.8958 280.83 26.9187C280.148 27.9131 279.523 28.8934 278.955 29.8595C276.682 28.7229 274.451 27.3733 272.263 25.8106C270.104 24.2478 268.129 22.5714 266.339 20.7814C264.577 18.9914 263.143 17.2155 262.034 15.4539ZM266.041 25.2139H272.519V49.763H266.041V25.2139ZM251.635 25.4696H258.028V30.3709C258.028 31.8768 257.929 33.4822 257.73 35.187C257.559 36.8918 257.176 38.6108 256.579 40.344C255.982 42.0488 255.073 43.711 253.851 45.3305C252.63 46.9501 250.982 48.4276 248.907 49.763C248.538 49.3084 248.041 48.7969 247.416 48.2287C246.819 47.6604 246.18 47.1064 245.498 46.5665C244.844 46.0551 244.233 45.6431 243.665 45.3305C245.455 44.2224 246.876 43.0432 247.927 41.7931C249.007 40.5145 249.802 39.2074 250.314 37.872C250.854 36.5366 251.209 35.2296 251.379 33.951C251.55 32.644 251.635 31.3938 251.635 30.2004V25.4696Z" fill="#FCED18"/>
<path d="M39.0466 27.3023C39.0466 29.831 38.8477 32.1609 38.4499 34.2919C38.0521 36.3945 37.3702 38.3408 36.4042 40.1309C35.4381 41.8925 34.0885 43.4979 32.3553 44.9469C30.6505 46.3676 28.4769 47.6604 25.8344 48.8254L20.2938 43.6257C22.4248 42.9154 24.2433 42.134 25.7492 41.2816C27.2835 40.4008 28.5195 39.3495 29.4571 38.1277C30.4232 36.8776 31.1335 35.4001 31.5881 33.6953C32.0427 31.962 32.27 29.8879 32.27 27.4727V15.5818C32.27 14.7009 32.2416 13.9196 32.1848 13.2377C32.1564 12.5273 32.0996 11.9022 32.0143 11.3624H39.345C39.2881 11.9022 39.2171 12.5273 39.1319 13.2377C39.075 13.9196 39.0466 14.7009 39.0466 15.5818V27.3023ZM23.6182 11.7886C23.5613 12.3 23.4903 12.9251 23.4051 13.6639C23.3482 14.3742 23.3198 15.184 23.3198 16.0932V31.0954C23.3198 31.7774 23.334 32.4309 23.3625 33.056C23.3909 33.6526 23.4193 34.1925 23.4477 34.6755C23.4761 35.1301 23.5045 35.5421 23.5329 35.9115H16.3302C16.387 35.5421 16.4296 35.1301 16.458 34.6755C16.4864 34.1925 16.5148 33.6526 16.5433 33.056C16.5717 32.4309 16.5859 31.7774 16.5859 31.0954V16.0506C16.5859 15.3402 16.5575 14.6441 16.5006 13.9622C16.4438 13.2519 16.3728 12.5273 16.2875 11.7886H23.6182ZM8.70117 19.1192C9.04213 19.176 9.43992 19.2471 9.89453 19.3323C10.3491 19.3891 10.8748 19.446 11.4715 19.5028C12.0682 19.5596 12.7501 19.588 13.5172 19.588H41.3055C42.5557 19.588 43.5359 19.5596 44.2463 19.5028C44.985 19.446 45.7237 19.3607 46.4625 19.2471V26.0663C45.8658 26.0094 45.1697 25.981 44.3741 25.981C43.5785 25.9526 42.5699 25.9384 41.3481 25.9384H13.5172C12.7501 25.9384 12.0824 25.9526 11.5141 25.981C10.9458 25.981 10.4344 25.9952 9.97977 26.0237C9.55357 26.0521 9.12737 26.0805 8.70117 26.1089V19.1192Z" stroke="#0A366F" stroke-width="4" mask="url(#path-1-outside-1_27_96)"/>
<path d="M57.0323 25.2565C57.6005 25.2849 58.3251 25.3275 59.2059 25.3844C60.1151 25.4412 61.0385 25.4838 61.9762 25.5122C62.9138 25.5406 63.7236 25.5548 64.4055 25.5548C65.2863 25.5548 66.2666 25.5548 67.3463 25.5548C68.4544 25.5548 69.6194 25.5548 70.8411 25.5548C72.0629 25.5548 73.2989 25.5548 74.5491 25.5548C75.8277 25.5548 77.0779 25.5548 78.2996 25.5548C79.5214 25.5548 80.6864 25.5548 81.7945 25.5548C82.9026 25.5548 83.8971 25.5548 84.7779 25.5548C85.6871 25.5548 86.4401 25.5548 87.0367 25.5548C88.0028 25.5548 88.9546 25.5122 89.8923 25.427C90.8583 25.3417 91.6539 25.2849 92.279 25.2565V33.3969C91.7391 33.3685 90.9436 33.3259 89.8923 33.2691C88.8694 33.1838 87.9175 33.1412 87.0367 33.1412C86.4401 33.1412 85.6871 33.1412 84.7779 33.1412C83.8686 33.1412 82.86 33.1412 81.7519 33.1412C80.6437 33.1412 79.4788 33.1412 78.257 33.1412C77.0352 33.1412 75.7851 33.1412 74.5065 33.1412C73.2563 33.1412 72.0203 33.1412 70.7985 33.1412C69.5767 33.1412 68.4118 33.1412 67.3037 33.1412C66.224 33.1412 65.2579 33.1412 64.4055 33.1412C63.1837 33.1412 61.8625 33.1696 60.4419 33.2264C59.0496 33.2833 57.9131 33.3401 57.0323 33.3969V25.2565Z" stroke="#0A366F" stroke-width="4" mask="url(#path-1-outside-1_27_96)"/>
<path d="M131.958 10.5526C132.328 11.064 132.711 11.6891 133.109 12.4279C133.535 13.1382 133.933 13.8485 134.302 14.5589C134.7 15.2692 135.027 15.8801 135.283 16.3915L131.234 18.0963C130.779 17.2155 130.253 16.2211 129.657 15.1129C129.088 13.9764 128.52 12.9961 127.952 12.1722L131.958 10.5526ZM137.2 8.50684C137.57 9.04669 137.968 9.68599 138.394 10.4247C138.82 11.1351 139.232 11.8454 139.63 12.5557C140.028 13.2377 140.34 13.8201 140.567 14.3032L136.561 16.008C136.135 15.1271 135.609 14.1327 134.984 13.0246C134.359 11.888 133.762 10.922 133.194 10.1264L137.2 8.50684ZM113.973 12.641C113.859 13.3513 113.774 14.2037 113.717 15.1982C113.66 16.1926 113.632 17.0024 113.632 17.6275C113.632 18.0821 113.632 18.8351 113.632 19.8864C113.632 20.9377 113.632 22.1594 113.632 23.5517C113.632 24.9439 113.632 26.4072 113.632 27.9416C113.632 29.4475 113.632 30.9107 113.632 32.3314C113.632 33.7237 113.632 34.9739 113.632 36.082C113.632 37.1901 113.632 38.0141 113.632 38.5539C113.632 39.3779 113.845 39.9462 114.271 40.2587C114.697 40.5713 115.365 40.8128 116.274 40.9833C116.899 41.0685 117.581 41.1253 118.32 41.1538C119.087 41.1822 119.911 41.1964 120.792 41.1964C121.9 41.1964 123.136 41.168 124.5 41.1111C125.864 41.0259 127.242 40.9265 128.634 40.8128C130.055 40.6707 131.376 40.5002 132.598 40.3014C133.848 40.1025 134.913 39.8894 135.794 39.6621V47.2058C134.402 47.4047 132.796 47.561 130.978 47.6746C129.188 47.8167 127.369 47.9161 125.523 47.973C123.676 48.0298 121.957 48.0582 120.366 48.0582C118.916 48.0582 117.553 48.0014 116.274 47.8877C115.024 47.8025 113.93 47.6888 112.992 47.5468C111.032 47.1774 109.497 46.4244 108.389 45.2879C107.281 44.1229 106.727 42.5886 106.727 40.6849C106.727 39.8041 106.727 38.696 106.727 37.3606C106.727 36.0251 106.727 34.5761 106.727 33.0133C106.727 31.4222 106.727 29.831 106.727 28.2399C106.727 26.6203 106.727 25.1002 106.727 23.6796C106.727 22.2589 106.727 21.0229 106.727 19.9716C106.727 18.8919 106.727 18.1105 106.727 17.6275C106.727 17.315 106.713 16.8604 106.685 16.2637C106.656 15.6386 106.614 14.9993 106.557 14.3458C106.528 13.6923 106.471 13.124 106.386 12.641H113.973ZM110.606 25.5122C112.026 25.1997 113.504 24.8445 115.038 24.4467C116.572 24.0205 118.093 23.5801 119.598 23.1255C121.133 22.6425 122.568 22.1594 123.903 21.6764C125.267 21.1934 126.474 20.7388 127.526 20.3126C128.35 20 129.174 19.6449 129.998 19.2471C130.822 18.8493 131.717 18.3663 132.683 17.798L135.41 24.3189C134.473 24.6882 133.507 25.086 132.512 25.5122C131.518 25.91 130.651 26.251 129.912 26.5351C128.691 26.9897 127.284 27.4869 125.693 28.0268C124.13 28.5382 122.482 29.0497 120.749 29.5611C119.016 30.0726 117.283 30.5698 115.55 31.0528C113.816 31.5074 112.183 31.9052 110.648 32.2462L110.606 25.5122Z" stroke="#0A366F" stroke-width="4" mask="url(#path-1-outside-1_27_96)"/>
<path d="M183.486 16.6046C183.287 16.8888 183.003 17.3434 182.633 17.9685C182.264 18.5936 181.966 19.176 181.738 19.7159C181.142 21.0229 180.403 22.5004 179.522 24.1484C178.67 25.7679 177.689 27.4159 176.581 29.0923C175.502 30.7687 174.337 32.3456 173.087 33.8231C171.495 35.67 169.72 37.4884 167.759 39.2785C165.827 41.0401 163.781 42.6739 161.622 44.1798C159.491 45.6573 157.331 46.9217 155.143 47.973L149.773 42.3897C152.075 41.5373 154.319 40.4434 156.507 39.108C158.695 37.7726 160.713 36.3377 162.559 34.8034C164.406 33.2691 165.955 31.8058 167.205 30.4135C168.143 29.3622 168.995 28.2683 169.762 27.1318C170.558 25.9952 171.254 24.8871 171.851 23.8074C172.447 22.6993 172.888 21.6906 173.172 20.7814C172.859 20.7814 172.362 20.7814 171.68 20.7814C170.998 20.7814 170.217 20.7814 169.336 20.7814C168.455 20.7814 167.532 20.7814 166.566 20.7814C165.628 20.7814 164.719 20.7814 163.838 20.7814C162.957 20.7814 162.162 20.7814 161.451 20.7814C160.769 20.7814 160.258 20.7814 159.917 20.7814C159.292 20.7814 158.624 20.8098 157.914 20.8666C157.232 20.895 156.578 20.9377 155.953 20.9945C155.357 21.0513 154.859 21.0939 154.462 21.1224V13.7917C154.973 13.8485 155.57 13.9054 156.252 13.9622C156.962 14.019 157.644 14.0616 158.297 14.0901C158.979 14.1185 159.519 14.1327 159.917 14.1327C160.343 14.1327 160.94 14.1327 161.707 14.1327C162.474 14.1327 163.327 14.1327 164.264 14.1327C165.23 14.1327 166.21 14.1327 167.205 14.1327C168.228 14.1327 169.194 14.1327 170.103 14.1327C171.041 14.1327 171.865 14.1327 172.575 14.1327C173.285 14.1327 173.811 14.1327 174.152 14.1327C175.232 14.1327 176.226 14.0758 177.135 13.9622C178.073 13.8201 178.783 13.6639 179.266 13.4934L183.486 16.6046ZM173.641 29.5611C174.72 30.4135 175.885 31.4222 177.135 32.5871C178.386 33.7521 179.622 34.9739 180.843 36.2525C182.094 37.5026 183.244 38.7102 184.296 39.8752C185.347 41.0401 186.213 42.0346 186.895 42.8586L180.971 48.0156C179.92 46.4813 178.727 44.9469 177.391 43.4126C176.084 41.8499 174.692 40.3014 173.214 38.767C171.765 37.2327 170.274 35.7694 168.739 34.3772L173.641 29.5611Z" stroke="#0A366F" stroke-width="4" mask="url(#path-1-outside-1_27_96)"/>
<path d="M216.729 42.6455H230.751V48.0582H216.729V42.6455ZM213.831 31.3085H233.735V49.5073H227.768V36.7213H219.5V49.6778H213.831V31.3085ZM212.382 11.1493H231.774V16.8177H212.382V11.1493ZM228.833 11.1493H234.587C234.587 11.1493 234.573 11.4192 234.545 11.9591C234.545 12.4989 234.53 12.9393 234.502 13.2803C234.445 16.2068 234.36 18.6362 234.246 20.5683C234.161 22.472 234.019 23.9637 233.82 25.0434C233.621 26.1231 233.337 26.9045 232.968 27.3875C232.485 28.0126 231.959 28.4672 231.391 28.7513C230.851 29.0071 230.212 29.1917 229.473 29.3054C228.876 29.419 228.095 29.4901 227.129 29.5185C226.191 29.5185 225.182 29.5185 224.103 29.5185C224.046 28.6093 223.847 27.629 223.506 26.5777C223.193 25.498 222.796 24.5746 222.313 23.8074C223.165 23.8927 223.975 23.9495 224.742 23.9779C225.509 23.9779 226.106 23.9779 226.532 23.9779C226.845 23.9779 227.1 23.9495 227.299 23.8927C227.526 23.8358 227.74 23.708 227.938 23.5091C228.137 23.2534 228.294 22.7277 228.407 21.9321C228.521 21.1081 228.606 19.9006 228.663 18.3094C228.748 16.6899 228.805 14.5873 228.833 12.0017V11.1493ZM217.923 13.536H223.975C223.833 15.326 223.591 17.0592 223.25 18.7356C222.938 20.3836 222.44 21.9321 221.759 23.3812C221.077 24.8303 220.125 26.1799 218.903 27.4301C217.681 28.6519 216.104 29.7316 214.172 30.6692C213.831 29.9305 213.306 29.1065 212.595 28.1973C211.913 27.2596 211.246 26.5209 210.592 25.981C212.155 25.2991 213.405 24.5035 214.343 23.5943C215.28 22.6851 215.976 21.7048 216.431 20.6535C216.914 19.6022 217.255 18.4799 217.454 17.2866C217.653 16.0648 217.809 14.8146 217.923 13.536ZM201.344 9.31662L206.671 11.2771C206.074 12.3853 205.464 13.536 204.838 14.7294C204.213 15.8943 203.602 17.0024 203.006 18.0537C202.409 19.105 201.841 20.0284 201.301 20.824L197.209 19.0766C197.721 18.1958 198.232 17.2013 198.744 16.0932C199.255 14.9567 199.738 13.8059 200.193 12.641C200.676 11.4476 201.059 10.3395 201.344 9.31662ZM206.287 14.4736L211.274 16.7325C210.223 18.3521 209.072 20.0426 207.822 21.8043C206.6 23.5659 205.364 25.2423 204.114 26.8334C202.892 28.4246 201.727 29.831 200.619 31.0528L197.082 29.0923C197.877 28.1262 198.701 27.0465 199.554 25.8532C200.406 24.6314 201.244 23.367 202.068 22.06C202.892 20.753 203.659 19.446 204.37 18.139C205.108 16.8319 205.748 15.6102 206.287 14.4736ZM194.865 20.0569L197.763 15.7949C198.502 16.4199 199.255 17.1303 200.022 17.9259C200.79 18.693 201.5 19.4602 202.153 20.2273C202.807 20.9945 203.304 21.7048 203.645 22.3583L200.491 27.1744C200.179 26.4925 199.71 25.7395 199.085 24.9155C198.46 24.0631 197.778 23.2107 197.039 22.3583C196.3 21.5059 195.576 20.7388 194.865 20.0569ZM205.179 24.7877L209.186 23.1255C209.726 24.0915 210.237 25.1428 210.72 26.2794C211.231 27.3875 211.672 28.4672 212.041 29.5185C212.411 30.5698 212.666 31.5216 212.808 32.374L208.504 34.2919C208.39 33.4395 208.163 32.4735 207.822 31.3938C207.481 30.2857 207.083 29.1633 206.628 28.0268C206.174 26.8618 205.691 25.7821 205.179 24.7877ZM194.865 27.8989C196.883 27.8421 199.298 27.7569 202.111 27.6432C204.952 27.5296 207.808 27.4159 210.677 27.3023L210.635 32.1609C207.964 32.3598 205.293 32.5587 202.622 32.7576C199.951 32.9281 197.536 33.0844 195.377 33.2264L194.865 27.8989ZM205.989 35.741L210.294 34.3346C210.777 35.5563 211.26 36.8918 211.743 38.3408C212.254 39.7615 212.638 41.0117 212.894 42.0914L208.376 43.711C208.177 42.6313 207.836 41.3526 207.353 39.8752C206.898 38.3692 206.444 36.9912 205.989 35.741ZM196.4 34.7181L201.471 35.6132C201.301 37.6589 201.003 39.6905 200.576 41.7078C200.15 43.7252 199.653 45.4158 199.085 46.7796C198.744 46.5523 198.289 46.2966 197.721 46.0124C197.153 45.7283 196.57 45.4584 195.973 45.2027C195.377 44.9185 194.865 44.7054 194.439 44.5634C195.007 43.3132 195.448 41.8073 195.76 40.0456C196.073 38.2556 196.286 36.4798 196.4 34.7181ZM201.301 30.7545H206.671V49.763H201.301V30.7545Z" stroke="#0A366F" stroke-width="4" mask="url(#path-1-outside-1_27_96)"/>
<path d="M262.034 15.4539C260.955 17.2155 259.562 18.9771 257.858 20.7388C256.153 22.5004 254.235 24.1768 252.104 25.7679C249.973 27.3307 247.728 28.7229 245.37 29.9447C245.114 29.4333 244.759 28.865 244.305 28.2399C243.878 27.5864 243.424 26.9613 242.941 26.3646C242.458 25.7395 241.989 25.2139 241.534 24.7877C244.063 23.6227 246.421 22.1736 248.609 20.4404C250.825 18.6788 252.772 16.8035 254.448 14.8146C256.153 12.8257 257.474 10.922 258.412 9.10352H265.146C266.254 10.922 267.476 12.6268 268.811 14.2179C270.146 15.7806 271.567 17.2013 273.073 18.4799C274.607 19.7301 276.213 20.8382 277.889 21.8043C279.565 22.7419 281.284 23.5233 283.046 24.1484C282.251 24.9724 281.512 25.8958 280.83 26.9187C280.148 27.9131 279.523 28.8934 278.955 29.8595C276.682 28.7229 274.451 27.3733 272.263 25.8106C270.104 24.2478 268.129 22.5714 266.339 20.7814C264.577 18.9914 263.143 17.2155 262.034 15.4539ZM266.041 25.2139H272.519V49.763H266.041V25.2139ZM251.635 25.4696H258.028V30.3709C258.028 31.8768 257.929 33.4822 257.73 35.187C257.559 36.8918 257.176 38.6108 256.579 40.344C255.982 42.0488 255.073 43.711 253.851 45.3305C252.63 46.9501 250.982 48.4276 248.907 49.763C248.538 49.3084 248.041 48.7969 247.416 48.2287C246.819 47.6604 246.18 47.1064 245.498 46.5665C244.844 46.0551 244.233 45.6431 243.665 45.3305C245.455 44.2224 246.876 43.0432 247.927 41.7931C249.007 40.5145 249.802 39.2074 250.314 37.872C250.854 36.5366 251.209 35.2296 251.379 33.951C251.55 32.644 251.635 31.3938 251.635 30.2004V25.4696Z" stroke="#0A366F" stroke-width="4" mask="url(#path-1-outside-1_27_96)"/>
</g>
<defs>
<filter id="filter0_d_27_96" x="0.701172" y="0.0495605" width="291.942" height="58.3645" filterUnits="userSpaceOnUse" color-interpolation-filters="sRGB">
<feFlood flood-opacity="0" result="BackgroundImageFix"/>
<feColorMatrix in="SourceAlpha" type="matrix" values="0 0 0 0 0 0 0 0 0 0 0 0 0 0 0 0 0 0 127 0" result="hardAlpha"/>
<feOffset/>
<feGaussianBlur stdDeviation="3"/>
<feComposite in2="hardAlpha" operator="out"/>
<feColorMatrix type="matrix" values="0 0 0 0 0.0392157 0 0 0 0 0.211765 0 0 0 0 0.435294 0 0 0 1 0"/>
<feBlend mode="normal" in2="BackgroundImageFix" result="effect1_dropShadow_27_96"/>
<feBlend mode="normal" in="SourceGraphic" in2="effect1_dropShadow_27_96" result="shape"/>
</filter>
</defs>
</svg>
