<svg width="100" height="100" viewBox="0 0 100 100" fill="none" xmlns="http://www.w3.org/2000/svg">
<g clip-path="url(#clip0_54_576)">
<path d="M57.7862 12.5673C58.6236 8.26504 55.8196 4.09756 51.5231 3.25895C47.2267 2.42034 43.0648 5.22817 42.2273 9.53041C41.3898 13.8327 44.1939 18.0001 48.4904 18.8387C52.7868 19.6774 56.9487 16.8695 57.7862 12.5673Z" stroke="#1557B9" stroke-width="5" stroke-linecap="round" stroke-linejoin="round"/>
<path d="M36.1099 37.8348C36.1099 30.1551 42.3286 23.9238 50.0021 23.9238C57.6757 23.9238 63.8902 30.1509 63.8902 37.8348" stroke="#1557B9" stroke-width="5" stroke-linecap="round" stroke-linejoin="round"/>
<path d="M23.9517 73.4337C24.9491 69.1658 22.3024 64.8963 18.0402 63.8977C13.778 62.899 9.51434 65.5492 8.51701 69.8172C7.51968 74.0851 10.1664 78.3545 14.4285 79.3532C18.6907 80.3519 22.9544 77.7016 23.9517 73.4337Z" stroke="#1557B9" stroke-width="5" stroke-linecap="round" stroke-linejoin="round"/>
<path d="M2.34619 98.4139C2.34619 90.7342 8.56492 84.5029 16.2343 84.5029C23.9036 84.5029 30.1265 90.73 30.1265 98.4139" stroke="#1557B9" stroke-width="5" stroke-linecap="round" stroke-linejoin="round"/>
<path d="M89.3716 77.2379C92.4668 74.1385 92.4668 69.1134 89.3716 66.014C86.2763 62.9146 81.258 62.9146 78.1628 66.014C75.0675 69.1134 75.0675 74.1385 78.1628 77.2379C81.258 80.3373 86.2763 80.3373 89.3716 77.2379Z" stroke="#1557B9" stroke-width="5" stroke-linecap="round" stroke-linejoin="round"/>
<path d="M69.8735 98.4149C69.8735 90.7352 76.0923 84.5039 83.7658 84.5039C91.4394 84.5039 97.6539 90.731 97.6539 98.4149" stroke="#1557B9" stroke-width="5" stroke-linecap="round" stroke-linejoin="round"/>
<path d="M29.2477 45.7471L22.6169 55.5151" stroke="#1557B9" stroke-width="5" stroke-linecap="round" stroke-linejoin="round"/>
<path d="M70.7522 45.7471L77.383 55.5151" stroke="#1557B9" stroke-width="5" stroke-linecap="round" stroke-linejoin="round"/>
<path d="M43.0435 90.6992H56.9568" stroke="#1557B9" stroke-width="5" stroke-linecap="round" stroke-linejoin="round"/>
</g>
<defs>
<clipPath id="clip0_54_576">
<rect width="100" height="100" fill="white"/>
</clipPath>
</defs>
</svg>
