<svg width="144" height="74" viewBox="0 0 144 74" fill="none" xmlns="http://www.w3.org/2000/svg">
<rect x="0.292969" y="3.66949" width="143.16" height="63.2188" rx="4.63677" fill="url(#paint0_linear_11_4286)"/>
<path d="M50.269 19.852L51.908 20.3382C51.658 20.8475 51.3617 21.3475 51.0191 21.8383C50.6764 22.3291 50.306 22.7828 49.9079 23.1995C49.519 23.6162 49.13 23.982 48.7411 24.2968C48.6485 24.1857 48.5189 24.0607 48.3522 23.9218C48.1855 23.7829 48.0142 23.6486 47.8383 23.519C47.6623 23.3893 47.5095 23.2828 47.3799 23.1995C47.9725 22.8106 48.5281 22.3198 49.0467 21.7272C49.5653 21.1345 49.9727 20.5095 50.269 19.852ZM50.1579 21.3244H59.728V22.7828H49.7551L50.1579 21.3244ZM47.6855 24.5607H60.2419V26.0469H47.6855V24.5607ZM47.9077 27.8109H60.0336V29.2972H47.9077V27.8109ZM52.033 21.8383H53.422V28.5888H52.033V21.8383ZM49.5606 21.8383H51.0468V28.6027H49.5606V21.8383ZM54.4499 21.8383H55.8389V28.6027H54.4499V21.8383ZM56.8945 21.8383H58.4224V28.6027H56.8945V21.8383ZM51.6163 30.075L53.1581 29.9083C53.2507 30.325 53.3294 30.7788 53.3942 31.2695C53.4683 31.7603 53.51 32.177 53.5192 32.5196L51.8802 32.7557C51.8802 32.5335 51.8663 32.2696 51.8386 31.964C51.82 31.6584 51.7923 31.339 51.7552 31.0056C51.7182 30.6723 51.6719 30.3621 51.6163 30.075ZM54.3804 30.1167L55.9361 29.8528C56.0565 30.1213 56.1722 30.413 56.2833 30.7278C56.3944 31.0427 56.4917 31.3482 56.575 31.6446C56.6584 31.9409 56.7185 32.2094 56.7556 32.4502L55.0888 32.7696C55.0425 32.427 54.9499 32.0057 54.811 31.5057C54.6814 31.0056 54.5378 30.5426 54.3804 30.1167ZM57.1306 30.0333L58.7279 29.5333C58.9502 29.8204 59.1724 30.1306 59.3947 30.4639C59.6169 30.7973 59.8299 31.1306 60.0336 31.464C60.2373 31.7881 60.3947 32.0798 60.5059 32.3391L58.7974 32.9085C58.6955 32.6585 58.552 32.3668 58.3668 32.0335C58.1909 31.7001 57.9918 31.3621 57.7695 31.0195C57.5566 30.6676 57.3436 30.3389 57.1306 30.0333ZM49.1161 29.5889L50.7274 29.9917C50.57 30.5195 50.3523 31.0473 50.0745 31.5751C49.7968 32.1029 49.4865 32.552 49.1439 32.9224L47.5466 32.2696C47.8614 31.9733 48.1624 31.5797 48.4494 31.089C48.7365 30.5982 48.9587 30.0981 49.1161 29.5889ZM64.645 19.9215H66.1729V32.8669H64.645V19.9215ZM62.5338 24.4913H68.2286V26.0469H62.5338V24.4913ZM64.3395 25.3108L65.2701 25.7691C65.1497 26.2321 65.0108 26.7229 64.8534 27.2415C64.696 27.7508 64.52 28.2601 64.3256 28.7694C64.1311 29.2786 63.9274 29.7602 63.7144 30.2139C63.5014 30.6584 63.2746 31.0473 63.0338 31.3806C62.9875 31.2047 62.9181 31.0149 62.8255 30.8112C62.7421 30.5982 62.6495 30.3898 62.5477 30.1861C62.4551 29.9824 62.3671 29.8065 62.2838 29.6583C62.5616 29.3157 62.8301 28.8944 63.0894 28.3943C63.3579 27.885 63.6033 27.3618 63.8255 26.8248C64.0478 26.2784 64.2191 25.7738 64.3395 25.3108ZM66.159 26.1164C66.2331 26.1905 66.3396 26.3062 66.4785 26.4636C66.6267 26.621 66.7887 26.8016 66.9647 27.0053C67.1406 27.1998 67.3073 27.3989 67.4647 27.6026C67.6314 27.7971 67.7795 27.973 67.9092 28.1304C68.0481 28.2878 68.1453 28.4082 68.2009 28.4916L67.1869 29.7972C67.0943 29.5935 66.9739 29.3574 66.8258 29.0888C66.6776 28.811 66.5155 28.5286 66.3396 28.2415C66.1637 27.9452 65.9924 27.6674 65.8257 27.4081C65.659 27.1489 65.5155 26.9359 65.3951 26.7692L66.159 26.1164ZM62.5199 20.991L63.6866 20.6854C63.807 21.0188 63.9135 21.3799 64.0061 21.7688C64.108 22.1578 64.1913 22.5374 64.2561 22.9078C64.3209 23.2782 64.3672 23.6116 64.395 23.9079L63.1449 24.2412C63.1357 23.9449 63.0986 23.6116 63.0338 23.2412C62.9783 22.8615 62.9042 22.4772 62.8116 22.0883C62.7282 21.6901 62.631 21.3244 62.5199 20.991ZM67.0897 20.616L68.4925 20.9216C68.3814 21.3012 68.261 21.6901 68.1314 22.0883C68.0018 22.4865 67.8721 22.8708 67.7425 23.2412C67.6128 23.6023 67.4925 23.9218 67.3813 24.1996L66.3257 23.894C66.4276 23.5977 66.5248 23.2597 66.6174 22.88C66.7193 22.4911 66.8119 22.0976 66.8952 21.6994C66.9785 21.3012 67.0434 20.9401 67.0897 20.616ZM72.3539 19.852H73.9096V32.8946H72.3539V19.852ZM68.2009 28.5471L75.3403 27.2692L75.5903 28.811L68.4509 30.1028L68.2009 28.5471ZM68.9787 21.7411L69.7982 20.616C70.0575 20.7641 70.326 20.9355 70.6038 21.1299C70.8909 21.3244 71.1594 21.5235 71.4094 21.7272C71.6687 21.9309 71.8724 22.1207 72.0206 22.2967L71.1594 23.5468C71.0205 23.3616 70.826 23.1625 70.576 22.9495C70.3353 22.7365 70.076 22.5235 69.7982 22.3106C69.5204 22.0976 69.2472 21.9077 68.9787 21.7411ZM68.3536 25.2413L69.1315 24.0468C69.4093 24.1857 69.6963 24.3524 69.9926 24.5468C70.289 24.732 70.5714 24.9219 70.8399 25.1163C71.1085 25.3015 71.3261 25.4821 71.4928 25.658L70.6455 26.9914C70.4973 26.8155 70.2936 26.6257 70.0343 26.422C69.775 26.209 69.4972 26.0006 69.2009 25.7969C68.9139 25.5839 68.6314 25.3987 68.3536 25.2413ZM86.341 21.491C86.1095 21.9077 85.8132 22.343 85.4521 22.7967C85.091 23.2504 84.6881 23.6857 84.2437 24.1023C83.8085 24.5098 83.3501 24.8663 82.8686 25.1719C82.776 24.9589 82.651 24.7181 82.4935 24.4496C82.3361 24.1718 82.1833 23.9403 82.0352 23.7551C82.526 23.4773 82.9936 23.1254 83.4381 22.6995C83.8918 22.2643 84.2992 21.8013 84.6604 21.3105C85.0215 20.8197 85.3086 20.3567 85.5215 19.9215H87.0633C87.3596 20.4123 87.7023 20.8938 88.0912 21.366C88.4893 21.8383 88.9107 22.2643 89.3551 22.6439C89.7996 23.0143 90.2487 23.3153 90.7025 23.5468C90.545 23.7412 90.383 23.982 90.2163 24.269C90.0589 24.5468 89.9246 24.8061 89.8135 25.0469C89.369 24.7783 88.9292 24.445 88.494 24.0468C88.0588 23.6486 87.656 23.2273 87.2856 22.7828C86.9152 22.3383 86.6003 21.9077 86.341 21.491ZM86.3133 23.5745L87.7578 24.144C87.4708 24.5237 87.142 24.8894 86.7716 25.2413C86.4012 25.5839 86.0077 25.9034 85.591 26.1997C85.1836 26.4868 84.7715 26.7414 84.3548 26.9637C84.2344 26.8155 84.0724 26.6442 83.8686 26.4497C83.6742 26.2553 83.4844 26.0932 83.2992 25.9636C83.6603 25.7784 84.0307 25.5608 84.4103 25.3108C84.7993 25.0515 85.1604 24.7737 85.4938 24.4774C85.8271 24.1718 86.1003 23.8709 86.3133 23.5745ZM87.5772 25.5608L89.0357 26.1858C88.656 26.6673 88.2162 27.1211 87.7161 27.547C87.2161 27.973 86.6837 28.3619 86.1188 28.7138C85.5539 29.0657 84.9798 29.3759 84.3965 29.6444C84.2761 29.4685 84.1187 29.2694 83.9242 29.0471C83.7297 28.8249 83.5399 28.6397 83.3547 28.4916C83.8825 28.2878 84.4103 28.0332 84.9382 27.7276C85.4752 27.422 85.9753 27.0887 86.4383 26.7275C86.9013 26.3571 87.2809 25.9682 87.5772 25.5608ZM88.6607 27.7693L90.1608 28.4221C89.4477 29.5055 88.5264 30.4176 87.3967 31.1584C86.2762 31.8992 85.0447 32.4918 83.702 32.9363C83.5908 32.7141 83.4381 32.4687 83.2436 32.2002C83.0491 31.9316 82.8547 31.7001 82.6602 31.5057C83.4936 31.2927 84.2946 31.0103 85.0632 30.6584C85.8317 30.2972 86.5216 29.8805 87.1328 29.4083C87.7532 28.9268 88.2625 28.3804 88.6607 27.7693ZM78.0766 24.1162H82.2713V25.3802H78.0766V24.1162ZM78.1321 20.2965H82.2435V21.5466H78.1321V20.2965ZM78.0766 26.0192H82.2713V27.2692H78.0766V26.0192ZM77.4237 22.1578H82.6741V23.4773H77.4237V22.1578ZM78.7988 27.936H82.2991V32.1724H78.7988V30.8528H80.8684V29.2555H78.7988V27.936ZM78.0488 27.936H79.4517V32.7141H78.0488V27.936ZM94.5916 23.8801H99.3003V25.2691H94.5916V23.8801ZM93.786 30.1167H99.0781V31.5473H93.786V30.1167ZM92.8832 20.3382H94.3277V32.5335H92.8832V20.3382ZM96.2584 20.0048H97.6335V29.8528H96.2584V20.0048ZM96.3834 24.6579L97.2724 25.0469C97.115 25.5562 96.9112 26.084 96.6612 26.6303C96.4205 27.1674 96.1519 27.672 95.8556 28.1443C95.5593 28.6166 95.2445 29.0101 94.9111 29.3249C94.8463 29.1212 94.7491 28.8897 94.6194 28.6305C94.499 28.3619 94.3833 28.1304 94.2722 27.936C94.5592 27.6859 94.837 27.3804 95.1056 27.0192C95.3741 26.6581 95.6195 26.2738 95.8417 25.8664C96.0732 25.4497 96.2538 25.0469 96.3834 24.6579ZM98.2725 20.866L99.5642 21.1716C99.3883 21.5975 99.2123 22.0328 99.0364 22.4772C98.8697 22.9217 98.7077 23.2967 98.5503 23.6023L97.6057 23.2967C97.6891 23.0652 97.7724 22.8106 97.8558 22.5328C97.9391 22.2457 98.0178 21.9587 98.0919 21.6716C98.166 21.3753 98.2262 21.1068 98.2725 20.866ZM94.6194 21.1994L95.6195 20.866C95.7676 21.2457 95.888 21.6577 95.9806 22.1022C96.0825 22.5374 96.1427 22.9171 96.1612 23.2412L95.0778 23.5884C95.0685 23.2643 95.0176 22.88 94.925 22.4356C94.8417 21.9818 94.7398 21.5698 94.6194 21.1994ZM97.5919 25.4497C97.6752 25.5237 97.8002 25.6349 97.9669 25.783C98.1428 25.9312 98.3234 26.0932 98.5086 26.2692C98.703 26.4451 98.879 26.6118 99.0364 26.7692C99.2031 26.9174 99.3235 27.0239 99.3975 27.0887L98.5086 28.2138C98.4252 28.0749 98.3095 27.9082 98.1613 27.7137C98.0224 27.51 97.8697 27.3063 97.703 27.1026C97.5456 26.8896 97.3928 26.6905 97.2446 26.5053C97.0964 26.3201 96.9714 26.1673 96.8696 26.0469L97.5919 25.4497ZM100.523 24.4496H105.523V25.9914H100.523V24.4496ZM102.717 25.2274H104.287V32.8808H102.717V25.2274ZM99.7726 20.9493L101.717 21.5049C101.708 21.6253 101.588 21.704 101.356 21.7411V25.8247C101.356 26.3433 101.328 26.9127 101.273 27.5332C101.226 28.1443 101.134 28.774 100.995 29.4222C100.856 30.0611 100.643 30.6815 100.356 31.2834C100.078 31.8853 99.7077 32.4363 99.2447 32.9363C99.1799 32.8159 99.0781 32.677 98.9392 32.5196C98.8003 32.3715 98.6521 32.2279 98.4947 32.089C98.3373 31.9594 98.1891 31.8622 98.0502 31.7973C98.578 31.2232 98.9623 30.5936 99.2031 29.9083C99.4438 29.2231 99.5966 28.5286 99.6614 27.8248C99.7355 27.1118 99.7726 26.4405 99.7726 25.8108V20.9493ZM104.12 20.0187L105.454 21.241C104.991 21.4447 104.486 21.6346 103.94 21.8105C103.402 21.9865 102.851 22.1439 102.287 22.2828C101.731 22.4124 101.185 22.5282 100.648 22.63C100.611 22.4541 100.541 22.2457 100.439 22.005C100.347 21.755 100.249 21.542 100.148 21.366C100.629 21.2549 101.111 21.1299 101.592 20.991C102.083 20.8521 102.546 20.6993 102.981 20.5326C103.426 20.3567 103.805 20.1854 104.12 20.0187ZM113.197 21.4471C113.155 21.6762 113.087 21.9733 112.993 22.3383C112.9 22.7033 112.764 23.115 112.586 23.5734C112.45 23.8874 112.293 24.2142 112.115 24.5538C111.945 24.8848 111.771 25.1819 111.593 25.445C111.703 25.3941 111.843 25.3517 112.013 25.3177C112.183 25.2753 112.357 25.2456 112.535 25.2286C112.722 25.2031 112.887 25.1904 113.032 25.1904C113.566 25.1904 114.008 25.3432 114.356 25.6488C114.712 25.9543 114.891 26.4085 114.891 27.0111C114.891 27.1809 114.891 27.3889 114.891 27.635C114.899 27.8812 114.908 28.1401 114.916 28.4117C114.925 28.6748 114.933 28.9337 114.941 29.1884C114.95 29.443 114.954 29.6722 114.954 29.8759H113.426C113.443 29.7316 113.452 29.5618 113.452 29.3666C113.46 29.1629 113.465 28.9507 113.465 28.73C113.473 28.5093 113.477 28.2971 113.477 28.0934C113.486 27.8812 113.49 27.6902 113.49 27.5204C113.49 27.113 113.38 26.8329 113.159 26.6801C112.947 26.5188 112.709 26.4382 112.446 26.4382C112.089 26.4382 111.729 26.5273 111.364 26.7055C111.007 26.8753 110.706 27.079 110.46 27.3167C110.273 27.5034 110.082 27.7114 109.887 27.9406C109.7 28.1698 109.496 28.4287 109.276 28.7173L107.913 27.6987C108.465 27.1894 108.94 26.6971 109.339 26.2217C109.747 25.7464 110.09 25.2753 110.371 24.8084C110.651 24.3416 110.88 23.8747 111.058 23.4079C111.185 23.0683 111.287 22.7161 111.364 22.3511C111.449 21.9776 111.499 21.6296 111.516 21.307L113.197 21.4471ZM108.41 22.6184C108.732 22.6694 109.106 22.7076 109.53 22.733C109.955 22.7585 110.328 22.7712 110.651 22.7712C111.211 22.7712 111.822 22.7585 112.484 22.733C113.155 22.7076 113.834 22.6651 114.521 22.6057C115.209 22.5378 115.862 22.4529 116.482 22.3511L116.469 23.828C116.019 23.8874 115.531 23.9426 115.005 23.9935C114.487 24.036 113.957 24.0742 113.414 24.1081C112.879 24.1336 112.365 24.1548 111.873 24.1718C111.381 24.1803 110.944 24.1845 110.562 24.1845C110.392 24.1845 110.18 24.1845 109.925 24.1845C109.679 24.176 109.424 24.1676 109.161 24.1591C108.898 24.1421 108.647 24.1251 108.41 24.1081V22.6184ZM118.494 26.2344C118.358 26.2769 118.197 26.3321 118.01 26.4C117.832 26.4594 117.649 26.523 117.462 26.591C117.284 26.6504 117.123 26.7098 116.979 26.7692C116.571 26.9305 116.087 27.1257 115.527 27.3549C114.975 27.5841 114.398 27.8515 113.796 28.157C113.414 28.3608 113.091 28.5602 112.828 28.7555C112.565 28.9507 112.365 29.1502 112.229 29.3539C112.094 29.5491 112.026 29.7656 112.026 30.0032C112.026 30.1815 112.064 30.33 112.14 30.4489C112.217 30.5592 112.331 30.6483 112.484 30.7162C112.637 30.7842 112.828 30.8308 113.057 30.8563C113.286 30.8818 113.558 30.8945 113.872 30.8945C114.415 30.8945 115.014 30.8648 115.667 30.8054C116.321 30.7375 116.928 30.6483 117.488 30.538L117.437 32.1805C117.165 32.2144 116.822 32.2484 116.406 32.2823C115.99 32.3248 115.557 32.3545 115.107 32.3715C114.666 32.3884 114.241 32.3969 113.834 32.3969C113.172 32.3969 112.577 32.3333 112.051 32.2059C111.525 32.0786 111.109 31.8622 110.803 31.5566C110.506 31.2425 110.358 30.8139 110.358 30.2706C110.358 29.8292 110.455 29.4303 110.651 29.0738C110.854 28.7173 111.122 28.3947 111.453 28.1061C111.784 27.8175 112.145 27.5586 112.535 27.3294C112.934 27.0918 113.324 26.8753 113.706 26.6801C114.097 26.4764 114.449 26.3024 114.763 26.1581C115.077 26.0138 115.37 25.8864 115.642 25.7761C115.922 25.6572 116.189 25.5384 116.444 25.4196C116.69 25.3092 116.928 25.2031 117.157 25.1013C117.386 24.9909 117.62 24.8763 117.857 24.7575L118.494 26.2344ZM48.3522 38.7133H59.6169V46.9778H57.8807V40.3106H50.019V47.0472H48.3522V38.7133ZM49.4495 41.7135H58.7002V43.2553H49.4495V41.7135ZM49.4356 44.7137H58.7279V46.3111H49.4356V44.7137ZM53.0331 36.852H54.7832V49.8946H53.0331V36.852ZM67.1591 37.6438C67.1221 37.9308 67.085 38.241 67.048 38.5744C67.0202 38.9077 66.9971 39.2133 66.9785 39.4911C66.9693 39.8708 66.9508 40.3338 66.923 40.8801C66.9045 41.4172 66.8859 41.982 66.8674 42.5747C66.8582 43.1673 66.8443 43.7507 66.8258 44.3248C66.8165 44.8989 66.8119 45.399 66.8119 45.8249C66.8119 46.2879 66.8952 46.6583 67.0619 46.9361C67.2378 47.2046 67.4693 47.3991 67.7564 47.5195C68.0434 47.6306 68.3675 47.6862 68.7287 47.6862C69.3028 47.6862 69.826 47.6121 70.2982 47.4639C70.7705 47.3065 71.2011 47.0981 71.59 46.8389C71.9789 46.5796 72.3261 46.2786 72.6317 45.936C72.9466 45.5934 73.229 45.2323 73.479 44.8526L74.743 46.3805C74.5207 46.7139 74.2291 47.0657 73.8679 47.4361C73.5068 47.8065 73.0762 48.1538 72.5762 48.4779C72.0854 48.802 71.5159 49.0659 70.8677 49.2696C70.2195 49.4733 69.5019 49.5752 68.7148 49.5752C67.9555 49.5752 67.2934 49.4548 66.7285 49.214C66.1729 48.9825 65.7377 48.6214 65.4229 48.1306C65.1173 47.6306 64.9645 46.987 64.9645 46.1999C64.9645 45.8203 64.9691 45.3897 64.9784 44.9082C64.9877 44.4174 65.0015 43.9081 65.0201 43.3803C65.0386 42.8525 65.0525 42.3385 65.0617 41.8385C65.071 41.3292 65.0803 40.8709 65.0895 40.4634C65.0988 40.056 65.1034 39.7319 65.1034 39.4911C65.1034 39.1578 65.0895 38.8337 65.0617 38.5188C65.034 38.1947 64.9877 37.8938 64.9228 37.616L67.1591 37.6438ZM82.6186 37.4354H85.5632V39.0189H82.6186V37.4354ZM84.7159 37.4354H86.4661C86.5216 38.4262 86.6235 39.3707 86.7716 40.269C86.9198 41.1672 87.142 42.0006 87.4383 42.7691C87.7347 43.5284 88.1236 44.1998 88.6051 44.7832C89.0866 45.3665 89.6931 45.8434 90.4247 46.2138C90.2858 46.3064 90.133 46.4268 89.9663 46.575C89.8089 46.7231 89.6515 46.8805 89.494 47.0472C89.3459 47.2046 89.2209 47.3528 89.119 47.4917C88.3782 47.0472 87.7578 46.5055 87.2578 45.8666C86.7577 45.2184 86.3503 44.4915 86.0355 43.6859C85.7299 42.8803 85.4938 42.0145 85.3271 41.0885C85.1697 40.1625 85.0585 39.1948 84.9937 38.1855H84.7159V37.4354ZM84.6743 40.3384L86.3827 40.5745C86.0864 42.1395 85.6188 43.5053 84.9798 44.672C84.3409 45.8388 83.5121 46.7833 82.4935 47.5056C82.4102 47.3945 82.2898 47.2602 82.1324 47.1028C81.9842 46.9454 81.8222 46.7879 81.6463 46.6305C81.4796 46.4638 81.3314 46.3342 81.2018 46.2416C82.1741 45.6582 82.938 44.8619 83.4936 43.8525C84.0585 42.8432 84.452 41.6718 84.6743 40.3384ZM80.8545 42.2691V47.3945H79.2294V43.8109H77.6182V42.2691H80.8545ZM80.8545 46.6722C81.1416 47.1259 81.5444 47.4593 82.063 47.6723C82.5815 47.8852 83.2019 48.0056 83.9242 48.0334C84.3316 48.0519 84.8132 48.0658 85.3688 48.0751C85.9336 48.0751 86.5262 48.0704 87.1467 48.0612C87.7671 48.0519 88.3736 48.0334 88.9662 48.0056C89.5681 47.9778 90.1006 47.9454 90.5636 47.9084C90.508 48.038 90.4432 48.2047 90.3691 48.4084C90.295 48.6121 90.2256 48.8205 90.1608 49.0335C90.1052 49.2465 90.0635 49.4363 90.0358 49.603C89.6191 49.6307 89.1422 49.6493 88.6051 49.6585C88.068 49.677 87.5171 49.6863 86.9522 49.6863C86.3873 49.6956 85.841 49.6956 85.3132 49.6863C84.7854 49.677 84.3131 49.6631 83.8964 49.6446C83.0445 49.6076 82.3176 49.4733 81.7157 49.2418C81.1138 49.0196 80.5814 48.6399 80.1184 48.1029C79.8128 48.3621 79.498 48.6307 79.1739 48.9085C78.859 49.1863 78.5118 49.4733 78.1321 49.7696L77.3126 48.0334C77.6367 47.8389 77.9747 47.626 78.3266 47.3945C78.6785 47.163 79.0164 46.9222 79.3405 46.6722H80.8545ZM77.6321 38.1855L78.8683 37.1854C79.1553 37.3706 79.447 37.5882 79.7433 37.8382C80.0397 38.079 80.3175 38.329 80.5767 38.5883C80.836 38.8383 81.0444 39.0698 81.2018 39.2828L79.8822 40.394C79.7433 40.1717 79.5489 39.931 79.2989 39.6717C79.0581 39.4124 78.7896 39.1531 78.4933 38.8939C78.1969 38.6253 77.9099 38.3892 77.6321 38.1855ZM97.5641 37.4215C97.527 37.6252 97.4946 37.866 97.4668 38.1438C97.4391 38.4123 97.4252 38.755 97.4252 39.1717C97.4252 39.3383 97.4252 39.6069 97.4252 39.9773C97.4252 40.3384 97.4252 40.7366 97.4252 41.1718C97.4252 41.5978 97.4252 42.0145 97.4252 42.4219C97.4252 42.8201 97.4252 43.1349 97.4252 43.3664L95.7584 42.7136C95.7584 42.4728 95.7584 42.1904 95.7584 41.8663C95.7584 41.5422 95.7584 41.2088 95.7584 40.8662C95.7584 40.5143 95.7584 40.1902 95.7584 39.8939C95.7584 39.5884 95.7584 39.3476 95.7584 39.1717C95.7584 38.7364 95.7491 38.3892 95.7306 38.1299C95.7121 37.8614 95.675 37.6252 95.6195 37.4215H97.5641ZM102.231 38.6994C102.444 38.8383 102.685 39.0189 102.953 39.2411C103.231 39.4633 103.509 39.7041 103.787 39.9634C104.074 40.2134 104.338 40.4634 104.578 40.7134C104.819 40.9542 105.018 41.1672 105.176 41.3524L103.926 42.6302C103.676 42.3154 103.375 41.982 103.023 41.6302C102.68 41.2783 102.333 40.9449 101.981 40.6301C101.638 40.306 101.333 40.0467 101.064 39.8523L102.231 38.6994ZM93.1054 39.1022C93.4851 39.1485 93.8694 39.1902 94.2583 39.2272C94.6565 39.2643 95.0176 39.2828 95.3417 39.2828C96.0362 39.2828 96.7723 39.2365 97.5502 39.1439C98.328 39.042 99.1151 38.8846 99.9115 38.6716V40.3384C99.3744 40.4588 98.8234 40.556 98.2586 40.6301C97.703 40.7042 97.1798 40.7597 96.689 40.7968C96.2075 40.8246 95.8001 40.8384 95.4667 40.8384C95.1704 40.8384 94.8324 40.8292 94.4527 40.8107C94.0731 40.7921 93.6564 40.7644 93.2026 40.7273L93.1054 39.1022ZM97.1196 45.5471C97.1196 45.6397 97.115 45.7647 97.1057 45.9221C97.1057 46.0703 97.1057 46.2277 97.1057 46.3944C97.1057 46.5611 97.1057 46.7139 97.1057 46.8528C97.1057 47.0009 97.1196 47.1352 97.1474 47.2556C97.1844 47.3667 97.2585 47.4593 97.3696 47.5334C97.49 47.6074 97.6706 47.663 97.9113 47.7C98.1613 47.7371 98.4901 47.7556 98.8975 47.7556C99.1383 47.7556 99.3883 47.7463 99.6476 47.7278C99.9068 47.7093 100.157 47.6815 100.398 47.6445C100.648 47.6074 100.856 47.5611 101.023 47.5056C101.384 47.4037 101.643 47.237 101.8 47.0056C101.967 46.7648 102.051 46.4685 102.051 46.1166C102.051 45.8388 102.041 45.5656 102.023 45.2971C102.013 45.0193 101.986 44.7183 101.939 44.3943L103.87 44.9776C103.87 45.2184 103.87 45.4267 103.87 45.6027C103.87 45.7694 103.87 45.9314 103.87 46.0888C103.87 46.237 103.861 46.4083 103.842 46.6027C103.824 47.0194 103.754 47.3898 103.634 47.7139C103.514 48.0288 103.31 48.3019 103.023 48.5334C102.736 48.7649 102.324 48.964 101.787 49.1307C101.583 49.1955 101.3 49.2511 100.939 49.2974C100.587 49.3437 100.217 49.3761 99.8281 49.3946C99.4485 49.4224 99.0966 49.4363 98.7725 49.4363C98.1243 49.4363 97.5919 49.3992 97.1752 49.3252C96.7585 49.2511 96.4251 49.1446 96.1751 49.0057C95.9343 48.8761 95.7584 48.7279 95.6473 48.5612C95.5454 48.3853 95.476 48.2047 95.4389 48.0195C95.4111 47.8251 95.3973 47.6306 95.3973 47.4361C95.3973 47.1954 95.3973 46.9546 95.3973 46.7139C95.4065 46.4638 95.4158 46.2416 95.425 46.0471L97.1196 45.5471ZM97.828 43.9498C97.828 44.3572 97.7771 44.7554 97.6752 45.1443C97.5826 45.524 97.4298 45.8666 97.2168 46.1722C97.0038 46.4685 96.7307 46.7092 96.3973 46.8944C96.064 47.0704 95.6565 47.1583 95.175 47.1583C94.8417 47.1583 94.5176 47.075 94.2027 46.9083C93.8879 46.7324 93.6286 46.4638 93.4249 46.1027C93.2304 45.7323 93.1332 45.2508 93.1332 44.6582C93.1332 44.1118 93.2397 43.621 93.4527 43.1858C93.6749 42.7506 93.9805 42.408 94.3694 42.158C94.7583 41.908 95.2028 41.783 95.7028 41.783C96.4158 41.783 96.9483 41.9867 97.3002 42.3941C97.652 42.7923 97.828 43.3108 97.828 43.9498ZM95.3556 45.4916C95.5686 45.4916 95.7399 45.4267 95.8695 45.2971C95.9991 45.1582 96.0917 44.9776 96.1473 44.7554C96.2121 44.5239 96.2445 44.2831 96.2445 44.0331C96.2445 43.7553 96.1843 43.5423 96.064 43.3942C95.9436 43.246 95.7862 43.1719 95.5917 43.1719C95.4158 43.1719 95.2491 43.2275 95.0917 43.3386C94.9343 43.4497 94.8092 43.6072 94.7166 43.8109C94.6333 44.0146 94.5916 44.2554 94.5916 44.5332C94.5916 44.8387 94.6657 45.0749 94.8139 45.2415C94.9713 45.4082 95.1519 45.4916 95.3556 45.4916Z" fill="white"/>
<g filter="url(#filter0_f_11_4286)">
<path d="M130.46 31.5125L134.226 35.4427L130.46 39.0455" stroke="#9E2727" stroke-opacity="0.1" stroke-width="1.15919"/>
</g>
<path d="M129.624 31.5125L133.39 35.4427L129.624 39.0455" stroke="white" stroke-width="1.15919"/>
<path d="M24.4191 12.1851L27.6234 12.6231L27.038 12.9107L23.7028 14.3775L22.7227 12.4284L24.4191 12.1851Z" fill="#C7CAD1"/>
<path d="M13.4556 28.0718L13.398 28.0563C12.5243 27.8218 12.0453 26.9944 12.338 26.2134L16.7043 14.5212C16.9948 13.7402 17.9505 13.2933 18.8243 13.5278L18.8819 13.5433C19.7556 13.7778 20.2346 14.6052 19.9419 15.3862L15.5756 27.0784C15.2851 27.8594 14.3293 28.3063 13.4556 28.0718Z" fill="#183142"/>
<path d="M18.6558 35.9677V50.2727L19.8577 65.226C20.1437 67.1153 22.481 66.7326 23.2061 65.9428L22.3147 51.0205L23.4057 37.3084L18.6558 35.9699V35.9677Z" fill="#183142"/>
<path d="M31.0563 42.0363V68.6397C29.5195 69.2614 28.4086 68.8433 27.7211 67.3964L26.5259 38.9191L31.0563 42.0341V42.0363Z" fill="#183142"/>
<path d="M18.6558 13.5789V35.9679L28.7898 41.3527L29.515 17.9372L18.6558 13.5789Z" fill="#D8DCE5"/>
<path d="M21.0329 40.7109L31.0562 43.5892V36.4831L18.6558 33.8637V39.9322L21.0329 40.7109Z" fill="#183142"/>
<path d="M22.4963 66.4317L18.3806 69.2016C17.824 69.5755 16.8483 69.5909 16.2118 69.2348C15.5754 68.8786 15.5111 68.279 16.0677 67.9051L20.1834 65.1353C20.74 64.7614 21.7157 64.7459 22.3522 65.1021C22.9886 65.4583 23.0529 66.0578 22.4963 66.4317Z" fill="#183142"/>
<path d="M30.8526 68.8677L27.8478 72.8123C27.442 73.3454 26.4619 73.6286 25.6724 73.4406C24.883 73.2525 24.5681 72.6618 24.9761 72.1287L27.9809 68.184C28.3867 67.6509 29.3668 67.3677 30.1563 67.5557C30.9457 67.7438 31.2606 68.3345 30.8526 68.8677Z" fill="#183142"/>
<path d="M32.1894 16.5765C31.7592 16.0278 26.65 10.7293 17.8198 13.5788C18.3853 16.0876 19.7358 16.7137 21.4787 16.4062C25.1221 16.9526 28.9474 19.2822 32.1894 16.5765Z" fill="#223F4F"/>
<path d="M27.6231 14.3774C26.4279 14.0168 22.2013 14.4814 22.2013 14.4814L21.4673 17.0057C21.4673 17.0057 25.1218 17.8973 26.144 17.5853L27.6231 14.3774Z" fill="#D8DCE5"/>
<path d="M26.2109 8.29345L27.1489 14.1473C27.1489 14.1473 23.1174 14.6208 22.9977 14.3774C22.878 14.134 23.0931 7.88196 23.0931 7.88196L26.2131 8.29124L26.2109 8.29345Z" fill="#DC8571"/>
<g style="mix-blend-mode:multiply" opacity="0.27">
<path d="M24.7144 35.1448V38.9212C24.7144 38.9212 25.5149 41.4743 29.0363 40.7663L31.0631 40.3283L31.0565 38.0186L26.7013 35.366L24.7144 35.147V35.1448Z" fill="#223F4F"/>
</g>
<path d="M25.3774 26.4659V38.4833C25.3774 38.4833 27.7568 41.5541 31.9923 38.855L30.9301 17.6364L26.5483 16.8864L25.3774 26.4637V26.4659Z" fill="#223F4F"/>
<g style="mix-blend-mode:multiply" opacity="0.27">
<path d="M29.8608 19.8176C29.6435 20.1716 30.5349 39.5141 30.5349 39.5141C31.4352 39.2265 31.5683 39.0805 31.9896 38.8571L31.0538 19.8176H29.8608Z" fill="#223F4F"/>
</g>
<path d="M35.3978 24.1647L35.0895 24.2643C34.2979 24.5209 33.4197 24.3462 33.1381 23.8771L29.3639 17.5786C29.0823 17.1074 29.4992 16.5122 30.2908 16.2556L30.5991 16.156C31.3907 15.8994 32.2689 16.0742 32.5505 16.5432L36.3247 22.8418C36.6063 23.313 36.1894 23.9081 35.3978 24.1647Z" fill="#223F4F"/>
<g style="mix-blend-mode:multiply" opacity="0.27">
<path d="M22.4811 34.6715V37.7931C22.4811 37.7931 20.3722 40.8881 18.658 38.4833L18.6226 36.3506L20.7802 34.5276L22.4833 34.6715H22.4811Z" fill="#223F4F"/>
</g>
<g style="mix-blend-mode:multiply" opacity="0.27">
<path d="M22.5745 14.7557C21.621 19.4238 21.9048 26.4037 22.2507 34.6514L21.2018 34.366C20.7583 24.3728 21.0799 18.1296 21.8006 13.8509L22.5745 14.7535V14.7557Z" fill="#223F4F"/>
</g>
<path d="M23.7608 13.9527L22.6543 16.0212C22.6543 16.0212 24.7099 16.5655 24.5835 16.5345C24.4571 16.5035 23.7608 13.9527 23.7608 13.9527Z" fill="#B23932"/>
<path d="M22.8583 17.4636L22.6543 16.0234L24.5835 16.5366L23.8185 17.5787L22.8583 17.4636Z" fill="#B23932"/>
<path d="M23.8182 17.5787L24.9824 24.4215L23.3569 28.6116L22.2104 23.6471L22.858 17.4636L23.8182 17.5787Z" fill="#B23932"/>
<path d="M21.4788 16.4062L21.4832 16.7381L21.6185 25.1339L21.8181 37.4412C21.8181 37.4412 19.5584 40.2287 18.188 36.9854V14.3797L21.4766 16.4084L21.4788 16.4062Z" fill="#223F4F"/>
<g style="mix-blend-mode:multiply" opacity="0.27">
<path d="M29.4089 14.4461L29.0275 17.4616C29.0275 17.4616 27.4065 18.9947 27.0849 19.1429L29.0009 19.4084L25.3774 27.2069V26.0919L26.6924 17.4593L28.7481 14.0391L29.4089 14.4439V14.4461Z" fill="#223F4F"/>
</g>
<path d="M28.9301 14.1651C28.6706 15.2049 28.4755 16.2536 28.3358 17.4659C28.3358 17.4659 26.9787 19.1761 26.513 19.2336L28.4156 19.6916L25.3754 26.468C25.3754 26.468 25.1847 15.2027 27.93 13.7138L28.9301 14.1673V14.1651Z" fill="#2E4F5E"/>
<path d="M27.6237 12.623L23.7607 13.9527L24.5768 16.8884L27.9319 14.1651L27.6237 12.623Z" fill="#E9ECF2"/>
<g style="mix-blend-mode:multiply" opacity="0.27">
<path d="M20.4611 12.9394C20.4611 12.9394 19.0685 16.592 19.4588 17.5787L20.0043 18.6008L19.104 18.4327C19.104 18.4327 20.6895 24.9967 21.6142 26.4679V21.2534L21.3415 12.8465L20.4611 12.9416V12.9394Z" fill="#223F4F"/>
</g>
<path d="M19.6092 18.9437C19.6092 18.9437 21.6249 25.4878 21.6227 25.4126C21.6204 25.3374 21.2346 17.4526 22.3633 14.2403L22.6627 12.7425L20.8332 12.8841C20.8332 12.8841 19.516 16.3464 19.7599 17.6517L20.7379 19.1384L19.6069 18.9437H19.6092Z" fill="#2E4F5E"/>
<path d="M23.7606 13.9528L22.7228 12.4285L21.8003 13.0523L22.6651 16.1319L23.7606 13.9528Z" fill="#E9ECF2"/>
<path d="M28.26 7.13648C28.26 7.13648 27.231 12.57 23.1552 12.6629C22.7272 12.6718 21.7848 12.6895 21.5475 12.2647C21.5475 12.2647 19.4719 8.14089 20.8313 3.20515C22.1906 -1.7306 29.8499 -0.363369 28.26 7.13648Z" fill="#FF9F86"/>
<path d="M28.8012 8.1055C28.5528 8.72274 27.994 9.08114 27.5549 8.90415C27.1159 8.72717 26.9628 8.08337 27.2112 7.46613C27.4596 6.84888 28.0184 6.49048 28.4575 6.66747C28.8965 6.84446 29.0495 7.48825 28.8012 8.1055Z" fill="#FF9F86"/>
<path d="M27.1491 4.47284L27.382 8.52585L29.0185 6.36218C29.0185 6.36218 29.9587 0.961843 25.6279 0.0857544L23.04 3.00384L27.1491 4.47284Z" fill="#6D220D"/>
<path d="M23.0399 3.00153L20.6206 4.09443C20.6206 4.09443 20.6206 -0.69309 25.6278 0.0856558C29.5262 0.691839 23.0399 3.00374 23.0399 3.00374V3.00153Z" fill="#6D220D"/>
<path d="M24.3772 7.7868C24.5279 7.7868 24.65 7.60653 24.65 7.38415C24.65 7.16178 24.5279 6.98151 24.3772 6.98151C24.2266 6.98151 24.1045 7.16178 24.1045 7.38415C24.1045 7.60653 24.2266 7.7868 24.3772 7.7868Z" fill="#8E4A35"/>
<path d="M21.5582 7.0813C21.5582 7.30253 21.4362 7.48394 21.2855 7.48394C21.1347 7.48394 21.0127 7.30474 21.0127 7.0813C21.0127 6.85785 21.1347 6.67865 21.2855 6.67865C21.4362 6.67865 21.5582 6.85785 21.5582 7.0813Z" fill="#8E4A35"/>
<path d="M22.4304 9.29573C22.2597 9.27361 22.1399 9.11653 22.1599 8.9484L22.3683 7.32896C22.3905 7.15861 22.548 7.03914 22.7165 7.05905C22.8872 7.08117 23.007 7.23825 22.987 7.40639L22.7786 9.02583C22.7564 9.19618 22.599 9.31564 22.4304 9.29573Z" fill="#DC8571"/>
<path d="M25.3262 6.72054L23.8892 6.4794C23.7584 6.45727 23.6697 6.33338 23.6919 6.20285C23.7141 6.07232 23.8382 5.98383 23.9691 6.00595L25.406 6.2471C25.5369 6.26922 25.6256 6.39311 25.6034 6.52364C25.5812 6.65417 25.457 6.74267 25.3262 6.72054Z" fill="#6D220D"/>
<path d="M21.8011 6.2712L20.7067 6.10822C20.5971 6.09189 20.5224 5.9913 20.5388 5.88189L20.5424 5.85782C20.5588 5.74842 20.6596 5.67396 20.7693 5.69029L21.8637 5.85327C21.9733 5.86961 22.048 5.97019 22.0316 6.0796L22.028 6.10367C22.0116 6.21307 21.9108 6.28753 21.8011 6.2712Z" fill="#6D220D"/>
<path d="M21.377 9.90198C21.49 9.90198 23.7719 10.163 23.7719 10.163C23.7719 10.163 23.3905 11.3909 22.4924 11.3002C21.9757 11.2471 21.6741 10.7382 21.5189 10.3489C21.4191 10.1011 21.3792 9.90198 21.3792 9.90198H21.377Z" fill="#6D220D"/>
<path d="M21.5474 9.91742L21.5784 10.3179L23.4722 10.5612L23.5786 10.1431L21.5474 9.91742Z" fill="white"/>
<path d="M8.91017 16.9349L12.6711 17.2336C13.2787 17.3929 13.6357 17.9814 13.465 18.5455L13.4007 18.7601C13.2299 19.3221 12.5913 19.6539 11.9837 19.4946L8.71503 18.6561C8.10743 18.4969 8.30479 16.7779 8.91239 16.9349H8.91017Z" fill="#DC8571"/>
<path d="M10.3691 15.8178C10.5975 15.6297 10.9523 15.6474 11.1541 15.8598L12.6687 17.435C12.8727 17.6474 12.8505 17.9726 12.6221 18.1607C12.3937 18.3487 12.0411 18.331 11.8371 18.1186L10.3225 16.5434C10.1185 16.331 10.1407 16.0058 10.3691 15.8178Z" fill="#DC8571"/>
<path d="M12.7373 17.8662C12.0964 18.3308 11.2005 18.7822 11.2782 19.3618L12.2894 26.9656C12.367 27.5475 12.9524 27.6426 13.5933 27.178L13.886 26.9656C14.5268 26.501 14.9859 25.6471 14.9105 25.0652L14.0124 18.3043C13.9348 17.7224 13.3782 17.4017 12.7395 17.864L12.7373 17.8662Z" fill="#223F4F"/>
<path d="M9.16701 18.6451C9.42424 18.5212 9.53069 18.2092 9.4065 17.9548L8.26004 15.6031C8.13586 15.3464 7.82319 15.2403 7.56818 15.3641C7.31094 15.488 7.2045 15.8 7.32868 16.0544L8.47514 18.4061C8.59933 18.6628 8.912 18.7689 9.16701 18.6451Z" fill="#DC8571"/>
<path d="M27.6898 12.1363L29.0957 13.5478C29.1489 13.6628 29.6234 13.5301 30.1534 13.2513L30.3552 13.1451C30.8852 12.8686 31.1624 12.3022 30.9739 11.8907L29.9694 9.66954C29.7809 9.25804 27.5013 11.7204 27.692 12.1341L27.6898 12.1363Z" fill="#FF9F86"/>
<path d="M29.4064 8.77361C29.1337 8.79573 28.9252 8.99927 28.9429 9.22493L29.1314 11.778C29.1492 12.0036 29.3842 12.1696 29.657 12.1452C29.9297 12.1231 30.1382 11.9196 30.1205 11.6939L29.932 9.14086C29.9142 8.9152 29.6792 8.74927 29.4064 8.77361Z" fill="#FF9F86"/>
<path d="M30.0961 12.4283C30.7547 12.081 31.6173 11.6142 31.9898 12.4283L36.4493 22.0631C36.824 22.8772 36.5912 23.8263 35.9348 24.1759L35.6332 24.3352C34.9746 24.6825 34.1297 24.302 33.7572 23.4878L29.402 14.0212C29.0272 13.2071 29.4397 12.7757 30.0961 12.4283Z" fill="#223F4F"/>
<path d="M27.7962 11.8575L25.8337 12.0787L25.7095 11.8907L27.4369 6.68282L29.6655 6.59875L29.8829 6.73371L27.7962 11.8575Z" fill="#AED5FF"/>
<path d="M28.1801 11.9019L25.834 12.0789L27.5548 6.84229L29.8832 6.73389L28.1801 11.9019Z" fill="#223F4F"/>
<path d="M28.9962 12.4239L29.0516 12.3377C29.178 12.1408 29.1137 11.8819 28.9141 11.7602L27.3974 10.8421C27.1956 10.7204 26.9295 10.7802 26.8031 10.9771L26.7476 11.0633C26.6212 11.2602 26.6855 11.5191 26.8851 11.6408L28.4019 12.5589C28.6037 12.6806 28.8698 12.6208 28.9962 12.4239Z" fill="#FF9F86"/>
<path d="M29.6947 11.873C29.8344 11.6539 29.7435 11.3486 29.4907 11.196L27.1712 9.78894C26.9184 9.63629 26.5968 9.68938 26.4571 9.9084C26.3174 10.1274 26.4083 10.4327 26.6611 10.5854L28.9807 11.9924C29.2335 12.1451 29.555 12.092 29.6947 11.873Z" fill="#FF9F86"/>
<path d="M29.708 11.3288C29.8877 11.1386 29.8389 10.8089 29.5994 10.5987L27.4107 8.66737C27.1734 8.4572 26.8319 8.44171 26.6523 8.63197C26.4727 8.82223 26.5215 9.15187 26.761 9.36205L28.9497 11.2934C29.1869 11.5036 29.5284 11.5191 29.708 11.3288Z" fill="#FF9F86"/>
<path d="M30.0006 10.9262C30.1957 10.7492 30.1802 10.4262 29.9696 10.205L28.0226 8.17626C27.8119 7.95502 27.4793 7.91963 27.2841 8.0944C27.089 8.27139 27.1045 8.59439 27.3152 8.81563L29.2622 10.8443C29.4728 11.0656 29.8055 11.101 30.0006 10.9262Z" fill="#FF9F86"/>
<path d="M28.808 7.90403L28.3534 7.92837C28.2581 7.93279 28.1782 7.85979 28.1782 7.76466C28.1782 7.66952 28.2558 7.58767 28.3534 7.58324L28.808 7.55891C28.9034 7.55448 28.9832 7.62749 28.9832 7.72262C28.9832 7.81775 28.9056 7.89961 28.808 7.90403Z" fill="#AED5FF"/>
<defs>
<filter id="filter0_f_11_4286" x="127.723" y="28.7931" width="9.64165" height="12.9897" filterUnits="userSpaceOnUse" color-interpolation-filters="sRGB">
<feFlood flood-opacity="0" result="BackgroundImageFix"/>
<feBlend mode="normal" in="SourceGraphic" in2="BackgroundImageFix" result="shape"/>
<feGaussianBlur stdDeviation="1.15919" result="effect1_foregroundBlur_11_4286"/>
</filter>
<linearGradient id="paint0_linear_11_4286" x1="154.819" y1="53.4026" x2="9.57305" y2="26.217" gradientUnits="userSpaceOnUse">
<stop offset="0.0137156" stop-color="#FB6C20"/>
<stop offset="0.0138156" stop-color="#FC5D19"/>
<stop offset="1" stop-color="#FF2200"/>
</linearGradient>
</defs>
</svg>
