<svg width="78" height="74" viewBox="0 0 78 74" fill="none" xmlns="http://www.w3.org/2000/svg">
<path d="M11.6773 34.791L13.1891 28.5278C9.9243 27.0469 7.33887 22.5224 7.33887 18.6894C7.33887 12.6103 12.2685 7.68052 18.3478 7.68052C23.1596 7.68052 27.2403 10.7747 28.7378 15.0767H32.9715C33.6598 13.958 35.6307 12.4573 35.3014 11.6655C34.8852 10.6602 31.1535 11.4299 30.5546 10.5347C29.9523 9.63502 32.0852 6.47929 31.322 5.71625C30.5579 4.95214 27.4022 7.08615 26.5025 6.4826C25.6086 5.88478 26.377 2.15078 25.3728 1.73473C24.3839 1.32514 22.2885 4.50283 21.2139 4.29036C20.1723 4.08451 19.4499 0.341797 18.3476 0.341797C17.2454 0.341797 16.523 4.08451 15.4814 4.29036C14.408 4.50283 12.3125 1.32514 11.3237 1.73578C10.3184 2.15199 11.0881 5.88372 10.1929 6.4826C9.29322 7.08495 6.1375 4.95214 5.37445 5.71519C4.61035 6.47929 6.74436 9.63502 6.14201 10.5347C5.54313 11.4288 1.81019 10.6602 1.39293 11.6644C0.983342 12.6534 4.16118 14.7497 3.94857 15.8234C3.74272 16.8649 0 17.5874 0 18.6894C0 19.7916 3.74272 20.5141 3.94872 21.5556C4.16118 22.6291 0.983342 24.7246 1.39413 25.7134C1.81034 26.7187 5.54192 25.949 6.14096 26.8442C6.7433 27.7439 4.6105 30.8996 5.37355 31.6626C6.13765 32.4267 9.29337 30.2927 10.193 30.8951C10.7534 31.2706 11.5771 33.5411 11.6773 34.791Z" fill="#0A366F"/>
<path d="M9.95288 50.9323H77.0422L69.1495 18.2339H17.8456L9.95288 50.9323ZM71.3143 46.4222H55.3107L54.3659 36.2744H68.8642L71.3143 46.4222ZM65.5984 22.744L68.0484 32.8918H54.0511L53.1075 22.744H65.5984ZM37.2638 22.744H49.7106L50.6553 32.8918H36.3189L37.2638 22.744ZM36.004 36.2744H50.9701L51.9137 46.4222H35.0604L36.004 36.2744ZM21.3979 22.744H33.8668L32.9232 32.8918H18.9479L21.3979 22.744ZM32.6083 36.2744L31.6634 46.4222H15.682L18.132 36.2744H32.6083Z" fill="#0A366F"/>
<path d="M12.5847 57.7722H74.4106L77.0422 52.51H9.95288L12.5847 57.7722Z" fill="#0A366F"/>
<path d="M46.9029 59.9072H40.0936L39.7281 65.8664L32.8572 69.271V73.5279H54.1395V69.271L47.2684 65.8664L46.9029 59.9072Z" fill="#0A366F"/>
</svg>
