<svg width="64" height="142" viewBox="0 0 64 142" fill="none" xmlns="http://www.w3.org/2000/svg">
<path d="M37.2432 23.533L44.1369 24.379L42.8774 24.9344L35.7022 27.7672L33.5935 24.003L37.2432 23.533Z" fill="#C7CAD1"/>
<path d="M13.6565 54.2155L13.5324 54.1856C11.6527 53.7327 10.6223 52.1347 11.252 50.6264L20.6457 28.0451C21.2706 26.5368 23.3268 25.6737 25.2065 26.1266L25.3306 26.1565C27.2103 26.6094 28.2407 28.2074 27.611 29.7157L18.2173 52.297C17.5924 53.8053 15.5362 54.6684 13.6565 54.2155Z" fill="#183142"/>
<path d="M24.844 69.4647V97.0921L27.4298 125.971C28.0452 129.62 33.0736 128.881 34.6336 127.356L32.7158 98.5363L35.063 72.0539L24.844 69.4689V69.4647Z" fill="#183142"/>
<path d="M51.5221 81.1848V132.564C48.2159 133.765 45.8258 132.957 44.3468 130.163L41.7754 75.1645L51.5221 81.1805V81.1848Z" fill="#183142"/>
<path d="M24.844 26.2247V69.4647L46.6465 79.8645L48.2065 34.642L24.844 26.2247Z" fill="#D8DCE5"/>
<path d="M29.9583 78.6254L51.5222 84.1842V70.4602L24.844 65.4013V77.1214L29.9583 78.6254Z" fill="#183142"/>
<path d="M33.1069 128.3L24.2524 133.65C23.0549 134.372 20.9558 134.402 19.5866 133.714C18.2173 133.026 18.079 131.868 19.2765 131.146L28.131 125.796C29.3285 125.074 31.4276 125.044 32.7969 125.732C34.1661 126.42 34.3044 127.578 33.1069 128.3Z" fill="#183142"/>
<path d="M51.0833 133.004L44.6189 140.623C43.7458 141.652 41.6371 142.199 39.9387 141.836C38.2404 141.473 37.5629 140.332 38.4407 139.302L44.9051 131.684C45.7782 130.654 47.8869 130.107 49.5853 130.471C51.2837 130.834 51.9611 131.975 51.0833 133.004Z" fill="#183142"/>
<path d="M53.9601 32.0144C53.0345 30.9547 42.0427 20.7216 23.0454 26.2248C24.262 31.0701 27.1674 32.2793 30.9172 31.6854C38.7556 32.7407 46.9852 37.2399 53.9601 32.0144Z" fill="#223F4F"/>
<path d="M44.137 27.7672C41.5655 27.0707 32.4724 27.968 32.4724 27.968L30.8933 32.8432C30.8933 32.8432 38.7556 34.5651 40.9549 33.9626L44.137 27.7672Z" fill="#D8DCE5"/>
<path d="M41.0978 16.0173L43.1159 27.3229C43.1159 27.3229 34.4426 28.2372 34.185 27.7672C33.9273 27.2972 34.3901 15.2225 34.3901 15.2225L41.1026 16.013L41.0978 16.0173Z" fill="#DC8571"/>
<g style="mix-blend-mode:multiply" opacity="0.27">
<path d="M37.8777 67.8753V75.1688C37.8777 75.1688 39.5999 80.0996 47.1759 78.7323L51.5364 77.8863L51.5221 73.4256L42.1523 68.3026L37.8777 67.8796V67.8753Z" fill="#223F4F"/>
</g>
<path d="M39.3042 51.1134V74.3228C39.3042 74.3228 44.4232 80.2533 53.5354 75.0406L51.2502 34.0609L41.8232 32.6125L39.3042 51.1091V51.1134Z" fill="#223F4F"/>
<g style="mix-blend-mode:multiply" opacity="0.27">
<path d="M48.9506 38.2739C48.4831 38.9576 50.401 76.314 50.401 76.314C52.3379 75.7585 52.6241 75.4765 53.5306 75.045L51.5173 38.2739H48.9506Z" fill="#223F4F"/>
</g>
<path d="M60.8633 46.6698L60.2001 46.8621C58.497 47.3577 56.6077 47.0201 56.0019 46.1143L47.882 33.9499C47.2761 33.0398 48.173 31.8904 49.8762 31.3948L50.5393 31.2025C52.2425 30.7069 54.1317 31.0444 54.7376 31.9503L62.8575 44.1147C63.4634 45.0248 62.5664 46.1741 60.8633 46.6698Z" fill="#223F4F"/>
<g style="mix-blend-mode:multiply" opacity="0.27">
<path d="M33.0734 66.961V72.9898C33.0734 72.9898 28.5364 78.9673 24.8485 74.3229L24.7722 70.2039L29.4142 66.6832L33.0781 66.961H33.0734Z" fill="#223F4F"/>
</g>
<g style="mix-blend-mode:multiply" opacity="0.27">
<path d="M33.2737 28.4978C31.2223 37.5133 31.833 50.9937 32.5772 66.9224L30.3206 66.3713C29.3665 47.0714 30.0582 35.0137 31.6087 26.7503L33.2737 28.4936V28.4978Z" fill="#223F4F"/>
</g>
<path d="M35.8262 26.947L33.4456 30.942C33.4456 30.942 37.8681 31.993 37.5961 31.9332C37.3242 31.8734 35.8262 26.947 35.8262 26.947Z" fill="#B23932"/>
<path d="M33.8845 33.7276L33.4456 30.9461L37.5961 31.9374L35.9502 33.9498L33.8845 33.7276Z" fill="#B23932"/>
<path d="M35.9503 33.9499L38.4549 47.1654L34.958 55.258L32.4915 45.67L33.8845 33.7277L35.9503 33.9499Z" fill="#B23932"/>
<path d="M30.917 31.6853L30.9265 32.3262L31.2176 48.5412L31.6469 72.3103C31.6469 72.3103 26.7855 77.694 23.8372 71.4302V27.7715L30.9122 31.6896L30.917 31.6853Z" fill="#223F4F"/>
<g style="mix-blend-mode:multiply" opacity="0.27">
<path d="M47.9775 27.8997L47.1569 33.7234C47.1569 33.7234 43.6695 36.6844 42.9777 36.9707L47.0996 37.4834L39.3042 52.5448V50.3913L42.1333 33.7192L46.5558 27.1135L47.9775 27.8954V27.8997Z" fill="#223F4F"/>
</g>
<path d="M46.9469 27.357C46.3887 29.3652 45.9689 31.3905 45.6683 33.7319C45.6683 33.7319 42.7486 37.0348 41.7467 37.1459L45.8401 38.0303L39.2993 51.1177C39.2993 51.1177 38.889 29.361 44.7953 26.4854L46.9469 27.3613V27.357Z" fill="#2E4F5E"/>
<path d="M44.1369 24.379L35.8262 26.9469L37.5818 32.6168L44.8 27.3571L44.1369 24.379Z" fill="#E9ECF2"/>
<g style="mix-blend-mode:multiply" opacity="0.27">
<path d="M28.7273 24.99C28.7273 24.99 25.7313 32.0443 26.5709 33.9499L27.7446 35.9239L25.8076 35.5992C25.8076 35.5992 29.2187 48.2763 31.2081 51.1177V41.0469L30.6213 24.8105L28.7273 24.9943V24.99Z" fill="#223F4F"/>
</g>
<path d="M26.8954 36.5862C26.8954 36.5862 31.232 49.2249 31.2273 49.0796C31.2225 48.9343 30.3924 33.7064 32.8207 27.5024L33.4648 24.6097L29.5289 24.8832C29.5289 24.8832 26.695 31.57 27.2198 34.0909L29.3237 36.9622L26.8906 36.5862H26.8954Z" fill="#2E4F5E"/>
<path d="M35.8263 26.9468L33.5935 24.0029L31.6089 25.2078L33.4695 31.1555L35.8263 26.9468Z" fill="#E9ECF2"/>
<path d="M45.506 13.7826C45.506 13.7826 43.2924 24.2764 34.5237 24.4559C33.6029 24.473 31.5753 24.5072 31.0649 23.6868C31.0649 23.6868 26.5994 15.7225 29.5239 6.19001C32.4484 -3.34243 48.9267 -0.701889 45.506 13.7826Z" fill="#FF9F86"/>
<path d="M46.6702 15.6541C46.1358 16.8462 44.9336 17.5384 43.989 17.1965C43.0444 16.8547 42.7152 15.6114 43.2495 14.4193C43.7838 13.2272 44.9861 12.535 45.9307 12.8768C46.8753 13.2186 47.2045 14.462 46.6702 15.6541Z" fill="#FF9F86"/>
<path d="M43.1159 8.63827L43.6168 16.4659L47.1377 12.2872C47.1377 12.2872 49.1605 1.85746 39.8431 0.165466L34.2756 5.80119L43.1159 8.63827Z" fill="#6D220D"/>
<path d="M34.2757 5.79688L29.0708 7.9076C29.0708 7.9076 29.0708 -1.33857 39.8432 0.165428C48.2303 1.33615 34.2757 5.80115 34.2757 5.80115V5.79688Z" fill="#6D220D"/>
<path d="M37.1525 15.0389C37.4766 15.0389 37.7393 14.6907 37.7393 14.2612C37.7393 13.8317 37.4766 13.4836 37.1525 13.4836C36.8284 13.4836 36.5657 13.8317 36.5657 14.2612C36.5657 14.6907 36.8284 15.0389 37.1525 15.0389Z" fill="#8E4A35"/>
<path d="M31.0889 13.6758C31.0889 14.103 30.8265 14.4534 30.5021 14.4534C30.1777 14.4534 29.9153 14.1073 29.9153 13.6758C29.9153 13.2442 30.1777 12.8981 30.5021 12.8981C30.8265 12.8981 31.0889 13.2442 31.0889 13.6758Z" fill="#8E4A35"/>
<path d="M32.9637 17.9528C32.5963 17.91 32.3387 17.6067 32.3816 17.2819L32.8301 14.1543C32.8778 13.8253 33.2165 13.5946 33.5791 13.633C33.9464 13.6758 34.2041 13.9791 34.1611 14.3038L33.7127 17.4315C33.665 17.7605 33.3262 17.9912 32.9637 17.9528Z" fill="#DC8571"/>
<path d="M39.1943 12.9793L36.1028 12.5136C35.8213 12.4709 35.6305 12.2316 35.6782 11.9795C35.7259 11.7274 35.9931 11.5565 36.2746 11.5993L39.366 12.065C39.6475 12.1077 39.8383 12.347 39.7906 12.5991C39.7429 12.8512 39.4758 13.0221 39.1943 12.9793Z" fill="#6D220D"/>
<path d="M31.6107 12.1113L29.2562 11.7965C29.0203 11.765 28.8597 11.5707 28.8949 11.3594L28.9027 11.313C28.9379 11.1017 29.1548 10.9579 29.3907 10.9894L31.7453 11.3042C31.9812 11.3357 32.1418 11.53 32.1065 11.7413L32.0988 11.7878C32.0636 11.9991 31.8467 12.1429 31.6107 12.1113Z" fill="#6D220D"/>
<path d="M30.6978 19.1235C30.9411 19.1235 35.8502 19.6277 35.8502 19.6277C35.8502 19.6277 35.0296 21.9991 33.0975 21.8239C31.9859 21.7214 31.337 20.7386 31.0031 19.9866C30.7884 19.5081 30.7025 19.1235 30.7025 19.1235H30.6978Z" fill="#6D220D"/>
<path d="M31.0649 19.1534L31.1317 19.9268L35.206 20.3968L35.435 19.5893L31.0649 19.1534Z" fill="white"/>
<path d="M3.87619 32.7066L11.9674 33.2834C13.2746 33.591 14.0427 34.7276 13.6754 35.8171L13.537 36.2316C13.1697 37.3168 11.7957 37.9578 10.4885 37.6501L3.45636 36.0308C2.14917 35.7231 2.57376 32.4032 3.88096 32.7066H3.87619Z" fill="#DC8571"/>
<path d="M7.01542 30.5489C7.50681 30.1857 8.27013 30.2199 8.70427 30.6301L11.9627 33.6722C12.4016 34.0824 12.3539 34.7105 11.8625 35.0737C11.3711 35.4369 10.6126 35.4027 10.1737 34.9925L6.91523 31.9503C6.47632 31.5402 6.52403 30.9121 7.01542 30.5489Z" fill="#DC8571"/>
<path d="M12.1108 34.5053C10.732 35.4026 8.80461 36.2742 8.97158 37.3937L11.1471 52.079C11.314 53.2028 12.5735 53.3865 13.9523 52.4892L14.582 52.079C15.9608 51.1818 16.9483 49.5325 16.7861 48.4088L14.854 35.3513C14.687 34.2276 13.4895 33.6081 12.1155 34.5011L12.1108 34.5053Z" fill="#223F4F"/>
<path d="M4.42976 36.0094C4.98317 35.7701 5.21217 35.1676 4.94501 34.6763L2.47851 30.1344C2.21135 29.6387 1.53867 29.4336 0.990029 29.6729C0.436619 29.9122 0.207621 30.5146 0.474785 31.006L2.94128 35.5479C3.20844 36.0435 3.88112 36.2486 4.42976 36.0094Z" fill="#DC8571"/>
<path d="M44.2801 23.439L47.3048 26.165C47.4193 26.3872 48.4402 26.1308 49.5804 25.5924L50.0146 25.3873C51.1548 24.8533 51.7511 23.7594 51.3456 22.9647L49.1844 18.6749C48.7789 17.8802 43.8746 22.6357 44.2849 23.4347L44.2801 23.439Z" fill="#FF9F86"/>
<path d="M47.9725 16.9444C47.3857 16.9871 46.9372 17.3802 46.9754 17.816L47.3809 22.7468C47.4191 23.1826 47.9248 23.503 48.5116 23.456C49.0984 23.4133 49.5469 23.0202 49.5087 22.5844L49.1032 17.6537C49.065 17.2179 48.5593 16.8974 47.9725 16.9444Z" fill="#FF9F86"/>
<path d="M49.4565 24.0031C50.8734 23.3323 52.7292 22.4307 53.5307 24.0031L63.1247 42.6108C63.931 44.1831 63.4301 46.0161 62.0179 46.6912L61.3691 46.9989C59.9522 47.6697 58.1345 46.9348 57.333 45.3624L47.9632 27.0794C47.1569 25.5071 48.0443 24.6739 49.4565 24.0031Z" fill="#223F4F"/>
<path d="M44.5091 22.9006L40.2869 23.3279L40.0198 22.9647L43.7362 12.9067L48.5308 12.7444L48.9984 13.005L44.5091 22.9006Z" fill="#AED5FF"/>
<path d="M45.3344 22.986L40.2869 23.3278L43.989 13.2143L48.9983 13.0049L45.3344 22.986Z" fill="#223F4F"/>
<path d="M47.09 23.9943L47.2093 23.8277C47.4812 23.4474 47.3428 22.9475 46.9135 22.7125L43.6503 20.9393C43.2161 20.7043 42.6436 20.8197 42.3717 21.2L42.2524 21.3666C41.9805 21.7469 42.1188 22.2468 42.5482 22.4818L45.8114 24.255C46.2456 24.49 46.8181 24.3746 47.09 23.9943Z" fill="#FF9F86"/>
<path d="M48.5929 22.9305C48.8934 22.5075 48.6978 21.9179 48.154 21.6231L43.1637 18.9056C42.6199 18.6108 41.9281 18.7134 41.6275 19.1364C41.327 19.5594 41.5226 20.149 42.0665 20.4438L47.0567 23.1613C47.6006 23.4561 48.2923 23.3535 48.5929 22.9305Z" fill="#FF9F86"/>
<path d="M48.6215 21.8795C49.0079 21.5121 48.9029 20.8754 48.3877 20.4695L43.6789 16.7394C43.1684 16.3335 42.4338 16.3036 42.0473 16.6711C41.6609 17.0385 41.7658 17.6752 42.2811 18.0811L46.9898 21.8111C47.5003 22.2171 48.235 22.247 48.6215 21.8795Z" fill="#FF9F86"/>
<path d="M49.2511 21.1018C49.6709 20.7599 49.6375 20.1361 49.1843 19.7088L44.9956 15.7908C44.5423 15.3635 43.8267 15.2951 43.4069 15.6327C42.9871 15.9745 43.0205 16.5983 43.4737 17.0256L47.6624 20.9437C48.1157 21.3709 48.8313 21.4393 49.2511 21.1018Z" fill="#FF9F86"/>
<path d="M46.6845 15.2654L45.7065 15.3124C45.5013 15.3209 45.3296 15.1799 45.3296 14.9962C45.3296 14.8125 45.4966 14.6544 45.7065 14.6458L46.6845 14.5988C46.8896 14.5903 47.0614 14.7313 47.0614 14.915C47.0614 15.0987 46.8944 15.2568 46.6845 15.2654Z" fill="#AED5FF"/>
</svg>
