<svg width="65" height="37" viewBox="0 0 65 37" fill="none" xmlns="http://www.w3.org/2000/svg">
<g clip-path="url(#clip0_14094_4218)">
<path d="M56.2132 0.162598H0.798828V35.716H56.2132V0.162598Z" fill="#0A366F"/>
<path d="M57.8743 32.7565C57.8743 34.6332 59.4253 36.1625 61.3342 36.1625C63.2432 36.1625 64.7988 34.6332 64.7988 32.7565C64.7988 30.8798 63.2432 29.355 61.3342 29.355C59.4253 29.355 57.8743 30.8798 57.8743 32.7565ZM58.2735 32.7565C58.2735 31.0963 59.6455 29.743 61.3342 29.743C63.0229 29.743 64.395 31.0963 64.395 32.7565C64.395 34.4166 63.0229 35.7655 61.3342 35.7655C59.6455 35.7655 58.2735 34.4121 58.2735 32.7565Z" fill="#0A366F"/>
<path d="M63.0184 34.9582H62.3531L61.0085 32.9146H60.4166V34.9582H59.8843V30.4604H61.1783C61.6143 30.4604 61.9538 30.5642 62.2062 30.7717C62.4586 30.9792 62.5825 31.268 62.5825 31.6379C62.5825 31.9131 62.4907 32.1567 62.3072 32.3687C62.1236 32.5807 61.8666 32.7251 61.5454 32.8018L63.0093 34.9582M60.4212 32.4635H61.0911C61.3711 32.4635 61.6005 32.3868 61.7795 32.2379C61.9538 32.0845 62.041 31.8995 62.041 31.6695C62.041 31.1687 61.729 30.9161 61.1049 30.9161H60.4212V32.4589V32.4635Z" fill="#0A366F"/>
<path d="M14.7212 27.74C11.6835 27.74 7.90688 25.4573 7.90688 20.743C7.90688 17.0843 11.5917 14.1655 14.7212 12.4152C17.8508 14.161 21.531 17.0843 21.531 20.743C21.531 25.4573 17.759 27.74 14.7212 27.74ZM35.6003 20.6663C35.6003 17.0076 39.2851 14.0843 42.4101 12.3385C45.5396 14.0843 49.2199 17.0076 49.2199 20.6663C49.2199 25.3761 45.4479 27.6633 42.4101 27.6633C39.3723 27.6633 35.6003 25.3806 35.6003 20.6663ZM56.204 5.69336C50.5735 5.69336 45.5855 7.07381 42.1944 8.80614C38.8079 7.07381 34.1273 5.69336 28.4968 5.69336C22.8664 5.69336 18.1858 7.07381 14.7993 8.80614C11.4127 7.07381 6.42929 5.69336 0.798828 5.69336V8.80614C4.12571 8.80614 8.16385 9.41968 11.3347 10.7731C7.91147 13.0242 4.52493 16.4347 4.52493 20.7385C4.52493 26.4272 9.45331 30.7761 14.7993 30.7761C20.1452 30.7761 24.835 26.4272 24.835 20.7385C24.835 16.4347 21.687 13.0242 18.2638 10.7731C21.4347 9.41968 25.1699 8.80614 28.5014 8.80614C31.8329 8.80614 35.5682 9.41968 38.7344 10.7731C35.3112 13.0242 32.1633 16.4347 32.1633 20.7385C32.1633 26.4272 36.853 30.7761 42.199 30.7761C47.5449 30.7761 52.3953 26.4272 52.3953 20.7385C52.3953 16.4347 49.0868 13.0242 45.6589 10.7731C48.8298 9.41968 52.8771 8.80614 56.204 8.80614V5.69336Z" fill="white"/>
</g>
<defs>
<clipPath id="clip0_14094_4218">
<rect width="64" height="36" fill="white" transform="translate(0.798828 0.162598)"/>
</clipPath>
</defs>
</svg>
