<svg width="388" height="159" viewBox="0 0 388 159" fill="none" xmlns="http://www.w3.org/2000/svg">
<rect x="0.734863" y="48.1294" width="386.658" height="109.074" rx="8" fill="url(#paint0_linear_14094_4096)"/>
<rect x="110.055" y="61.834" width="111" height="92" rx="7" fill="url(#paint1_radial_14094_4096)" fill-opacity="0.8"/>
<rect x="234.3" y="66.2788" width="107.65" height="92.0918" rx="7" fill="url(#paint2_radial_14094_4096)" fill-opacity="0.5"/>
<path d="M101.393 89.8751L104.221 90.7138C103.79 91.5925 103.279 92.4553 102.688 93.302C102.096 94.1488 101.457 94.9316 100.77 95.6506C100.099 96.3695 99.4283 97.0006 98.7573 97.5438C98.5976 97.3521 98.3739 97.1364 98.0863 96.8967C97.7987 96.6571 97.5032 96.4254 97.1996 96.2018C96.8961 95.9781 96.6324 95.7944 96.4088 95.6506C97.4313 94.9796 98.3899 94.1328 99.2845 93.1103C100.179 92.0878 100.882 91.0094 101.393 89.8751ZM101.202 92.4153H117.713V94.9316H100.507L101.202 92.4153ZM96.936 97.9991H118.6V100.563H96.936V97.9991ZM97.3194 103.607H118.241V106.171H97.3194V103.607ZM104.437 93.302H106.833V104.949H104.437V93.302ZM100.171 93.302H102.735V104.973H100.171V93.302ZM108.607 93.302H111.003V104.973H108.607V93.302ZM112.825 93.302H115.461V104.973H112.825V93.302ZM103.718 107.513L106.378 107.226C106.538 107.944 106.674 108.727 106.786 109.574C106.913 110.421 106.985 111.14 107.001 111.731L104.173 112.138C104.173 111.755 104.149 111.3 104.101 110.772C104.07 110.245 104.022 109.694 103.958 109.119C103.894 108.544 103.814 108.008 103.718 107.513ZM108.487 107.585L111.171 107.13C111.379 107.593 111.578 108.096 111.77 108.639C111.962 109.183 112.13 109.71 112.273 110.221C112.417 110.732 112.521 111.196 112.585 111.611L109.709 112.162C109.629 111.571 109.47 110.844 109.23 109.982C109.006 109.119 108.759 108.32 108.487 107.585ZM113.232 107.441L115.988 106.579C116.371 107.074 116.755 107.609 117.138 108.184C117.522 108.759 117.889 109.334 118.241 109.91C118.592 110.469 118.864 110.972 119.055 111.419L116.108 112.402C115.932 111.971 115.684 111.467 115.365 110.892C115.061 110.317 114.718 109.734 114.334 109.143C113.967 108.536 113.6 107.968 113.232 107.441ZM99.4044 106.674L102.184 107.369C101.913 108.28 101.537 109.191 101.058 110.101C100.579 111.012 100.043 111.787 99.4523 112.426L96.6963 111.3C97.2395 110.788 97.7588 110.109 98.2541 109.263C98.7493 108.416 99.1328 107.553 99.4044 106.674ZM126.197 89.9949H128.833V112.33H126.197V89.9949ZM122.554 97.8793H132.38V100.563H122.554V97.8793ZM125.67 99.2932L127.275 100.084C127.068 100.883 126.828 101.73 126.556 102.624C126.285 103.503 125.981 104.382 125.646 105.26C125.31 106.139 124.959 106.97 124.591 107.753C124.224 108.52 123.832 109.191 123.417 109.766C123.337 109.462 123.217 109.135 123.058 108.783C122.914 108.416 122.754 108.056 122.578 107.705C122.419 107.353 122.267 107.05 122.123 106.794C122.602 106.203 123.066 105.476 123.513 104.613C123.976 103.735 124.4 102.832 124.783 101.905C125.167 100.963 125.462 100.092 125.67 99.2932ZM128.809 100.683C128.937 100.811 129.121 101.011 129.36 101.282C129.616 101.554 129.896 101.865 130.199 102.217C130.503 102.552 130.79 102.896 131.062 103.247C131.349 103.583 131.605 103.886 131.829 104.158C132.068 104.43 132.236 104.637 132.332 104.781L130.583 107.034C130.423 106.682 130.215 106.275 129.959 105.812C129.704 105.332 129.424 104.845 129.121 104.35C128.817 103.839 128.522 103.359 128.234 102.912C127.946 102.465 127.699 102.097 127.491 101.81L128.809 100.683ZM122.53 91.8402L124.543 91.3129C124.751 91.8881 124.935 92.5112 125.095 93.1822C125.27 93.8532 125.414 94.5082 125.526 95.1473C125.638 95.7864 125.718 96.3615 125.766 96.8728L123.609 97.4479C123.593 96.9367 123.529 96.3615 123.417 95.7225C123.321 95.0674 123.193 94.4044 123.034 93.7334C122.89 93.0464 122.722 92.4153 122.53 91.8402ZM130.415 91.1931L132.835 91.7203C132.644 92.3754 132.436 93.0464 132.212 93.7334C131.988 94.4204 131.765 95.0834 131.541 95.7225C131.317 96.3455 131.11 96.8967 130.918 97.376L129.097 96.8488C129.272 96.3376 129.44 95.7544 129.6 95.0994C129.776 94.4284 129.935 93.7494 130.079 93.0624C130.223 92.3754 130.335 91.7523 130.415 91.1931ZM139.497 89.8751H142.182V112.378H139.497V89.8751ZM132.332 104.877L144.65 102.672L145.081 105.332L132.763 107.561L132.332 104.877ZM133.674 93.1343L135.088 91.1931C135.535 91.4487 135.999 91.7443 136.478 92.0798C136.973 92.4153 137.436 92.7588 137.868 93.1103C138.315 93.4618 138.667 93.7893 138.922 94.0929L137.436 96.2497C137.197 95.9302 136.861 95.5867 136.43 95.2192C136.015 94.8517 135.567 94.4843 135.088 94.1168C134.609 93.7494 134.137 93.4218 133.674 93.1343ZM132.596 99.1734L133.938 97.1124C134.417 97.3521 134.912 97.6396 135.423 97.9751C135.935 98.2947 136.422 98.6222 136.885 98.9577C137.349 99.2772 137.724 99.5888 138.012 99.8923L136.55 102.193C136.294 101.889 135.943 101.562 135.495 101.21C135.048 100.843 134.569 100.483 134.057 100.132C133.562 99.7645 133.075 99.445 132.596 99.1734ZM163.63 92.7029C163.231 93.4218 162.719 94.1727 162.096 94.9556C161.473 95.7384 160.778 96.4893 160.011 97.2083C159.26 97.9112 158.47 98.5263 157.639 99.0536C157.479 98.6861 157.263 98.2707 156.992 97.8074C156.72 97.3281 156.457 96.9287 156.201 96.6092C157.048 96.1299 157.854 95.5228 158.621 94.7878C159.404 94.0369 160.107 93.2381 160.73 92.3914C161.353 91.5446 161.849 90.7458 162.216 89.9949H164.876C165.387 90.8416 165.979 91.6724 166.65 92.4872C167.337 93.302 168.063 94.0369 168.83 94.692C169.597 95.331 170.372 95.8503 171.155 96.2497C170.883 96.5852 170.604 97.0006 170.316 97.4959C170.045 97.9751 169.813 98.4225 169.621 98.8379C168.854 98.3746 168.095 97.7994 167.345 97.1124C166.594 96.4254 165.899 95.6985 165.26 94.9316C164.621 94.1647 164.077 93.4218 163.63 92.7029ZM163.582 96.2976L166.074 97.2802C165.579 97.9352 165.012 98.5663 164.373 99.1734C163.734 99.7645 163.055 100.316 162.336 100.827C161.633 101.322 160.922 101.762 160.203 102.145C159.995 101.889 159.716 101.594 159.364 101.258C159.029 100.923 158.701 100.643 158.382 100.42C159.005 100.1 159.644 99.7246 160.299 99.2932C160.97 98.8459 161.593 98.3666 162.168 97.8553C162.743 97.3281 163.215 96.8089 163.582 96.2976ZM165.763 99.7246L168.279 100.803C167.624 101.634 166.865 102.417 166.002 103.152C165.14 103.886 164.221 104.557 163.247 105.165C162.272 105.772 161.281 106.307 160.275 106.77C160.067 106.467 159.796 106.123 159.46 105.74C159.125 105.356 158.797 105.037 158.478 104.781C159.388 104.43 160.299 103.99 161.21 103.463C162.136 102.936 162.999 102.361 163.798 101.738C164.597 101.099 165.252 100.428 165.763 99.7246ZM167.632 103.535L170.22 104.661C168.99 106.531 167.4 108.104 165.451 109.382C163.518 110.661 161.393 111.683 159.077 112.45C158.885 112.066 158.621 111.643 158.286 111.18C157.95 110.716 157.615 110.317 157.279 109.982C158.717 109.614 160.099 109.127 161.425 108.52C162.751 107.897 163.942 107.178 164.996 106.363C166.066 105.532 166.945 104.589 167.632 103.535ZM149.371 97.2322H156.608V99.413H149.371V97.2322ZM149.467 90.6419H156.56V92.7988H149.467V90.6419ZM149.371 100.515H156.608V102.672H149.371V100.515ZM148.245 93.8532H157.303V96.1299H148.245V93.8532ZM150.617 103.823H156.656V111.132H150.617V108.855H154.188V106.099H150.617V103.823ZM149.323 103.823H151.743V112.066H149.323V103.823ZM177.865 96.8248H185.989V99.2213H177.865V96.8248ZM176.475 107.585H185.606V110.053H176.475V107.585ZM174.917 90.7138H177.41V111.755H174.917V90.7138ZM180.741 90.1387H183.113V107.13H180.741V90.1387ZM180.957 98.1669L182.49 98.8379C182.219 99.7166 181.867 100.627 181.436 101.57C181.02 102.497 180.557 103.367 180.046 104.182C179.535 104.997 178.991 105.676 178.416 106.219C178.304 105.868 178.137 105.468 177.913 105.021C177.705 104.557 177.506 104.158 177.314 103.823C177.809 103.391 178.288 102.864 178.752 102.241C179.215 101.618 179.638 100.955 180.022 100.252C180.421 99.5329 180.733 98.8379 180.957 98.1669ZM184.216 91.6245L186.444 92.1517C186.141 92.8866 185.837 93.6375 185.534 94.4044C185.246 95.1713 184.967 95.8183 184.695 96.3455L183.065 95.8183C183.209 95.4189 183.353 94.9796 183.497 94.5003C183.641 94.005 183.776 93.5097 183.904 93.0144C184.032 92.5032 184.136 92.0399 184.216 91.6245ZM177.913 92.1996L179.638 91.6245C179.894 92.2795 180.102 92.9905 180.262 93.7573C180.437 94.5082 180.541 95.1633 180.573 95.7225L178.704 96.3216C178.688 95.7624 178.6 95.0994 178.44 94.3325C178.296 93.5497 178.121 92.8387 177.913 92.1996ZM183.041 99.5329C183.185 99.6607 183.401 99.8524 183.689 100.108C183.992 100.364 184.304 100.643 184.623 100.947C184.959 101.25 185.262 101.538 185.534 101.81C185.821 102.065 186.029 102.249 186.157 102.361L184.623 104.302C184.479 104.062 184.28 103.775 184.024 103.439C183.784 103.088 183.521 102.736 183.233 102.385C182.962 102.017 182.698 101.674 182.442 101.354C182.187 101.035 181.971 100.771 181.795 100.563L183.041 99.5329ZM188.098 97.8074H196.725V100.467H188.098V97.8074ZM191.884 99.1494H194.592V112.354H191.884V99.1494ZM186.804 91.7683L190.159 92.7269C190.143 92.9346 189.935 93.0704 189.536 93.1343V100.18C189.536 101.075 189.488 102.057 189.392 103.128C189.312 104.182 189.152 105.268 188.913 106.387C188.673 107.489 188.306 108.56 187.81 109.598C187.331 110.637 186.692 111.587 185.893 112.45C185.781 112.242 185.606 112.003 185.366 111.731C185.126 111.475 184.871 111.228 184.599 110.988C184.328 110.764 184.072 110.597 183.832 110.485C184.743 109.494 185.406 108.408 185.821 107.226C186.237 106.043 186.5 104.845 186.612 103.631C186.74 102.401 186.804 101.242 186.804 100.156V91.7683ZM194.305 90.1626L196.606 92.2715C195.807 92.623 194.936 92.9505 193.993 93.2541C193.067 93.5576 192.116 93.8292 191.142 94.0689C190.183 94.2926 189.24 94.4923 188.314 94.668C188.25 94.3645 188.13 94.005 187.954 93.5896C187.794 93.1582 187.627 92.7908 187.451 92.4872C188.282 92.2955 189.113 92.0798 189.943 91.8402C190.79 91.6005 191.589 91.3369 192.34 91.0493C193.107 90.7458 193.762 90.4502 194.305 90.1626ZM209.966 92.627C209.893 93.0224 209.776 93.535 209.614 94.1647C209.453 94.7945 209.219 95.5048 208.911 96.2956C208.677 96.8375 208.406 97.4013 208.099 97.9871C207.806 98.5583 207.506 99.0709 207.198 99.5249C207.388 99.437 207.63 99.3638 207.923 99.3052C208.216 99.232 208.516 99.1807 208.824 99.1514C209.146 99.1075 209.431 99.0855 209.68 99.0855C210.603 99.0855 211.365 99.3491 211.965 99.8764C212.58 100.404 212.888 101.187 212.888 102.227C212.888 102.52 212.888 102.879 212.888 103.303C212.902 103.728 212.917 104.175 212.932 104.643C212.946 105.097 212.961 105.544 212.975 105.983C212.99 106.423 212.997 106.818 212.997 107.17H210.361C210.391 106.921 210.405 106.628 210.405 106.291C210.42 105.939 210.427 105.573 210.427 105.193C210.442 104.812 210.449 104.446 210.449 104.094C210.464 103.728 210.471 103.399 210.471 103.106C210.471 102.403 210.281 101.919 209.9 101.656C209.534 101.377 209.124 101.238 208.67 101.238C208.055 101.238 207.432 101.392 206.803 101.7C206.187 101.993 205.668 102.344 205.243 102.754C204.921 103.076 204.591 103.435 204.254 103.831C203.932 104.226 203.581 104.673 203.2 105.171L200.849 103.413C201.801 102.534 202.621 101.685 203.31 100.865C204.013 100.045 204.606 99.232 205.089 98.4265C205.572 97.621 205.968 96.8155 206.275 96.01C206.495 95.4242 206.671 94.8165 206.803 94.1867C206.949 93.5423 207.037 92.9419 207.066 92.3854L209.966 92.627ZM201.706 94.648C202.263 94.7359 202.907 94.8018 203.639 94.8457C204.371 94.8897 205.016 94.9116 205.572 94.9116C206.539 94.9116 207.593 94.8897 208.736 94.8457C209.893 94.8018 211.064 94.7286 212.251 94.6261C213.437 94.5089 214.564 94.3625 215.634 94.1867L215.612 96.735C214.835 96.8375 213.993 96.9327 213.085 97.0205C212.192 97.0938 211.277 97.1597 210.339 97.2183C209.417 97.2622 208.531 97.2988 207.681 97.3281C206.832 97.3427 206.078 97.3501 205.419 97.3501C205.126 97.3501 204.76 97.3501 204.32 97.3501C203.895 97.3354 203.456 97.3208 203.002 97.3061C202.548 97.2768 202.116 97.2475 201.706 97.2183V94.648ZM219.104 100.887C218.87 100.96 218.592 101.055 218.27 101.172C217.962 101.275 217.647 101.385 217.325 101.502C217.018 101.604 216.739 101.707 216.49 101.81C215.787 102.088 214.953 102.425 213.986 102.82C213.034 103.215 212.038 103.677 210.998 104.204C210.339 104.555 209.783 104.9 209.329 105.236C208.875 105.573 208.531 105.917 208.296 106.269C208.062 106.606 207.945 106.979 207.945 107.389C207.945 107.697 208.011 107.953 208.143 108.158C208.274 108.349 208.472 108.502 208.736 108.62C208.999 108.737 209.329 108.817 209.724 108.861C210.12 108.905 210.588 108.927 211.13 108.927C212.067 108.927 213.1 108.876 214.228 108.773C215.355 108.656 216.402 108.502 217.369 108.312L217.281 111.146C216.812 111.204 216.219 111.263 215.502 111.322C214.784 111.395 214.037 111.446 213.261 111.475C212.5 111.505 211.767 111.519 211.064 111.519C209.922 111.519 208.897 111.409 207.989 111.19C207.081 110.97 206.363 110.597 205.836 110.069C205.323 109.528 205.067 108.788 205.067 107.851C205.067 107.089 205.236 106.401 205.572 105.786C205.924 105.171 206.385 104.614 206.956 104.116C207.527 103.618 208.15 103.172 208.824 102.776C209.512 102.366 210.186 101.993 210.845 101.656C211.518 101.304 212.126 101.004 212.668 100.755C213.21 100.506 213.715 100.286 214.184 100.096C214.667 99.891 215.128 99.686 215.568 99.4809C215.992 99.2905 216.402 99.1075 216.798 98.9317C217.193 98.7414 217.596 98.5436 218.006 98.3386L219.104 100.887ZM225.339 93.0863H244.775V107.345H241.779V95.8423H228.215V107.465H225.339V93.0863ZM227.233 98.2627H243.193V100.923H227.233V98.2627ZM227.209 103.439H243.241V106.195H227.209V103.439ZM233.415 89.8751H236.435V112.378H233.415V89.8751ZM257.788 91.241C257.724 91.7363 257.66 92.2715 257.596 92.8467C257.548 93.4218 257.508 93.9491 257.476 94.4284C257.46 95.0834 257.428 95.8822 257.38 96.8248C257.348 97.7515 257.316 98.726 257.284 99.7485C257.268 100.771 257.244 101.778 257.212 102.768C257.196 103.759 257.188 104.621 257.188 105.356C257.188 106.155 257.332 106.794 257.62 107.273C257.923 107.737 258.323 108.072 258.818 108.28C259.313 108.472 259.873 108.568 260.496 108.568C261.486 108.568 262.389 108.44 263.204 108.184C264.018 107.913 264.761 107.553 265.432 107.106C266.103 106.658 266.703 106.139 267.23 105.548C267.773 104.957 268.26 104.334 268.692 103.679L270.872 106.315C270.489 106.89 269.986 107.497 269.363 108.136C268.74 108.775 267.997 109.374 267.134 109.934C266.287 110.493 265.305 110.948 264.186 111.3C263.068 111.651 261.83 111.827 260.472 111.827C259.162 111.827 258.019 111.619 257.045 111.204C256.086 110.804 255.335 110.181 254.792 109.334C254.265 108.472 254.001 107.361 254.001 106.003C254.001 105.348 254.009 104.605 254.025 103.775C254.041 102.928 254.065 102.049 254.097 101.138C254.129 100.228 254.153 99.3411 254.169 98.4784C254.185 97.5997 254.201 96.8089 254.217 96.1059C254.233 95.4029 254.241 94.8437 254.241 94.4284C254.241 93.8532 254.217 93.294 254.169 92.7508C254.121 92.1916 254.041 91.6724 253.929 91.1931L257.788 91.241ZM284.46 90.8816H289.541V93.6136H284.46V90.8816ZM288.079 90.8816H291.099C291.195 92.5911 291.37 94.2207 291.626 95.7704C291.882 97.3201 292.265 98.758 292.776 100.084C293.287 101.394 293.958 102.552 294.789 103.559C295.62 104.565 296.666 105.388 297.929 106.027C297.689 106.187 297.425 106.395 297.138 106.65C296.866 106.906 296.595 107.178 296.323 107.465C296.067 107.737 295.852 107.992 295.676 108.232C294.398 107.465 293.327 106.531 292.465 105.428C291.602 104.31 290.899 103.056 290.356 101.666C289.829 100.276 289.421 98.782 289.134 97.1843C288.862 95.5867 288.67 93.9171 288.558 92.1757H288.079V90.8816ZM288.007 95.8902L290.955 96.2976C290.444 98.9976 289.637 101.354 288.534 103.367C287.432 105.38 286.002 107.01 284.245 108.256C284.101 108.064 283.893 107.833 283.622 107.561C283.366 107.289 283.086 107.018 282.783 106.746C282.495 106.459 282.24 106.235 282.016 106.075C283.694 105.069 285.012 103.695 285.97 101.953C286.945 100.212 287.624 98.1908 288.007 95.8902ZM281.417 99.2213V108.064H278.613V101.881H275.833V99.2213H281.417ZM281.417 106.818C281.912 107.601 282.607 108.176 283.502 108.544C284.397 108.911 285.467 109.119 286.713 109.167C287.416 109.199 288.247 109.223 289.205 109.239C290.18 109.239 291.203 109.231 292.273 109.215C293.343 109.199 294.39 109.167 295.412 109.119C296.451 109.071 297.369 109.015 298.168 108.951C298.072 109.175 297.961 109.462 297.833 109.814C297.705 110.165 297.585 110.525 297.473 110.892C297.377 111.26 297.306 111.587 297.258 111.875C296.539 111.923 295.716 111.955 294.789 111.971C293.863 112.003 292.912 112.019 291.937 112.019C290.963 112.034 290.02 112.034 289.11 112.019C288.199 112.003 287.384 111.979 286.665 111.947C285.195 111.883 283.941 111.651 282.903 111.252C281.864 110.868 280.946 110.213 280.147 109.287C279.62 109.734 279.076 110.197 278.517 110.676C277.974 111.156 277.375 111.651 276.72 112.162L275.306 109.167C275.865 108.831 276.448 108.464 277.055 108.064C277.662 107.665 278.246 107.25 278.805 106.818H281.417ZM275.857 92.1757L277.99 90.4502C278.485 90.7697 278.988 91.1452 279.5 91.5766C280.011 91.9919 280.49 92.4233 280.938 92.8706C281.385 93.302 281.744 93.7014 282.016 94.0689L279.739 95.9861C279.5 95.6026 279.164 95.1872 278.733 94.7399C278.317 94.2926 277.854 93.8452 277.343 93.3979C276.832 92.9346 276.336 92.5272 275.857 92.1757ZM310.247 90.8576C310.183 91.2091 310.127 91.6245 310.079 92.1038C310.031 92.5671 310.007 93.1582 310.007 93.8772C310.007 94.1647 310.007 94.6281 310.007 95.2671C310.007 95.8902 310.007 96.5772 310.007 97.3281C310.007 98.063 310.007 98.782 310.007 99.4849C310.007 100.172 310.007 100.715 310.007 101.115L307.131 99.9882C307.131 99.5728 307.131 99.0855 307.131 98.5263C307.131 97.9672 307.131 97.392 307.131 96.8009C307.131 96.1938 307.131 95.6346 307.131 95.1233C307.131 94.5961 307.131 94.1807 307.131 93.8772C307.131 93.1263 307.115 92.5272 307.083 92.0798C307.051 91.6165 306.987 91.2091 306.891 90.8576H310.247ZM318.299 93.0624C318.666 93.302 319.082 93.6136 319.545 93.997C320.024 94.3804 320.503 94.7958 320.983 95.2432C321.478 95.6745 321.933 96.1059 322.349 96.5373C322.764 96.9527 323.108 97.3201 323.379 97.6396L321.222 99.8444C320.791 99.3012 320.272 98.726 319.665 98.1189C319.074 97.5118 318.474 96.9367 317.867 96.3935C317.276 95.8343 316.749 95.387 316.286 95.0514L318.299 93.0624ZM302.554 93.7573C303.209 93.8372 303.872 93.9091 304.543 93.973C305.23 94.0369 305.853 94.0689 306.412 94.0689C307.61 94.0689 308.881 93.989 310.223 93.8292C311.565 93.6535 312.923 93.3819 314.297 93.0144V95.8902C313.37 96.0979 312.419 96.2657 311.445 96.3935C310.486 96.5213 309.584 96.6171 308.737 96.681C307.906 96.729 307.203 96.7529 306.628 96.7529C306.117 96.7529 305.533 96.737 304.878 96.705C304.223 96.6731 303.504 96.6251 302.722 96.5612L302.554 93.7573ZM309.48 104.877C309.48 105.037 309.472 105.252 309.456 105.524C309.456 105.78 309.456 106.051 309.456 106.339C309.456 106.626 309.456 106.89 309.456 107.13C309.456 107.385 309.48 107.617 309.528 107.825C309.591 108.016 309.719 108.176 309.911 108.304C310.119 108.432 310.43 108.528 310.846 108.592C311.277 108.655 311.844 108.687 312.547 108.687C312.963 108.687 313.394 108.671 313.841 108.639C314.289 108.608 314.72 108.56 315.135 108.496C315.567 108.432 315.926 108.352 316.214 108.256C316.837 108.08 317.284 107.793 317.556 107.393C317.843 106.978 317.987 106.467 317.987 105.86C317.987 105.38 317.971 104.909 317.939 104.446C317.923 103.966 317.875 103.447 317.795 102.888L321.127 103.894C321.127 104.31 321.127 104.669 321.127 104.973C321.127 105.26 321.127 105.54 321.127 105.812C321.127 106.067 321.111 106.363 321.079 106.698C321.047 107.417 320.927 108.056 320.719 108.616C320.511 109.159 320.16 109.63 319.665 110.029C319.169 110.429 318.458 110.772 317.532 111.06C317.18 111.172 316.693 111.268 316.07 111.347C315.463 111.427 314.824 111.483 314.153 111.515C313.498 111.563 312.891 111.587 312.331 111.587C311.213 111.587 310.294 111.523 309.576 111.395C308.857 111.268 308.281 111.084 307.85 110.844C307.435 110.621 307.131 110.365 306.939 110.077C306.764 109.774 306.644 109.462 306.58 109.143C306.532 108.807 306.508 108.472 306.508 108.136C306.508 107.721 306.508 107.305 306.508 106.89C306.524 106.459 306.54 106.075 306.556 105.74L309.48 104.877ZM310.702 102.121C310.702 102.824 310.614 103.511 310.438 104.182C310.278 104.837 310.015 105.428 309.647 105.955C309.28 106.467 308.809 106.882 308.233 107.202C307.658 107.505 306.955 107.657 306.125 107.657C305.549 107.657 304.99 107.513 304.447 107.226C303.904 106.922 303.457 106.459 303.105 105.836C302.77 105.197 302.602 104.366 302.602 103.343C302.602 102.401 302.785 101.554 303.153 100.803C303.536 100.052 304.064 99.461 304.735 99.0296C305.406 98.5982 306.173 98.3825 307.035 98.3825C308.265 98.3825 309.184 98.734 309.791 99.437C310.398 100.124 310.702 101.019 310.702 102.121ZM306.436 104.781C306.804 104.781 307.099 104.669 307.323 104.446C307.546 104.206 307.706 103.894 307.802 103.511C307.914 103.112 307.97 102.696 307.97 102.265C307.97 101.786 307.866 101.418 307.658 101.162C307.451 100.907 307.179 100.779 306.844 100.779C306.54 100.779 306.252 100.875 305.981 101.067C305.709 101.258 305.494 101.53 305.334 101.881C305.19 102.233 305.118 102.648 305.118 103.128C305.118 103.655 305.246 104.062 305.502 104.35C305.773 104.637 306.085 104.781 306.436 104.781Z" fill="white"/>
<g filter="url(#filter0_f_14094_4096)">
<path d="M356.638 96.1677L363.136 102.949L356.638 109.165" stroke="#9E2727" stroke-opacity="0.1" stroke-width="2"/>
</g>
<path d="M355.194 96.1677L361.692 102.949L355.194 109.165" stroke="white" stroke-width="2"/>
<g opacity="0.8">
<path d="M51.2432 23.533L58.1369 24.379L56.8774 24.9344L49.7022 27.7672L47.5935 24.003L51.2432 23.533Z" fill="white"/>
<path d="M27.6565 54.2155L27.5324 54.1856C25.6527 53.7327 24.6223 52.1347 25.252 50.6265L34.6457 28.0451C35.2706 26.5369 37.3268 25.6738 39.2065 26.1267L39.3306 26.1566C41.2103 26.6095 42.2407 28.2075 41.611 29.7158L32.2173 52.2971C31.5924 53.8054 29.5362 54.6685 27.6565 54.2155Z" fill="white"/>
<path d="M38.844 69.4646V97.092L41.4298 125.971C42.0452 129.62 47.0736 128.881 48.6336 127.356L46.7158 98.5362L49.063 72.0539L38.844 69.4689V69.4646Z" fill="white"/>
<path d="M65.5221 81.1848V132.564C62.2159 133.765 59.8258 132.957 58.3468 130.163L55.7754 75.1646L65.5221 81.1805V81.1848Z" fill="white"/>
<path d="M38.844 26.2246V69.4646L60.6465 79.8644L62.2065 34.6419L38.844 26.2246Z" fill="white"/>
<path d="M43.9583 78.6254L65.5222 84.1842V70.4603L38.844 65.4014V77.1214L43.9583 78.6254Z" fill="white"/>
<path d="M47.1069 128.3L38.2524 133.65C37.0549 134.372 34.9558 134.402 33.5866 133.714C32.2173 133.026 32.079 131.868 33.2765 131.146L42.131 125.796C43.3285 125.074 45.4276 125.044 46.7969 125.732C48.1661 126.42 48.3044 127.578 47.1069 128.3Z" fill="white"/>
<path d="M65.0833 133.004L58.6189 140.623C57.7458 141.652 55.6371 142.199 53.9387 141.836C52.2404 141.473 51.5629 140.332 52.4407 139.302L58.9051 131.684C59.7782 130.654 61.8869 130.107 63.5853 130.471C65.2837 130.834 65.9611 131.975 65.0833 133.004Z" fill="white"/>
<path d="M67.9601 32.0142C67.0345 30.9546 56.0427 20.7214 37.0454 26.2247C38.262 31.07 41.1674 32.2792 44.9172 31.6852C52.7556 32.7406 60.9852 37.2398 67.9601 32.0142Z" fill="white"/>
<path d="M58.137 27.7671C55.5655 27.0706 46.4724 27.9679 46.4724 27.9679L44.8933 32.8431C44.8933 32.8431 52.7556 34.565 54.9549 33.9625L58.137 27.7671Z" fill="white"/>
<path d="M55.0978 16.0171L57.1159 27.3228C57.1159 27.3228 48.4426 28.2371 48.185 27.7671C47.9273 27.2971 48.3901 15.2224 48.3901 15.2224L55.1026 16.0129L55.0978 16.0171Z" fill="white"/>
<g style="mix-blend-mode:multiply" opacity="0.27">
<path d="M51.8777 67.8752V75.1688C51.8777 75.1688 53.5999 80.0995 61.1759 78.7322L65.5364 77.8862L65.5221 73.4255L56.1523 68.3025L51.8777 67.8795V67.8752Z" fill="white"/>
</g>
<path d="M53.3042 51.1134V74.3229C53.3042 74.3229 58.4232 80.2534 67.5354 75.0407L65.2502 34.061L55.8232 32.6125L53.3042 51.1092V51.1134Z" fill="white"/>
<g style="mix-blend-mode:multiply" opacity="0.27">
<path d="M62.9506 38.2739C62.4831 38.9576 64.401 76.314 64.401 76.314C66.3379 75.7585 66.6241 75.4765 67.5306 75.045L65.5173 38.2739H62.9506Z" fill="white"/>
</g>
<path d="M74.8633 46.6698L74.2001 46.8621C72.497 47.3577 70.6077 47.0201 70.0019 46.1143L61.882 33.9499C61.2761 33.0398 62.173 31.8904 63.8762 31.3948L64.5393 31.2025C66.2425 30.7069 68.1317 31.0444 68.7376 31.9503L76.8575 44.1147C77.4634 45.0248 76.5664 46.1741 74.8633 46.6698Z" fill="white"/>
<g style="mix-blend-mode:multiply" opacity="0.27">
<path d="M47.0734 66.9611V72.9899C47.0734 72.9899 42.5364 78.9674 38.8485 74.323L38.7722 70.2041L43.4142 66.6833L47.0781 66.9611H47.0734Z" fill="white"/>
</g>
<g style="mix-blend-mode:multiply" opacity="0.27">
<path d="M47.2737 28.4978C45.2223 37.5132 45.833 50.9937 46.5772 66.9224L44.3206 66.3712C43.3665 47.0713 44.0582 35.0137 45.6087 26.7502L47.2737 28.4935V28.4978Z" fill="white"/>
</g>
<path d="M49.8262 26.947L47.4456 30.942C47.4456 30.942 51.8681 31.9931 51.5961 31.9333C51.3242 31.8735 49.8262 26.947 49.8262 26.947Z" fill="white"/>
<path d="M47.8845 33.7276L47.4456 30.946L51.5961 31.9373L49.9502 33.9498L47.8845 33.7276Z" fill="white"/>
<path d="M49.9503 33.95L52.4549 47.1655L48.958 55.258L46.4915 45.67L47.8845 33.7278L49.9503 33.95Z" fill="white"/>
<path d="M44.917 31.6853L44.9265 32.3262L45.2176 48.5412L45.6469 72.3103C45.6469 72.3103 40.7855 77.694 37.8372 71.4302V27.7715L44.9122 31.6896L44.917 31.6853Z" fill="white"/>
<g style="mix-blend-mode:multiply" opacity="0.27">
<path d="M61.9775 27.8997L61.1569 33.7234C61.1569 33.7234 57.6695 36.6844 56.9777 36.9707L61.0996 37.4834L53.3042 52.5448V50.3913L56.1333 33.7192L60.5558 27.1135L61.9775 27.8954V27.8997Z" fill="white"/>
</g>
<path d="M60.9469 27.357C60.3887 29.3652 59.9689 31.3904 59.6683 33.7319C59.6683 33.7319 56.7486 37.0347 55.7467 37.1458L59.8401 38.0302L53.2993 51.1176C53.2993 51.1176 52.889 29.3609 58.7953 26.4854L60.9469 27.3613V27.357Z" fill="white"/>
<path d="M58.1369 24.3789L49.8262 26.9468L51.5818 32.6167L58.8 27.357L58.1369 24.3789Z" fill="white"/>
<g style="mix-blend-mode:multiply" opacity="0.27">
<path d="M42.7273 24.99C42.7273 24.99 39.7313 32.0443 40.5709 33.9499L41.7446 35.9239L39.8076 35.5992C39.8076 35.5992 43.2187 48.2763 45.2081 51.1177V41.0469L44.6213 24.8105L42.7273 24.9943V24.99Z" fill="white"/>
</g>
<path d="M40.8954 36.5861C40.8954 36.5861 45.232 49.2248 45.2273 49.0795C45.2225 48.9342 44.3924 33.7062 46.8207 27.5023L47.4648 24.6096L43.5289 24.8831C43.5289 24.8831 40.695 31.5699 41.2198 34.0908L43.3237 36.9621L40.8906 36.5861H40.8954Z" fill="white"/>
<path d="M49.8263 26.9468L47.5935 24.0029L45.6089 25.2078L47.4695 31.1555L49.8263 26.9468Z" fill="white"/>
<path d="M59.506 13.7826C59.506 13.7826 57.2924 24.2764 48.5237 24.4558C47.6029 24.4729 45.5753 24.5071 45.0649 23.6867C45.0649 23.6867 40.5994 15.7224 43.5239 6.18995C46.4484 -3.34249 62.9267 -0.70195 59.506 13.7826Z" fill="white"/>
<path d="M60.6702 15.6541C60.1358 16.8462 58.9336 17.5384 57.989 17.1966C57.0444 16.8548 56.7152 15.6114 57.2495 14.4193C57.7838 13.2272 58.9861 12.5351 59.9307 12.8769C60.8753 13.2187 61.2045 14.4621 60.6702 15.6541Z" fill="white"/>
<path d="M57.1159 8.63834L57.6168 16.466L61.1377 12.2872C61.1377 12.2872 63.1605 1.85753 53.8431 0.165527L48.2756 5.80125L57.1159 8.63834Z" fill="white"/>
<path d="M48.2757 5.79688L43.0708 7.9076C43.0708 7.9076 43.0708 -1.33857 53.8432 0.165428C62.2302 1.33615 48.2757 5.80115 48.2757 5.80115V5.79688Z" fill="white"/>
<path d="M51.1525 15.0389C51.4766 15.0389 51.7393 14.6908 51.7393 14.2613C51.7393 13.8318 51.4766 13.4836 51.1525 13.4836C50.8284 13.4836 50.5657 13.8318 50.5657 14.2613C50.5657 14.6908 50.8284 15.0389 51.1525 15.0389Z" fill="white"/>
<path d="M45.0889 13.6758C45.0889 14.1031 44.8265 14.4535 44.5021 14.4535C44.1777 14.4535 43.9153 14.1074 43.9153 13.6758C43.9153 13.2443 44.1777 12.8982 44.5021 12.8982C44.8265 12.8982 45.0889 13.2443 45.0889 13.6758Z" fill="white"/>
<path d="M46.9637 17.9528C46.5963 17.9101 46.3387 17.6067 46.3816 17.282L46.8301 14.1544C46.8778 13.8254 47.2165 13.5946 47.5791 13.6331C47.9464 13.6758 48.2041 13.9792 48.1611 14.3039L47.7127 17.4315C47.665 17.7605 47.3262 17.9913 46.9637 17.9528Z" fill="white"/>
<path d="M53.1943 12.9794L50.1028 12.5137C49.8213 12.471 49.6305 12.2317 49.6782 11.9796C49.7259 11.7275 49.9931 11.5566 50.2746 11.5993L53.366 12.065C53.6475 12.1078 53.8383 12.347 53.7906 12.5991C53.7429 12.8512 53.4758 13.0221 53.1943 12.9794Z" fill="white"/>
<path d="M45.6107 12.1114L43.2562 11.7967C43.0203 11.7651 42.8597 11.5709 42.8949 11.3596L42.9027 11.3131C42.9379 11.1018 43.1548 10.958 43.3907 10.9895L45.7453 11.3043C45.9812 11.3358 46.1418 11.5301 46.1065 11.7414L46.0988 11.7879C46.0636 11.9992 45.8467 12.143 45.6107 12.1114Z" fill="white"/>
<path d="M44.6978 19.1235C44.9411 19.1235 49.8502 19.6277 49.8502 19.6277C49.8502 19.6277 49.0296 21.9991 47.0975 21.8239C45.9859 21.7214 45.337 20.7386 45.0031 19.9866C44.7884 19.5081 44.7025 19.1235 44.7025 19.1235H44.6978Z" fill="white"/>
<path d="M45.0649 19.1536L45.1317 19.9269L49.206 20.3969L49.435 19.5894L45.0649 19.1536Z" fill="white"/>
<path d="M17.8762 32.7066L25.9674 33.2834C27.2746 33.591 28.0427 34.7276 27.6754 35.8171L27.537 36.2316C27.1697 37.3168 25.7957 37.9578 24.4885 37.6501L17.4564 36.0308C16.1492 35.7231 16.5738 32.4032 17.881 32.7066H17.8762Z" fill="white"/>
<path d="M21.0154 30.5489C21.5068 30.1857 22.2701 30.2199 22.7043 30.6301L25.9627 33.6722C26.4016 34.0824 26.3539 34.7105 25.8625 35.0737C25.3711 35.4369 24.6126 35.4027 24.1737 34.9925L20.9152 31.9503C20.4763 31.5402 20.524 30.9121 21.0154 30.5489Z" fill="white"/>
<path d="M26.1108 34.5054C24.732 35.4027 22.8046 36.2743 22.9716 37.3938L25.1471 52.0791C25.314 53.2028 26.5735 53.3866 27.9523 52.4893L28.582 52.0791C29.9608 51.1818 30.9483 49.5326 30.7861 48.4088L28.854 35.3514C28.687 34.2277 27.4895 33.6081 26.1155 34.5011L26.1108 34.5054Z" fill="white"/>
<path d="M18.4298 36.0093C18.9832 35.77 19.2122 35.1676 18.945 34.6762L16.4785 30.1343C16.2113 29.6387 15.5387 29.4336 14.99 29.6729C14.4366 29.9121 14.2076 30.5146 14.4748 31.006L16.9413 35.5479C17.2084 36.0435 17.8811 36.2486 18.4298 36.0093Z" fill="white"/>
<path d="M58.2801 23.439L61.3048 26.165C61.4193 26.3872 62.4402 26.1308 63.5804 25.5924L64.0146 25.3873C65.1548 24.8533 65.7511 23.7594 65.3456 22.9647L63.1844 18.6749C62.7789 17.8802 57.8746 22.6357 58.2849 23.4347L58.2801 23.439Z" fill="white"/>
<path d="M61.9725 16.9445C61.3857 16.9872 60.9372 17.3803 60.9754 17.8162L61.3809 22.7469C61.4191 23.1827 61.9248 23.5031 62.5116 23.4561C63.0984 23.4134 63.5469 23.0203 63.5087 22.5845L63.1032 17.6538C63.065 17.218 62.5593 16.8975 61.9725 16.9445Z" fill="white"/>
<path d="M63.4565 24.0029C64.8734 23.3321 66.7292 22.4306 67.5307 24.0029L77.1247 42.6107C77.931 44.183 77.4301 46.016 76.0179 46.6911L75.3691 46.9987C73.9522 47.6696 72.1345 46.9346 71.333 45.3623L61.9632 27.0793C61.1569 25.5069 62.0443 24.6738 63.4565 24.0029Z" fill="white"/>
<path d="M58.5091 22.9006L54.2869 23.3279L54.0198 22.9647L57.7362 12.9067L62.5308 12.7444L62.9984 13.005L58.5091 22.9006Z" fill="white"/>
<path d="M59.3344 22.986L54.2869 23.3278L57.989 13.2142L62.9983 13.0049L59.3344 22.986Z" fill="white"/>
<path d="M61.09 23.9943L61.2093 23.8276C61.4812 23.4474 61.3428 22.9475 60.9135 22.7125L57.6503 20.9393C57.2161 20.7043 56.6436 20.8196 56.3717 21.1999L56.2524 21.3666C55.9805 21.7468 56.1188 22.2467 56.5482 22.4817L59.8114 24.2549C60.2456 24.4899 60.8181 24.3746 61.09 23.9943Z" fill="white"/>
<path d="M62.5929 22.9304C62.8934 22.5074 62.6978 21.9178 62.154 21.623L57.1637 18.9055C56.6199 18.6107 55.9281 18.7132 55.6275 19.1362C55.327 19.5592 55.5226 20.1489 56.0665 20.4437L61.0567 23.1611C61.6006 23.456 62.2923 23.3534 62.5929 22.9304Z" fill="white"/>
<path d="M62.6215 21.8795C63.0079 21.5121 62.9029 20.8754 62.3877 20.4695L57.6789 16.7394C57.1684 16.3335 56.4338 16.3036 56.0473 16.6711C55.6609 17.0385 55.7658 17.6752 56.2811 18.0811L60.9898 21.8111C61.5003 22.2171 62.235 22.247 62.6215 21.8795Z" fill="white"/>
<path d="M63.2511 21.1018C63.6709 20.76 63.6375 20.1362 63.1843 19.7089L58.9956 15.7908C58.5423 15.3635 57.8267 15.2952 57.4069 15.6327C56.9871 15.9745 57.0205 16.5984 57.4737 17.0256L61.6624 20.9437C62.1157 21.371 62.8313 21.4394 63.2511 21.1018Z" fill="white"/>
<path d="M60.6845 15.2653L59.7065 15.3123C59.5013 15.3208 59.3296 15.1798 59.3296 14.9961C59.3296 14.8124 59.4966 14.6543 59.7065 14.6458L60.6845 14.5988C60.8896 14.5902 61.0614 14.7312 61.0614 14.9149C61.0614 15.0987 60.8944 15.2568 60.6845 15.2653Z" fill="white"/>
</g>
<path d="M49.2432 23.533L56.1369 24.379L54.8774 24.9344L47.7022 27.7672L45.5935 24.003L49.2432 23.533Z" fill="#C7CAD1"/>
<path d="M25.6565 54.2155L25.5324 54.1856C23.6527 53.7327 22.6223 52.1347 23.252 50.6265L32.6457 28.0451C33.2706 26.5369 35.3268 25.6738 37.2065 26.1267L37.3306 26.1566C39.2103 26.6095 40.2407 28.2075 39.611 29.7158L30.2173 52.2971C29.5924 53.8054 27.5362 54.6685 25.6565 54.2155Z" fill="#183142"/>
<path d="M36.844 69.4646V97.092L39.4298 125.971C40.0452 129.62 45.0736 128.881 46.6336 127.356L44.7158 98.5362L47.063 72.0539L36.844 69.4689V69.4646Z" fill="#183142"/>
<path d="M63.5221 81.1848V132.564C60.2159 133.765 57.8258 132.957 56.3468 130.163L53.7754 75.1646L63.5221 81.1805V81.1848Z" fill="#183142"/>
<path d="M36.844 26.2246V69.4646L58.6465 79.8644L60.2065 34.6419L36.844 26.2246Z" fill="#D8DCE5"/>
<path d="M41.9583 78.6254L63.5222 84.1842V70.4603L36.844 65.4014V77.1214L41.9583 78.6254Z" fill="#183142"/>
<path d="M45.1069 128.3L36.2524 133.65C35.0549 134.372 32.9558 134.402 31.5866 133.714C30.2173 133.026 30.079 131.868 31.2765 131.146L40.131 125.796C41.3285 125.074 43.4276 125.044 44.7969 125.732C46.1661 126.42 46.3044 127.578 45.1069 128.3Z" fill="#183142"/>
<path d="M63.0833 133.004L56.6189 140.623C55.7458 141.652 53.6371 142.199 51.9387 141.836C50.2404 141.473 49.5629 140.332 50.4407 139.302L56.9051 131.684C57.7782 130.654 59.8869 130.107 61.5853 130.471C63.2837 130.834 63.9611 131.975 63.0833 133.004Z" fill="#183142"/>
<path d="M65.9601 32.0142C65.0345 30.9546 54.0427 20.7214 35.0454 26.2247C36.262 31.07 39.1674 32.2792 42.9172 31.6852C50.7556 32.7406 58.9852 37.2398 65.9601 32.0142Z" fill="#223F4F"/>
<path d="M56.137 27.7671C53.5655 27.0706 44.4724 27.9679 44.4724 27.9679L42.8933 32.8431C42.8933 32.8431 50.7556 34.565 52.9549 33.9625L56.137 27.7671Z" fill="#D8DCE5"/>
<path d="M53.0978 16.0171L55.1159 27.3228C55.1159 27.3228 46.4426 28.2371 46.185 27.7671C45.9273 27.2971 46.3901 15.2224 46.3901 15.2224L53.1026 16.0129L53.0978 16.0171Z" fill="#DC8571"/>
<g style="mix-blend-mode:multiply" opacity="0.27">
<path d="M49.8777 67.8752V75.1688C49.8777 75.1688 51.5999 80.0995 59.1759 78.7322L63.5364 77.8862L63.5221 73.4255L54.1523 68.3025L49.8777 67.8795V67.8752Z" fill="#223F4F"/>
</g>
<path d="M51.3042 51.1134V74.3229C51.3042 74.3229 56.4232 80.2534 65.5354 75.0407L63.2502 34.061L53.8232 32.6125L51.3042 51.1092V51.1134Z" fill="#223F4F"/>
<g style="mix-blend-mode:multiply" opacity="0.27">
<path d="M60.9506 38.2739C60.4831 38.9576 62.401 76.314 62.401 76.314C64.3379 75.7585 64.6241 75.4765 65.5306 75.045L63.5173 38.2739H60.9506Z" fill="#223F4F"/>
</g>
<path d="M72.8633 46.6698L72.2001 46.8621C70.497 47.3577 68.6077 47.0201 68.0019 46.1143L59.882 33.9499C59.2761 33.0398 60.173 31.8904 61.8762 31.3948L62.5393 31.2025C64.2425 30.7069 66.1317 31.0444 66.7376 31.9503L74.8575 44.1147C75.4634 45.0248 74.5664 46.1741 72.8633 46.6698Z" fill="#223F4F"/>
<g style="mix-blend-mode:multiply" opacity="0.27">
<path d="M45.0734 66.9611V72.9899C45.0734 72.9899 40.5364 78.9674 36.8485 74.323L36.7722 70.2041L41.4142 66.6833L45.0781 66.9611H45.0734Z" fill="#223F4F"/>
</g>
<g style="mix-blend-mode:multiply" opacity="0.27">
<path d="M45.2737 28.4978C43.2223 37.5132 43.833 50.9937 44.5772 66.9224L42.3206 66.3712C41.3665 47.0713 42.0582 35.0137 43.6087 26.7502L45.2737 28.4935V28.4978Z" fill="#223F4F"/>
</g>
<path d="M47.8262 26.947L45.4456 30.942C45.4456 30.942 49.8681 31.9931 49.5961 31.9333C49.3242 31.8735 47.8262 26.947 47.8262 26.947Z" fill="#B23932"/>
<path d="M45.8845 33.7276L45.4456 30.946L49.5961 31.9373L47.9502 33.9498L45.8845 33.7276Z" fill="#B23932"/>
<path d="M47.9503 33.95L50.4549 47.1655L46.958 55.258L44.4915 45.67L45.8845 33.7278L47.9503 33.95Z" fill="#B23932"/>
<path d="M42.917 31.6853L42.9265 32.3262L43.2176 48.5412L43.6469 72.3103C43.6469 72.3103 38.7855 77.694 35.8372 71.4302V27.7715L42.9122 31.6896L42.917 31.6853Z" fill="#223F4F"/>
<g style="mix-blend-mode:multiply" opacity="0.27">
<path d="M59.9775 27.8997L59.1569 33.7234C59.1569 33.7234 55.6695 36.6844 54.9777 36.9707L59.0996 37.4834L51.3042 52.5448V50.3913L54.1333 33.7192L58.5558 27.1135L59.9775 27.8954V27.8997Z" fill="#223F4F"/>
</g>
<path d="M58.9469 27.357C58.3887 29.3652 57.9689 31.3904 57.6683 33.7319C57.6683 33.7319 54.7486 37.0347 53.7467 37.1458L57.8401 38.0302L51.2993 51.1176C51.2993 51.1176 50.889 29.3609 56.7953 26.4854L58.9469 27.3613V27.357Z" fill="#2E4F5E"/>
<path d="M56.1369 24.3789L47.8262 26.9468L49.5818 32.6167L56.8 27.357L56.1369 24.3789Z" fill="#E9ECF2"/>
<g style="mix-blend-mode:multiply" opacity="0.27">
<path d="M40.7273 24.99C40.7273 24.99 37.7313 32.0443 38.5709 33.9499L39.7446 35.9239L37.8076 35.5992C37.8076 35.5992 41.2187 48.2763 43.2081 51.1177V41.0469L42.6213 24.8105L40.7273 24.9943V24.99Z" fill="#223F4F"/>
</g>
<path d="M38.8954 36.5861C38.8954 36.5861 43.232 49.2248 43.2273 49.0795C43.2225 48.9342 42.3924 33.7062 44.8207 27.5023L45.4648 24.6096L41.5289 24.8831C41.5289 24.8831 38.695 31.5699 39.2198 34.0908L41.3237 36.9621L38.8906 36.5861H38.8954Z" fill="#2E4F5E"/>
<path d="M47.8263 26.9468L45.5935 24.0029L43.6089 25.2078L45.4695 31.1555L47.8263 26.9468Z" fill="#E9ECF2"/>
<path d="M57.506 13.7826C57.506 13.7826 55.2924 24.2764 46.5237 24.4558C45.6029 24.4729 43.5753 24.5071 43.0649 23.6867C43.0649 23.6867 38.5994 15.7224 41.5239 6.18995C44.4484 -3.34249 60.9267 -0.70195 57.506 13.7826Z" fill="#FF9F86"/>
<path d="M58.6702 15.6541C58.1358 16.8462 56.9336 17.5384 55.989 17.1966C55.0444 16.8548 54.7152 15.6114 55.2495 14.4193C55.7838 13.2272 56.9861 12.5351 57.9307 12.8769C58.8753 13.2187 59.2045 14.4621 58.6702 15.6541Z" fill="#FF9F86"/>
<path d="M55.1159 8.63834L55.6168 16.466L59.1377 12.2872C59.1377 12.2872 61.1605 1.85753 51.8431 0.165527L46.2756 5.80125L55.1159 8.63834Z" fill="#6D220D"/>
<path d="M46.2757 5.79688L41.0708 7.9076C41.0708 7.9076 41.0708 -1.33857 51.8432 0.165428C60.2302 1.33615 46.2757 5.80115 46.2757 5.80115V5.79688Z" fill="#6D220D"/>
<path d="M49.1525 15.0389C49.4766 15.0389 49.7393 14.6908 49.7393 14.2613C49.7393 13.8318 49.4766 13.4836 49.1525 13.4836C48.8284 13.4836 48.5657 13.8318 48.5657 14.2613C48.5657 14.6908 48.8284 15.0389 49.1525 15.0389Z" fill="#8E4A35"/>
<path d="M43.0889 13.6758C43.0889 14.1031 42.8265 14.4535 42.5021 14.4535C42.1777 14.4535 41.9153 14.1074 41.9153 13.6758C41.9153 13.2443 42.1777 12.8982 42.5021 12.8982C42.8265 12.8982 43.0889 13.2443 43.0889 13.6758Z" fill="#8E4A35"/>
<path d="M44.9637 17.9528C44.5963 17.9101 44.3387 17.6067 44.3816 17.282L44.8301 14.1544C44.8778 13.8254 45.2165 13.5946 45.5791 13.6331C45.9464 13.6758 46.2041 13.9792 46.1611 14.3039L45.7127 17.4315C45.665 17.7605 45.3262 17.9913 44.9637 17.9528Z" fill="#DC8571"/>
<path d="M51.1943 12.9794L48.1028 12.5137C47.8213 12.471 47.6305 12.2317 47.6782 11.9796C47.7259 11.7275 47.9931 11.5566 48.2746 11.5993L51.366 12.065C51.6475 12.1078 51.8383 12.347 51.7906 12.5991C51.7429 12.8512 51.4758 13.0221 51.1943 12.9794Z" fill="#6D220D"/>
<path d="M43.6107 12.1114L41.2562 11.7967C41.0203 11.7651 40.8597 11.5709 40.8949 11.3596L40.9027 11.3131C40.9379 11.1018 41.1548 10.958 41.3907 10.9895L43.7453 11.3043C43.9812 11.3358 44.1418 11.5301 44.1065 11.7414L44.0988 11.7879C44.0636 11.9992 43.8467 12.143 43.6107 12.1114Z" fill="#6D220D"/>
<path d="M42.6978 19.1235C42.9411 19.1235 47.8502 19.6277 47.8502 19.6277C47.8502 19.6277 47.0296 21.9991 45.0975 21.8239C43.9859 21.7214 43.337 20.7386 43.0031 19.9866C42.7884 19.5081 42.7025 19.1235 42.7025 19.1235H42.6978Z" fill="#6D220D"/>
<path d="M43.0649 19.1536L43.1317 19.9269L47.206 20.3969L47.435 19.5894L43.0649 19.1536Z" fill="white"/>
<path d="M15.8762 32.7066L23.9674 33.2834C25.2746 33.591 26.0427 34.7276 25.6754 35.8171L25.537 36.2316C25.1697 37.3168 23.7957 37.9578 22.4885 37.6501L15.4564 36.0308C14.1492 35.7231 14.5738 32.4032 15.881 32.7066H15.8762Z" fill="#DC8571"/>
<path d="M19.0154 30.5489C19.5068 30.1857 20.2701 30.2199 20.7043 30.6301L23.9627 33.6722C24.4016 34.0824 24.3539 34.7105 23.8625 35.0737C23.3711 35.4369 22.6126 35.4027 22.1737 34.9925L18.9152 31.9503C18.4763 31.5402 18.524 30.9121 19.0154 30.5489Z" fill="#DC8571"/>
<path d="M24.1108 34.5054C22.732 35.4027 20.8046 36.2743 20.9716 37.3938L23.1471 52.0791C23.314 53.2028 24.5735 53.3866 25.9523 52.4893L26.582 52.0791C27.9608 51.1818 28.9483 49.5326 28.7861 48.4088L26.854 35.3514C26.687 34.2277 25.4895 33.6081 24.1155 34.5011L24.1108 34.5054Z" fill="#223F4F"/>
<path d="M16.4298 36.0093C16.9832 35.77 17.2122 35.1676 16.945 34.6762L14.4785 30.1343C14.2113 29.6387 13.5387 29.4336 12.99 29.6729C12.4366 29.9121 12.2076 30.5146 12.4748 31.006L14.9413 35.5479C15.2084 36.0435 15.8811 36.2486 16.4298 36.0093Z" fill="#DC8571"/>
<path d="M56.2801 23.439L59.3048 26.165C59.4193 26.3872 60.4402 26.1308 61.5804 25.5924L62.0146 25.3873C63.1548 24.8533 63.7511 23.7594 63.3456 22.9647L61.1844 18.6749C60.7789 17.8802 55.8746 22.6357 56.2849 23.4347L56.2801 23.439Z" fill="#FF9F86"/>
<path d="M59.9725 16.9445C59.3857 16.9872 58.9372 17.3803 58.9754 17.8162L59.3809 22.7469C59.4191 23.1827 59.9248 23.5031 60.5116 23.4561C61.0984 23.4134 61.5469 23.0203 61.5087 22.5845L61.1032 17.6538C61.065 17.218 60.5593 16.8975 59.9725 16.9445Z" fill="#FF9F86"/>
<path d="M61.4565 24.0029C62.8734 23.3321 64.7292 22.4306 65.5307 24.0029L75.1247 42.6107C75.931 44.183 75.4301 46.016 74.0179 46.6911L73.3691 46.9987C71.9522 47.6696 70.1345 46.9346 69.333 45.3623L59.9632 27.0793C59.1569 25.5069 60.0443 24.6738 61.4565 24.0029Z" fill="#223F4F"/>
<path d="M56.5091 22.9006L52.2869 23.3279L52.0198 22.9647L55.7362 12.9067L60.5308 12.7444L60.9984 13.005L56.5091 22.9006Z" fill="#AED5FF"/>
<path d="M57.3344 22.986L52.2869 23.3278L55.989 13.2142L60.9983 13.0049L57.3344 22.986Z" fill="#223F4F"/>
<path d="M59.09 23.9943L59.2093 23.8276C59.4812 23.4474 59.3428 22.9475 58.9135 22.7125L55.6503 20.9393C55.2161 20.7043 54.6436 20.8196 54.3717 21.1999L54.2524 21.3666C53.9805 21.7468 54.1188 22.2467 54.5482 22.4817L57.8114 24.2549C58.2456 24.4899 58.8181 24.3746 59.09 23.9943Z" fill="#FF9F86"/>
<path d="M60.5929 22.9304C60.8934 22.5074 60.6978 21.9178 60.154 21.623L55.1637 18.9055C54.6199 18.6107 53.9281 18.7132 53.6275 19.1362C53.327 19.5592 53.5226 20.1489 54.0665 20.4437L59.0567 23.1611C59.6006 23.456 60.2923 23.3534 60.5929 22.9304Z" fill="#FF9F86"/>
<path d="M60.6215 21.8795C61.0079 21.5121 60.9029 20.8754 60.3877 20.4695L55.6789 16.7394C55.1684 16.3335 54.4338 16.3036 54.0473 16.6711C53.6609 17.0385 53.7658 17.6752 54.2811 18.0811L58.9898 21.8111C59.5003 22.2171 60.235 22.247 60.6215 21.8795Z" fill="#FF9F86"/>
<path d="M61.2511 21.1018C61.6709 20.76 61.6375 20.1362 61.1843 19.7089L56.9956 15.7908C56.5423 15.3635 55.8267 15.2952 55.4069 15.6327C54.9871 15.9745 55.0205 16.5984 55.4737 17.0256L59.6624 20.9437C60.1157 21.371 60.8313 21.4394 61.2511 21.1018Z" fill="#FF9F86"/>
<path d="M58.6845 15.2653L57.7065 15.3123C57.5013 15.3208 57.3296 15.1798 57.3296 14.9961C57.3296 14.8124 57.4966 14.6543 57.7065 14.6458L58.6845 14.5988C58.8896 14.5902 59.0614 14.7312 59.0614 14.9149C59.0614 15.0987 58.8944 15.2568 58.6845 15.2653Z" fill="#AED5FF"/>
<defs>
<filter id="filter0_f_14094_4096" x="351.916" y="91.4758" width="16.635" height="22.4116" filterUnits="userSpaceOnUse" color-interpolation-filters="sRGB">
<feFlood flood-opacity="0" result="BackgroundImageFix"/>
<feBlend mode="normal" in="SourceGraphic" in2="BackgroundImageFix" result="shape"/>
<feGaussianBlur stdDeviation="2" result="effect1_foregroundBlur_14094_4096"/>
</filter>
<linearGradient id="paint0_linear_14094_4096" x1="418.092" y1="133.936" x2="44.1575" y2="24.3744" gradientUnits="userSpaceOnUse">
<stop offset="0.0137156" stop-color="#FB6C20"/>
<stop offset="0.0138156" stop-color="#FC5D19"/>
<stop offset="1" stop-color="#FF2200"/>
</linearGradient>
<radialGradient id="paint1_radial_14094_4096" cx="0" cy="0" r="1" gradientUnits="userSpaceOnUse" gradientTransform="translate(165.555 107.834) rotate(56.9572) scale(61.9106 76.0821)">
<stop stop-color="#FF0000"/>
<stop offset="1" stop-color="#FB6C20" stop-opacity="0"/>
</radialGradient>
<radialGradient id="paint2_radial_14094_4096" cx="0" cy="0" r="1" gradientUnits="userSpaceOnUse" gradientTransform="translate(303.955 115.173) rotate(-90) scale(65.9833 82.3211)">
<stop stop-color="#FFC400"/>
<stop offset="0.548077" stop-color="#FB6C20" stop-opacity="0"/>
</radialGradient>
</defs>
</svg>
